%TF.GenerationSoftware,KiCad,Pcbnew,7.0.5*%
%TF.CreationDate,2023-06-14T14:40:25+08:00*%
%TF.ProjectId,Macropad,4d616372-6f70-4616-942e-6b696361645f,rev?*%
%TF.SameCoordinates,Original*%
%TF.FileFunction,Copper,L2,Bot*%
%TF.FilePolarity,Positive*%
%FSLAX46Y46*%
G04 Gerber Fmt 4.6, Leading zero omitted, Abs format (unit mm)*
G04 Created by KiCad (PCBNEW 7.0.5) date 2023-06-14 14:40:25*
%MOMM*%
%LPD*%
G01*
G04 APERTURE LIST*
G04 Aperture macros list*
%AMRoundRect*
0 Rectangle with rounded corners*
0 $1 Rounding radius*
0 $2 $3 $4 $5 $6 $7 $8 $9 X,Y pos of 4 corners*
0 Add a 4 corners polygon primitive as box body*
4,1,4,$2,$3,$4,$5,$6,$7,$8,$9,$2,$3,0*
0 Add four circle primitives for the rounded corners*
1,1,$1+$1,$2,$3*
1,1,$1+$1,$4,$5*
1,1,$1+$1,$6,$7*
1,1,$1+$1,$8,$9*
0 Add four rect primitives between the rounded corners*
20,1,$1+$1,$2,$3,$4,$5,0*
20,1,$1+$1,$4,$5,$6,$7,0*
20,1,$1+$1,$6,$7,$8,$9,0*
20,1,$1+$1,$8,$9,$2,$3,0*%
G04 Aperture macros list end*
%TA.AperFunction,ComponentPad*%
%ADD10R,1.752600X1.752600*%
%TD*%
%TA.AperFunction,ComponentPad*%
%ADD11C,1.752600*%
%TD*%
%TA.AperFunction,ComponentPad*%
%ADD12C,3.300000*%
%TD*%
%TA.AperFunction,SMDPad,CuDef*%
%ADD13R,1.650000X2.500000*%
%TD*%
%TA.AperFunction,SMDPad,CuDef*%
%ADD14RoundRect,0.250000X1.025000X1.000000X-1.025000X1.000000X-1.025000X-1.000000X1.025000X-1.000000X0*%
%TD*%
%TA.AperFunction,Conductor*%
%ADD15C,0.250000*%
%TD*%
G04 APERTURE END LIST*
D10*
%TO.P,U1,1,TX0/PD3*%
%TO.N,SW3*%
X217805000Y-60642500D03*
D11*
%TO.P,U1,2,RX1/PD2*%
%TO.N,SW2*%
X217805000Y-63182500D03*
%TO.P,U1,3,GND*%
%TO.N,GND*%
X217805000Y-65722500D03*
%TO.P,U1,4,GND*%
X217805000Y-68262500D03*
%TO.P,U1,5,2/PD1*%
%TO.N,SW1*%
X217805000Y-70802500D03*
%TO.P,U1,6,3/PD0*%
%TO.N,SW4*%
X217805000Y-73342500D03*
%TO.P,U1,7,4/PD4*%
%TO.N,SW5*%
X217805000Y-75882500D03*
%TO.P,U1,8,5/PC6*%
%TO.N,SW6*%
X217805000Y-78422500D03*
%TO.P,U1,9,6/PD7*%
%TO.N,SW7*%
X217805000Y-80962500D03*
%TO.P,U1,10,7/PE6*%
%TO.N,SW8*%
X217805000Y-83502500D03*
%TO.P,U1,11,8/PB4*%
%TO.N,SW9*%
X217805000Y-86042500D03*
%TO.P,U1,12,9/PB5*%
%TO.N,SW10*%
X217805000Y-88582500D03*
%TO.P,U1,13,10/PB6*%
%TO.N,unconnected-(U1-10{slash}PB6-Pad13)*%
X233045000Y-88582500D03*
%TO.P,U1,14,16/PB2*%
%TO.N,unconnected-(U1-16{slash}PB2-Pad14)*%
X233045000Y-86042500D03*
%TO.P,U1,15,14/PB3*%
%TO.N,unconnected-(U1-14{slash}PB3-Pad15)*%
X233045000Y-83502500D03*
%TO.P,U1,16,15/PB1*%
%TO.N,unconnected-(U1-15{slash}PB1-Pad16)*%
X233045000Y-80962500D03*
%TO.P,U1,17,A0/PF7*%
%TO.N,unconnected-(U1-A0{slash}PF7-Pad17)*%
X233045000Y-78422500D03*
%TO.P,U1,18,A1/PF6*%
%TO.N,unconnected-(U1-A1{slash}PF6-Pad18)*%
X233045000Y-75882500D03*
%TO.P,U1,19,A2/PF5*%
%TO.N,unconnected-(U1-A2{slash}PF5-Pad19)*%
X233045000Y-73342500D03*
%TO.P,U1,20,A3/PF4*%
%TO.N,unconnected-(U1-A3{slash}PF4-Pad20)*%
X233045000Y-70802500D03*
%TO.P,U1,21,VCC*%
%TO.N,unconnected-(U1-VCC-Pad21)*%
X233045000Y-68262500D03*
%TO.P,U1,22,RST*%
%TO.N,unconnected-(U1-RST-Pad22)*%
X233045000Y-65722500D03*
%TO.P,U1,23,GND*%
%TO.N,GND*%
X233045000Y-63182500D03*
%TO.P,U1,24,RAW*%
%TO.N,unconnected-(U1-RAW-Pad24)*%
X233045000Y-60642500D03*
%TD*%
D12*
%TO.P,MX10,1,1*%
%TO.N,SW10*%
X221615000Y-100647500D03*
D13*
X219790000Y-100647500D03*
D14*
X218065000Y-100647500D03*
%TO.P,MX10,2,2*%
%TO.N,GND*%
X231515000Y-98107500D03*
D13*
X229765000Y-98107500D03*
D12*
X227965000Y-98107500D03*
%TD*%
%TO.P,MX3,1,1*%
%TO.N,SW3*%
X202565000Y-62547500D03*
D13*
X200740000Y-62547500D03*
D14*
X199015000Y-62547500D03*
%TO.P,MX3,2,2*%
%TO.N,GND*%
X212465000Y-60007500D03*
D13*
X210715000Y-60007500D03*
D12*
X208915000Y-60007500D03*
%TD*%
%TO.P,MX9,1,1*%
%TO.N,SW9*%
X202565000Y-100647500D03*
D13*
X200740000Y-100647500D03*
D14*
X199015000Y-100647500D03*
%TO.P,MX9,2,2*%
%TO.N,GND*%
X212465000Y-98107500D03*
D13*
X210715000Y-98107500D03*
D12*
X208915000Y-98107500D03*
%TD*%
%TO.P,MX4,1,1*%
%TO.N,SW4*%
X164465000Y-81597500D03*
D13*
X162640000Y-81597500D03*
D14*
X160915000Y-81597500D03*
%TO.P,MX4,2,2*%
%TO.N,GND*%
X174365000Y-79057500D03*
D13*
X172615000Y-79057500D03*
D12*
X170815000Y-79057500D03*
%TD*%
%TO.P,MX5,1,1*%
%TO.N,SW5*%
X183515000Y-81597500D03*
D13*
X181690000Y-81597500D03*
D14*
X179965000Y-81597500D03*
%TO.P,MX5,2,2*%
%TO.N,GND*%
X193415000Y-79057500D03*
D13*
X191665000Y-79057500D03*
D12*
X189865000Y-79057500D03*
%TD*%
%TO.P,MX2,1,1*%
%TO.N,SW2*%
X183515000Y-62547500D03*
D13*
X181690000Y-62547500D03*
D14*
X179965000Y-62547500D03*
%TO.P,MX2,2,2*%
%TO.N,GND*%
X193415000Y-60007500D03*
D13*
X191665000Y-60007500D03*
D12*
X189865000Y-60007500D03*
%TD*%
%TO.P,MX8,1,1*%
%TO.N,SW8*%
X183515000Y-100647500D03*
D13*
X181690000Y-100647500D03*
D14*
X179965000Y-100647500D03*
%TO.P,MX8,2,2*%
%TO.N,GND*%
X193415000Y-98107500D03*
D13*
X191665000Y-98107500D03*
D12*
X189865000Y-98107500D03*
%TD*%
%TO.P,MX7,1,1*%
%TO.N,SW7*%
X164465000Y-100647500D03*
D13*
X162640000Y-100647500D03*
D14*
X160915000Y-100647500D03*
%TO.P,MX7,2,2*%
%TO.N,GND*%
X174365000Y-98107500D03*
D13*
X172615000Y-98107500D03*
D12*
X170815000Y-98107500D03*
%TD*%
%TO.P,MX1,1,1*%
%TO.N,SW1*%
X164465000Y-62547500D03*
D13*
X162640000Y-62547500D03*
D14*
X160915000Y-62547500D03*
%TO.P,MX1,2,2*%
%TO.N,GND*%
X174365000Y-60007500D03*
D13*
X172615000Y-60007500D03*
D12*
X170815000Y-60007500D03*
%TD*%
%TO.P,MX6,1,1*%
%TO.N,SW6*%
X202565000Y-81597500D03*
D13*
X200740000Y-81597500D03*
D14*
X199015000Y-81597500D03*
%TO.P,MX6,2,2*%
%TO.N,GND*%
X212465000Y-79057500D03*
D13*
X210715000Y-79057500D03*
D12*
X208915000Y-79057500D03*
%TD*%
D15*
%TO.N,SW1*%
X161131250Y-62763750D02*
X160915000Y-62547500D01*
X161131250Y-68262500D02*
X161131250Y-62763750D01*
X163671250Y-70802500D02*
X161131250Y-68262500D01*
X217805000Y-70802500D02*
X163671250Y-70802500D01*
%TO.N,SW2*%
X179965000Y-62547500D02*
X179387500Y-63125000D01*
X180181250Y-69056250D02*
X211931250Y-69056250D01*
X179387500Y-63125000D02*
X179387500Y-68262500D01*
X179387500Y-68262500D02*
X180181250Y-69056250D01*
X211931250Y-69056250D02*
X217805000Y-63182500D01*
%TO.N,SW3*%
X213518750Y-57150000D02*
X217011250Y-60642500D01*
X199015000Y-58160000D02*
X200025000Y-57150000D01*
X199015000Y-62547500D02*
X199015000Y-58160000D01*
X217011250Y-60642500D02*
X217805000Y-60642500D01*
X200025000Y-57150000D02*
X213518750Y-57150000D01*
%TO.N,SW4*%
X161131250Y-81381250D02*
X160915000Y-81597500D01*
X161131250Y-76200000D02*
X161131250Y-81381250D01*
X163988750Y-73342500D02*
X161131250Y-76200000D01*
X217805000Y-73342500D02*
X163988750Y-73342500D01*
%TO.N,SW5*%
X179965000Y-81597500D02*
X179965000Y-78003750D01*
X216535000Y-74612500D02*
X217805000Y-75882500D01*
X183356250Y-74612500D02*
X216535000Y-74612500D01*
X179965000Y-78003750D02*
X183356250Y-74612500D01*
%TO.N,SW6*%
X199231250Y-81381250D02*
X199231250Y-76200000D01*
X199015000Y-81597500D02*
X199231250Y-81381250D01*
X215930725Y-77787500D02*
X216565725Y-78422500D01*
X216565725Y-78422500D02*
X217805000Y-78422500D01*
X199231250Y-76200000D02*
X200025000Y-75406250D01*
X200025000Y-75406250D02*
X213518750Y-75406250D01*
X213518750Y-75406250D02*
X215900000Y-77787500D01*
X215900000Y-77787500D02*
X215930725Y-77787500D01*
%TO.N,SW7*%
X212725000Y-92075000D02*
X214312500Y-90487500D01*
X160915000Y-96260000D02*
X165100000Y-92075000D01*
X214312500Y-90487500D02*
X214312500Y-81756250D01*
X160915000Y-100647500D02*
X160915000Y-96260000D01*
X165100000Y-92075000D02*
X212725000Y-92075000D01*
X215106250Y-80962500D02*
X217805000Y-80962500D01*
X214312500Y-81756250D02*
X215106250Y-80962500D01*
%TO.N,SW8*%
X212725000Y-92868750D02*
X180975000Y-92868750D01*
X217805000Y-83502500D02*
X215741250Y-83502500D01*
X215106250Y-84137500D02*
X215106250Y-90487500D01*
X215741250Y-83502500D02*
X215106250Y-84137500D01*
X179387500Y-100070000D02*
X179965000Y-100647500D01*
X179387500Y-94456250D02*
X179387500Y-100070000D01*
X215106250Y-90487500D02*
X212725000Y-92868750D01*
X180975000Y-92868750D02*
X179387500Y-94456250D01*
%TO.N,SW9*%
X212725000Y-93662500D02*
X201612500Y-93662500D01*
X201612500Y-93662500D02*
X199015000Y-96260000D01*
X215900000Y-86518750D02*
X215900000Y-90487500D01*
X216376250Y-86042500D02*
X215900000Y-86518750D01*
X215900000Y-90487500D02*
X212725000Y-93662500D01*
X199015000Y-96260000D02*
X199015000Y-100647500D01*
X217805000Y-86042500D02*
X216376250Y-86042500D01*
%TO.N,SW10*%
X217805000Y-100387500D02*
X218065000Y-100647500D01*
X217805000Y-88582500D02*
X217805000Y-100387500D01*
%TD*%
%TA.AperFunction,Conductor*%
%TO.N,GND*%
G36*
X234952207Y-55563157D02*
G01*
X235019618Y-55567979D01*
X235179747Y-55580581D01*
X235188041Y-55581804D01*
X235286526Y-55603228D01*
X235287567Y-55603466D01*
X235412113Y-55633367D01*
X235419301Y-55635561D01*
X235519448Y-55672914D01*
X235521470Y-55673710D01*
X235604279Y-55708010D01*
X235633965Y-55720307D01*
X235639953Y-55723171D01*
X235735887Y-55775556D01*
X235738476Y-55777054D01*
X235839034Y-55838676D01*
X235840340Y-55839477D01*
X235845102Y-55842708D01*
X235888536Y-55875222D01*
X235933411Y-55908814D01*
X235936494Y-55911281D01*
X236026651Y-55988282D01*
X236030227Y-55991588D01*
X236108410Y-56069771D01*
X236111716Y-56073347D01*
X236188705Y-56163489D01*
X236191195Y-56166601D01*
X236257290Y-56254896D01*
X236260521Y-56259658D01*
X236288294Y-56304978D01*
X236322929Y-56361498D01*
X236324457Y-56364138D01*
X236344822Y-56401432D01*
X236376825Y-56460042D01*
X236379691Y-56466033D01*
X236426278Y-56578503D01*
X236427089Y-56580564D01*
X236464435Y-56680693D01*
X236466633Y-56687893D01*
X236496504Y-56812311D01*
X236496800Y-56813606D01*
X236518191Y-56911938D01*
X236519418Y-56920262D01*
X236532023Y-57080425D01*
X236536842Y-57147790D01*
X236537000Y-57152215D01*
X236537000Y-111122784D01*
X236536842Y-111127209D01*
X236532023Y-111194573D01*
X236519418Y-111354736D01*
X236518191Y-111363060D01*
X236496800Y-111461392D01*
X236496504Y-111462687D01*
X236466633Y-111587105D01*
X236464435Y-111594305D01*
X236427089Y-111694434D01*
X236426278Y-111696495D01*
X236379691Y-111808965D01*
X236376825Y-111814956D01*
X236324466Y-111910846D01*
X236322913Y-111913529D01*
X236260521Y-112015340D01*
X236257290Y-112020102D01*
X236191195Y-112108397D01*
X236188705Y-112111509D01*
X236111716Y-112201651D01*
X236108410Y-112205227D01*
X236030227Y-112283410D01*
X236026651Y-112286716D01*
X235936509Y-112363705D01*
X235933397Y-112366195D01*
X235845102Y-112432290D01*
X235840340Y-112435521D01*
X235738529Y-112497913D01*
X235735846Y-112499466D01*
X235639956Y-112551825D01*
X235633965Y-112554691D01*
X235521495Y-112601278D01*
X235519434Y-112602089D01*
X235419305Y-112639435D01*
X235412105Y-112641633D01*
X235287687Y-112671504D01*
X235286392Y-112671800D01*
X235188060Y-112693191D01*
X235179736Y-112694418D01*
X235019573Y-112707023D01*
X234955432Y-112711611D01*
X234952208Y-112711842D01*
X234947785Y-112712000D01*
X160339715Y-112712000D01*
X160335291Y-112711842D01*
X160331639Y-112711580D01*
X160267925Y-112707023D01*
X160107762Y-112694418D01*
X160099438Y-112693191D01*
X160001106Y-112671800D01*
X159999811Y-112671504D01*
X159875393Y-112641633D01*
X159868193Y-112639435D01*
X159768064Y-112602089D01*
X159766003Y-112601278D01*
X159653533Y-112554691D01*
X159647542Y-112551825D01*
X159588932Y-112519822D01*
X159551638Y-112499457D01*
X159548998Y-112497929D01*
X159492478Y-112463294D01*
X159447158Y-112435521D01*
X159442396Y-112432290D01*
X159354101Y-112366195D01*
X159350997Y-112363711D01*
X159260847Y-112286716D01*
X159257271Y-112283410D01*
X159179088Y-112205227D01*
X159175782Y-112201651D01*
X159098781Y-112111494D01*
X159096314Y-112108411D01*
X159062722Y-112063536D01*
X159030208Y-112020102D01*
X159026977Y-112015340D01*
X159026176Y-112014034D01*
X158964554Y-111913476D01*
X158963056Y-111910887D01*
X158910671Y-111814953D01*
X158907807Y-111808965D01*
X158895510Y-111779279D01*
X158861210Y-111696470D01*
X158860409Y-111694434D01*
X158855535Y-111681367D01*
X158823061Y-111594301D01*
X158820867Y-111587113D01*
X158790966Y-111462567D01*
X158790728Y-111461526D01*
X158769304Y-111363041D01*
X158768081Y-111354747D01*
X158755476Y-111194573D01*
X158750657Y-111127208D01*
X158750500Y-111122786D01*
X158750500Y-101697501D01*
X159139500Y-101697501D01*
X159139501Y-101697518D01*
X159150000Y-101800296D01*
X159150001Y-101800299D01*
X159205185Y-101966831D01*
X159205187Y-101966836D01*
X159230470Y-102007826D01*
X159297288Y-102116156D01*
X159421344Y-102240212D01*
X159570666Y-102332314D01*
X159737203Y-102387499D01*
X159839991Y-102398000D01*
X161767118Y-102397999D01*
X161767127Y-102398000D01*
X162136428Y-102397999D01*
X162203466Y-102417683D01*
X162249221Y-102470487D01*
X162259165Y-102539646D01*
X162243814Y-102583999D01*
X162166553Y-102717819D01*
X162096251Y-102920942D01*
X162096250Y-102920944D01*
X162065661Y-103133700D01*
X162065660Y-103133702D01*
X162075887Y-103348401D01*
X162126563Y-103557291D01*
X162126565Y-103557295D01*
X162128553Y-103561649D01*
X162215854Y-103752810D01*
X162340534Y-103927899D01*
X162340535Y-103927900D01*
X162340540Y-103927906D01*
X162496094Y-104076225D01*
X162496096Y-104076226D01*
X162496097Y-104076227D01*
X162676920Y-104192435D01*
X162876468Y-104272322D01*
X162981998Y-104292660D01*
X163087527Y-104313000D01*
X163087528Y-104313000D01*
X163248612Y-104313000D01*
X163248618Y-104313000D01*
X163408971Y-104297688D01*
X163615209Y-104237131D01*
X163806259Y-104138638D01*
X163975217Y-104005768D01*
X164115976Y-103843324D01*
X164223448Y-103657177D01*
X164293750Y-103454054D01*
X164324339Y-103241297D01*
X164314112Y-103026596D01*
X164295829Y-102951232D01*
X164299154Y-102881443D01*
X164339682Y-102824529D01*
X164404547Y-102798561D01*
X164416334Y-102798000D01*
X164612099Y-102798000D01*
X164643520Y-102793680D01*
X164903555Y-102757940D01*
X165186841Y-102678567D01*
X165456682Y-102561359D01*
X165708049Y-102408499D01*
X165936260Y-102222835D01*
X166026715Y-102125980D01*
X166086856Y-102090423D01*
X166156677Y-102093025D01*
X166214008Y-102132962D01*
X166240646Y-102197555D01*
X166229816Y-102262814D01*
X166180433Y-102369232D01*
X166175882Y-102379040D01*
X166173258Y-102387499D01*
X166086854Y-102666035D01*
X166036874Y-102962342D01*
X166026833Y-103262667D01*
X166056910Y-103561642D01*
X166056911Y-103561649D01*
X166126568Y-103853941D01*
X166126571Y-103853953D01*
X166234566Y-104134353D01*
X166234573Y-104134368D01*
X166378979Y-104397875D01*
X166378983Y-104397881D01*
X166470296Y-104521812D01*
X166557223Y-104639790D01*
X166766121Y-104855789D01*
X167001946Y-105042018D01*
X167260487Y-105195152D01*
X167537133Y-105312460D01*
X167537136Y-105312460D01*
X167537139Y-105312462D01*
X167682039Y-105352153D01*
X167826946Y-105391848D01*
X168124755Y-105431900D01*
X168124760Y-105431900D01*
X168350041Y-105431900D01*
X168513513Y-105420955D01*
X168574819Y-105416852D01*
X168869287Y-105356999D01*
X169153151Y-105258431D01*
X169421343Y-105122907D01*
X169669080Y-104952846D01*
X169891939Y-104751282D01*
X170085943Y-104521812D01*
X170247631Y-104268532D01*
X170374118Y-103995960D01*
X170463146Y-103708962D01*
X170513126Y-103412658D01*
X170522453Y-103133702D01*
X172225660Y-103133702D01*
X172235887Y-103348401D01*
X172286563Y-103557291D01*
X172286565Y-103557295D01*
X172288553Y-103561649D01*
X172375854Y-103752810D01*
X172500534Y-103927899D01*
X172500535Y-103927900D01*
X172500540Y-103927906D01*
X172656094Y-104076225D01*
X172656096Y-104076226D01*
X172656097Y-104076227D01*
X172836920Y-104192435D01*
X173036468Y-104272322D01*
X173141998Y-104292660D01*
X173247527Y-104313000D01*
X173247528Y-104313000D01*
X173408612Y-104313000D01*
X173408618Y-104313000D01*
X173568971Y-104297688D01*
X173775209Y-104237131D01*
X173966259Y-104138638D01*
X174135217Y-104005768D01*
X174275976Y-103843324D01*
X174383448Y-103657177D01*
X174453750Y-103454054D01*
X174484339Y-103241297D01*
X174474112Y-103026596D01*
X174423437Y-102817710D01*
X174334146Y-102622190D01*
X174209466Y-102447101D01*
X174209464Y-102447099D01*
X174209459Y-102447093D01*
X174053905Y-102298774D01*
X173873080Y-102182565D01*
X173673530Y-102102677D01*
X173462473Y-102062000D01*
X173462472Y-102062000D01*
X173301382Y-102062000D01*
X173141028Y-102077312D01*
X173141029Y-102077312D01*
X173141025Y-102077313D01*
X172934793Y-102137868D01*
X172743736Y-102236364D01*
X172574785Y-102369229D01*
X172574782Y-102369233D01*
X172434021Y-102531678D01*
X172326553Y-102717819D01*
X172256251Y-102920942D01*
X172256250Y-102920944D01*
X172225661Y-103133700D01*
X172225660Y-103133702D01*
X170522453Y-103133702D01*
X170523167Y-103112336D01*
X170493089Y-102813355D01*
X170489563Y-102798561D01*
X170470322Y-102717819D01*
X170423430Y-102521051D01*
X170315431Y-102240640D01*
X170171021Y-101977125D01*
X169992777Y-101735210D01*
X169783879Y-101519211D01*
X169783872Y-101519205D01*
X169548055Y-101332983D01*
X169548056Y-101332983D01*
X169548054Y-101332982D01*
X169289513Y-101179848D01*
X169012867Y-101062540D01*
X169012860Y-101062537D01*
X168723059Y-100983153D01*
X168723056Y-100983152D01*
X168723054Y-100983152D01*
X168425245Y-100943100D01*
X168199967Y-100943100D01*
X168199959Y-100943100D01*
X167975183Y-100958147D01*
X167975174Y-100958149D01*
X167680710Y-101018001D01*
X167396847Y-101116569D01*
X167396844Y-101116571D01*
X167128662Y-101252089D01*
X166880918Y-101422155D01*
X166658062Y-101623716D01*
X166658056Y-101623722D01*
X166652901Y-101629820D01*
X166594584Y-101668304D01*
X166524720Y-101669149D01*
X166465489Y-101632089D01*
X166435697Y-101568889D01*
X166441372Y-101508233D01*
X166471964Y-101422155D01*
X166540592Y-101229054D01*
X166540592Y-101229049D01*
X166540595Y-101229043D01*
X166584449Y-101018001D01*
X166600448Y-100941011D01*
X166620525Y-100647500D01*
X166600448Y-100353989D01*
X166572075Y-100217449D01*
X166540595Y-100065956D01*
X166540590Y-100065940D01*
X166472926Y-99875552D01*
X166442072Y-99788736D01*
X166306722Y-99527524D01*
X166306721Y-99527522D01*
X166306717Y-99527516D01*
X166137067Y-99287176D01*
X166070130Y-99215504D01*
X165936260Y-99072165D01*
X165936258Y-99072164D01*
X165936256Y-99072161D01*
X165720954Y-98897000D01*
X165708049Y-98886501D01*
X165708047Y-98886500D01*
X165708045Y-98886498D01*
X165456680Y-98733639D01*
X165456675Y-98733637D01*
X165186845Y-98616434D01*
X164903560Y-98537061D01*
X164903556Y-98537060D01*
X164903555Y-98537060D01*
X164757826Y-98517029D01*
X164612099Y-98497000D01*
X164612098Y-98497000D01*
X164317902Y-98497000D01*
X164317901Y-98497000D01*
X164026445Y-98537060D01*
X164026439Y-98537061D01*
X163743154Y-98616434D01*
X163473324Y-98733637D01*
X163473319Y-98733639D01*
X163234370Y-98878948D01*
X163169942Y-98897000D01*
X161664500Y-98897000D01*
X161597461Y-98877315D01*
X161551706Y-98824511D01*
X161540500Y-98773000D01*
X161540500Y-98107499D01*
X168659976Y-98107499D01*
X168680047Y-98400936D01*
X168739890Y-98688921D01*
X168739891Y-98688924D01*
X168838386Y-98966060D01*
X168838385Y-98966060D01*
X168973706Y-99227216D01*
X169125991Y-99442953D01*
X169591388Y-98977555D01*
X169707632Y-99126904D01*
X169890523Y-99295268D01*
X169945116Y-99330935D01*
X169481658Y-99794394D01*
X169572240Y-99868090D01*
X169572246Y-99868094D01*
X169823550Y-100020915D01*
X170093322Y-100138093D01*
X170376541Y-100217448D01*
X170376547Y-100217449D01*
X170667935Y-100257500D01*
X170962065Y-100257500D01*
X171253452Y-100217449D01*
X171253458Y-100217448D01*
X171536677Y-100138093D01*
X171806449Y-100020915D01*
X172045489Y-99875552D01*
X172109917Y-99857500D01*
X172364999Y-99857500D01*
X172364999Y-98357500D01*
X172865000Y-98357500D01*
X172865000Y-99857500D01*
X173539182Y-99857500D01*
X173539191Y-99857499D01*
X174115000Y-99857499D01*
X174115000Y-98357500D01*
X174615000Y-98357500D01*
X174615000Y-99857499D01*
X175439972Y-99857499D01*
X175439986Y-99857498D01*
X175542697Y-99847005D01*
X175709119Y-99791858D01*
X175709124Y-99791856D01*
X175858345Y-99699815D01*
X175982315Y-99575845D01*
X176074356Y-99426624D01*
X176074358Y-99426619D01*
X176129505Y-99260197D01*
X176129506Y-99260190D01*
X176139999Y-99157486D01*
X176140000Y-99157473D01*
X176140000Y-98357500D01*
X174615000Y-98357500D01*
X174115000Y-98357500D01*
X172865000Y-98357500D01*
X172364999Y-98357500D01*
X172365000Y-96357500D01*
X172865000Y-96357500D01*
X172865000Y-97857500D01*
X174115000Y-97857500D01*
X174115000Y-96357500D01*
X174615000Y-96357500D01*
X174615000Y-97857500D01*
X176139998Y-97857500D01*
X176139999Y-97057528D01*
X176139998Y-97057513D01*
X176129505Y-96954802D01*
X176074358Y-96788380D01*
X176074356Y-96788375D01*
X175982315Y-96639154D01*
X175858345Y-96515184D01*
X175709124Y-96423143D01*
X175709119Y-96423141D01*
X175542697Y-96367994D01*
X175542690Y-96367993D01*
X175439986Y-96357500D01*
X174615000Y-96357500D01*
X174115000Y-96357500D01*
X172865000Y-96357500D01*
X172365000Y-96357500D01*
X172109917Y-96357500D01*
X172045489Y-96339448D01*
X171806449Y-96194084D01*
X171536677Y-96076906D01*
X171253458Y-95997551D01*
X171253452Y-95997550D01*
X170962065Y-95957500D01*
X170667935Y-95957500D01*
X170376547Y-95997550D01*
X170376541Y-95997551D01*
X170093322Y-96076906D01*
X169823550Y-96194084D01*
X169572243Y-96346907D01*
X169481657Y-96420604D01*
X169945117Y-96884064D01*
X169890523Y-96919732D01*
X169707632Y-97088096D01*
X169591389Y-97237443D01*
X169125991Y-96772045D01*
X169125990Y-96772045D01*
X168973710Y-96987776D01*
X168973706Y-96987782D01*
X168838386Y-97248939D01*
X168739891Y-97526075D01*
X168739890Y-97526078D01*
X168680047Y-97814063D01*
X168659976Y-98107499D01*
X161540500Y-98107499D01*
X161540500Y-96570451D01*
X161560185Y-96503412D01*
X161576814Y-96482775D01*
X165322770Y-92736819D01*
X165384094Y-92703334D01*
X165410452Y-92700500D01*
X179959298Y-92700500D01*
X180026337Y-92720185D01*
X180072092Y-92772989D01*
X180082036Y-92842147D01*
X180053011Y-92905703D01*
X180046979Y-92912181D01*
X179003708Y-93955449D01*
X178991451Y-93965270D01*
X178991634Y-93965491D01*
X178985622Y-93970464D01*
X178938932Y-94020182D01*
X178937579Y-94021579D01*
X178917389Y-94041769D01*
X178917377Y-94041782D01*
X178913121Y-94047267D01*
X178909337Y-94051697D01*
X178877437Y-94085668D01*
X178877436Y-94085670D01*
X178867784Y-94103226D01*
X178857110Y-94119476D01*
X178844829Y-94135311D01*
X178844824Y-94135318D01*
X178826315Y-94178088D01*
X178823745Y-94183334D01*
X178801303Y-94224156D01*
X178796322Y-94243557D01*
X178790021Y-94261960D01*
X178782062Y-94280352D01*
X178782061Y-94280355D01*
X178774771Y-94326377D01*
X178773587Y-94332096D01*
X178762001Y-94377222D01*
X178762000Y-94377232D01*
X178762000Y-94397266D01*
X178760473Y-94416665D01*
X178757340Y-94436444D01*
X178757340Y-94436445D01*
X178761725Y-94482833D01*
X178762000Y-94488671D01*
X178762000Y-98826311D01*
X178742315Y-98893350D01*
X178689511Y-98939105D01*
X178677005Y-98944017D01*
X178620666Y-98962686D01*
X178471342Y-99054789D01*
X178347289Y-99178842D01*
X178255187Y-99328163D01*
X178255185Y-99328166D01*
X178255186Y-99328166D01*
X178200001Y-99494703D01*
X178200001Y-99494704D01*
X178200000Y-99494704D01*
X178189500Y-99597483D01*
X178189500Y-101697501D01*
X178189501Y-101697518D01*
X178200000Y-101800296D01*
X178200001Y-101800299D01*
X178255185Y-101966831D01*
X178255187Y-101966836D01*
X178280470Y-102007826D01*
X178347288Y-102116156D01*
X178471344Y-102240212D01*
X178620666Y-102332314D01*
X178787203Y-102387499D01*
X178889991Y-102398000D01*
X180817118Y-102397999D01*
X180817127Y-102398000D01*
X181186428Y-102397999D01*
X181253466Y-102417683D01*
X181299221Y-102470487D01*
X181309165Y-102539646D01*
X181293814Y-102583999D01*
X181216553Y-102717819D01*
X181146251Y-102920942D01*
X181146250Y-102920944D01*
X181115661Y-103133700D01*
X181115660Y-103133702D01*
X181125887Y-103348401D01*
X181176563Y-103557291D01*
X181176565Y-103557295D01*
X181178553Y-103561649D01*
X181265854Y-103752810D01*
X181390534Y-103927899D01*
X181390535Y-103927900D01*
X181390540Y-103927906D01*
X181546094Y-104076225D01*
X181546096Y-104076226D01*
X181546097Y-104076227D01*
X181726920Y-104192435D01*
X181926468Y-104272322D01*
X182031997Y-104292661D01*
X182137527Y-104313000D01*
X182137528Y-104313000D01*
X182298612Y-104313000D01*
X182298618Y-104313000D01*
X182458971Y-104297688D01*
X182665209Y-104237131D01*
X182856259Y-104138638D01*
X183025217Y-104005768D01*
X183165976Y-103843324D01*
X183273448Y-103657177D01*
X183343750Y-103454054D01*
X183374339Y-103241297D01*
X183364112Y-103026596D01*
X183345829Y-102951232D01*
X183349154Y-102881443D01*
X183389682Y-102824529D01*
X183454547Y-102798561D01*
X183466334Y-102798000D01*
X183662099Y-102798000D01*
X183693520Y-102793680D01*
X183953555Y-102757940D01*
X184236841Y-102678567D01*
X184506682Y-102561359D01*
X184758049Y-102408499D01*
X184986260Y-102222835D01*
X185076715Y-102125980D01*
X185136856Y-102090423D01*
X185206677Y-102093025D01*
X185264008Y-102132962D01*
X185290646Y-102197555D01*
X185279816Y-102262814D01*
X185230433Y-102369232D01*
X185225882Y-102379040D01*
X185223258Y-102387499D01*
X185136854Y-102666035D01*
X185086874Y-102962342D01*
X185076833Y-103262667D01*
X185106910Y-103561642D01*
X185106911Y-103561649D01*
X185176568Y-103853941D01*
X185176571Y-103853953D01*
X185284566Y-104134353D01*
X185284573Y-104134368D01*
X185428979Y-104397875D01*
X185428983Y-104397881D01*
X185520296Y-104521812D01*
X185607223Y-104639790D01*
X185816121Y-104855789D01*
X186051946Y-105042018D01*
X186310487Y-105195152D01*
X186587133Y-105312460D01*
X186587136Y-105312460D01*
X186587139Y-105312462D01*
X186732039Y-105352153D01*
X186876946Y-105391848D01*
X187174755Y-105431900D01*
X187174760Y-105431900D01*
X187400041Y-105431900D01*
X187563513Y-105420955D01*
X187624819Y-105416852D01*
X187919287Y-105356999D01*
X188203151Y-105258431D01*
X188471343Y-105122907D01*
X188719080Y-104952846D01*
X188941939Y-104751282D01*
X189135943Y-104521812D01*
X189297631Y-104268532D01*
X189424118Y-103995960D01*
X189513146Y-103708962D01*
X189563126Y-103412658D01*
X189572453Y-103133702D01*
X191275660Y-103133702D01*
X191285887Y-103348401D01*
X191336563Y-103557291D01*
X191336565Y-103557295D01*
X191338553Y-103561649D01*
X191425854Y-103752810D01*
X191550534Y-103927899D01*
X191550535Y-103927900D01*
X191550540Y-103927906D01*
X191706094Y-104076225D01*
X191706096Y-104076226D01*
X191706097Y-104076227D01*
X191886920Y-104192435D01*
X192086468Y-104272322D01*
X192191997Y-104292661D01*
X192297527Y-104313000D01*
X192297528Y-104313000D01*
X192458612Y-104313000D01*
X192458618Y-104313000D01*
X192618971Y-104297688D01*
X192825209Y-104237131D01*
X193016259Y-104138638D01*
X193185217Y-104005768D01*
X193325976Y-103843324D01*
X193433448Y-103657177D01*
X193503750Y-103454054D01*
X193534339Y-103241297D01*
X193524112Y-103026596D01*
X193473437Y-102817710D01*
X193384146Y-102622190D01*
X193259466Y-102447101D01*
X193259464Y-102447099D01*
X193259459Y-102447093D01*
X193103905Y-102298774D01*
X192923080Y-102182565D01*
X192723530Y-102102677D01*
X192512473Y-102062000D01*
X192512472Y-102062000D01*
X192351382Y-102062000D01*
X192191028Y-102077312D01*
X192191029Y-102077312D01*
X192191025Y-102077313D01*
X191984793Y-102137868D01*
X191793736Y-102236364D01*
X191624785Y-102369229D01*
X191624782Y-102369233D01*
X191484021Y-102531678D01*
X191376553Y-102717819D01*
X191306251Y-102920942D01*
X191306250Y-102920944D01*
X191275661Y-103133700D01*
X191275660Y-103133702D01*
X189572453Y-103133702D01*
X189573167Y-103112336D01*
X189543089Y-102813355D01*
X189539563Y-102798561D01*
X189520322Y-102717819D01*
X189473430Y-102521051D01*
X189365431Y-102240640D01*
X189221021Y-101977125D01*
X189042777Y-101735210D01*
X188833879Y-101519211D01*
X188833872Y-101519205D01*
X188598055Y-101332983D01*
X188598056Y-101332983D01*
X188598054Y-101332982D01*
X188339513Y-101179848D01*
X188062867Y-101062540D01*
X188062860Y-101062537D01*
X187773059Y-100983153D01*
X187773056Y-100983152D01*
X187773054Y-100983152D01*
X187475245Y-100943100D01*
X187249967Y-100943100D01*
X187249959Y-100943100D01*
X187025183Y-100958147D01*
X187025174Y-100958149D01*
X186730710Y-101018001D01*
X186446847Y-101116569D01*
X186446844Y-101116571D01*
X186178662Y-101252089D01*
X185930918Y-101422155D01*
X185708062Y-101623716D01*
X185708056Y-101623722D01*
X185702901Y-101629820D01*
X185644584Y-101668304D01*
X185574720Y-101669149D01*
X185515489Y-101632089D01*
X185485697Y-101568889D01*
X185491372Y-101508233D01*
X185521964Y-101422155D01*
X185590592Y-101229054D01*
X185590592Y-101229049D01*
X185590595Y-101229043D01*
X185634449Y-101018001D01*
X185650448Y-100941011D01*
X185670525Y-100647500D01*
X185650448Y-100353989D01*
X185622075Y-100217449D01*
X185590595Y-100065956D01*
X185590590Y-100065940D01*
X185522926Y-99875552D01*
X185492072Y-99788736D01*
X185356722Y-99527524D01*
X185356721Y-99527522D01*
X185356717Y-99527516D01*
X185187067Y-99287176D01*
X185120129Y-99215504D01*
X184986260Y-99072165D01*
X184986258Y-99072164D01*
X184986256Y-99072161D01*
X184770954Y-98897000D01*
X184758049Y-98886501D01*
X184758047Y-98886500D01*
X184758045Y-98886498D01*
X184506680Y-98733639D01*
X184506675Y-98733637D01*
X184236845Y-98616434D01*
X183953560Y-98537061D01*
X183953556Y-98537060D01*
X183953555Y-98537060D01*
X183807826Y-98517029D01*
X183662099Y-98497000D01*
X183662098Y-98497000D01*
X183367902Y-98497000D01*
X183367901Y-98497000D01*
X183076445Y-98537060D01*
X183076439Y-98537061D01*
X182793154Y-98616434D01*
X182523324Y-98733637D01*
X182523319Y-98733639D01*
X182284370Y-98878948D01*
X182219942Y-98897000D01*
X180137000Y-98897000D01*
X180069961Y-98877315D01*
X180024206Y-98824511D01*
X180013000Y-98773000D01*
X180013000Y-98107499D01*
X187709976Y-98107499D01*
X187730047Y-98400936D01*
X187789890Y-98688921D01*
X187789891Y-98688924D01*
X187888386Y-98966060D01*
X187888385Y-98966060D01*
X188023706Y-99227216D01*
X188175991Y-99442953D01*
X188641388Y-98977555D01*
X188757632Y-99126904D01*
X188940523Y-99295268D01*
X188995116Y-99330935D01*
X188531658Y-99794394D01*
X188622240Y-99868090D01*
X188622246Y-99868094D01*
X188873550Y-100020915D01*
X189143322Y-100138093D01*
X189426541Y-100217448D01*
X189426547Y-100217449D01*
X189717935Y-100257500D01*
X190012065Y-100257500D01*
X190303452Y-100217449D01*
X190303458Y-100217448D01*
X190586677Y-100138093D01*
X190856449Y-100020915D01*
X191095489Y-99875552D01*
X191159917Y-99857500D01*
X191415000Y-99857500D01*
X191415000Y-98357500D01*
X191915000Y-98357500D01*
X191915000Y-99857500D01*
X192589182Y-99857500D01*
X192589191Y-99857499D01*
X193164999Y-99857499D01*
X193165000Y-98357500D01*
X193665000Y-98357500D01*
X193665000Y-99857499D01*
X194489972Y-99857499D01*
X194489986Y-99857498D01*
X194592697Y-99847005D01*
X194759119Y-99791858D01*
X194759124Y-99791856D01*
X194908345Y-99699815D01*
X195032315Y-99575845D01*
X195124356Y-99426624D01*
X195124358Y-99426619D01*
X195179505Y-99260197D01*
X195179506Y-99260190D01*
X195189999Y-99157486D01*
X195190000Y-99157473D01*
X195190000Y-98357500D01*
X193665000Y-98357500D01*
X193165000Y-98357500D01*
X191915000Y-98357500D01*
X191415000Y-98357500D01*
X191415000Y-96357500D01*
X191915000Y-96357500D01*
X191915000Y-97857500D01*
X193164999Y-97857500D01*
X193165000Y-96357500D01*
X193665000Y-96357500D01*
X193665000Y-97857500D01*
X195189999Y-97857500D01*
X195189999Y-97057528D01*
X195189998Y-97057513D01*
X195179505Y-96954802D01*
X195124358Y-96788380D01*
X195124356Y-96788375D01*
X195032315Y-96639154D01*
X194908345Y-96515184D01*
X194759124Y-96423143D01*
X194759119Y-96423141D01*
X194592697Y-96367994D01*
X194592690Y-96367993D01*
X194489986Y-96357500D01*
X193665000Y-96357500D01*
X193165000Y-96357500D01*
X191915000Y-96357500D01*
X191415000Y-96357500D01*
X191159917Y-96357500D01*
X191095489Y-96339448D01*
X190856449Y-96194084D01*
X190586677Y-96076906D01*
X190303458Y-95997551D01*
X190303452Y-95997550D01*
X190012065Y-95957500D01*
X189717935Y-95957500D01*
X189426547Y-95997550D01*
X189426541Y-95997551D01*
X189143322Y-96076906D01*
X188873550Y-96194084D01*
X188622243Y-96346907D01*
X188531657Y-96420604D01*
X188995117Y-96884064D01*
X188940523Y-96919732D01*
X188757632Y-97088096D01*
X188641389Y-97237442D01*
X188175991Y-96772044D01*
X188175990Y-96772045D01*
X188023710Y-96987776D01*
X188023706Y-96987782D01*
X187888386Y-97248939D01*
X187789891Y-97526075D01*
X187789890Y-97526078D01*
X187730047Y-97814063D01*
X187709976Y-98107499D01*
X180013000Y-98107499D01*
X180013000Y-94766702D01*
X180032685Y-94699663D01*
X180049319Y-94679021D01*
X181197772Y-93530569D01*
X181259095Y-93497084D01*
X181285453Y-93494250D01*
X200596798Y-93494250D01*
X200663837Y-93513935D01*
X200709592Y-93566739D01*
X200719536Y-93635897D01*
X200690511Y-93699453D01*
X200684479Y-93705931D01*
X198631208Y-95759199D01*
X198618951Y-95769020D01*
X198619134Y-95769241D01*
X198613122Y-95774214D01*
X198566432Y-95823932D01*
X198565079Y-95825329D01*
X198544889Y-95845519D01*
X198544877Y-95845532D01*
X198540621Y-95851017D01*
X198536837Y-95855447D01*
X198504937Y-95889418D01*
X198504936Y-95889420D01*
X198495284Y-95906976D01*
X198484610Y-95923226D01*
X198472329Y-95939061D01*
X198472324Y-95939068D01*
X198453815Y-95981838D01*
X198451245Y-95987084D01*
X198428803Y-96027906D01*
X198423822Y-96047307D01*
X198417521Y-96065710D01*
X198409562Y-96084102D01*
X198409561Y-96084105D01*
X198402271Y-96130127D01*
X198401087Y-96135846D01*
X198389501Y-96180972D01*
X198389500Y-96180982D01*
X198389500Y-96201016D01*
X198387973Y-96220415D01*
X198384840Y-96240194D01*
X198384840Y-96240195D01*
X198389225Y-96286583D01*
X198389500Y-96292421D01*
X198389500Y-98773000D01*
X198369815Y-98840039D01*
X198317011Y-98885794D01*
X198265500Y-98897000D01*
X197939999Y-98897000D01*
X197939980Y-98897001D01*
X197837203Y-98907500D01*
X197837200Y-98907501D01*
X197670668Y-98962685D01*
X197670663Y-98962687D01*
X197521342Y-99054789D01*
X197397289Y-99178842D01*
X197305187Y-99328163D01*
X197305185Y-99328166D01*
X197305186Y-99328166D01*
X197250001Y-99494703D01*
X197250001Y-99494704D01*
X197250000Y-99494704D01*
X197239500Y-99597483D01*
X197239500Y-101697501D01*
X197239501Y-101697518D01*
X197250000Y-101800296D01*
X197250001Y-101800299D01*
X197305185Y-101966831D01*
X197305187Y-101966836D01*
X197330470Y-102007826D01*
X197397288Y-102116156D01*
X197521344Y-102240212D01*
X197670666Y-102332314D01*
X197837203Y-102387499D01*
X197939991Y-102398000D01*
X199867118Y-102397999D01*
X199867127Y-102398000D01*
X200236428Y-102397999D01*
X200303466Y-102417683D01*
X200349221Y-102470487D01*
X200359165Y-102539646D01*
X200343814Y-102583999D01*
X200266553Y-102717819D01*
X200196251Y-102920942D01*
X200196250Y-102920944D01*
X200165661Y-103133700D01*
X200165660Y-103133702D01*
X200175887Y-103348401D01*
X200226563Y-103557291D01*
X200226565Y-103557295D01*
X200228553Y-103561649D01*
X200315854Y-103752810D01*
X200440534Y-103927899D01*
X200440535Y-103927900D01*
X200440540Y-103927906D01*
X200596094Y-104076225D01*
X200596096Y-104076226D01*
X200596097Y-104076227D01*
X200776920Y-104192435D01*
X200976468Y-104272322D01*
X201081998Y-104292660D01*
X201187527Y-104313000D01*
X201187528Y-104313000D01*
X201348612Y-104313000D01*
X201348618Y-104313000D01*
X201508971Y-104297688D01*
X201715209Y-104237131D01*
X201906259Y-104138638D01*
X202075217Y-104005768D01*
X202215976Y-103843324D01*
X202323448Y-103657177D01*
X202393750Y-103454054D01*
X202424339Y-103241297D01*
X202414112Y-103026596D01*
X202395829Y-102951232D01*
X202399154Y-102881443D01*
X202439682Y-102824529D01*
X202504547Y-102798561D01*
X202516334Y-102798000D01*
X202712099Y-102798000D01*
X202743520Y-102793680D01*
X203003555Y-102757940D01*
X203286841Y-102678567D01*
X203556682Y-102561359D01*
X203808049Y-102408499D01*
X204036260Y-102222835D01*
X204126715Y-102125980D01*
X204186856Y-102090423D01*
X204256677Y-102093025D01*
X204314008Y-102132962D01*
X204340646Y-102197555D01*
X204329816Y-102262814D01*
X204280433Y-102369232D01*
X204275882Y-102379040D01*
X204273258Y-102387499D01*
X204186854Y-102666035D01*
X204136874Y-102962342D01*
X204126833Y-103262667D01*
X204156910Y-103561642D01*
X204156911Y-103561649D01*
X204226568Y-103853941D01*
X204226571Y-103853953D01*
X204334566Y-104134353D01*
X204334573Y-104134368D01*
X204478979Y-104397875D01*
X204478983Y-104397881D01*
X204570296Y-104521812D01*
X204657223Y-104639790D01*
X204866121Y-104855789D01*
X205101946Y-105042018D01*
X205360487Y-105195152D01*
X205637133Y-105312460D01*
X205637136Y-105312460D01*
X205637139Y-105312462D01*
X205782039Y-105352154D01*
X205926946Y-105391848D01*
X206224755Y-105431900D01*
X206224760Y-105431900D01*
X206450041Y-105431900D01*
X206613513Y-105420955D01*
X206674819Y-105416852D01*
X206969287Y-105356999D01*
X207253151Y-105258431D01*
X207521343Y-105122907D01*
X207769080Y-104952846D01*
X207991939Y-104751282D01*
X208185943Y-104521812D01*
X208347631Y-104268532D01*
X208474118Y-103995960D01*
X208563146Y-103708962D01*
X208613126Y-103412658D01*
X208622453Y-103133702D01*
X210325660Y-103133702D01*
X210335887Y-103348401D01*
X210386563Y-103557291D01*
X210386565Y-103557295D01*
X210388553Y-103561649D01*
X210475854Y-103752810D01*
X210600534Y-103927899D01*
X210600535Y-103927900D01*
X210600540Y-103927906D01*
X210756094Y-104076225D01*
X210756096Y-104076226D01*
X210756097Y-104076227D01*
X210936920Y-104192435D01*
X211136468Y-104272322D01*
X211241998Y-104292660D01*
X211347527Y-104313000D01*
X211347528Y-104313000D01*
X211508612Y-104313000D01*
X211508618Y-104313000D01*
X211668971Y-104297688D01*
X211875209Y-104237131D01*
X212066259Y-104138638D01*
X212235217Y-104005768D01*
X212375976Y-103843324D01*
X212483448Y-103657177D01*
X212553750Y-103454054D01*
X212584339Y-103241297D01*
X212574112Y-103026596D01*
X212523437Y-102817710D01*
X212434146Y-102622190D01*
X212309466Y-102447101D01*
X212309464Y-102447099D01*
X212309459Y-102447093D01*
X212153905Y-102298774D01*
X211973080Y-102182565D01*
X211773530Y-102102677D01*
X211562473Y-102062000D01*
X211562472Y-102062000D01*
X211401382Y-102062000D01*
X211241028Y-102077312D01*
X211241029Y-102077312D01*
X211241025Y-102077313D01*
X211034793Y-102137868D01*
X210843736Y-102236364D01*
X210674785Y-102369229D01*
X210674782Y-102369233D01*
X210534021Y-102531678D01*
X210426553Y-102717819D01*
X210356251Y-102920942D01*
X210356250Y-102920944D01*
X210325661Y-103133700D01*
X210325660Y-103133702D01*
X208622453Y-103133702D01*
X208623167Y-103112336D01*
X208593089Y-102813355D01*
X208589563Y-102798561D01*
X208570322Y-102717819D01*
X208523430Y-102521051D01*
X208415431Y-102240640D01*
X208271021Y-101977125D01*
X208092777Y-101735210D01*
X207883879Y-101519211D01*
X207883872Y-101519205D01*
X207648055Y-101332983D01*
X207648056Y-101332983D01*
X207648054Y-101332982D01*
X207389513Y-101179848D01*
X207112867Y-101062540D01*
X207112860Y-101062537D01*
X206823059Y-100983153D01*
X206823056Y-100983152D01*
X206823054Y-100983152D01*
X206525245Y-100943100D01*
X206299967Y-100943100D01*
X206299959Y-100943100D01*
X206075183Y-100958147D01*
X206075174Y-100958149D01*
X205780710Y-101018001D01*
X205496847Y-101116569D01*
X205496844Y-101116571D01*
X205228662Y-101252089D01*
X204980918Y-101422155D01*
X204758062Y-101623716D01*
X204758056Y-101623722D01*
X204752901Y-101629820D01*
X204694584Y-101668304D01*
X204624720Y-101669149D01*
X204565489Y-101632089D01*
X204535697Y-101568889D01*
X204541372Y-101508233D01*
X204571964Y-101422155D01*
X204640592Y-101229054D01*
X204640592Y-101229049D01*
X204640595Y-101229043D01*
X204684449Y-101018001D01*
X204700448Y-100941011D01*
X204720525Y-100647500D01*
X204700448Y-100353989D01*
X204672075Y-100217449D01*
X204640595Y-100065956D01*
X204640590Y-100065940D01*
X204572926Y-99875552D01*
X204542072Y-99788736D01*
X204406722Y-99527524D01*
X204406721Y-99527522D01*
X204406717Y-99527516D01*
X204237067Y-99287176D01*
X204170129Y-99215504D01*
X204036260Y-99072165D01*
X204036258Y-99072164D01*
X204036256Y-99072161D01*
X203820954Y-98897000D01*
X203808049Y-98886501D01*
X203808047Y-98886500D01*
X203808045Y-98886498D01*
X203556680Y-98733639D01*
X203556675Y-98733637D01*
X203286845Y-98616434D01*
X203003560Y-98537061D01*
X203003556Y-98537060D01*
X203003555Y-98537060D01*
X202857826Y-98517029D01*
X202712099Y-98497000D01*
X202712098Y-98497000D01*
X202417902Y-98497000D01*
X202417901Y-98497000D01*
X202126445Y-98537060D01*
X202126439Y-98537061D01*
X201843154Y-98616434D01*
X201573324Y-98733637D01*
X201573319Y-98733639D01*
X201334370Y-98878948D01*
X201269942Y-98897000D01*
X199764500Y-98897000D01*
X199697461Y-98877315D01*
X199651706Y-98824511D01*
X199640500Y-98773000D01*
X199640500Y-98107500D01*
X206759976Y-98107500D01*
X206780047Y-98400936D01*
X206839890Y-98688921D01*
X206839891Y-98688924D01*
X206938386Y-98966060D01*
X206938385Y-98966060D01*
X207073706Y-99227216D01*
X207225991Y-99442953D01*
X207691388Y-98977555D01*
X207807632Y-99126904D01*
X207990523Y-99295268D01*
X208045116Y-99330935D01*
X207581658Y-99794394D01*
X207672240Y-99868090D01*
X207672246Y-99868094D01*
X207923550Y-100020915D01*
X208193322Y-100138093D01*
X208476541Y-100217448D01*
X208476547Y-100217449D01*
X208767935Y-100257500D01*
X209062065Y-100257500D01*
X209353452Y-100217449D01*
X209353458Y-100217448D01*
X209636677Y-100138093D01*
X209906449Y-100020915D01*
X210145489Y-99875552D01*
X210209917Y-99857500D01*
X210465000Y-99857500D01*
X210465000Y-98357500D01*
X210965000Y-98357500D01*
X210965000Y-99857500D01*
X211639182Y-99857500D01*
X211639191Y-99857499D01*
X212215000Y-99857499D01*
X212215000Y-98357500D01*
X212715000Y-98357500D01*
X212715000Y-99857499D01*
X213539972Y-99857499D01*
X213539986Y-99857498D01*
X213642697Y-99847005D01*
X213809119Y-99791858D01*
X213809124Y-99791856D01*
X213958345Y-99699815D01*
X214082315Y-99575845D01*
X214174356Y-99426624D01*
X214174358Y-99426619D01*
X214229505Y-99260197D01*
X214229506Y-99260190D01*
X214239999Y-99157486D01*
X214240000Y-99157473D01*
X214240000Y-98357500D01*
X212715000Y-98357500D01*
X212215000Y-98357500D01*
X210965000Y-98357500D01*
X210465000Y-98357500D01*
X210465000Y-96357500D01*
X210965000Y-96357500D01*
X210965000Y-97857500D01*
X212215000Y-97857500D01*
X212215000Y-96357500D01*
X212715000Y-96357500D01*
X212715000Y-97857500D01*
X214239998Y-97857500D01*
X214239999Y-97057528D01*
X214239998Y-97057513D01*
X214229505Y-96954802D01*
X214174358Y-96788380D01*
X214174356Y-96788375D01*
X214082315Y-96639154D01*
X213958345Y-96515184D01*
X213809124Y-96423143D01*
X213809119Y-96423141D01*
X213642697Y-96367994D01*
X213642690Y-96367993D01*
X213539986Y-96357500D01*
X212715000Y-96357500D01*
X212215000Y-96357500D01*
X210965000Y-96357500D01*
X210465000Y-96357500D01*
X210209917Y-96357500D01*
X210145489Y-96339448D01*
X209906449Y-96194084D01*
X209636677Y-96076906D01*
X209353458Y-95997551D01*
X209353452Y-95997550D01*
X209062065Y-95957500D01*
X208767935Y-95957500D01*
X208476547Y-95997550D01*
X208476541Y-95997551D01*
X208193322Y-96076906D01*
X207923550Y-96194084D01*
X207672243Y-96346907D01*
X207581657Y-96420604D01*
X208045117Y-96884064D01*
X207990523Y-96919732D01*
X207807632Y-97088096D01*
X207691389Y-97237443D01*
X207225991Y-96772045D01*
X207225990Y-96772045D01*
X207073710Y-96987776D01*
X207073706Y-96987782D01*
X206938386Y-97248939D01*
X206839891Y-97526075D01*
X206839890Y-97526078D01*
X206780047Y-97814063D01*
X206759976Y-98107500D01*
X199640500Y-98107500D01*
X199640500Y-96570451D01*
X199660185Y-96503412D01*
X199676819Y-96482770D01*
X201835271Y-94324319D01*
X201896594Y-94290834D01*
X201922952Y-94288000D01*
X212642257Y-94288000D01*
X212657877Y-94289724D01*
X212657904Y-94289439D01*
X212665666Y-94290173D01*
X212665666Y-94290172D01*
X212665667Y-94290173D01*
X212668999Y-94290068D01*
X212733847Y-94288031D01*
X212735794Y-94288000D01*
X212764347Y-94288000D01*
X212764350Y-94288000D01*
X212771228Y-94287130D01*
X212777041Y-94286672D01*
X212823627Y-94285209D01*
X212842869Y-94279617D01*
X212861912Y-94275674D01*
X212881792Y-94273164D01*
X212925122Y-94256007D01*
X212930646Y-94254117D01*
X212934460Y-94253009D01*
X212975390Y-94241118D01*
X212992629Y-94230922D01*
X213010103Y-94222362D01*
X213028727Y-94214988D01*
X213028727Y-94214987D01*
X213028732Y-94214986D01*
X213066449Y-94187582D01*
X213071305Y-94184392D01*
X213111420Y-94160670D01*
X213125589Y-94146499D01*
X213140379Y-94133868D01*
X213156587Y-94122094D01*
X213186299Y-94086176D01*
X213190212Y-94081876D01*
X216283788Y-90988301D01*
X216296042Y-90978486D01*
X216295859Y-90978264D01*
X216301868Y-90973291D01*
X216301877Y-90973286D01*
X216348607Y-90923522D01*
X216349846Y-90922243D01*
X216370120Y-90901971D01*
X216374379Y-90896478D01*
X216378152Y-90892061D01*
X216410062Y-90858082D01*
X216419715Y-90840520D01*
X216430389Y-90824270D01*
X216442673Y-90808436D01*
X216461180Y-90765667D01*
X216463749Y-90760424D01*
X216486196Y-90719593D01*
X216486197Y-90719592D01*
X216491177Y-90700191D01*
X216497478Y-90681788D01*
X216505438Y-90663396D01*
X216512730Y-90617349D01*
X216513911Y-90611652D01*
X216525500Y-90566519D01*
X216525500Y-90546474D01*
X216527025Y-90527091D01*
X216530160Y-90507304D01*
X216525775Y-90460915D01*
X216525500Y-90455077D01*
X216525500Y-89543211D01*
X216545185Y-89476172D01*
X216597989Y-89430417D01*
X216667147Y-89420473D01*
X216730703Y-89449498D01*
X216740729Y-89459228D01*
X216869319Y-89598913D01*
X216869323Y-89598917D01*
X217049379Y-89739060D01*
X217049383Y-89739062D01*
X217114517Y-89774311D01*
X217164108Y-89823530D01*
X217179500Y-89883366D01*
X217179500Y-98773000D01*
X217159815Y-98840039D01*
X217107011Y-98885794D01*
X217055502Y-98897000D01*
X216989999Y-98897000D01*
X216989980Y-98897001D01*
X216887203Y-98907500D01*
X216887200Y-98907501D01*
X216720668Y-98962685D01*
X216720663Y-98962687D01*
X216571342Y-99054789D01*
X216447289Y-99178842D01*
X216355187Y-99328163D01*
X216355185Y-99328166D01*
X216355186Y-99328166D01*
X216300001Y-99494703D01*
X216300001Y-99494704D01*
X216300000Y-99494704D01*
X216289500Y-99597483D01*
X216289500Y-101697501D01*
X216289501Y-101697518D01*
X216300000Y-101800296D01*
X216300001Y-101800299D01*
X216355185Y-101966831D01*
X216355187Y-101966836D01*
X216380470Y-102007826D01*
X216447288Y-102116156D01*
X216571344Y-102240212D01*
X216720666Y-102332314D01*
X216887203Y-102387499D01*
X216989991Y-102398000D01*
X218917118Y-102397999D01*
X218917127Y-102398000D01*
X219286428Y-102397999D01*
X219353466Y-102417683D01*
X219399221Y-102470487D01*
X219409165Y-102539646D01*
X219393814Y-102583999D01*
X219316553Y-102717819D01*
X219246251Y-102920942D01*
X219246250Y-102920944D01*
X219215661Y-103133700D01*
X219215660Y-103133702D01*
X219225887Y-103348401D01*
X219276563Y-103557291D01*
X219276565Y-103557295D01*
X219278553Y-103561649D01*
X219365854Y-103752810D01*
X219490534Y-103927899D01*
X219490535Y-103927900D01*
X219490540Y-103927906D01*
X219646094Y-104076225D01*
X219646096Y-104076226D01*
X219646097Y-104076227D01*
X219826920Y-104192435D01*
X220026468Y-104272322D01*
X220131998Y-104292661D01*
X220237527Y-104313000D01*
X220237528Y-104313000D01*
X220398612Y-104313000D01*
X220398618Y-104313000D01*
X220558971Y-104297688D01*
X220765209Y-104237131D01*
X220956259Y-104138638D01*
X221125217Y-104005768D01*
X221265976Y-103843324D01*
X221373448Y-103657177D01*
X221443750Y-103454054D01*
X221474339Y-103241297D01*
X221464112Y-103026596D01*
X221445829Y-102951232D01*
X221449154Y-102881443D01*
X221489682Y-102824529D01*
X221554547Y-102798561D01*
X221566334Y-102798000D01*
X221762099Y-102798000D01*
X221793520Y-102793680D01*
X222053555Y-102757940D01*
X222336841Y-102678567D01*
X222606682Y-102561359D01*
X222858049Y-102408499D01*
X223086260Y-102222835D01*
X223176715Y-102125980D01*
X223236856Y-102090423D01*
X223306677Y-102093025D01*
X223364008Y-102132962D01*
X223390646Y-102197555D01*
X223379816Y-102262814D01*
X223330433Y-102369232D01*
X223325882Y-102379040D01*
X223323258Y-102387499D01*
X223236854Y-102666035D01*
X223186874Y-102962342D01*
X223176833Y-103262667D01*
X223206910Y-103561642D01*
X223206911Y-103561649D01*
X223276568Y-103853941D01*
X223276571Y-103853953D01*
X223384566Y-104134353D01*
X223384573Y-104134368D01*
X223528979Y-104397875D01*
X223528983Y-104397881D01*
X223620296Y-104521812D01*
X223707223Y-104639790D01*
X223916121Y-104855789D01*
X224151946Y-105042018D01*
X224410487Y-105195152D01*
X224687133Y-105312460D01*
X224687136Y-105312460D01*
X224687139Y-105312462D01*
X224832039Y-105352154D01*
X224976946Y-105391848D01*
X225274755Y-105431900D01*
X225274760Y-105431900D01*
X225500041Y-105431900D01*
X225663513Y-105420955D01*
X225724819Y-105416852D01*
X226019287Y-105356999D01*
X226303151Y-105258431D01*
X226571343Y-105122907D01*
X226819080Y-104952846D01*
X227041939Y-104751282D01*
X227235943Y-104521812D01*
X227397631Y-104268532D01*
X227524118Y-103995960D01*
X227613146Y-103708962D01*
X227663126Y-103412658D01*
X227672453Y-103133702D01*
X229375660Y-103133702D01*
X229385887Y-103348401D01*
X229436563Y-103557291D01*
X229436565Y-103557295D01*
X229438553Y-103561649D01*
X229525854Y-103752810D01*
X229650534Y-103927899D01*
X229650535Y-103927900D01*
X229650540Y-103927906D01*
X229806094Y-104076225D01*
X229806096Y-104076226D01*
X229806097Y-104076227D01*
X229986920Y-104192435D01*
X230186468Y-104272322D01*
X230291998Y-104292661D01*
X230397527Y-104313000D01*
X230397528Y-104313000D01*
X230558612Y-104313000D01*
X230558618Y-104313000D01*
X230718971Y-104297688D01*
X230925209Y-104237131D01*
X231116259Y-104138638D01*
X231285217Y-104005768D01*
X231425976Y-103843324D01*
X231533448Y-103657177D01*
X231603750Y-103454054D01*
X231634339Y-103241297D01*
X231624112Y-103026596D01*
X231573437Y-102817710D01*
X231484146Y-102622190D01*
X231359466Y-102447101D01*
X231359464Y-102447099D01*
X231359459Y-102447093D01*
X231203905Y-102298774D01*
X231023080Y-102182565D01*
X230823530Y-102102677D01*
X230612473Y-102062000D01*
X230612472Y-102062000D01*
X230451382Y-102062000D01*
X230291028Y-102077312D01*
X230291029Y-102077312D01*
X230291025Y-102077313D01*
X230084793Y-102137868D01*
X229893736Y-102236364D01*
X229724785Y-102369229D01*
X229724782Y-102369233D01*
X229584021Y-102531678D01*
X229476553Y-102717819D01*
X229406251Y-102920942D01*
X229406250Y-102920944D01*
X229375661Y-103133700D01*
X229375660Y-103133702D01*
X227672453Y-103133702D01*
X227673167Y-103112336D01*
X227643089Y-102813355D01*
X227639563Y-102798561D01*
X227620322Y-102717819D01*
X227573430Y-102521051D01*
X227465431Y-102240640D01*
X227321021Y-101977125D01*
X227142777Y-101735210D01*
X226933879Y-101519211D01*
X226933872Y-101519205D01*
X226698055Y-101332983D01*
X226698056Y-101332983D01*
X226698054Y-101332982D01*
X226439513Y-101179848D01*
X226162867Y-101062540D01*
X226162860Y-101062537D01*
X225873059Y-100983153D01*
X225873056Y-100983152D01*
X225873054Y-100983152D01*
X225575245Y-100943100D01*
X225349967Y-100943100D01*
X225349959Y-100943100D01*
X225125183Y-100958147D01*
X225125174Y-100958149D01*
X224830710Y-101018001D01*
X224546847Y-101116569D01*
X224546844Y-101116571D01*
X224278662Y-101252089D01*
X224030918Y-101422155D01*
X223808062Y-101623716D01*
X223808056Y-101623722D01*
X223802901Y-101629820D01*
X223744584Y-101668304D01*
X223674720Y-101669149D01*
X223615489Y-101632089D01*
X223585697Y-101568889D01*
X223591372Y-101508233D01*
X223621964Y-101422155D01*
X223690592Y-101229054D01*
X223690592Y-101229049D01*
X223690595Y-101229043D01*
X223734449Y-101018001D01*
X223750448Y-100941011D01*
X223770525Y-100647500D01*
X223750448Y-100353989D01*
X223722075Y-100217449D01*
X223690595Y-100065956D01*
X223690590Y-100065940D01*
X223622926Y-99875552D01*
X223592072Y-99788736D01*
X223456722Y-99527524D01*
X223456721Y-99527522D01*
X223456717Y-99527516D01*
X223287067Y-99287176D01*
X223220130Y-99215504D01*
X223086260Y-99072165D01*
X223086258Y-99072164D01*
X223086256Y-99072161D01*
X222870954Y-98897000D01*
X222858049Y-98886501D01*
X222858047Y-98886500D01*
X222858045Y-98886498D01*
X222606680Y-98733639D01*
X222606675Y-98733637D01*
X222336845Y-98616434D01*
X222053560Y-98537061D01*
X222053556Y-98537060D01*
X222053555Y-98537060D01*
X221907826Y-98517029D01*
X221762099Y-98497000D01*
X221762098Y-98497000D01*
X221467902Y-98497000D01*
X221467901Y-98497000D01*
X221176445Y-98537060D01*
X221176439Y-98537061D01*
X220893154Y-98616434D01*
X220623324Y-98733637D01*
X220623319Y-98733639D01*
X220384370Y-98878948D01*
X220319942Y-98897000D01*
X218554500Y-98897000D01*
X218487461Y-98877315D01*
X218441706Y-98824511D01*
X218430500Y-98773000D01*
X218430500Y-98107499D01*
X225809976Y-98107499D01*
X225830047Y-98400936D01*
X225889890Y-98688921D01*
X225889891Y-98688924D01*
X225988386Y-98966060D01*
X225988385Y-98966060D01*
X226123706Y-99227216D01*
X226275991Y-99442953D01*
X226741388Y-98977555D01*
X226857632Y-99126904D01*
X227040523Y-99295268D01*
X227095116Y-99330935D01*
X226631658Y-99794394D01*
X226722240Y-99868090D01*
X226722246Y-99868094D01*
X226973550Y-100020915D01*
X227243322Y-100138093D01*
X227526541Y-100217448D01*
X227526547Y-100217449D01*
X227817935Y-100257500D01*
X228112065Y-100257500D01*
X228403452Y-100217449D01*
X228403458Y-100217448D01*
X228686677Y-100138093D01*
X228956449Y-100020915D01*
X229195489Y-99875552D01*
X229259917Y-99857500D01*
X229515000Y-99857500D01*
X229515000Y-98357500D01*
X230015000Y-98357500D01*
X230015000Y-99857500D01*
X230689182Y-99857500D01*
X230689191Y-99857499D01*
X231265000Y-99857499D01*
X231265000Y-99857498D01*
X231764999Y-99857498D01*
X231765000Y-99857499D01*
X232589972Y-99857499D01*
X232589986Y-99857498D01*
X232692697Y-99847005D01*
X232859119Y-99791858D01*
X232859124Y-99791856D01*
X233008345Y-99699815D01*
X233132315Y-99575845D01*
X233224356Y-99426624D01*
X233224358Y-99426619D01*
X233279505Y-99260197D01*
X233279506Y-99260190D01*
X233289999Y-99157486D01*
X233290000Y-99157473D01*
X233290000Y-98357500D01*
X231765000Y-98357500D01*
X231764999Y-99857498D01*
X231265000Y-99857498D01*
X231265000Y-98357500D01*
X230015000Y-98357500D01*
X229515000Y-98357500D01*
X229515000Y-96357500D01*
X230015000Y-96357500D01*
X230015000Y-97857500D01*
X231265000Y-97857500D01*
X231265000Y-96357500D01*
X231765000Y-96357500D01*
X231765000Y-97857500D01*
X233289999Y-97857500D01*
X233289999Y-97057528D01*
X233289998Y-97057513D01*
X233279505Y-96954802D01*
X233224358Y-96788380D01*
X233224356Y-96788375D01*
X233132315Y-96639154D01*
X233008345Y-96515184D01*
X232859124Y-96423143D01*
X232859119Y-96423141D01*
X232692697Y-96367994D01*
X232692690Y-96367993D01*
X232589986Y-96357500D01*
X231765000Y-96357500D01*
X231265000Y-96357500D01*
X230015000Y-96357500D01*
X229515000Y-96357500D01*
X229259917Y-96357500D01*
X229195489Y-96339448D01*
X228956449Y-96194084D01*
X228686677Y-96076906D01*
X228403458Y-95997551D01*
X228403452Y-95997550D01*
X228112065Y-95957500D01*
X227817935Y-95957500D01*
X227526547Y-95997550D01*
X227526541Y-95997551D01*
X227243322Y-96076906D01*
X226973550Y-96194084D01*
X226722243Y-96346907D01*
X226631657Y-96420604D01*
X227095117Y-96884064D01*
X227040523Y-96919732D01*
X226857632Y-97088096D01*
X226741389Y-97237443D01*
X226275991Y-96772045D01*
X226275990Y-96772045D01*
X226123710Y-96987776D01*
X226123706Y-96987782D01*
X225988386Y-97248939D01*
X225889891Y-97526075D01*
X225889890Y-97526078D01*
X225830047Y-97814063D01*
X225809976Y-98107499D01*
X218430500Y-98107499D01*
X218430500Y-89883366D01*
X218450185Y-89816327D01*
X218495483Y-89774311D01*
X218504500Y-89769430D01*
X218560619Y-89739061D01*
X218740677Y-89598917D01*
X218895213Y-89431047D01*
X219020010Y-89240030D01*
X219111664Y-89031078D01*
X219167677Y-88809891D01*
X219186519Y-88582505D01*
X231663481Y-88582505D01*
X231682321Y-88809883D01*
X231682323Y-88809891D01*
X231738335Y-89031077D01*
X231829989Y-89240029D01*
X231954787Y-89431048D01*
X232109319Y-89598913D01*
X232109323Y-89598917D01*
X232289381Y-89739061D01*
X232490050Y-89847658D01*
X232705857Y-89921745D01*
X232930915Y-89959300D01*
X233159085Y-89959300D01*
X233384143Y-89921745D01*
X233599950Y-89847658D01*
X233800619Y-89739061D01*
X233980677Y-89598917D01*
X234135213Y-89431047D01*
X234260010Y-89240030D01*
X234351664Y-89031078D01*
X234407677Y-88809891D01*
X234426519Y-88582500D01*
X234407677Y-88355109D01*
X234351664Y-88133922D01*
X234260010Y-87924970D01*
X234140315Y-87741762D01*
X234135212Y-87733951D01*
X233980680Y-87566086D01*
X233980676Y-87566082D01*
X233800620Y-87425940D01*
X233800619Y-87425939D01*
X233792517Y-87421554D01*
X233742928Y-87372337D01*
X233727818Y-87304121D01*
X233751988Y-87238565D01*
X233792517Y-87203445D01*
X233800619Y-87199061D01*
X233980677Y-87058917D01*
X234135213Y-86891047D01*
X234260010Y-86700030D01*
X234351664Y-86491078D01*
X234407677Y-86269891D01*
X234418013Y-86145152D01*
X234426519Y-86042505D01*
X234426519Y-86042494D01*
X234407678Y-85815116D01*
X234407677Y-85815113D01*
X234407677Y-85815109D01*
X234351664Y-85593922D01*
X234260010Y-85384970D01*
X234235775Y-85347875D01*
X234135212Y-85193951D01*
X233980680Y-85026086D01*
X233980676Y-85026082D01*
X233800620Y-84885939D01*
X233800611Y-84885934D01*
X233792513Y-84881551D01*
X233742924Y-84832330D01*
X233727819Y-84764112D01*
X233751993Y-84698558D01*
X233792523Y-84663441D01*
X233800619Y-84659061D01*
X233980677Y-84518917D01*
X234135213Y-84351047D01*
X234260010Y-84160030D01*
X234351664Y-83951078D01*
X234407677Y-83729891D01*
X234412820Y-83667823D01*
X234426519Y-83502505D01*
X234426519Y-83502494D01*
X234407678Y-83275116D01*
X234407677Y-83275113D01*
X234407677Y-83275109D01*
X234351664Y-83053922D01*
X234260010Y-82844970D01*
X234198159Y-82750299D01*
X234135212Y-82653951D01*
X233980680Y-82486086D01*
X233980676Y-82486082D01*
X233890648Y-82416010D01*
X233800619Y-82345939D01*
X233792517Y-82341554D01*
X233742928Y-82292337D01*
X233727818Y-82224121D01*
X233751988Y-82158565D01*
X233792517Y-82123445D01*
X233800619Y-82119061D01*
X233980677Y-81978917D01*
X234135213Y-81811047D01*
X234260010Y-81620030D01*
X234351664Y-81411078D01*
X234407677Y-81189891D01*
X234409537Y-81167448D01*
X234426519Y-80962505D01*
X234426519Y-80962494D01*
X234407678Y-80735116D01*
X234407677Y-80735113D01*
X234407677Y-80735109D01*
X234351664Y-80513922D01*
X234260010Y-80304970D01*
X234244233Y-80280821D01*
X234135212Y-80113951D01*
X233980680Y-79946086D01*
X233980676Y-79946082D01*
X233800620Y-79805940D01*
X233800619Y-79805939D01*
X233792517Y-79801554D01*
X233742928Y-79752337D01*
X233727818Y-79684121D01*
X233751988Y-79618565D01*
X233792517Y-79583445D01*
X233800619Y-79579061D01*
X233980677Y-79438917D01*
X234135213Y-79271047D01*
X234260010Y-79080030D01*
X234351664Y-78871078D01*
X234407677Y-78649891D01*
X234407678Y-78649883D01*
X234426519Y-78422505D01*
X234426519Y-78422494D01*
X234407678Y-78195116D01*
X234407677Y-78195113D01*
X234407677Y-78195109D01*
X234351664Y-77973922D01*
X234260010Y-77764970D01*
X234195988Y-77666976D01*
X234135212Y-77573951D01*
X233980680Y-77406086D01*
X233980676Y-77406082D01*
X233800620Y-77265939D01*
X233800611Y-77265934D01*
X233792513Y-77261551D01*
X233742924Y-77212330D01*
X233727819Y-77144112D01*
X233751993Y-77078558D01*
X233792523Y-77043441D01*
X233800619Y-77039061D01*
X233980677Y-76898917D01*
X234135213Y-76731047D01*
X234260010Y-76540030D01*
X234351664Y-76331078D01*
X234407677Y-76109891D01*
X234410498Y-76075846D01*
X234426519Y-75882505D01*
X234426519Y-75882494D01*
X234407678Y-75655116D01*
X234407677Y-75655113D01*
X234407677Y-75655109D01*
X234351664Y-75433922D01*
X234260010Y-75224970D01*
X234135213Y-75033953D01*
X234135212Y-75033951D01*
X233980680Y-74866086D01*
X233980676Y-74866082D01*
X233800620Y-74725940D01*
X233800619Y-74725939D01*
X233792517Y-74721554D01*
X233742928Y-74672337D01*
X233727818Y-74604121D01*
X233751988Y-74538565D01*
X233792517Y-74503445D01*
X233800619Y-74499061D01*
X233980677Y-74358917D01*
X234135213Y-74191047D01*
X234260010Y-74000030D01*
X234351664Y-73791078D01*
X234407677Y-73569891D01*
X234426519Y-73342500D01*
X234407677Y-73115109D01*
X234351664Y-72893922D01*
X234260010Y-72684970D01*
X234135213Y-72493953D01*
X234135212Y-72493951D01*
X233980680Y-72326086D01*
X233980676Y-72326082D01*
X233800620Y-72185940D01*
X233800619Y-72185939D01*
X233792517Y-72181554D01*
X233742928Y-72132337D01*
X233727818Y-72064121D01*
X233751988Y-71998565D01*
X233792517Y-71963445D01*
X233800619Y-71959061D01*
X233980677Y-71818917D01*
X234135213Y-71651047D01*
X234260010Y-71460030D01*
X234351664Y-71251078D01*
X234407677Y-71029891D01*
X234426519Y-70802500D01*
X234407677Y-70575109D01*
X234351664Y-70353922D01*
X234260010Y-70144970D01*
X234135213Y-69953953D01*
X234135212Y-69953951D01*
X233980680Y-69786086D01*
X233980676Y-69786082D01*
X233800620Y-69645939D01*
X233800611Y-69645934D01*
X233792513Y-69641551D01*
X233742924Y-69592330D01*
X233727819Y-69524112D01*
X233751993Y-69458558D01*
X233792523Y-69423441D01*
X233800619Y-69419061D01*
X233980677Y-69278917D01*
X234135213Y-69111047D01*
X234260010Y-68920030D01*
X234351664Y-68711078D01*
X234407677Y-68489891D01*
X234407678Y-68489883D01*
X234426519Y-68262505D01*
X234426519Y-68262494D01*
X234407678Y-68035116D01*
X234407677Y-68035113D01*
X234407677Y-68035109D01*
X234351664Y-67813922D01*
X234260010Y-67604970D01*
X234135213Y-67413953D01*
X234135212Y-67413951D01*
X233980680Y-67246086D01*
X233980676Y-67246082D01*
X233868057Y-67158428D01*
X233800619Y-67105939D01*
X233792517Y-67101554D01*
X233742928Y-67052337D01*
X233727818Y-66984121D01*
X233751988Y-66918565D01*
X233792517Y-66883445D01*
X233800619Y-66879061D01*
X233980677Y-66738917D01*
X234135213Y-66571047D01*
X234260010Y-66380030D01*
X234351664Y-66171078D01*
X234407677Y-65949891D01*
X234407678Y-65949883D01*
X234426519Y-65722505D01*
X234426519Y-65722494D01*
X234407678Y-65495116D01*
X234407677Y-65495113D01*
X234407677Y-65495109D01*
X234351664Y-65273922D01*
X234260010Y-65064970D01*
X234135213Y-64873953D01*
X234135212Y-64873951D01*
X233980680Y-64706086D01*
X233980676Y-64706082D01*
X233800620Y-64565939D01*
X233800616Y-64565937D01*
X233791989Y-64561268D01*
X233742400Y-64512047D01*
X233727294Y-64443829D01*
X233751467Y-64378275D01*
X233791997Y-64343158D01*
X233800341Y-64338642D01*
X233800349Y-64338637D01*
X233826910Y-64317963D01*
X233213603Y-63704656D01*
X233331412Y-63653485D01*
X233447862Y-63558746D01*
X233534433Y-63436103D01*
X233565301Y-63349247D01*
X234179063Y-63963011D01*
X234259569Y-63839787D01*
X234351190Y-63630915D01*
X234407182Y-63409804D01*
X234426016Y-63182505D01*
X234426016Y-63182494D01*
X234407182Y-62955195D01*
X234351190Y-62734084D01*
X234259568Y-62525209D01*
X234179063Y-62401987D01*
X233567630Y-63013420D01*
X233564406Y-62997903D01*
X233495342Y-62864614D01*
X233392877Y-62754902D01*
X233264612Y-62676902D01*
X233211832Y-62662113D01*
X233826910Y-62047036D01*
X233826909Y-62047035D01*
X233800349Y-62026362D01*
X233800339Y-62026355D01*
X233791990Y-62021837D01*
X233742401Y-61972617D01*
X233727294Y-61904400D01*
X233751466Y-61838845D01*
X233791995Y-61803728D01*
X233800612Y-61799065D01*
X233800619Y-61799061D01*
X233980677Y-61658917D01*
X234135213Y-61491047D01*
X234260010Y-61300030D01*
X234351664Y-61091078D01*
X234407677Y-60869891D01*
X234407678Y-60869883D01*
X234426519Y-60642505D01*
X234426519Y-60642494D01*
X234407678Y-60415116D01*
X234407677Y-60415113D01*
X234407677Y-60415109D01*
X234351664Y-60193922D01*
X234260010Y-59984970D01*
X234135213Y-59793953D01*
X234135212Y-59793951D01*
X233980680Y-59626086D01*
X233980676Y-59626082D01*
X233800620Y-59485940D01*
X233800619Y-59485939D01*
X233599950Y-59377342D01*
X233599942Y-59377339D01*
X233384145Y-59303255D01*
X233159085Y-59265700D01*
X232930915Y-59265700D01*
X232705854Y-59303255D01*
X232490057Y-59377339D01*
X232490049Y-59377342D01*
X232289379Y-59485940D01*
X232109323Y-59626082D01*
X232109319Y-59626086D01*
X231954787Y-59793951D01*
X231829989Y-59984970D01*
X231738335Y-60193922D01*
X231682323Y-60415108D01*
X231682321Y-60415116D01*
X231663481Y-60642494D01*
X231663481Y-60642505D01*
X231682321Y-60869883D01*
X231682323Y-60869891D01*
X231738335Y-61091077D01*
X231829989Y-61300029D01*
X231954787Y-61491048D01*
X232109319Y-61658913D01*
X232109323Y-61658917D01*
X232289379Y-61799060D01*
X232289387Y-61799065D01*
X232298007Y-61803730D01*
X232347598Y-61852950D01*
X232362705Y-61921166D01*
X232338534Y-61986722D01*
X232298009Y-62021837D01*
X232289661Y-62026354D01*
X232289646Y-62026364D01*
X232263089Y-62047034D01*
X232263089Y-62047036D01*
X232876396Y-62660343D01*
X232758588Y-62711515D01*
X232642138Y-62806254D01*
X232555567Y-62928897D01*
X232524699Y-63015751D01*
X231910935Y-62401988D01*
X231830431Y-62525210D01*
X231830429Y-62525214D01*
X231738809Y-62734084D01*
X231682817Y-62955195D01*
X231663983Y-63182494D01*
X231663983Y-63182505D01*
X231682817Y-63409804D01*
X231738809Y-63630915D01*
X231830431Y-63839790D01*
X231910934Y-63963010D01*
X232522368Y-63351576D01*
X232525594Y-63367097D01*
X232594658Y-63500386D01*
X232697123Y-63610098D01*
X232825388Y-63688098D01*
X232878166Y-63702885D01*
X232263088Y-64317962D01*
X232263089Y-64317963D01*
X232289651Y-64338637D01*
X232289657Y-64338641D01*
X232298006Y-64343160D01*
X232347597Y-64392379D01*
X232362705Y-64460595D01*
X232338535Y-64526151D01*
X232298014Y-64561266D01*
X232289383Y-64565937D01*
X232289379Y-64565939D01*
X232109323Y-64706082D01*
X232109319Y-64706086D01*
X231954787Y-64873951D01*
X231829989Y-65064970D01*
X231738335Y-65273922D01*
X231682323Y-65495108D01*
X231682321Y-65495116D01*
X231663481Y-65722494D01*
X231663481Y-65722505D01*
X231682321Y-65949883D01*
X231682323Y-65949891D01*
X231738335Y-66171077D01*
X231829989Y-66380029D01*
X231954787Y-66571048D01*
X232109319Y-66738913D01*
X232109323Y-66738917D01*
X232289379Y-66879060D01*
X232289383Y-66879062D01*
X232297483Y-66883446D01*
X232347073Y-66932666D01*
X232362180Y-67000883D01*
X232338008Y-67066439D01*
X232297483Y-67101554D01*
X232289383Y-67105937D01*
X232289379Y-67105939D01*
X232109323Y-67246082D01*
X232109319Y-67246086D01*
X231954787Y-67413951D01*
X231829989Y-67604970D01*
X231738335Y-67813922D01*
X231682323Y-68035108D01*
X231682321Y-68035116D01*
X231663481Y-68262494D01*
X231663481Y-68262505D01*
X231682321Y-68489883D01*
X231682323Y-68489891D01*
X231738335Y-68711077D01*
X231829989Y-68920029D01*
X231954787Y-69111048D01*
X232109319Y-69278913D01*
X232109323Y-69278917D01*
X232289379Y-69419060D01*
X232289383Y-69419062D01*
X232297483Y-69423446D01*
X232347073Y-69472666D01*
X232362180Y-69540883D01*
X232338008Y-69606439D01*
X232297483Y-69641554D01*
X232289383Y-69645937D01*
X232289379Y-69645939D01*
X232109323Y-69786082D01*
X232109319Y-69786086D01*
X231954787Y-69953951D01*
X231829989Y-70144970D01*
X231738335Y-70353922D01*
X231682323Y-70575108D01*
X231682321Y-70575116D01*
X231663481Y-70802494D01*
X231663481Y-70802505D01*
X231682321Y-71029883D01*
X231682323Y-71029891D01*
X231738335Y-71251077D01*
X231829989Y-71460029D01*
X231954787Y-71651048D01*
X232109319Y-71818913D01*
X232109323Y-71818917D01*
X232289379Y-71959060D01*
X232289380Y-71959060D01*
X232289381Y-71959061D01*
X232297477Y-71963442D01*
X232347069Y-72012659D01*
X232362181Y-72080875D01*
X232338013Y-72146431D01*
X232297490Y-72181549D01*
X232289388Y-72185934D01*
X232289379Y-72185939D01*
X232109323Y-72326082D01*
X232109319Y-72326086D01*
X231954787Y-72493951D01*
X231829989Y-72684970D01*
X231738335Y-72893922D01*
X231682323Y-73115108D01*
X231682321Y-73115116D01*
X231663481Y-73342494D01*
X231663481Y-73342505D01*
X231682321Y-73569883D01*
X231682323Y-73569891D01*
X231738335Y-73791077D01*
X231829989Y-74000029D01*
X231954787Y-74191048D01*
X232109319Y-74358913D01*
X232109323Y-74358917D01*
X232289379Y-74499060D01*
X232289383Y-74499062D01*
X232297483Y-74503446D01*
X232347073Y-74552666D01*
X232362180Y-74620883D01*
X232338008Y-74686439D01*
X232297483Y-74721554D01*
X232289383Y-74725937D01*
X232289379Y-74725939D01*
X232109323Y-74866082D01*
X232109319Y-74866086D01*
X231954787Y-75033951D01*
X231829989Y-75224970D01*
X231738335Y-75433922D01*
X231682323Y-75655108D01*
X231682321Y-75655116D01*
X231663481Y-75882494D01*
X231663481Y-75882505D01*
X231682321Y-76109883D01*
X231682323Y-76109891D01*
X231738335Y-76331077D01*
X231829989Y-76540029D01*
X231954787Y-76731048D01*
X232109319Y-76898913D01*
X232109323Y-76898917D01*
X232289379Y-77039060D01*
X232289380Y-77039060D01*
X232289381Y-77039061D01*
X232297477Y-77043442D01*
X232347069Y-77092659D01*
X232362181Y-77160875D01*
X232338013Y-77226431D01*
X232297490Y-77261549D01*
X232289388Y-77265934D01*
X232289379Y-77265939D01*
X232109323Y-77406082D01*
X232109319Y-77406086D01*
X231954787Y-77573951D01*
X231829989Y-77764970D01*
X231738335Y-77973922D01*
X231682323Y-78195108D01*
X231682321Y-78195116D01*
X231663481Y-78422494D01*
X231663481Y-78422505D01*
X231682321Y-78649883D01*
X231682323Y-78649891D01*
X231738335Y-78871077D01*
X231829989Y-79080029D01*
X231954787Y-79271048D01*
X232109319Y-79438913D01*
X232109323Y-79438917D01*
X232289379Y-79579060D01*
X232289380Y-79579060D01*
X232289381Y-79579061D01*
X232297477Y-79583442D01*
X232347069Y-79632659D01*
X232362181Y-79700875D01*
X232338013Y-79766431D01*
X232297490Y-79801549D01*
X232289388Y-79805934D01*
X232289379Y-79805939D01*
X232109323Y-79946082D01*
X232109319Y-79946086D01*
X231954787Y-80113951D01*
X231829989Y-80304970D01*
X231738335Y-80513922D01*
X231682323Y-80735108D01*
X231682321Y-80735116D01*
X231663481Y-80962494D01*
X231663481Y-80962505D01*
X231682321Y-81189883D01*
X231682323Y-81189891D01*
X231738335Y-81411077D01*
X231829989Y-81620029D01*
X231954787Y-81811048D01*
X232109319Y-81978913D01*
X232109323Y-81978917D01*
X232289379Y-82119060D01*
X232289380Y-82119060D01*
X232289381Y-82119061D01*
X232297477Y-82123442D01*
X232347069Y-82172659D01*
X232362181Y-82240875D01*
X232338013Y-82306431D01*
X232297490Y-82341549D01*
X232289388Y-82345934D01*
X232289379Y-82345939D01*
X232109323Y-82486082D01*
X232109319Y-82486086D01*
X231954787Y-82653951D01*
X231829989Y-82844970D01*
X231738335Y-83053922D01*
X231682323Y-83275108D01*
X231682321Y-83275116D01*
X231663481Y-83502494D01*
X231663481Y-83502505D01*
X231682321Y-83729883D01*
X231682323Y-83729891D01*
X231738335Y-83951077D01*
X231829989Y-84160029D01*
X231954787Y-84351048D01*
X232109319Y-84518913D01*
X232109323Y-84518917D01*
X232289379Y-84659060D01*
X232289383Y-84659062D01*
X232297483Y-84663446D01*
X232347073Y-84712666D01*
X232362180Y-84780883D01*
X232338008Y-84846439D01*
X232297483Y-84881554D01*
X232289383Y-84885937D01*
X232289379Y-84885939D01*
X232109323Y-85026082D01*
X232109319Y-85026086D01*
X231954787Y-85193951D01*
X231829989Y-85384970D01*
X231738335Y-85593922D01*
X231682323Y-85815108D01*
X231682321Y-85815116D01*
X231663481Y-86042494D01*
X231663481Y-86042505D01*
X231682321Y-86269883D01*
X231682323Y-86269891D01*
X231738335Y-86491077D01*
X231829989Y-86700029D01*
X231954787Y-86891048D01*
X232109319Y-87058913D01*
X232109323Y-87058917D01*
X232289379Y-87199060D01*
X232289383Y-87199062D01*
X232297483Y-87203446D01*
X232347073Y-87252666D01*
X232362180Y-87320883D01*
X232338008Y-87386439D01*
X232297483Y-87421554D01*
X232289383Y-87425937D01*
X232289379Y-87425939D01*
X232109323Y-87566082D01*
X232109319Y-87566086D01*
X231954787Y-87733951D01*
X231829989Y-87924970D01*
X231738335Y-88133922D01*
X231682323Y-88355108D01*
X231682321Y-88355116D01*
X231663481Y-88582494D01*
X231663481Y-88582505D01*
X219186519Y-88582505D01*
X219186519Y-88582500D01*
X219167677Y-88355109D01*
X219111664Y-88133922D01*
X219020010Y-87924970D01*
X218900315Y-87741762D01*
X218895212Y-87733951D01*
X218740680Y-87566086D01*
X218740676Y-87566082D01*
X218560620Y-87425940D01*
X218560619Y-87425939D01*
X218552517Y-87421554D01*
X218502928Y-87372337D01*
X218487818Y-87304121D01*
X218511988Y-87238565D01*
X218552517Y-87203445D01*
X218560619Y-87199061D01*
X218740677Y-87058917D01*
X218895213Y-86891047D01*
X219020010Y-86700030D01*
X219111664Y-86491078D01*
X219167677Y-86269891D01*
X219178013Y-86145152D01*
X219186519Y-86042505D01*
X219186519Y-86042494D01*
X219167678Y-85815116D01*
X219167677Y-85815113D01*
X219167677Y-85815109D01*
X219111664Y-85593922D01*
X219020010Y-85384970D01*
X218995775Y-85347875D01*
X218895212Y-85193951D01*
X218740680Y-85026086D01*
X218740676Y-85026082D01*
X218560620Y-84885940D01*
X218560619Y-84885939D01*
X218552517Y-84881554D01*
X218502928Y-84832337D01*
X218487818Y-84764121D01*
X218511988Y-84698565D01*
X218552517Y-84663445D01*
X218560619Y-84659061D01*
X218740677Y-84518917D01*
X218895213Y-84351047D01*
X219020010Y-84160030D01*
X219111664Y-83951078D01*
X219167677Y-83729891D01*
X219172820Y-83667823D01*
X219186519Y-83502505D01*
X219186519Y-83502494D01*
X219167678Y-83275116D01*
X219167677Y-83275113D01*
X219167677Y-83275109D01*
X219111664Y-83053922D01*
X219020010Y-82844970D01*
X218958159Y-82750299D01*
X218895212Y-82653951D01*
X218740680Y-82486086D01*
X218740676Y-82486082D01*
X218650648Y-82416010D01*
X218560619Y-82345939D01*
X218552517Y-82341554D01*
X218502928Y-82292337D01*
X218487818Y-82224121D01*
X218511988Y-82158565D01*
X218552517Y-82123445D01*
X218560619Y-82119061D01*
X218740677Y-81978917D01*
X218895213Y-81811047D01*
X219020010Y-81620030D01*
X219111664Y-81411078D01*
X219167677Y-81189891D01*
X219169537Y-81167448D01*
X219186519Y-80962505D01*
X219186519Y-80962494D01*
X219167678Y-80735116D01*
X219167677Y-80735113D01*
X219167677Y-80735109D01*
X219111664Y-80513922D01*
X219020010Y-80304970D01*
X219004233Y-80280821D01*
X218895212Y-80113951D01*
X218740680Y-79946086D01*
X218740676Y-79946082D01*
X218560620Y-79805940D01*
X218560619Y-79805939D01*
X218552517Y-79801554D01*
X218502928Y-79752337D01*
X218487818Y-79684121D01*
X218511988Y-79618565D01*
X218552517Y-79583445D01*
X218560619Y-79579061D01*
X218740677Y-79438917D01*
X218895213Y-79271047D01*
X219020010Y-79080030D01*
X219111664Y-78871078D01*
X219167677Y-78649891D01*
X219167678Y-78649883D01*
X219186519Y-78422505D01*
X219186519Y-78422494D01*
X219167678Y-78195116D01*
X219167677Y-78195113D01*
X219167677Y-78195109D01*
X219111664Y-77973922D01*
X219020010Y-77764970D01*
X218955988Y-77666976D01*
X218895212Y-77573951D01*
X218740680Y-77406086D01*
X218740676Y-77406082D01*
X218600407Y-77296907D01*
X218560619Y-77265939D01*
X218552517Y-77261554D01*
X218502928Y-77212337D01*
X218487818Y-77144121D01*
X218511988Y-77078565D01*
X218552517Y-77043445D01*
X218560619Y-77039061D01*
X218740677Y-76898917D01*
X218895213Y-76731047D01*
X219020010Y-76540030D01*
X219111664Y-76331078D01*
X219167677Y-76109891D01*
X219170498Y-76075846D01*
X219186519Y-75882505D01*
X219186519Y-75882494D01*
X219167678Y-75655116D01*
X219167677Y-75655113D01*
X219167677Y-75655109D01*
X219111664Y-75433922D01*
X219020010Y-75224970D01*
X218895213Y-75033953D01*
X218895212Y-75033951D01*
X218740680Y-74866086D01*
X218740676Y-74866082D01*
X218560620Y-74725940D01*
X218560619Y-74725939D01*
X218552517Y-74721554D01*
X218502928Y-74672337D01*
X218487818Y-74604121D01*
X218511988Y-74538565D01*
X218552517Y-74503445D01*
X218560619Y-74499061D01*
X218740677Y-74358917D01*
X218895213Y-74191047D01*
X219020010Y-74000030D01*
X219111664Y-73791078D01*
X219167677Y-73569891D01*
X219186519Y-73342500D01*
X219167677Y-73115109D01*
X219111664Y-72893922D01*
X219020010Y-72684970D01*
X218895213Y-72493953D01*
X218895212Y-72493951D01*
X218740680Y-72326086D01*
X218740676Y-72326082D01*
X218560620Y-72185940D01*
X218560619Y-72185939D01*
X218552517Y-72181554D01*
X218502928Y-72132337D01*
X218487818Y-72064121D01*
X218511988Y-71998565D01*
X218552517Y-71963445D01*
X218560619Y-71959061D01*
X218740677Y-71818917D01*
X218895213Y-71651047D01*
X219020010Y-71460030D01*
X219111664Y-71251078D01*
X219167677Y-71029891D01*
X219186519Y-70802500D01*
X219167677Y-70575109D01*
X219111664Y-70353922D01*
X219020010Y-70144970D01*
X218895213Y-69953953D01*
X218895212Y-69953951D01*
X218740680Y-69786086D01*
X218740676Y-69786082D01*
X218560620Y-69645939D01*
X218560616Y-69645937D01*
X218551989Y-69641268D01*
X218502400Y-69592047D01*
X218487294Y-69523829D01*
X218511467Y-69458275D01*
X218551997Y-69423158D01*
X218560341Y-69418642D01*
X218560349Y-69418637D01*
X218586910Y-69397963D01*
X217973603Y-68784656D01*
X218091412Y-68733485D01*
X218207862Y-68638746D01*
X218294433Y-68516103D01*
X218325300Y-68429248D01*
X218939063Y-69043011D01*
X219019569Y-68919787D01*
X219111190Y-68710915D01*
X219167182Y-68489804D01*
X219186016Y-68262505D01*
X219186016Y-68262494D01*
X219167182Y-68035195D01*
X219111190Y-67814084D01*
X219019568Y-67605209D01*
X218939063Y-67481987D01*
X218327630Y-68093420D01*
X218324406Y-68077903D01*
X218255342Y-67944614D01*
X218152877Y-67834902D01*
X218024612Y-67756902D01*
X217971832Y-67742113D01*
X218586910Y-67127036D01*
X218586909Y-67127035D01*
X218560349Y-67106362D01*
X218560348Y-67106361D01*
X218551468Y-67101556D01*
X218501877Y-67052337D01*
X218486767Y-66984121D01*
X218510937Y-66918565D01*
X218551468Y-66883444D01*
X218560346Y-66878639D01*
X218560349Y-66878637D01*
X218586910Y-66857963D01*
X217973603Y-66244656D01*
X218091412Y-66193485D01*
X218207862Y-66098746D01*
X218294433Y-65976103D01*
X218325300Y-65889248D01*
X218939063Y-66503011D01*
X219019569Y-66379787D01*
X219111190Y-66170915D01*
X219167182Y-65949804D01*
X219186016Y-65722505D01*
X219186016Y-65722494D01*
X219167182Y-65495195D01*
X219111190Y-65274084D01*
X219019568Y-65065209D01*
X218939063Y-64941987D01*
X218327630Y-65553419D01*
X218324406Y-65537903D01*
X218255342Y-65404614D01*
X218152877Y-65294902D01*
X218024612Y-65216902D01*
X217971832Y-65202113D01*
X218586910Y-64587036D01*
X218586909Y-64587035D01*
X218560349Y-64566362D01*
X218560339Y-64566355D01*
X218551990Y-64561837D01*
X218502401Y-64512617D01*
X218487294Y-64444400D01*
X218511466Y-64378845D01*
X218551995Y-64343728D01*
X218560617Y-64339062D01*
X218560620Y-64339060D01*
X218561157Y-64338642D01*
X218740677Y-64198917D01*
X218895213Y-64031047D01*
X219020010Y-63840030D01*
X219111664Y-63631078D01*
X219167677Y-63409891D01*
X219167678Y-63409883D01*
X219186519Y-63182505D01*
X219186519Y-63182494D01*
X219167678Y-62955116D01*
X219167677Y-62955113D01*
X219167677Y-62955109D01*
X219111664Y-62733922D01*
X219020010Y-62524970D01*
X218939662Y-62401987D01*
X218895212Y-62333951D01*
X218772920Y-62201108D01*
X218741997Y-62138454D01*
X218749857Y-62069028D01*
X218794004Y-62014872D01*
X218820817Y-62000943D01*
X218923626Y-61962598D01*
X218923626Y-61962597D01*
X218923631Y-61962596D01*
X219038846Y-61876346D01*
X219125096Y-61761131D01*
X219175391Y-61626283D01*
X219181800Y-61566673D01*
X219181799Y-59718328D01*
X219175391Y-59658717D01*
X219163220Y-59626086D01*
X219125097Y-59523871D01*
X219125093Y-59523864D01*
X219038847Y-59408655D01*
X219038844Y-59408652D01*
X218923635Y-59322406D01*
X218923628Y-59322402D01*
X218788782Y-59272108D01*
X218788783Y-59272108D01*
X218729183Y-59265701D01*
X218729181Y-59265700D01*
X218729173Y-59265700D01*
X218729164Y-59265700D01*
X216880829Y-59265700D01*
X216880823Y-59265701D01*
X216821216Y-59272108D01*
X216680460Y-59324607D01*
X216610768Y-59329591D01*
X216549446Y-59296106D01*
X215299159Y-58045819D01*
X214019553Y-56766212D01*
X214009730Y-56753950D01*
X214009509Y-56754134D01*
X214004536Y-56748122D01*
X213954816Y-56701432D01*
X213953416Y-56700075D01*
X213933226Y-56679884D01*
X213927736Y-56675625D01*
X213923311Y-56671847D01*
X213889332Y-56639938D01*
X213889330Y-56639936D01*
X213889327Y-56639935D01*
X213871779Y-56630288D01*
X213855513Y-56619604D01*
X213839683Y-56607325D01*
X213796918Y-56588818D01*
X213791672Y-56586248D01*
X213750843Y-56563803D01*
X213750842Y-56563802D01*
X213731443Y-56558822D01*
X213713031Y-56552518D01*
X213694648Y-56544562D01*
X213694642Y-56544560D01*
X213648624Y-56537272D01*
X213642902Y-56536087D01*
X213597771Y-56524500D01*
X213597769Y-56524500D01*
X213577734Y-56524500D01*
X213558336Y-56522973D01*
X213550912Y-56521797D01*
X213538555Y-56519840D01*
X213538554Y-56519840D01*
X213492166Y-56524225D01*
X213486328Y-56524500D01*
X200107743Y-56524500D01*
X200092122Y-56522775D01*
X200092095Y-56523061D01*
X200084333Y-56522326D01*
X200016140Y-56524469D01*
X200014193Y-56524500D01*
X199985649Y-56524500D01*
X199978778Y-56525367D01*
X199972959Y-56525825D01*
X199926374Y-56527289D01*
X199926368Y-56527290D01*
X199907126Y-56532880D01*
X199888087Y-56536823D01*
X199868217Y-56539334D01*
X199868203Y-56539337D01*
X199824883Y-56556488D01*
X199819358Y-56558380D01*
X199774613Y-56571380D01*
X199774610Y-56571381D01*
X199757366Y-56581579D01*
X199739905Y-56590133D01*
X199721274Y-56597510D01*
X199721262Y-56597517D01*
X199683570Y-56624902D01*
X199678687Y-56628109D01*
X199638580Y-56651829D01*
X199624414Y-56665995D01*
X199609624Y-56678627D01*
X199593414Y-56690404D01*
X199593411Y-56690407D01*
X199563710Y-56726309D01*
X199559777Y-56730631D01*
X198631208Y-57659199D01*
X198618951Y-57669020D01*
X198619134Y-57669241D01*
X198613122Y-57674214D01*
X198566432Y-57723932D01*
X198565079Y-57725329D01*
X198544889Y-57745519D01*
X198544877Y-57745532D01*
X198540621Y-57751017D01*
X198536837Y-57755447D01*
X198504937Y-57789418D01*
X198504936Y-57789420D01*
X198495284Y-57806976D01*
X198484610Y-57823226D01*
X198472329Y-57839061D01*
X198472324Y-57839068D01*
X198453815Y-57881838D01*
X198451245Y-57887084D01*
X198428803Y-57927906D01*
X198423822Y-57947307D01*
X198417521Y-57965710D01*
X198409562Y-57984102D01*
X198409561Y-57984105D01*
X198402271Y-58030127D01*
X198401087Y-58035846D01*
X198389501Y-58080972D01*
X198389500Y-58080982D01*
X198389500Y-58101016D01*
X198387973Y-58120415D01*
X198384840Y-58140194D01*
X198384840Y-58140195D01*
X198389225Y-58186583D01*
X198389500Y-58192421D01*
X198389500Y-60673000D01*
X198369815Y-60740039D01*
X198317011Y-60785794D01*
X198265500Y-60797000D01*
X197939999Y-60797000D01*
X197939980Y-60797001D01*
X197837203Y-60807500D01*
X197837200Y-60807501D01*
X197670668Y-60862685D01*
X197670663Y-60862687D01*
X197521342Y-60954789D01*
X197397289Y-61078842D01*
X197305187Y-61228163D01*
X197305185Y-61228166D01*
X197305186Y-61228166D01*
X197250001Y-61394703D01*
X197250001Y-61394704D01*
X197250000Y-61394704D01*
X197239500Y-61497483D01*
X197239500Y-63597501D01*
X197239501Y-63597518D01*
X197250000Y-63700296D01*
X197250001Y-63700299D01*
X197305185Y-63866831D01*
X197305187Y-63866836D01*
X197330470Y-63907826D01*
X197397288Y-64016156D01*
X197521344Y-64140212D01*
X197670666Y-64232314D01*
X197837203Y-64287499D01*
X197939991Y-64298000D01*
X199867118Y-64297999D01*
X199867127Y-64298000D01*
X200236428Y-64297999D01*
X200303466Y-64317683D01*
X200349221Y-64370487D01*
X200359165Y-64439646D01*
X200343814Y-64483999D01*
X200266553Y-64617819D01*
X200196251Y-64820942D01*
X200196250Y-64820944D01*
X200165661Y-65033700D01*
X200165660Y-65033702D01*
X200175887Y-65248401D01*
X200226563Y-65457291D01*
X200226565Y-65457295D01*
X200305330Y-65629767D01*
X200315854Y-65652810D01*
X200440534Y-65827899D01*
X200440535Y-65827900D01*
X200440540Y-65827906D01*
X200596094Y-65976225D01*
X200596096Y-65976226D01*
X200596097Y-65976227D01*
X200776920Y-66092435D01*
X200976468Y-66172322D01*
X201081997Y-66192661D01*
X201187527Y-66213000D01*
X201187528Y-66213000D01*
X201348612Y-66213000D01*
X201348618Y-66213000D01*
X201508971Y-66197688D01*
X201715209Y-66137131D01*
X201906259Y-66038638D01*
X202075217Y-65905768D01*
X202215976Y-65743324D01*
X202249718Y-65684882D01*
X202323446Y-65557180D01*
X202323448Y-65557177D01*
X202393750Y-65354054D01*
X202424339Y-65141297D01*
X202414112Y-64926596D01*
X202395829Y-64851232D01*
X202399154Y-64781443D01*
X202439682Y-64724529D01*
X202504547Y-64698561D01*
X202516334Y-64698000D01*
X202712099Y-64698000D01*
X202743520Y-64693680D01*
X203003555Y-64657940D01*
X203286841Y-64578567D01*
X203556682Y-64461359D01*
X203808049Y-64308499D01*
X204036260Y-64122835D01*
X204126715Y-64025980D01*
X204186856Y-63990423D01*
X204256677Y-63993025D01*
X204314008Y-64032962D01*
X204340646Y-64097555D01*
X204329816Y-64162814D01*
X204280433Y-64269232D01*
X204275882Y-64279040D01*
X204245099Y-64378275D01*
X204186854Y-64566035D01*
X204136874Y-64862342D01*
X204126833Y-65162667D01*
X204156910Y-65461642D01*
X204156911Y-65461649D01*
X204226568Y-65753941D01*
X204226571Y-65753953D01*
X204334566Y-66034353D01*
X204334573Y-66034368D01*
X204478979Y-66297875D01*
X204478983Y-66297881D01*
X204570296Y-66421812D01*
X204657223Y-66539790D01*
X204866121Y-66755789D01*
X205101946Y-66942018D01*
X205360487Y-67095152D01*
X205637133Y-67212460D01*
X205637136Y-67212460D01*
X205637139Y-67212462D01*
X205759873Y-67246082D01*
X205926946Y-67291848D01*
X206224755Y-67331900D01*
X206224760Y-67331900D01*
X206450041Y-67331900D01*
X206613513Y-67320956D01*
X206674819Y-67316852D01*
X206969287Y-67256999D01*
X207253151Y-67158431D01*
X207521343Y-67022907D01*
X207769080Y-66852846D01*
X207991939Y-66651282D01*
X208185943Y-66421812D01*
X208347631Y-66168532D01*
X208474118Y-65895960D01*
X208563146Y-65608962D01*
X208613126Y-65312658D01*
X208622453Y-65033702D01*
X210325660Y-65033702D01*
X210335887Y-65248401D01*
X210386563Y-65457291D01*
X210386565Y-65457295D01*
X210465330Y-65629767D01*
X210475854Y-65652810D01*
X210600534Y-65827899D01*
X210600535Y-65827900D01*
X210600540Y-65827906D01*
X210756094Y-65976225D01*
X210756096Y-65976226D01*
X210756097Y-65976227D01*
X210936920Y-66092435D01*
X211136468Y-66172322D01*
X211241998Y-66192661D01*
X211347527Y-66213000D01*
X211347528Y-66213000D01*
X211508612Y-66213000D01*
X211508618Y-66213000D01*
X211668971Y-66197688D01*
X211875209Y-66137131D01*
X212066259Y-66038638D01*
X212235217Y-65905768D01*
X212375976Y-65743324D01*
X212409718Y-65684882D01*
X212483446Y-65557180D01*
X212483448Y-65557177D01*
X212553750Y-65354054D01*
X212584339Y-65141297D01*
X212574112Y-64926596D01*
X212523437Y-64717710D01*
X212434146Y-64522190D01*
X212309466Y-64347101D01*
X212309464Y-64347099D01*
X212309459Y-64347093D01*
X212153905Y-64198774D01*
X211973080Y-64082565D01*
X211773530Y-64002677D01*
X211562473Y-63962000D01*
X211562472Y-63962000D01*
X211401382Y-63962000D01*
X211241028Y-63977312D01*
X211241029Y-63977312D01*
X211241025Y-63977313D01*
X211034793Y-64037868D01*
X210843736Y-64136364D01*
X210674785Y-64269229D01*
X210674782Y-64269233D01*
X210534021Y-64431678D01*
X210426553Y-64617819D01*
X210356251Y-64820942D01*
X210356250Y-64820944D01*
X210325661Y-65033700D01*
X210325660Y-65033702D01*
X208622453Y-65033702D01*
X208623167Y-65012336D01*
X208593089Y-64713355D01*
X208589563Y-64698561D01*
X208562986Y-64587036D01*
X208523430Y-64421051D01*
X208415431Y-64140640D01*
X208271021Y-63877125D01*
X208092777Y-63635210D01*
X207883879Y-63419211D01*
X207883872Y-63419205D01*
X207648055Y-63232983D01*
X207648056Y-63232983D01*
X207648054Y-63232982D01*
X207389513Y-63079848D01*
X207112867Y-62962540D01*
X207112860Y-62962537D01*
X206823059Y-62883153D01*
X206823056Y-62883152D01*
X206823054Y-62883152D01*
X206525245Y-62843100D01*
X206299967Y-62843100D01*
X206299959Y-62843100D01*
X206075183Y-62858147D01*
X206075174Y-62858149D01*
X205780710Y-62918001D01*
X205496847Y-63016569D01*
X205496844Y-63016571D01*
X205228662Y-63152089D01*
X204980918Y-63322155D01*
X204758062Y-63523716D01*
X204758056Y-63523722D01*
X204752901Y-63529820D01*
X204694584Y-63568304D01*
X204624720Y-63569149D01*
X204565489Y-63532089D01*
X204535697Y-63468889D01*
X204541372Y-63408233D01*
X204571964Y-63322155D01*
X204640592Y-63129054D01*
X204640592Y-63129049D01*
X204640595Y-63129043D01*
X204684449Y-62918001D01*
X204700448Y-62841011D01*
X204720525Y-62547500D01*
X204700448Y-62253989D01*
X204672075Y-62117449D01*
X204640595Y-61965956D01*
X204640590Y-61965940D01*
X204600433Y-61852950D01*
X204542072Y-61688736D01*
X204406722Y-61427524D01*
X204406721Y-61427522D01*
X204406717Y-61427516D01*
X204237067Y-61187176D01*
X204147316Y-61091077D01*
X204036260Y-60972165D01*
X204036258Y-60972164D01*
X204036256Y-60972161D01*
X203808045Y-60786498D01*
X203556680Y-60633639D01*
X203556675Y-60633637D01*
X203286845Y-60516434D01*
X203003560Y-60437061D01*
X203003556Y-60437060D01*
X203003555Y-60437060D01*
X202843843Y-60415108D01*
X202712099Y-60397000D01*
X202712098Y-60397000D01*
X202417902Y-60397000D01*
X202417901Y-60397000D01*
X202126445Y-60437060D01*
X202126439Y-60437061D01*
X201843154Y-60516434D01*
X201573324Y-60633637D01*
X201573319Y-60633639D01*
X201334370Y-60778948D01*
X201269942Y-60797000D01*
X199764500Y-60797000D01*
X199697461Y-60777315D01*
X199651706Y-60724511D01*
X199640500Y-60673000D01*
X199640500Y-58470451D01*
X199660185Y-58403412D01*
X199676819Y-58382770D01*
X200247771Y-57811819D01*
X200309094Y-57778334D01*
X200335452Y-57775500D01*
X208060285Y-57775500D01*
X208127324Y-57795185D01*
X208173079Y-57847989D01*
X208183023Y-57917147D01*
X208153998Y-57980703D01*
X208109687Y-58013234D01*
X207923550Y-58094084D01*
X207672243Y-58246907D01*
X207581657Y-58320604D01*
X208045117Y-58784064D01*
X207990523Y-58819732D01*
X207807632Y-58988096D01*
X207691390Y-59137442D01*
X207225991Y-58672044D01*
X207225990Y-58672045D01*
X207073710Y-58887776D01*
X207073706Y-58887782D01*
X206938386Y-59148939D01*
X206839891Y-59426075D01*
X206839890Y-59426078D01*
X206780047Y-59714063D01*
X206759976Y-60007500D01*
X206780047Y-60300936D01*
X206839890Y-60588921D01*
X206839891Y-60588924D01*
X206938386Y-60866060D01*
X206938385Y-60866060D01*
X207073706Y-61127216D01*
X207225991Y-61342953D01*
X207691388Y-60877555D01*
X207807632Y-61026904D01*
X207990523Y-61195268D01*
X208045116Y-61230935D01*
X207581658Y-61694394D01*
X207672240Y-61768090D01*
X207672246Y-61768094D01*
X207923550Y-61920915D01*
X208193322Y-62038093D01*
X208476541Y-62117448D01*
X208476547Y-62117449D01*
X208767935Y-62157500D01*
X209062065Y-62157500D01*
X209353452Y-62117449D01*
X209353458Y-62117448D01*
X209636677Y-62038093D01*
X209906449Y-61920915D01*
X210145489Y-61775552D01*
X210209917Y-61757500D01*
X210465000Y-61757500D01*
X210465000Y-60257500D01*
X210965000Y-60257500D01*
X210965000Y-61757500D01*
X211639182Y-61757500D01*
X211639191Y-61757499D01*
X212215000Y-61757499D01*
X212215000Y-60257500D01*
X212715000Y-60257500D01*
X212715000Y-61757499D01*
X213539972Y-61757499D01*
X213539986Y-61757498D01*
X213642697Y-61747005D01*
X213809119Y-61691858D01*
X213809124Y-61691856D01*
X213958345Y-61599815D01*
X214082315Y-61475845D01*
X214174356Y-61326624D01*
X214174358Y-61326619D01*
X214229505Y-61160197D01*
X214229506Y-61160190D01*
X214239999Y-61057486D01*
X214240000Y-61057473D01*
X214240000Y-60257500D01*
X212715000Y-60257500D01*
X212215000Y-60257500D01*
X210965000Y-60257500D01*
X210465000Y-60257500D01*
X210465000Y-58257500D01*
X210965000Y-58257500D01*
X210965000Y-59757500D01*
X212215000Y-59757500D01*
X212215000Y-58257500D01*
X210965000Y-58257500D01*
X210465000Y-58257500D01*
X210209917Y-58257500D01*
X210145489Y-58239448D01*
X209906449Y-58094084D01*
X209720313Y-58013234D01*
X209666666Y-57968471D01*
X209645737Y-57901809D01*
X209664169Y-57834415D01*
X209716112Y-57787685D01*
X209769715Y-57775500D01*
X213208298Y-57775500D01*
X213275337Y-57795185D01*
X213295979Y-57811819D01*
X213529979Y-58045819D01*
X213563464Y-58107142D01*
X213558480Y-58176834D01*
X213516608Y-58232767D01*
X213451144Y-58257184D01*
X213442298Y-58257500D01*
X212715000Y-58257500D01*
X212715000Y-59757500D01*
X214239999Y-59757500D01*
X214239999Y-59055201D01*
X214259684Y-58988162D01*
X214312488Y-58942407D01*
X214381646Y-58932463D01*
X214445202Y-58961488D01*
X214451674Y-58967514D01*
X215465300Y-59981141D01*
X216391881Y-60907722D01*
X216425366Y-60969045D01*
X216428200Y-60995403D01*
X216428200Y-61566670D01*
X216428201Y-61566676D01*
X216434608Y-61626283D01*
X216484902Y-61761128D01*
X216484906Y-61761135D01*
X216571152Y-61876344D01*
X216571155Y-61876347D01*
X216686364Y-61962593D01*
X216686371Y-61962597D01*
X216789183Y-62000943D01*
X216845116Y-62042814D01*
X216869534Y-62108278D01*
X216854683Y-62176551D01*
X216837080Y-62201108D01*
X216714784Y-62333955D01*
X216589989Y-62524970D01*
X216498335Y-62733922D01*
X216442323Y-62955108D01*
X216442321Y-62955116D01*
X216423481Y-63182494D01*
X216423481Y-63182505D01*
X216442321Y-63409883D01*
X216442323Y-63409895D01*
X216475683Y-63541629D01*
X216473058Y-63611449D01*
X216443158Y-63659750D01*
X211708478Y-68394431D01*
X211647155Y-68427916D01*
X211620797Y-68430750D01*
X180491702Y-68430750D01*
X180424663Y-68411065D01*
X180404021Y-68394431D01*
X180049319Y-68039728D01*
X180015834Y-67978405D01*
X180013000Y-67952047D01*
X180013000Y-64421999D01*
X180032685Y-64354960D01*
X180085489Y-64309205D01*
X180137000Y-64297999D01*
X180817118Y-64297999D01*
X180817127Y-64298000D01*
X181186428Y-64297999D01*
X181253466Y-64317683D01*
X181299221Y-64370487D01*
X181309165Y-64439646D01*
X181293814Y-64483999D01*
X181216553Y-64617819D01*
X181146251Y-64820942D01*
X181146250Y-64820944D01*
X181115661Y-65033700D01*
X181115660Y-65033702D01*
X181125887Y-65248401D01*
X181176563Y-65457291D01*
X181176565Y-65457295D01*
X181255330Y-65629767D01*
X181265854Y-65652810D01*
X181390534Y-65827899D01*
X181390535Y-65827900D01*
X181390540Y-65827906D01*
X181546094Y-65976225D01*
X181546096Y-65976226D01*
X181546097Y-65976227D01*
X181726920Y-66092435D01*
X181926468Y-66172322D01*
X182031998Y-66192661D01*
X182137527Y-66213000D01*
X182137528Y-66213000D01*
X182298612Y-66213000D01*
X182298618Y-66213000D01*
X182458971Y-66197688D01*
X182665209Y-66137131D01*
X182856259Y-66038638D01*
X183025217Y-65905768D01*
X183165976Y-65743324D01*
X183199718Y-65684882D01*
X183273446Y-65557180D01*
X183273448Y-65557177D01*
X183343750Y-65354054D01*
X183374339Y-65141297D01*
X183364112Y-64926596D01*
X183345829Y-64851232D01*
X183349154Y-64781443D01*
X183389682Y-64724529D01*
X183454547Y-64698561D01*
X183466334Y-64698000D01*
X183662099Y-64698000D01*
X183693520Y-64693680D01*
X183953555Y-64657940D01*
X184236841Y-64578567D01*
X184506682Y-64461359D01*
X184758049Y-64308499D01*
X184986260Y-64122835D01*
X185076715Y-64025980D01*
X185136856Y-63990423D01*
X185206677Y-63993025D01*
X185264008Y-64032962D01*
X185290646Y-64097555D01*
X185279816Y-64162814D01*
X185230433Y-64269232D01*
X185225882Y-64279040D01*
X185195099Y-64378275D01*
X185136854Y-64566035D01*
X185086874Y-64862342D01*
X185076833Y-65162667D01*
X185106910Y-65461642D01*
X185106911Y-65461649D01*
X185176568Y-65753941D01*
X185176571Y-65753953D01*
X185284566Y-66034353D01*
X185284573Y-66034368D01*
X185428979Y-66297875D01*
X185428983Y-66297881D01*
X185520296Y-66421812D01*
X185607223Y-66539790D01*
X185816121Y-66755789D01*
X186051946Y-66942018D01*
X186310487Y-67095152D01*
X186587133Y-67212460D01*
X186587136Y-67212460D01*
X186587139Y-67212462D01*
X186709873Y-67246082D01*
X186876946Y-67291848D01*
X187174755Y-67331900D01*
X187174760Y-67331900D01*
X187400041Y-67331900D01*
X187563513Y-67320956D01*
X187624819Y-67316852D01*
X187919287Y-67256999D01*
X188203151Y-67158431D01*
X188471343Y-67022907D01*
X188719080Y-66852846D01*
X188941939Y-66651282D01*
X189135943Y-66421812D01*
X189297631Y-66168532D01*
X189424118Y-65895960D01*
X189513146Y-65608962D01*
X189563126Y-65312658D01*
X189572453Y-65033702D01*
X191275660Y-65033702D01*
X191285887Y-65248401D01*
X191336563Y-65457291D01*
X191336565Y-65457295D01*
X191415330Y-65629767D01*
X191425854Y-65652810D01*
X191550534Y-65827899D01*
X191550535Y-65827900D01*
X191550540Y-65827906D01*
X191706094Y-65976225D01*
X191706096Y-65976226D01*
X191706097Y-65976227D01*
X191886920Y-66092435D01*
X192086468Y-66172322D01*
X192191998Y-66192661D01*
X192297527Y-66213000D01*
X192297528Y-66213000D01*
X192458612Y-66213000D01*
X192458618Y-66213000D01*
X192618971Y-66197688D01*
X192825209Y-66137131D01*
X193016259Y-66038638D01*
X193185217Y-65905768D01*
X193325976Y-65743324D01*
X193359718Y-65684882D01*
X193433446Y-65557180D01*
X193433448Y-65557177D01*
X193503750Y-65354054D01*
X193534339Y-65141297D01*
X193524112Y-64926596D01*
X193473437Y-64717710D01*
X193384146Y-64522190D01*
X193259466Y-64347101D01*
X193259464Y-64347099D01*
X193259459Y-64347093D01*
X193103905Y-64198774D01*
X192923080Y-64082565D01*
X192723530Y-64002677D01*
X192512473Y-63962000D01*
X192512472Y-63962000D01*
X192351382Y-63962000D01*
X192191028Y-63977312D01*
X192191029Y-63977312D01*
X192191025Y-63977313D01*
X191984793Y-64037868D01*
X191793736Y-64136364D01*
X191624785Y-64269229D01*
X191624782Y-64269233D01*
X191484021Y-64431678D01*
X191376553Y-64617819D01*
X191306251Y-64820942D01*
X191306250Y-64820944D01*
X191275661Y-65033700D01*
X191275660Y-65033702D01*
X189572453Y-65033702D01*
X189573167Y-65012336D01*
X189543089Y-64713355D01*
X189539563Y-64698561D01*
X189512986Y-64587036D01*
X189473430Y-64421051D01*
X189365431Y-64140640D01*
X189221021Y-63877125D01*
X189042777Y-63635210D01*
X188833879Y-63419211D01*
X188833872Y-63419205D01*
X188598055Y-63232983D01*
X188598056Y-63232983D01*
X188598054Y-63232982D01*
X188339513Y-63079848D01*
X188062867Y-62962540D01*
X188062860Y-62962537D01*
X187773059Y-62883153D01*
X187773056Y-62883152D01*
X187773054Y-62883152D01*
X187475245Y-62843100D01*
X187249967Y-62843100D01*
X187249959Y-62843100D01*
X187025183Y-62858147D01*
X187025174Y-62858149D01*
X186730710Y-62918001D01*
X186446847Y-63016569D01*
X186446844Y-63016571D01*
X186178662Y-63152089D01*
X185930918Y-63322155D01*
X185708062Y-63523716D01*
X185708056Y-63523722D01*
X185702901Y-63529820D01*
X185644584Y-63568304D01*
X185574720Y-63569149D01*
X185515489Y-63532089D01*
X185485697Y-63468889D01*
X185491372Y-63408233D01*
X185521964Y-63322155D01*
X185590592Y-63129054D01*
X185590592Y-63129049D01*
X185590595Y-63129043D01*
X185634449Y-62918001D01*
X185650448Y-62841011D01*
X185670525Y-62547500D01*
X185650448Y-62253989D01*
X185622075Y-62117449D01*
X185590595Y-61965956D01*
X185590590Y-61965940D01*
X185550433Y-61852950D01*
X185492072Y-61688736D01*
X185356722Y-61427524D01*
X185356721Y-61427522D01*
X185356717Y-61427516D01*
X185187067Y-61187176D01*
X185097316Y-61091077D01*
X184986260Y-60972165D01*
X184986258Y-60972164D01*
X184986256Y-60972161D01*
X184758045Y-60786498D01*
X184506680Y-60633639D01*
X184506675Y-60633637D01*
X184236845Y-60516434D01*
X183953560Y-60437061D01*
X183953556Y-60437060D01*
X183953555Y-60437060D01*
X183793843Y-60415108D01*
X183662099Y-60397000D01*
X183662098Y-60397000D01*
X183367902Y-60397000D01*
X183367901Y-60397000D01*
X183076445Y-60437060D01*
X183076439Y-60437061D01*
X182793154Y-60516434D01*
X182523324Y-60633637D01*
X182523319Y-60633639D01*
X182284370Y-60778948D01*
X182219942Y-60797000D01*
X178889998Y-60797000D01*
X178889981Y-60797001D01*
X178787203Y-60807500D01*
X178787200Y-60807501D01*
X178620668Y-60862685D01*
X178620663Y-60862687D01*
X178471342Y-60954789D01*
X178347289Y-61078842D01*
X178255187Y-61228163D01*
X178255185Y-61228166D01*
X178255186Y-61228166D01*
X178200001Y-61394703D01*
X178200001Y-61394704D01*
X178200000Y-61394704D01*
X178189500Y-61497483D01*
X178189500Y-63597501D01*
X178189501Y-63597518D01*
X178200000Y-63700296D01*
X178200001Y-63700299D01*
X178255185Y-63866831D01*
X178255187Y-63866836D01*
X178280470Y-63907826D01*
X178347288Y-64016156D01*
X178471344Y-64140212D01*
X178620666Y-64232314D01*
X178677005Y-64250982D01*
X178734449Y-64290754D01*
X178761272Y-64355270D01*
X178762000Y-64368688D01*
X178762000Y-68179755D01*
X178760275Y-68195372D01*
X178760561Y-68195399D01*
X178759826Y-68203166D01*
X178761969Y-68271346D01*
X178762000Y-68273293D01*
X178762000Y-68301843D01*
X178762001Y-68301860D01*
X178762868Y-68308731D01*
X178763326Y-68314550D01*
X178764790Y-68361124D01*
X178764791Y-68361127D01*
X178770380Y-68380367D01*
X178774324Y-68399411D01*
X178776836Y-68419292D01*
X178793990Y-68462619D01*
X178795882Y-68468147D01*
X178808881Y-68512888D01*
X178819080Y-68530134D01*
X178827638Y-68547603D01*
X178835014Y-68566232D01*
X178862398Y-68603923D01*
X178865606Y-68608807D01*
X178889327Y-68648916D01*
X178889333Y-68648924D01*
X178903490Y-68663080D01*
X178916128Y-68677876D01*
X178927905Y-68694086D01*
X178927906Y-68694087D01*
X178963809Y-68723788D01*
X178968120Y-68727710D01*
X179519322Y-69278913D01*
X179680447Y-69440038D01*
X179690272Y-69452301D01*
X179690493Y-69452119D01*
X179695461Y-69458124D01*
X179745182Y-69504816D01*
X179746582Y-69506173D01*
X179766773Y-69526365D01*
X179766777Y-69526368D01*
X179766779Y-69526370D01*
X179772261Y-69530623D01*
X179776693Y-69534407D01*
X179810668Y-69566312D01*
X179828226Y-69575964D01*
X179844483Y-69586643D01*
X179860314Y-69598923D01*
X179879987Y-69607436D01*
X179903083Y-69617432D01*
X179908327Y-69620000D01*
X179949158Y-69642447D01*
X179961773Y-69645685D01*
X179968555Y-69647427D01*
X179986969Y-69653731D01*
X180005354Y-69661688D01*
X180051407Y-69668982D01*
X180057076Y-69670156D01*
X180102231Y-69681750D01*
X180122266Y-69681750D01*
X180141663Y-69683276D01*
X180161446Y-69686410D01*
X180207833Y-69682025D01*
X180213672Y-69681750D01*
X211848507Y-69681750D01*
X211864127Y-69683474D01*
X211864154Y-69683189D01*
X211871916Y-69683923D01*
X211871916Y-69683922D01*
X211871917Y-69683923D01*
X211875249Y-69683818D01*
X211940097Y-69681781D01*
X211942044Y-69681750D01*
X211970597Y-69681750D01*
X211970600Y-69681750D01*
X211977478Y-69680880D01*
X211983291Y-69680422D01*
X212029877Y-69678959D01*
X212049119Y-69673367D01*
X212068162Y-69669424D01*
X212088042Y-69666914D01*
X212131372Y-69649757D01*
X212136896Y-69647867D01*
X212143549Y-69645934D01*
X212181640Y-69634868D01*
X212198879Y-69624672D01*
X212216353Y-69616112D01*
X212234977Y-69608738D01*
X212234977Y-69608737D01*
X212234982Y-69608736D01*
X212272699Y-69581332D01*
X212277555Y-69578142D01*
X212317670Y-69554420D01*
X212331839Y-69540249D01*
X212346629Y-69527618D01*
X212362837Y-69515844D01*
X212392549Y-69479926D01*
X212396462Y-69475626D01*
X216213823Y-65658265D01*
X216275143Y-65624783D01*
X216344835Y-65629767D01*
X216400768Y-65671639D01*
X216425077Y-65735709D01*
X216442817Y-65949804D01*
X216498809Y-66170915D01*
X216590431Y-66379790D01*
X216670934Y-66503010D01*
X217282368Y-65891576D01*
X217285594Y-65907097D01*
X217354658Y-66040386D01*
X217457123Y-66150098D01*
X217585388Y-66228098D01*
X217638166Y-66242885D01*
X217023088Y-66857962D01*
X217023089Y-66857963D01*
X217049651Y-66878637D01*
X217049652Y-66878638D01*
X217058530Y-66883443D01*
X217108121Y-66932662D01*
X217123231Y-67000879D01*
X217099061Y-67066435D01*
X217058540Y-67101549D01*
X217049662Y-67106354D01*
X217049646Y-67106364D01*
X217023089Y-67127034D01*
X217023089Y-67127036D01*
X217636396Y-67740343D01*
X217518588Y-67791515D01*
X217402138Y-67886254D01*
X217315567Y-68008897D01*
X217284699Y-68095752D01*
X216670935Y-67481988D01*
X216590431Y-67605210D01*
X216590429Y-67605214D01*
X216498809Y-67814084D01*
X216442817Y-68035195D01*
X216423983Y-68262494D01*
X216423983Y-68262505D01*
X216442817Y-68489804D01*
X216498809Y-68710915D01*
X216590431Y-68919790D01*
X216670934Y-69043010D01*
X217282368Y-68431577D01*
X217285594Y-68447097D01*
X217354658Y-68580386D01*
X217457123Y-68690098D01*
X217585388Y-68768098D01*
X217638166Y-68782885D01*
X217023088Y-69397962D01*
X217023089Y-69397963D01*
X217049651Y-69418637D01*
X217049657Y-69418641D01*
X217058006Y-69423160D01*
X217107597Y-69472379D01*
X217122705Y-69540595D01*
X217098535Y-69606151D01*
X217058014Y-69641266D01*
X217049383Y-69645937D01*
X217049379Y-69645939D01*
X216869323Y-69786082D01*
X216869319Y-69786086D01*
X216714787Y-69953951D01*
X216605767Y-70120821D01*
X216552621Y-70166178D01*
X216501958Y-70177000D01*
X163981703Y-70177000D01*
X163914664Y-70157315D01*
X163894022Y-70140681D01*
X161793069Y-68039728D01*
X161759584Y-67978405D01*
X161756750Y-67952047D01*
X161756750Y-64421999D01*
X161776435Y-64354960D01*
X161829239Y-64309205D01*
X161880746Y-64297999D01*
X162136428Y-64297999D01*
X162203466Y-64317684D01*
X162249221Y-64370488D01*
X162259165Y-64439646D01*
X162243814Y-64483999D01*
X162166553Y-64617819D01*
X162096251Y-64820942D01*
X162096250Y-64820944D01*
X162065661Y-65033700D01*
X162065660Y-65033702D01*
X162075887Y-65248401D01*
X162126563Y-65457291D01*
X162126565Y-65457295D01*
X162205330Y-65629767D01*
X162215854Y-65652810D01*
X162340534Y-65827899D01*
X162340535Y-65827900D01*
X162340540Y-65827906D01*
X162496094Y-65976225D01*
X162496096Y-65976226D01*
X162496097Y-65976227D01*
X162676920Y-66092435D01*
X162876468Y-66172322D01*
X162981997Y-66192660D01*
X163087527Y-66213000D01*
X163087528Y-66213000D01*
X163248612Y-66213000D01*
X163248618Y-66213000D01*
X163408971Y-66197688D01*
X163615209Y-66137131D01*
X163806259Y-66038638D01*
X163975217Y-65905768D01*
X164115976Y-65743324D01*
X164149718Y-65684882D01*
X164223446Y-65557180D01*
X164223448Y-65557177D01*
X164293750Y-65354054D01*
X164324339Y-65141297D01*
X164314112Y-64926596D01*
X164295829Y-64851232D01*
X164299154Y-64781443D01*
X164339682Y-64724529D01*
X164404547Y-64698561D01*
X164416334Y-64698000D01*
X164612099Y-64698000D01*
X164643520Y-64693680D01*
X164903555Y-64657940D01*
X165186841Y-64578567D01*
X165456682Y-64461359D01*
X165708049Y-64308499D01*
X165936260Y-64122835D01*
X166026715Y-64025980D01*
X166086856Y-63990423D01*
X166156677Y-63993025D01*
X166214008Y-64032962D01*
X166240646Y-64097555D01*
X166229816Y-64162814D01*
X166180433Y-64269232D01*
X166175882Y-64279040D01*
X166145099Y-64378275D01*
X166086854Y-64566035D01*
X166036874Y-64862342D01*
X166026833Y-65162667D01*
X166056910Y-65461642D01*
X166056911Y-65461649D01*
X166126568Y-65753941D01*
X166126571Y-65753953D01*
X166234566Y-66034353D01*
X166234573Y-66034368D01*
X166378979Y-66297875D01*
X166378983Y-66297881D01*
X166470296Y-66421812D01*
X166557223Y-66539790D01*
X166766121Y-66755789D01*
X167001946Y-66942018D01*
X167260487Y-67095152D01*
X167537133Y-67212460D01*
X167537136Y-67212460D01*
X167537139Y-67212462D01*
X167659873Y-67246082D01*
X167826946Y-67291848D01*
X168124755Y-67331900D01*
X168124760Y-67331900D01*
X168350041Y-67331900D01*
X168513513Y-67320956D01*
X168574819Y-67316852D01*
X168869287Y-67256999D01*
X169153151Y-67158431D01*
X169421343Y-67022907D01*
X169669080Y-66852846D01*
X169891939Y-66651282D01*
X170085943Y-66421812D01*
X170247631Y-66168532D01*
X170374118Y-65895960D01*
X170463146Y-65608962D01*
X170513126Y-65312658D01*
X170522453Y-65033702D01*
X172225660Y-65033702D01*
X172235887Y-65248401D01*
X172286563Y-65457291D01*
X172286565Y-65457295D01*
X172365330Y-65629767D01*
X172375854Y-65652810D01*
X172500534Y-65827899D01*
X172500535Y-65827900D01*
X172500540Y-65827906D01*
X172656094Y-65976225D01*
X172656096Y-65976226D01*
X172656097Y-65976227D01*
X172836920Y-66092435D01*
X173036468Y-66172322D01*
X173141997Y-66192661D01*
X173247527Y-66213000D01*
X173247528Y-66213000D01*
X173408612Y-66213000D01*
X173408618Y-66213000D01*
X173568971Y-66197688D01*
X173775209Y-66137131D01*
X173966259Y-66038638D01*
X174135217Y-65905768D01*
X174275976Y-65743324D01*
X174309718Y-65684882D01*
X174383446Y-65557180D01*
X174383448Y-65557177D01*
X174453750Y-65354054D01*
X174484339Y-65141297D01*
X174474112Y-64926596D01*
X174423437Y-64717710D01*
X174334146Y-64522190D01*
X174209466Y-64347101D01*
X174209464Y-64347099D01*
X174209459Y-64347093D01*
X174053905Y-64198774D01*
X173873080Y-64082565D01*
X173673530Y-64002677D01*
X173462473Y-63962000D01*
X173462472Y-63962000D01*
X173301382Y-63962000D01*
X173141028Y-63977312D01*
X173141029Y-63977312D01*
X173141025Y-63977313D01*
X172934793Y-64037868D01*
X172743736Y-64136364D01*
X172574785Y-64269229D01*
X172574782Y-64269233D01*
X172434021Y-64431678D01*
X172326553Y-64617819D01*
X172256251Y-64820942D01*
X172256250Y-64820944D01*
X172225661Y-65033700D01*
X172225660Y-65033702D01*
X170522453Y-65033702D01*
X170523167Y-65012336D01*
X170493089Y-64713355D01*
X170489563Y-64698561D01*
X170462986Y-64587036D01*
X170423430Y-64421051D01*
X170315431Y-64140640D01*
X170171021Y-63877125D01*
X169992777Y-63635210D01*
X169783879Y-63419211D01*
X169783872Y-63419205D01*
X169548055Y-63232983D01*
X169548056Y-63232983D01*
X169548054Y-63232982D01*
X169289513Y-63079848D01*
X169012867Y-62962540D01*
X169012860Y-62962537D01*
X168723059Y-62883153D01*
X168723056Y-62883152D01*
X168723054Y-62883152D01*
X168425245Y-62843100D01*
X168199967Y-62843100D01*
X168199959Y-62843100D01*
X167975183Y-62858147D01*
X167975174Y-62858149D01*
X167680710Y-62918001D01*
X167396847Y-63016569D01*
X167396844Y-63016571D01*
X167128662Y-63152089D01*
X166880918Y-63322155D01*
X166658062Y-63523716D01*
X166658056Y-63523722D01*
X166652901Y-63529820D01*
X166594584Y-63568304D01*
X166524720Y-63569149D01*
X166465489Y-63532089D01*
X166435697Y-63468889D01*
X166441372Y-63408233D01*
X166471964Y-63322155D01*
X166540592Y-63129054D01*
X166540592Y-63129049D01*
X166540595Y-63129043D01*
X166584449Y-62918001D01*
X166600448Y-62841011D01*
X166620525Y-62547500D01*
X166600448Y-62253989D01*
X166572075Y-62117449D01*
X166540595Y-61965956D01*
X166540590Y-61965940D01*
X166500433Y-61852950D01*
X166442072Y-61688736D01*
X166306722Y-61427524D01*
X166306721Y-61427522D01*
X166306717Y-61427516D01*
X166137067Y-61187176D01*
X166047316Y-61091077D01*
X165936260Y-60972165D01*
X165936258Y-60972164D01*
X165936256Y-60972161D01*
X165708045Y-60786498D01*
X165456680Y-60633639D01*
X165456675Y-60633637D01*
X165186845Y-60516434D01*
X164903560Y-60437061D01*
X164903556Y-60437060D01*
X164903555Y-60437060D01*
X164743843Y-60415108D01*
X164612099Y-60397000D01*
X164612098Y-60397000D01*
X164317902Y-60397000D01*
X164317901Y-60397000D01*
X164026445Y-60437060D01*
X164026439Y-60437061D01*
X163743154Y-60516434D01*
X163473324Y-60633637D01*
X163473319Y-60633639D01*
X163234370Y-60778948D01*
X163169942Y-60797000D01*
X159839998Y-60797000D01*
X159839981Y-60797001D01*
X159737203Y-60807500D01*
X159737200Y-60807501D01*
X159570668Y-60862685D01*
X159570663Y-60862687D01*
X159421342Y-60954789D01*
X159297289Y-61078842D01*
X159205187Y-61228163D01*
X159205185Y-61228166D01*
X159205186Y-61228166D01*
X159150001Y-61394703D01*
X159150001Y-61394704D01*
X159150000Y-61394704D01*
X159139500Y-61497483D01*
X159139500Y-63597501D01*
X159139501Y-63597518D01*
X159150000Y-63700296D01*
X159150001Y-63700299D01*
X159205185Y-63866831D01*
X159205187Y-63866836D01*
X159230470Y-63907826D01*
X159297288Y-64016156D01*
X159421344Y-64140212D01*
X159570666Y-64232314D01*
X159737203Y-64287499D01*
X159839991Y-64298000D01*
X160381750Y-64297999D01*
X160448789Y-64317683D01*
X160494544Y-64370487D01*
X160505750Y-64421999D01*
X160505750Y-68179755D01*
X160504025Y-68195372D01*
X160504311Y-68195399D01*
X160503576Y-68203166D01*
X160505719Y-68271346D01*
X160505750Y-68273293D01*
X160505750Y-68301843D01*
X160505751Y-68301860D01*
X160506618Y-68308731D01*
X160507076Y-68314550D01*
X160508540Y-68361124D01*
X160508541Y-68361127D01*
X160514130Y-68380367D01*
X160518074Y-68399411D01*
X160520586Y-68419292D01*
X160537740Y-68462619D01*
X160539632Y-68468147D01*
X160552631Y-68512888D01*
X160562830Y-68530134D01*
X160571388Y-68547603D01*
X160578764Y-68566232D01*
X160606148Y-68603923D01*
X160609356Y-68608807D01*
X160633077Y-68648916D01*
X160633083Y-68648924D01*
X160647240Y-68663080D01*
X160659878Y-68677876D01*
X160671655Y-68694086D01*
X160671656Y-68694087D01*
X160707559Y-68723788D01*
X160711870Y-68727710D01*
X162559267Y-70575108D01*
X163170447Y-71186288D01*
X163180272Y-71198551D01*
X163180493Y-71198369D01*
X163185461Y-71204374D01*
X163235182Y-71251066D01*
X163236582Y-71252423D01*
X163256773Y-71272615D01*
X163256777Y-71272618D01*
X163256779Y-71272620D01*
X163262261Y-71276873D01*
X163266693Y-71280657D01*
X163300668Y-71312562D01*
X163318226Y-71322214D01*
X163334485Y-71332895D01*
X163350314Y-71345173D01*
X163393088Y-71363682D01*
X163398306Y-71366238D01*
X163439158Y-71388697D01*
X163458566Y-71393680D01*
X163476967Y-71399980D01*
X163495354Y-71407937D01*
X163538738Y-71414808D01*
X163541369Y-71415225D01*
X163547089Y-71416409D01*
X163592231Y-71428000D01*
X163612266Y-71428000D01*
X163631664Y-71429526D01*
X163651444Y-71432659D01*
X163651445Y-71432660D01*
X163651445Y-71432659D01*
X163651446Y-71432660D01*
X163697833Y-71428275D01*
X163703672Y-71428000D01*
X216501958Y-71428000D01*
X216568997Y-71447685D01*
X216605767Y-71484179D01*
X216714787Y-71651048D01*
X216869319Y-71818913D01*
X216869323Y-71818917D01*
X217049379Y-71959060D01*
X217049383Y-71959062D01*
X217057483Y-71963446D01*
X217107073Y-72012666D01*
X217122180Y-72080883D01*
X217098008Y-72146439D01*
X217057483Y-72181554D01*
X217049383Y-72185937D01*
X217049379Y-72185939D01*
X216869323Y-72326082D01*
X216869319Y-72326086D01*
X216714787Y-72493951D01*
X216605767Y-72660821D01*
X216552621Y-72706178D01*
X216501958Y-72717000D01*
X164071487Y-72717000D01*
X164055870Y-72715276D01*
X164055843Y-72715562D01*
X164048081Y-72714827D01*
X163979921Y-72716969D01*
X163977974Y-72717000D01*
X163949400Y-72717000D01*
X163948679Y-72717090D01*
X163942507Y-72717869D01*
X163936695Y-72718326D01*
X163890123Y-72719790D01*
X163890122Y-72719790D01*
X163870879Y-72725381D01*
X163851829Y-72729325D01*
X163831961Y-72731834D01*
X163831959Y-72731835D01*
X163788634Y-72748988D01*
X163783107Y-72750880D01*
X163738360Y-72763881D01*
X163738359Y-72763882D01*
X163721117Y-72774079D01*
X163703649Y-72782637D01*
X163685019Y-72790013D01*
X163685017Y-72790014D01*
X163647326Y-72817398D01*
X163642444Y-72820605D01*
X163602329Y-72844330D01*
X163588158Y-72858500D01*
X163573373Y-72871128D01*
X163557162Y-72882907D01*
X163527459Y-72918810D01*
X163523527Y-72923131D01*
X160747458Y-75699199D01*
X160735201Y-75709020D01*
X160735384Y-75709241D01*
X160729372Y-75714214D01*
X160682682Y-75763932D01*
X160681329Y-75765329D01*
X160661139Y-75785519D01*
X160661127Y-75785532D01*
X160656871Y-75791017D01*
X160653087Y-75795447D01*
X160621187Y-75829418D01*
X160621186Y-75829420D01*
X160611534Y-75846976D01*
X160600860Y-75863226D01*
X160588579Y-75879061D01*
X160588574Y-75879068D01*
X160570065Y-75921838D01*
X160567495Y-75927084D01*
X160545053Y-75967906D01*
X160540072Y-75987307D01*
X160533771Y-76005710D01*
X160525812Y-76024102D01*
X160525811Y-76024105D01*
X160518521Y-76070127D01*
X160517337Y-76075846D01*
X160505751Y-76120972D01*
X160505750Y-76120982D01*
X160505750Y-76141016D01*
X160504223Y-76160415D01*
X160501090Y-76180194D01*
X160501090Y-76180195D01*
X160505475Y-76226583D01*
X160505750Y-76232421D01*
X160505750Y-79723000D01*
X160486065Y-79790039D01*
X160433261Y-79835794D01*
X160381750Y-79847000D01*
X159839998Y-79847000D01*
X159839980Y-79847001D01*
X159737203Y-79857500D01*
X159737200Y-79857501D01*
X159570668Y-79912685D01*
X159570663Y-79912687D01*
X159421342Y-80004789D01*
X159297289Y-80128842D01*
X159205187Y-80278163D01*
X159205185Y-80278168D01*
X159185690Y-80337000D01*
X159150001Y-80444703D01*
X159150001Y-80444704D01*
X159150000Y-80444704D01*
X159139500Y-80547483D01*
X159139500Y-82647501D01*
X159139501Y-82647518D01*
X159150000Y-82750296D01*
X159150001Y-82750299D01*
X159205185Y-82916831D01*
X159205187Y-82916836D01*
X159215823Y-82934079D01*
X159297288Y-83066156D01*
X159421344Y-83190212D01*
X159570666Y-83282314D01*
X159737203Y-83337499D01*
X159839991Y-83348000D01*
X161767118Y-83347999D01*
X161767127Y-83348000D01*
X162136428Y-83347999D01*
X162203466Y-83367683D01*
X162249221Y-83420487D01*
X162259165Y-83489646D01*
X162243814Y-83533999D01*
X162166553Y-83667819D01*
X162096251Y-83870942D01*
X162096250Y-83870944D01*
X162065661Y-84083700D01*
X162065660Y-84083702D01*
X162075887Y-84298401D01*
X162126563Y-84507291D01*
X162126565Y-84507295D01*
X162195873Y-84659059D01*
X162215854Y-84702810D01*
X162340534Y-84877899D01*
X162340535Y-84877900D01*
X162340540Y-84877906D01*
X162496094Y-85026225D01*
X162496096Y-85026226D01*
X162496097Y-85026227D01*
X162676920Y-85142435D01*
X162876468Y-85222322D01*
X162981997Y-85242660D01*
X163087527Y-85263000D01*
X163087528Y-85263000D01*
X163248612Y-85263000D01*
X163248618Y-85263000D01*
X163408971Y-85247688D01*
X163615209Y-85187131D01*
X163806259Y-85088638D01*
X163975217Y-84955768D01*
X164115976Y-84793324D01*
X164132837Y-84764121D01*
X164190962Y-84663444D01*
X164223448Y-84607177D01*
X164293750Y-84404054D01*
X164324339Y-84191297D01*
X164314112Y-83976596D01*
X164295829Y-83901232D01*
X164299154Y-83831443D01*
X164339682Y-83774529D01*
X164404547Y-83748561D01*
X164416334Y-83748000D01*
X164612099Y-83748000D01*
X164643520Y-83743680D01*
X164903555Y-83707940D01*
X165186841Y-83628567D01*
X165456682Y-83511359D01*
X165708049Y-83358499D01*
X165936260Y-83172835D01*
X166026715Y-83075980D01*
X166086856Y-83040423D01*
X166156677Y-83043025D01*
X166214008Y-83082962D01*
X166240646Y-83147555D01*
X166229816Y-83212814D01*
X166180433Y-83319232D01*
X166175882Y-83329040D01*
X166173258Y-83337499D01*
X166086854Y-83616035D01*
X166036874Y-83912342D01*
X166026833Y-84212667D01*
X166056910Y-84511642D01*
X166056911Y-84511649D01*
X166126568Y-84803941D01*
X166126571Y-84803953D01*
X166234566Y-85084353D01*
X166234573Y-85084368D01*
X166378979Y-85347875D01*
X166378983Y-85347881D01*
X166470296Y-85471812D01*
X166557223Y-85589790D01*
X166766121Y-85805789D01*
X167001946Y-85992018D01*
X167260487Y-86145152D01*
X167537133Y-86262460D01*
X167537136Y-86262460D01*
X167537139Y-86262462D01*
X167682039Y-86302153D01*
X167826946Y-86341848D01*
X168124755Y-86381900D01*
X168124760Y-86381900D01*
X168350041Y-86381900D01*
X168513513Y-86370955D01*
X168574819Y-86366852D01*
X168869287Y-86306999D01*
X169153151Y-86208431D01*
X169421343Y-86072907D01*
X169669080Y-85902846D01*
X169891939Y-85701282D01*
X170085943Y-85471812D01*
X170247631Y-85218532D01*
X170374118Y-84945960D01*
X170463146Y-84658962D01*
X170513126Y-84362658D01*
X170522453Y-84083702D01*
X172225660Y-84083702D01*
X172235887Y-84298401D01*
X172286563Y-84507291D01*
X172286565Y-84507295D01*
X172355873Y-84659059D01*
X172375854Y-84702810D01*
X172500534Y-84877899D01*
X172500535Y-84877900D01*
X172500540Y-84877906D01*
X172656094Y-85026225D01*
X172656096Y-85026226D01*
X172656097Y-85026227D01*
X172836920Y-85142435D01*
X173036468Y-85222322D01*
X173141997Y-85242660D01*
X173247527Y-85263000D01*
X173247528Y-85263000D01*
X173408612Y-85263000D01*
X173408618Y-85263000D01*
X173568971Y-85247688D01*
X173775209Y-85187131D01*
X173966259Y-85088638D01*
X174135217Y-84955768D01*
X174275976Y-84793324D01*
X174292837Y-84764121D01*
X174350962Y-84663444D01*
X174383448Y-84607177D01*
X174453750Y-84404054D01*
X174484339Y-84191297D01*
X174474112Y-83976596D01*
X174423437Y-83767710D01*
X174334146Y-83572190D01*
X174209466Y-83397101D01*
X174209464Y-83397099D01*
X174209459Y-83397093D01*
X174053905Y-83248774D01*
X173873080Y-83132565D01*
X173673530Y-83052677D01*
X173462473Y-83012000D01*
X173462472Y-83012000D01*
X173301382Y-83012000D01*
X173141028Y-83027312D01*
X173141029Y-83027312D01*
X173141025Y-83027313D01*
X172934793Y-83087868D01*
X172743736Y-83186364D01*
X172574785Y-83319229D01*
X172574782Y-83319233D01*
X172434021Y-83481678D01*
X172326553Y-83667819D01*
X172256251Y-83870942D01*
X172256250Y-83870944D01*
X172225661Y-84083700D01*
X172225660Y-84083702D01*
X170522453Y-84083702D01*
X170523167Y-84062336D01*
X170493089Y-83763355D01*
X170489563Y-83748561D01*
X170470322Y-83667819D01*
X170423430Y-83471051D01*
X170315431Y-83190640D01*
X170171021Y-82927125D01*
X170145018Y-82891834D01*
X170040733Y-82750297D01*
X169992777Y-82685210D01*
X169783879Y-82469211D01*
X169783872Y-82469205D01*
X169548055Y-82282983D01*
X169548056Y-82282983D01*
X169548054Y-82282982D01*
X169289513Y-82129848D01*
X169012867Y-82012540D01*
X169012860Y-82012537D01*
X168723059Y-81933153D01*
X168723056Y-81933152D01*
X168723054Y-81933152D01*
X168425245Y-81893100D01*
X168199967Y-81893100D01*
X168199959Y-81893100D01*
X167975183Y-81908147D01*
X167975174Y-81908149D01*
X167680710Y-81968001D01*
X167396847Y-82066569D01*
X167396844Y-82066571D01*
X167128662Y-82202089D01*
X166880918Y-82372155D01*
X166658062Y-82573716D01*
X166658056Y-82573722D01*
X166652901Y-82579820D01*
X166594584Y-82618304D01*
X166524720Y-82619149D01*
X166465489Y-82582089D01*
X166435697Y-82518889D01*
X166441372Y-82458233D01*
X166471964Y-82372155D01*
X166540592Y-82179054D01*
X166540592Y-82179049D01*
X166540595Y-82179043D01*
X166584449Y-81968001D01*
X166600448Y-81891011D01*
X166620525Y-81597500D01*
X166600448Y-81303989D01*
X166572075Y-81167449D01*
X166540595Y-81015956D01*
X166540590Y-81015940D01*
X166472926Y-80825552D01*
X166442072Y-80738736D01*
X166306722Y-80477524D01*
X166306721Y-80477522D01*
X166306717Y-80477516D01*
X166137067Y-80237176D01*
X166070130Y-80165504D01*
X165936260Y-80022165D01*
X165936258Y-80022164D01*
X165936256Y-80022161D01*
X165708045Y-79836498D01*
X165456680Y-79683639D01*
X165456675Y-79683637D01*
X165186845Y-79566434D01*
X164903560Y-79487061D01*
X164903556Y-79487060D01*
X164903555Y-79487060D01*
X164757826Y-79467030D01*
X164612099Y-79447000D01*
X164612098Y-79447000D01*
X164317902Y-79447000D01*
X164317901Y-79447000D01*
X164026445Y-79487060D01*
X164026439Y-79487061D01*
X163743154Y-79566434D01*
X163473324Y-79683637D01*
X163473319Y-79683639D01*
X163234370Y-79828948D01*
X163169942Y-79847000D01*
X161880750Y-79847000D01*
X161813711Y-79827315D01*
X161767956Y-79774511D01*
X161756750Y-79723000D01*
X161756750Y-79057500D01*
X168659976Y-79057500D01*
X168680047Y-79350936D01*
X168739890Y-79638921D01*
X168739891Y-79638924D01*
X168838386Y-79916060D01*
X168838385Y-79916060D01*
X168973706Y-80177216D01*
X169125991Y-80392953D01*
X169591388Y-79927555D01*
X169707632Y-80076904D01*
X169890523Y-80245268D01*
X169945116Y-80280935D01*
X169481658Y-80744394D01*
X169572240Y-80818090D01*
X169572246Y-80818094D01*
X169823550Y-80970915D01*
X170093322Y-81088093D01*
X170376541Y-81167448D01*
X170376547Y-81167449D01*
X170667935Y-81207500D01*
X170962065Y-81207500D01*
X171253452Y-81167449D01*
X171253458Y-81167448D01*
X171536677Y-81088093D01*
X171806449Y-80970915D01*
X172045489Y-80825552D01*
X172109917Y-80807500D01*
X172364999Y-80807500D01*
X172364999Y-79307500D01*
X172865000Y-79307500D01*
X172865000Y-80807500D01*
X173539182Y-80807500D01*
X173539191Y-80807499D01*
X174115000Y-80807499D01*
X174115000Y-79307500D01*
X174615000Y-79307500D01*
X174615000Y-80807499D01*
X175439972Y-80807499D01*
X175439986Y-80807498D01*
X175542697Y-80797005D01*
X175709119Y-80741858D01*
X175709124Y-80741856D01*
X175858345Y-80649815D01*
X175982315Y-80525845D01*
X176074356Y-80376624D01*
X176074358Y-80376619D01*
X176129505Y-80210197D01*
X176129506Y-80210190D01*
X176139999Y-80107486D01*
X176140000Y-80107473D01*
X176140000Y-79307500D01*
X174615000Y-79307500D01*
X174115000Y-79307500D01*
X172865000Y-79307500D01*
X172364999Y-79307500D01*
X172365000Y-77307500D01*
X172865000Y-77307500D01*
X172865000Y-78807500D01*
X174115000Y-78807500D01*
X174115000Y-77307500D01*
X174615000Y-77307500D01*
X174615000Y-78807500D01*
X176139998Y-78807500D01*
X176139999Y-78007528D01*
X176139998Y-78007513D01*
X176129505Y-77904802D01*
X176074358Y-77738380D01*
X176074356Y-77738375D01*
X175982315Y-77589154D01*
X175858345Y-77465184D01*
X175709124Y-77373143D01*
X175709119Y-77373141D01*
X175542697Y-77317994D01*
X175542690Y-77317993D01*
X175439986Y-77307500D01*
X174615000Y-77307500D01*
X174115000Y-77307500D01*
X172865000Y-77307500D01*
X172365000Y-77307500D01*
X172109917Y-77307500D01*
X172045489Y-77289448D01*
X171806449Y-77144084D01*
X171536677Y-77026906D01*
X171253458Y-76947551D01*
X171253452Y-76947550D01*
X170962065Y-76907500D01*
X170667935Y-76907500D01*
X170376547Y-76947550D01*
X170376541Y-76947551D01*
X170093322Y-77026906D01*
X169823550Y-77144084D01*
X169572243Y-77296907D01*
X169481657Y-77370604D01*
X169945117Y-77834064D01*
X169890523Y-77869732D01*
X169707632Y-78038096D01*
X169591390Y-78187442D01*
X169125991Y-77722044D01*
X169125990Y-77722045D01*
X168973710Y-77937776D01*
X168973706Y-77937782D01*
X168838386Y-78198939D01*
X168739891Y-78476075D01*
X168739890Y-78476078D01*
X168680047Y-78764063D01*
X168659976Y-79057500D01*
X161756750Y-79057500D01*
X161756750Y-76510452D01*
X161776435Y-76443413D01*
X161793069Y-76422771D01*
X164211522Y-74004319D01*
X164272845Y-73970834D01*
X164299203Y-73968000D01*
X182814117Y-73968000D01*
X182881156Y-73987685D01*
X182926911Y-74040489D01*
X182936855Y-74109647D01*
X182909657Y-74171044D01*
X182894958Y-74188811D01*
X182891027Y-74193132D01*
X179581208Y-77502949D01*
X179568951Y-77512770D01*
X179569134Y-77512991D01*
X179563122Y-77517964D01*
X179516432Y-77567682D01*
X179515079Y-77569079D01*
X179494889Y-77589269D01*
X179494877Y-77589282D01*
X179490621Y-77594767D01*
X179486837Y-77599197D01*
X179454937Y-77633168D01*
X179454936Y-77633170D01*
X179445284Y-77650726D01*
X179434610Y-77666976D01*
X179422329Y-77682811D01*
X179422324Y-77682818D01*
X179403815Y-77725588D01*
X179401245Y-77730834D01*
X179378803Y-77771656D01*
X179373822Y-77791057D01*
X179367521Y-77809460D01*
X179359562Y-77827852D01*
X179359561Y-77827855D01*
X179352271Y-77873877D01*
X179351087Y-77879596D01*
X179339501Y-77924722D01*
X179339500Y-77924732D01*
X179339500Y-77944766D01*
X179337973Y-77964165D01*
X179334840Y-77983944D01*
X179334840Y-77983945D01*
X179339225Y-78030333D01*
X179339500Y-78036171D01*
X179339500Y-79723000D01*
X179319815Y-79790039D01*
X179267011Y-79835794D01*
X179215500Y-79847000D01*
X178889999Y-79847000D01*
X178889980Y-79847001D01*
X178787203Y-79857500D01*
X178787200Y-79857501D01*
X178620668Y-79912685D01*
X178620663Y-79912687D01*
X178471342Y-80004789D01*
X178347289Y-80128842D01*
X178255187Y-80278163D01*
X178255185Y-80278168D01*
X178235690Y-80337000D01*
X178200001Y-80444703D01*
X178200001Y-80444704D01*
X178200000Y-80444704D01*
X178189500Y-80547483D01*
X178189500Y-82647501D01*
X178189501Y-82647518D01*
X178200000Y-82750296D01*
X178200001Y-82750299D01*
X178255185Y-82916831D01*
X178255187Y-82916836D01*
X178265823Y-82934079D01*
X178347288Y-83066156D01*
X178471344Y-83190212D01*
X178620666Y-83282314D01*
X178787203Y-83337499D01*
X178889991Y-83348000D01*
X180817118Y-83347999D01*
X180817127Y-83348000D01*
X181186428Y-83347999D01*
X181253466Y-83367683D01*
X181299221Y-83420487D01*
X181309165Y-83489646D01*
X181293814Y-83533999D01*
X181216553Y-83667819D01*
X181146251Y-83870942D01*
X181146250Y-83870944D01*
X181115661Y-84083700D01*
X181115660Y-84083702D01*
X181125887Y-84298401D01*
X181176563Y-84507291D01*
X181176565Y-84507295D01*
X181245873Y-84659059D01*
X181265854Y-84702810D01*
X181390534Y-84877899D01*
X181390535Y-84877900D01*
X181390540Y-84877906D01*
X181546094Y-85026225D01*
X181546096Y-85026226D01*
X181546097Y-85026227D01*
X181726920Y-85142435D01*
X181926468Y-85222322D01*
X182031997Y-85242661D01*
X182137527Y-85263000D01*
X182137528Y-85263000D01*
X182298612Y-85263000D01*
X182298618Y-85263000D01*
X182458971Y-85247688D01*
X182665209Y-85187131D01*
X182856259Y-85088638D01*
X183025217Y-84955768D01*
X183165976Y-84793324D01*
X183182837Y-84764121D01*
X183240962Y-84663444D01*
X183273448Y-84607177D01*
X183343750Y-84404054D01*
X183374339Y-84191297D01*
X183364112Y-83976596D01*
X183345829Y-83901232D01*
X183349154Y-83831443D01*
X183389682Y-83774529D01*
X183454547Y-83748561D01*
X183466334Y-83748000D01*
X183662099Y-83748000D01*
X183693520Y-83743680D01*
X183953555Y-83707940D01*
X184236841Y-83628567D01*
X184506682Y-83511359D01*
X184758049Y-83358499D01*
X184986260Y-83172835D01*
X185076715Y-83075980D01*
X185136856Y-83040423D01*
X185206677Y-83043025D01*
X185264008Y-83082962D01*
X185290646Y-83147555D01*
X185279816Y-83212814D01*
X185230433Y-83319232D01*
X185225882Y-83329040D01*
X185223258Y-83337499D01*
X185136854Y-83616035D01*
X185086874Y-83912342D01*
X185076833Y-84212667D01*
X185106910Y-84511642D01*
X185106911Y-84511649D01*
X185176568Y-84803941D01*
X185176571Y-84803953D01*
X185284566Y-85084353D01*
X185284573Y-85084368D01*
X185428979Y-85347875D01*
X185428983Y-85347881D01*
X185520296Y-85471812D01*
X185607223Y-85589790D01*
X185816121Y-85805789D01*
X186051946Y-85992018D01*
X186310487Y-86145152D01*
X186587133Y-86262460D01*
X186587136Y-86262460D01*
X186587139Y-86262462D01*
X186732039Y-86302153D01*
X186876946Y-86341848D01*
X187174755Y-86381900D01*
X187174760Y-86381900D01*
X187400041Y-86381900D01*
X187563513Y-86370955D01*
X187624819Y-86366852D01*
X187919287Y-86306999D01*
X188203151Y-86208431D01*
X188471343Y-86072907D01*
X188719080Y-85902846D01*
X188941939Y-85701282D01*
X189135943Y-85471812D01*
X189297631Y-85218532D01*
X189424118Y-84945960D01*
X189513146Y-84658962D01*
X189563126Y-84362658D01*
X189572453Y-84083702D01*
X191275660Y-84083702D01*
X191285887Y-84298401D01*
X191336563Y-84507291D01*
X191336565Y-84507295D01*
X191405873Y-84659059D01*
X191425854Y-84702810D01*
X191550534Y-84877899D01*
X191550535Y-84877900D01*
X191550540Y-84877906D01*
X191706094Y-85026225D01*
X191706096Y-85026226D01*
X191706097Y-85026227D01*
X191886920Y-85142435D01*
X192086468Y-85222322D01*
X192191997Y-85242661D01*
X192297527Y-85263000D01*
X192297528Y-85263000D01*
X192458612Y-85263000D01*
X192458618Y-85263000D01*
X192618971Y-85247688D01*
X192825209Y-85187131D01*
X193016259Y-85088638D01*
X193185217Y-84955768D01*
X193325976Y-84793324D01*
X193342837Y-84764121D01*
X193400962Y-84663444D01*
X193433448Y-84607177D01*
X193503750Y-84404054D01*
X193534339Y-84191297D01*
X193524112Y-83976596D01*
X193473437Y-83767710D01*
X193384146Y-83572190D01*
X193259466Y-83397101D01*
X193259464Y-83397099D01*
X193259459Y-83397093D01*
X193103905Y-83248774D01*
X192923080Y-83132565D01*
X192723530Y-83052677D01*
X192512473Y-83012000D01*
X192512472Y-83012000D01*
X192351382Y-83012000D01*
X192191028Y-83027312D01*
X192191029Y-83027312D01*
X192191025Y-83027313D01*
X191984793Y-83087868D01*
X191793736Y-83186364D01*
X191624785Y-83319229D01*
X191624782Y-83319233D01*
X191484021Y-83481678D01*
X191376553Y-83667819D01*
X191306251Y-83870942D01*
X191306250Y-83870944D01*
X191275661Y-84083700D01*
X191275660Y-84083702D01*
X189572453Y-84083702D01*
X189573167Y-84062336D01*
X189543089Y-83763355D01*
X189539563Y-83748561D01*
X189520322Y-83667819D01*
X189473430Y-83471051D01*
X189365431Y-83190640D01*
X189221021Y-82927125D01*
X189195018Y-82891834D01*
X189090733Y-82750297D01*
X189042777Y-82685210D01*
X188833879Y-82469211D01*
X188833872Y-82469205D01*
X188598055Y-82282983D01*
X188598056Y-82282983D01*
X188598054Y-82282982D01*
X188339513Y-82129848D01*
X188062867Y-82012540D01*
X188062860Y-82012537D01*
X187773059Y-81933153D01*
X187773056Y-81933152D01*
X187773054Y-81933152D01*
X187475245Y-81893100D01*
X187249967Y-81893100D01*
X187249959Y-81893100D01*
X187025183Y-81908147D01*
X187025174Y-81908149D01*
X186730710Y-81968001D01*
X186446847Y-82066569D01*
X186446844Y-82066571D01*
X186178662Y-82202089D01*
X185930918Y-82372155D01*
X185708062Y-82573716D01*
X185708056Y-82573722D01*
X185702901Y-82579820D01*
X185644584Y-82618304D01*
X185574720Y-82619149D01*
X185515489Y-82582089D01*
X185485697Y-82518889D01*
X185491372Y-82458233D01*
X185521964Y-82372155D01*
X185590592Y-82179054D01*
X185590592Y-82179049D01*
X185590595Y-82179043D01*
X185634449Y-81968001D01*
X185650448Y-81891011D01*
X185670525Y-81597500D01*
X185650448Y-81303989D01*
X185622075Y-81167449D01*
X185590595Y-81015956D01*
X185590590Y-81015940D01*
X185522926Y-80825552D01*
X185492072Y-80738736D01*
X185356722Y-80477524D01*
X185356721Y-80477522D01*
X185356717Y-80477516D01*
X185187067Y-80237176D01*
X185120129Y-80165504D01*
X184986260Y-80022165D01*
X184986258Y-80022164D01*
X184986256Y-80022161D01*
X184758045Y-79836498D01*
X184506680Y-79683639D01*
X184506675Y-79683637D01*
X184236845Y-79566434D01*
X183953560Y-79487061D01*
X183953556Y-79487060D01*
X183953555Y-79487060D01*
X183807826Y-79467030D01*
X183662099Y-79447000D01*
X183662098Y-79447000D01*
X183367902Y-79447000D01*
X183367901Y-79447000D01*
X183076445Y-79487060D01*
X183076439Y-79487061D01*
X182793154Y-79566434D01*
X182523324Y-79683637D01*
X182523319Y-79683639D01*
X182284370Y-79828948D01*
X182219942Y-79847000D01*
X180714500Y-79847000D01*
X180647461Y-79827315D01*
X180601706Y-79774511D01*
X180590500Y-79723000D01*
X180590500Y-79057499D01*
X187709976Y-79057499D01*
X187730047Y-79350936D01*
X187789890Y-79638921D01*
X187789891Y-79638924D01*
X187888386Y-79916060D01*
X187888385Y-79916060D01*
X188023706Y-80177216D01*
X188175991Y-80392953D01*
X188641388Y-79927555D01*
X188757632Y-80076904D01*
X188940523Y-80245268D01*
X188995116Y-80280935D01*
X188531658Y-80744394D01*
X188622240Y-80818090D01*
X188622246Y-80818094D01*
X188873550Y-80970915D01*
X189143322Y-81088093D01*
X189426541Y-81167448D01*
X189426547Y-81167449D01*
X189717935Y-81207500D01*
X190012065Y-81207500D01*
X190303452Y-81167449D01*
X190303458Y-81167448D01*
X190586677Y-81088093D01*
X190856449Y-80970915D01*
X191095489Y-80825552D01*
X191159917Y-80807500D01*
X191415000Y-80807500D01*
X191415000Y-79307500D01*
X191915000Y-79307500D01*
X191915000Y-80807500D01*
X192589182Y-80807500D01*
X192589191Y-80807499D01*
X193164999Y-80807499D01*
X193165000Y-79307500D01*
X193665000Y-79307500D01*
X193665000Y-80807499D01*
X194489972Y-80807499D01*
X194489986Y-80807498D01*
X194592697Y-80797005D01*
X194759119Y-80741858D01*
X194759124Y-80741856D01*
X194908345Y-80649815D01*
X195032315Y-80525845D01*
X195124356Y-80376624D01*
X195124358Y-80376619D01*
X195179505Y-80210197D01*
X195179506Y-80210190D01*
X195189999Y-80107486D01*
X195190000Y-80107473D01*
X195190000Y-79307500D01*
X193665000Y-79307500D01*
X193165000Y-79307500D01*
X191915000Y-79307500D01*
X191415000Y-79307500D01*
X191415000Y-77307500D01*
X191915000Y-77307500D01*
X191915000Y-78807500D01*
X193164999Y-78807500D01*
X193165000Y-77307500D01*
X193665000Y-77307500D01*
X193665000Y-78807500D01*
X195189999Y-78807500D01*
X195189999Y-78007528D01*
X195189998Y-78007513D01*
X195179505Y-77904802D01*
X195124358Y-77738380D01*
X195124356Y-77738375D01*
X195032315Y-77589154D01*
X194908345Y-77465184D01*
X194759124Y-77373143D01*
X194759119Y-77373141D01*
X194592697Y-77317994D01*
X194592690Y-77317993D01*
X194489986Y-77307500D01*
X193665000Y-77307500D01*
X193165000Y-77307500D01*
X191915000Y-77307500D01*
X191415000Y-77307500D01*
X191159917Y-77307500D01*
X191095489Y-77289448D01*
X190856449Y-77144084D01*
X190586677Y-77026906D01*
X190303458Y-76947551D01*
X190303452Y-76947550D01*
X190012065Y-76907500D01*
X189717935Y-76907500D01*
X189426547Y-76947550D01*
X189426541Y-76947551D01*
X189143322Y-77026906D01*
X188873550Y-77144084D01*
X188622243Y-77296907D01*
X188531657Y-77370604D01*
X188995117Y-77834064D01*
X188940523Y-77869732D01*
X188757632Y-78038096D01*
X188641389Y-78187442D01*
X188175991Y-77722044D01*
X188175990Y-77722045D01*
X188023710Y-77937776D01*
X188023706Y-77937782D01*
X187888386Y-78198939D01*
X187789891Y-78476075D01*
X187789890Y-78476078D01*
X187730047Y-78764063D01*
X187709976Y-79057499D01*
X180590500Y-79057499D01*
X180590500Y-78314201D01*
X180610185Y-78247162D01*
X180626814Y-78226525D01*
X183579021Y-75274319D01*
X183640344Y-75240834D01*
X183666702Y-75238000D01*
X199009297Y-75238000D01*
X199076336Y-75257685D01*
X199122091Y-75310489D01*
X199132035Y-75379647D01*
X199103010Y-75443203D01*
X199096990Y-75449668D01*
X199023291Y-75523368D01*
X198847458Y-75699200D01*
X198835201Y-75709020D01*
X198835384Y-75709241D01*
X198829372Y-75714214D01*
X198782682Y-75763932D01*
X198781329Y-75765329D01*
X198761139Y-75785519D01*
X198761127Y-75785532D01*
X198756871Y-75791017D01*
X198753087Y-75795447D01*
X198721187Y-75829418D01*
X198721186Y-75829420D01*
X198711534Y-75846976D01*
X198700860Y-75863226D01*
X198688579Y-75879061D01*
X198688574Y-75879068D01*
X198670065Y-75921838D01*
X198667495Y-75927084D01*
X198645053Y-75967906D01*
X198640072Y-75987307D01*
X198633771Y-76005710D01*
X198625812Y-76024102D01*
X198625811Y-76024105D01*
X198618521Y-76070127D01*
X198617337Y-76075846D01*
X198605751Y-76120972D01*
X198605750Y-76120982D01*
X198605750Y-76141016D01*
X198604223Y-76160415D01*
X198601090Y-76180194D01*
X198601090Y-76180195D01*
X198605475Y-76226583D01*
X198605750Y-76232421D01*
X198605750Y-79723000D01*
X198586065Y-79790039D01*
X198533261Y-79835794D01*
X198481750Y-79847000D01*
X197939998Y-79847000D01*
X197939980Y-79847001D01*
X197837203Y-79857500D01*
X197837200Y-79857501D01*
X197670668Y-79912685D01*
X197670663Y-79912687D01*
X197521342Y-80004789D01*
X197397289Y-80128842D01*
X197305187Y-80278163D01*
X197305185Y-80278168D01*
X197285690Y-80337000D01*
X197250001Y-80444703D01*
X197250001Y-80444704D01*
X197250000Y-80444704D01*
X197239500Y-80547483D01*
X197239500Y-82647501D01*
X197239501Y-82647518D01*
X197250000Y-82750296D01*
X197250001Y-82750299D01*
X197305185Y-82916831D01*
X197305187Y-82916836D01*
X197315823Y-82934079D01*
X197397288Y-83066156D01*
X197521344Y-83190212D01*
X197670666Y-83282314D01*
X197837203Y-83337499D01*
X197939991Y-83348000D01*
X199867118Y-83347999D01*
X199867127Y-83348000D01*
X200236428Y-83347999D01*
X200303466Y-83367683D01*
X200349221Y-83420487D01*
X200359165Y-83489646D01*
X200343814Y-83533999D01*
X200266553Y-83667819D01*
X200196251Y-83870942D01*
X200196250Y-83870944D01*
X200165661Y-84083700D01*
X200165660Y-84083702D01*
X200175887Y-84298401D01*
X200226563Y-84507291D01*
X200226565Y-84507295D01*
X200295873Y-84659059D01*
X200315854Y-84702810D01*
X200440534Y-84877899D01*
X200440535Y-84877900D01*
X200440540Y-84877906D01*
X200596094Y-85026225D01*
X200596096Y-85026226D01*
X200596097Y-85026227D01*
X200776920Y-85142435D01*
X200976468Y-85222322D01*
X201081997Y-85242660D01*
X201187527Y-85263000D01*
X201187528Y-85263000D01*
X201348612Y-85263000D01*
X201348618Y-85263000D01*
X201508971Y-85247688D01*
X201715209Y-85187131D01*
X201906259Y-85088638D01*
X202075217Y-84955768D01*
X202215976Y-84793324D01*
X202232837Y-84764121D01*
X202290962Y-84663444D01*
X202323448Y-84607177D01*
X202393750Y-84404054D01*
X202424339Y-84191297D01*
X202414112Y-83976596D01*
X202395829Y-83901232D01*
X202399154Y-83831443D01*
X202439682Y-83774529D01*
X202504547Y-83748561D01*
X202516334Y-83748000D01*
X202712099Y-83748000D01*
X202743520Y-83743680D01*
X203003555Y-83707940D01*
X203286841Y-83628567D01*
X203556682Y-83511359D01*
X203808049Y-83358499D01*
X204036260Y-83172835D01*
X204126715Y-83075980D01*
X204186856Y-83040423D01*
X204256677Y-83043025D01*
X204314008Y-83082962D01*
X204340646Y-83147555D01*
X204329816Y-83212814D01*
X204280433Y-83319232D01*
X204275882Y-83329040D01*
X204273258Y-83337499D01*
X204186854Y-83616035D01*
X204136874Y-83912342D01*
X204126833Y-84212667D01*
X204156910Y-84511642D01*
X204156911Y-84511649D01*
X204226568Y-84803941D01*
X204226571Y-84803953D01*
X204334566Y-85084353D01*
X204334573Y-85084368D01*
X204478979Y-85347875D01*
X204478983Y-85347881D01*
X204570296Y-85471812D01*
X204657223Y-85589790D01*
X204866121Y-85805789D01*
X205101946Y-85992018D01*
X205360487Y-86145152D01*
X205637133Y-86262460D01*
X205637136Y-86262460D01*
X205637139Y-86262462D01*
X205782039Y-86302153D01*
X205926946Y-86341848D01*
X206224755Y-86381900D01*
X206224760Y-86381900D01*
X206450041Y-86381900D01*
X206613513Y-86370955D01*
X206674819Y-86366852D01*
X206969287Y-86306999D01*
X207253151Y-86208431D01*
X207521343Y-86072907D01*
X207769080Y-85902846D01*
X207991939Y-85701282D01*
X208185943Y-85471812D01*
X208347631Y-85218532D01*
X208474118Y-84945960D01*
X208563146Y-84658962D01*
X208613126Y-84362658D01*
X208622453Y-84083702D01*
X210325660Y-84083702D01*
X210335887Y-84298401D01*
X210386563Y-84507291D01*
X210386565Y-84507295D01*
X210455873Y-84659059D01*
X210475854Y-84702810D01*
X210600534Y-84877899D01*
X210600535Y-84877900D01*
X210600540Y-84877906D01*
X210756094Y-85026225D01*
X210756096Y-85026226D01*
X210756097Y-85026227D01*
X210936920Y-85142435D01*
X211136468Y-85222322D01*
X211241997Y-85242660D01*
X211347527Y-85263000D01*
X211347528Y-85263000D01*
X211508612Y-85263000D01*
X211508618Y-85263000D01*
X211668971Y-85247688D01*
X211875209Y-85187131D01*
X212066259Y-85088638D01*
X212235217Y-84955768D01*
X212375976Y-84793324D01*
X212392837Y-84764121D01*
X212450962Y-84663444D01*
X212483448Y-84607177D01*
X212553750Y-84404054D01*
X212584339Y-84191297D01*
X212574112Y-83976596D01*
X212523437Y-83767710D01*
X212434146Y-83572190D01*
X212309466Y-83397101D01*
X212309464Y-83397099D01*
X212309459Y-83397093D01*
X212153905Y-83248774D01*
X211973080Y-83132565D01*
X211773530Y-83052677D01*
X211562473Y-83012000D01*
X211562472Y-83012000D01*
X211401382Y-83012000D01*
X211241028Y-83027312D01*
X211241029Y-83027312D01*
X211241025Y-83027313D01*
X211034793Y-83087868D01*
X210843736Y-83186364D01*
X210674785Y-83319229D01*
X210674782Y-83319233D01*
X210534021Y-83481678D01*
X210426553Y-83667819D01*
X210356251Y-83870942D01*
X210356250Y-83870944D01*
X210325661Y-84083700D01*
X210325660Y-84083702D01*
X208622453Y-84083702D01*
X208623167Y-84062336D01*
X208593089Y-83763355D01*
X208589563Y-83748561D01*
X208570322Y-83667819D01*
X208523430Y-83471051D01*
X208415431Y-83190640D01*
X208271021Y-82927125D01*
X208245018Y-82891834D01*
X208140733Y-82750297D01*
X208092777Y-82685210D01*
X207883879Y-82469211D01*
X207883872Y-82469205D01*
X207648055Y-82282983D01*
X207648056Y-82282983D01*
X207648054Y-82282982D01*
X207389513Y-82129848D01*
X207112867Y-82012540D01*
X207112860Y-82012537D01*
X206823059Y-81933153D01*
X206823056Y-81933152D01*
X206823054Y-81933152D01*
X206525245Y-81893100D01*
X206299967Y-81893100D01*
X206299959Y-81893100D01*
X206075183Y-81908147D01*
X206075174Y-81908149D01*
X205780710Y-81968001D01*
X205496847Y-82066569D01*
X205496844Y-82066571D01*
X205228662Y-82202089D01*
X204980918Y-82372155D01*
X204758062Y-82573716D01*
X204758056Y-82573722D01*
X204752901Y-82579820D01*
X204694584Y-82618304D01*
X204624720Y-82619149D01*
X204565489Y-82582089D01*
X204535697Y-82518889D01*
X204541372Y-82458233D01*
X204571964Y-82372155D01*
X204640592Y-82179054D01*
X204640592Y-82179049D01*
X204640595Y-82179043D01*
X204684449Y-81968001D01*
X204700448Y-81891011D01*
X204720525Y-81597500D01*
X204700448Y-81303989D01*
X204672075Y-81167449D01*
X204640595Y-81015956D01*
X204640590Y-81015940D01*
X204572926Y-80825552D01*
X204542072Y-80738736D01*
X204406722Y-80477524D01*
X204406721Y-80477522D01*
X204406717Y-80477516D01*
X204237067Y-80237176D01*
X204170129Y-80165504D01*
X204036260Y-80022165D01*
X204036258Y-80022164D01*
X204036256Y-80022161D01*
X203808045Y-79836498D01*
X203556680Y-79683639D01*
X203556675Y-79683637D01*
X203286845Y-79566434D01*
X203003560Y-79487061D01*
X203003556Y-79487060D01*
X203003555Y-79487060D01*
X202857826Y-79467030D01*
X202712099Y-79447000D01*
X202712098Y-79447000D01*
X202417902Y-79447000D01*
X202417901Y-79447000D01*
X202126445Y-79487060D01*
X202126439Y-79487061D01*
X201843154Y-79566434D01*
X201573324Y-79683637D01*
X201573319Y-79683639D01*
X201334370Y-79828948D01*
X201269942Y-79847000D01*
X199980750Y-79847000D01*
X199913711Y-79827315D01*
X199867956Y-79774511D01*
X199856750Y-79723000D01*
X199856750Y-79057500D01*
X206759976Y-79057500D01*
X206780047Y-79350936D01*
X206839890Y-79638921D01*
X206839891Y-79638924D01*
X206938386Y-79916060D01*
X206938385Y-79916060D01*
X207073706Y-80177216D01*
X207225991Y-80392953D01*
X207691388Y-79927555D01*
X207807632Y-80076904D01*
X207990523Y-80245268D01*
X208045116Y-80280935D01*
X207581658Y-80744394D01*
X207672240Y-80818090D01*
X207672246Y-80818094D01*
X207923550Y-80970915D01*
X208193322Y-81088093D01*
X208476541Y-81167448D01*
X208476547Y-81167449D01*
X208767935Y-81207500D01*
X209062065Y-81207500D01*
X209353452Y-81167449D01*
X209353458Y-81167448D01*
X209636677Y-81088093D01*
X209906449Y-80970915D01*
X210145489Y-80825552D01*
X210209917Y-80807500D01*
X210465000Y-80807500D01*
X210465000Y-79307500D01*
X210965000Y-79307500D01*
X210965000Y-80807500D01*
X211639182Y-80807500D01*
X211639191Y-80807499D01*
X212215000Y-80807499D01*
X212215000Y-79307500D01*
X212715000Y-79307500D01*
X212715000Y-80807499D01*
X213539972Y-80807499D01*
X213539986Y-80807498D01*
X213642697Y-80797005D01*
X213809119Y-80741858D01*
X213809124Y-80741856D01*
X213958345Y-80649815D01*
X214082315Y-80525845D01*
X214174356Y-80376624D01*
X214174358Y-80376619D01*
X214229505Y-80210197D01*
X214229506Y-80210190D01*
X214239999Y-80107486D01*
X214240000Y-80107473D01*
X214240000Y-79307500D01*
X212715000Y-79307500D01*
X212215000Y-79307500D01*
X210965000Y-79307500D01*
X210465000Y-79307500D01*
X210465000Y-77307500D01*
X210965000Y-77307500D01*
X210965000Y-78807500D01*
X212215000Y-78807500D01*
X212215000Y-77307500D01*
X212715000Y-77307500D01*
X212715000Y-78807500D01*
X214239998Y-78807500D01*
X214239999Y-78007528D01*
X214239998Y-78007513D01*
X214229505Y-77904802D01*
X214174358Y-77738380D01*
X214174356Y-77738375D01*
X214082315Y-77589154D01*
X213958345Y-77465184D01*
X213809124Y-77373143D01*
X213809119Y-77373141D01*
X213642697Y-77317994D01*
X213642690Y-77317993D01*
X213539986Y-77307500D01*
X212715000Y-77307500D01*
X212215000Y-77307500D01*
X210965000Y-77307500D01*
X210465000Y-77307500D01*
X210209917Y-77307500D01*
X210145489Y-77289448D01*
X209906449Y-77144084D01*
X209636677Y-77026906D01*
X209353458Y-76947551D01*
X209353452Y-76947550D01*
X209062065Y-76907500D01*
X208767935Y-76907500D01*
X208476547Y-76947550D01*
X208476541Y-76947551D01*
X208193322Y-77026906D01*
X207923550Y-77144084D01*
X207672243Y-77296907D01*
X207581657Y-77370604D01*
X208045117Y-77834064D01*
X207990523Y-77869732D01*
X207807632Y-78038096D01*
X207691389Y-78187443D01*
X207225991Y-77722045D01*
X207225990Y-77722045D01*
X207073710Y-77937776D01*
X207073706Y-77937782D01*
X206938386Y-78198939D01*
X206839891Y-78476075D01*
X206839890Y-78476078D01*
X206780047Y-78764063D01*
X206759976Y-79057500D01*
X199856750Y-79057500D01*
X199856750Y-76510452D01*
X199876435Y-76443413D01*
X199893069Y-76422771D01*
X200247772Y-76068069D01*
X200309095Y-76034584D01*
X200335453Y-76031750D01*
X213208298Y-76031750D01*
X213275337Y-76051435D01*
X213295979Y-76068069D01*
X215399197Y-78171288D01*
X215409022Y-78183551D01*
X215409243Y-78183369D01*
X215414211Y-78189374D01*
X215463932Y-78236066D01*
X215465332Y-78237423D01*
X215485523Y-78257615D01*
X215485527Y-78257618D01*
X215485529Y-78257620D01*
X215491011Y-78261873D01*
X215495443Y-78265657D01*
X215529418Y-78297562D01*
X215546972Y-78307212D01*
X215563236Y-78317896D01*
X215579058Y-78330169D01*
X215579061Y-78330171D01*
X215579064Y-78330173D01*
X215579066Y-78330174D01*
X215585773Y-78334140D01*
X215585050Y-78335361D01*
X215612967Y-78354332D01*
X216064919Y-78806284D01*
X216074744Y-78818548D01*
X216074965Y-78818366D01*
X216079935Y-78824374D01*
X216129674Y-78871082D01*
X216131041Y-78872406D01*
X216151255Y-78892620D01*
X216156729Y-78896866D01*
X216161167Y-78900656D01*
X216195143Y-78932562D01*
X216212698Y-78942213D01*
X216228956Y-78952892D01*
X216244789Y-78965174D01*
X216255524Y-78969819D01*
X216287562Y-78983683D01*
X216292806Y-78986252D01*
X216333633Y-79008697D01*
X216353037Y-79013679D01*
X216371435Y-79019978D01*
X216389830Y-79027938D01*
X216435854Y-79035226D01*
X216441557Y-79036407D01*
X216486706Y-79048000D01*
X216501958Y-79048000D01*
X216568997Y-79067685D01*
X216605767Y-79104179D01*
X216714787Y-79271048D01*
X216869319Y-79438913D01*
X216869323Y-79438917D01*
X217049379Y-79579060D01*
X217049380Y-79579060D01*
X217049381Y-79579061D01*
X217057477Y-79583442D01*
X217107069Y-79632659D01*
X217122181Y-79700875D01*
X217098013Y-79766431D01*
X217057490Y-79801549D01*
X217049388Y-79805934D01*
X217049379Y-79805939D01*
X216869323Y-79946082D01*
X216869319Y-79946086D01*
X216714787Y-80113951D01*
X216605767Y-80280821D01*
X216552621Y-80326178D01*
X216501958Y-80337000D01*
X215188993Y-80337000D01*
X215173372Y-80335275D01*
X215173346Y-80335561D01*
X215165583Y-80334826D01*
X215097403Y-80336969D01*
X215095456Y-80337000D01*
X215066899Y-80337000D01*
X215060016Y-80337869D01*
X215054199Y-80338326D01*
X215007623Y-80339790D01*
X214988379Y-80345381D01*
X214969329Y-80349325D01*
X214949461Y-80351834D01*
X214906134Y-80368988D01*
X214900608Y-80370879D01*
X214855864Y-80383879D01*
X214855860Y-80383881D01*
X214838616Y-80394079D01*
X214821155Y-80402633D01*
X214802524Y-80410010D01*
X214802512Y-80410017D01*
X214764820Y-80437402D01*
X214759937Y-80440609D01*
X214719830Y-80464329D01*
X214705664Y-80478495D01*
X214690874Y-80491127D01*
X214674664Y-80502904D01*
X214674661Y-80502907D01*
X214644960Y-80538809D01*
X214641027Y-80543131D01*
X213928708Y-81255449D01*
X213916451Y-81265270D01*
X213916634Y-81265491D01*
X213910622Y-81270464D01*
X213863932Y-81320182D01*
X213862579Y-81321579D01*
X213842389Y-81341769D01*
X213842377Y-81341782D01*
X213838121Y-81347267D01*
X213834337Y-81351697D01*
X213802437Y-81385668D01*
X213802436Y-81385670D01*
X213792784Y-81403226D01*
X213782110Y-81419476D01*
X213769829Y-81435311D01*
X213769824Y-81435318D01*
X213751315Y-81478088D01*
X213748745Y-81483334D01*
X213726303Y-81524156D01*
X213721322Y-81543557D01*
X213715021Y-81561960D01*
X213707062Y-81580352D01*
X213707061Y-81580355D01*
X213699771Y-81626377D01*
X213698587Y-81632096D01*
X213687001Y-81677222D01*
X213687000Y-81677232D01*
X213687000Y-81697266D01*
X213685473Y-81716665D01*
X213682340Y-81736444D01*
X213682340Y-81736445D01*
X213686725Y-81782833D01*
X213687000Y-81788671D01*
X213687000Y-90177046D01*
X213667315Y-90244085D01*
X213650681Y-90264727D01*
X212502228Y-91413181D01*
X212440905Y-91446666D01*
X212414547Y-91449500D01*
X165182743Y-91449500D01*
X165167122Y-91447775D01*
X165167095Y-91448061D01*
X165159333Y-91447326D01*
X165091140Y-91449469D01*
X165089193Y-91449500D01*
X165060649Y-91449500D01*
X165053778Y-91450367D01*
X165047959Y-91450825D01*
X165001374Y-91452289D01*
X165001368Y-91452290D01*
X164982126Y-91457880D01*
X164963087Y-91461823D01*
X164943217Y-91464334D01*
X164943203Y-91464337D01*
X164899883Y-91481488D01*
X164894358Y-91483380D01*
X164849613Y-91496380D01*
X164849610Y-91496381D01*
X164832366Y-91506579D01*
X164814905Y-91515133D01*
X164796274Y-91522510D01*
X164796262Y-91522517D01*
X164758570Y-91549902D01*
X164753687Y-91553109D01*
X164713580Y-91576829D01*
X164699414Y-91590995D01*
X164684624Y-91603627D01*
X164668414Y-91615404D01*
X164668411Y-91615407D01*
X164638710Y-91651309D01*
X164634777Y-91655631D01*
X160531208Y-95759199D01*
X160518951Y-95769020D01*
X160519134Y-95769241D01*
X160513122Y-95774214D01*
X160466432Y-95823932D01*
X160465079Y-95825329D01*
X160444889Y-95845519D01*
X160444877Y-95845532D01*
X160440621Y-95851017D01*
X160436837Y-95855447D01*
X160404937Y-95889418D01*
X160404936Y-95889420D01*
X160395284Y-95906976D01*
X160384610Y-95923226D01*
X160372329Y-95939061D01*
X160372324Y-95939068D01*
X160353815Y-95981838D01*
X160351245Y-95987084D01*
X160328803Y-96027906D01*
X160323822Y-96047307D01*
X160317521Y-96065710D01*
X160309562Y-96084102D01*
X160309561Y-96084105D01*
X160302271Y-96130127D01*
X160301087Y-96135846D01*
X160289501Y-96180972D01*
X160289500Y-96180982D01*
X160289500Y-96201016D01*
X160287973Y-96220415D01*
X160284840Y-96240194D01*
X160284840Y-96240195D01*
X160289225Y-96286583D01*
X160289500Y-96292421D01*
X160289500Y-98773000D01*
X160269815Y-98840039D01*
X160217011Y-98885794D01*
X160165500Y-98897000D01*
X159839999Y-98897000D01*
X159839980Y-98897001D01*
X159737203Y-98907500D01*
X159737200Y-98907501D01*
X159570668Y-98962685D01*
X159570663Y-98962687D01*
X159421342Y-99054789D01*
X159297289Y-99178842D01*
X159205187Y-99328163D01*
X159205185Y-99328166D01*
X159205186Y-99328166D01*
X159150001Y-99494703D01*
X159150001Y-99494704D01*
X159150000Y-99494704D01*
X159139500Y-99597483D01*
X159139500Y-101697501D01*
X158750500Y-101697501D01*
X158750500Y-60007500D01*
X168659976Y-60007500D01*
X168680047Y-60300936D01*
X168739890Y-60588921D01*
X168739891Y-60588924D01*
X168838386Y-60866060D01*
X168838385Y-60866060D01*
X168973706Y-61127216D01*
X169125991Y-61342953D01*
X169591388Y-60877555D01*
X169707632Y-61026904D01*
X169890523Y-61195268D01*
X169945116Y-61230935D01*
X169481658Y-61694394D01*
X169572240Y-61768090D01*
X169572246Y-61768094D01*
X169823550Y-61920915D01*
X170093322Y-62038093D01*
X170376541Y-62117448D01*
X170376547Y-62117449D01*
X170667935Y-62157500D01*
X170962065Y-62157500D01*
X171253452Y-62117449D01*
X171253458Y-62117448D01*
X171536677Y-62038093D01*
X171806449Y-61920915D01*
X172045489Y-61775552D01*
X172109917Y-61757500D01*
X172364999Y-61757500D01*
X172364999Y-60257500D01*
X172865000Y-60257500D01*
X172865000Y-61757500D01*
X173539182Y-61757500D01*
X173539191Y-61757499D01*
X174115000Y-61757499D01*
X174115000Y-60257500D01*
X174615000Y-60257500D01*
X174615000Y-61757499D01*
X175439972Y-61757499D01*
X175439986Y-61757498D01*
X175542697Y-61747005D01*
X175709119Y-61691858D01*
X175709124Y-61691856D01*
X175858345Y-61599815D01*
X175982315Y-61475845D01*
X176074356Y-61326624D01*
X176074358Y-61326619D01*
X176129505Y-61160197D01*
X176129506Y-61160190D01*
X176139999Y-61057486D01*
X176140000Y-61057473D01*
X176140000Y-60257500D01*
X174615000Y-60257500D01*
X174115000Y-60257500D01*
X172865000Y-60257500D01*
X172364999Y-60257500D01*
X172364999Y-60007499D01*
X187709976Y-60007499D01*
X187730047Y-60300936D01*
X187789890Y-60588921D01*
X187789891Y-60588924D01*
X187888386Y-60866060D01*
X187888385Y-60866060D01*
X188023706Y-61127216D01*
X188175991Y-61342953D01*
X188641388Y-60877555D01*
X188757632Y-61026904D01*
X188940523Y-61195268D01*
X188995116Y-61230935D01*
X188531658Y-61694394D01*
X188622240Y-61768090D01*
X188622246Y-61768094D01*
X188873550Y-61920915D01*
X189143322Y-62038093D01*
X189426541Y-62117448D01*
X189426547Y-62117449D01*
X189717935Y-62157500D01*
X190012065Y-62157500D01*
X190303452Y-62117449D01*
X190303458Y-62117448D01*
X190586677Y-62038093D01*
X190856449Y-61920915D01*
X191095489Y-61775552D01*
X191159917Y-61757500D01*
X191415000Y-61757500D01*
X191415000Y-60257500D01*
X191915000Y-60257500D01*
X191915000Y-61757500D01*
X192589182Y-61757500D01*
X192589191Y-61757499D01*
X193164999Y-61757499D01*
X193165000Y-60257500D01*
X193665000Y-60257500D01*
X193665000Y-61757499D01*
X194489972Y-61757499D01*
X194489986Y-61757498D01*
X194592697Y-61747005D01*
X194759119Y-61691858D01*
X194759124Y-61691856D01*
X194908345Y-61599815D01*
X195032315Y-61475845D01*
X195124356Y-61326624D01*
X195124358Y-61326619D01*
X195179505Y-61160197D01*
X195179506Y-61160190D01*
X195189999Y-61057486D01*
X195190000Y-61057473D01*
X195190000Y-60257500D01*
X193665000Y-60257500D01*
X193165000Y-60257500D01*
X191915000Y-60257500D01*
X191415000Y-60257500D01*
X191415000Y-58257500D01*
X191915000Y-58257500D01*
X191915000Y-59757500D01*
X193164999Y-59757500D01*
X193165000Y-58257500D01*
X193665000Y-58257500D01*
X193665000Y-59757500D01*
X195189999Y-59757500D01*
X195189999Y-58957528D01*
X195189998Y-58957513D01*
X195179505Y-58854802D01*
X195124358Y-58688380D01*
X195124356Y-58688375D01*
X195032315Y-58539154D01*
X194908345Y-58415184D01*
X194759124Y-58323143D01*
X194759119Y-58323141D01*
X194592697Y-58267994D01*
X194592690Y-58267993D01*
X194489986Y-58257500D01*
X193665000Y-58257500D01*
X193165000Y-58257500D01*
X191915000Y-58257500D01*
X191415000Y-58257500D01*
X191159917Y-58257500D01*
X191095489Y-58239448D01*
X190856449Y-58094084D01*
X190586677Y-57976906D01*
X190303458Y-57897551D01*
X190303452Y-57897550D01*
X190012065Y-57857500D01*
X189717935Y-57857500D01*
X189426547Y-57897550D01*
X189426541Y-57897551D01*
X189143322Y-57976906D01*
X188873550Y-58094084D01*
X188622243Y-58246907D01*
X188531657Y-58320604D01*
X188995117Y-58784064D01*
X188940523Y-58819732D01*
X188757632Y-58988096D01*
X188641389Y-59137442D01*
X188175991Y-58672044D01*
X188175990Y-58672045D01*
X188023710Y-58887776D01*
X188023706Y-58887782D01*
X187888386Y-59148939D01*
X187789891Y-59426075D01*
X187789890Y-59426078D01*
X187730047Y-59714063D01*
X187709976Y-60007499D01*
X172364999Y-60007499D01*
X172365000Y-58257500D01*
X172865000Y-58257500D01*
X172865000Y-59757500D01*
X174115000Y-59757500D01*
X174115000Y-58257500D01*
X174615000Y-58257500D01*
X174615000Y-59757500D01*
X176139998Y-59757500D01*
X176139999Y-58957528D01*
X176139998Y-58957513D01*
X176129505Y-58854802D01*
X176074358Y-58688380D01*
X176074356Y-58688375D01*
X175982315Y-58539154D01*
X175858345Y-58415184D01*
X175709124Y-58323143D01*
X175709119Y-58323141D01*
X175542697Y-58267994D01*
X175542690Y-58267993D01*
X175439986Y-58257500D01*
X174615000Y-58257500D01*
X174115000Y-58257500D01*
X172865000Y-58257500D01*
X172365000Y-58257500D01*
X172109917Y-58257500D01*
X172045489Y-58239448D01*
X171806449Y-58094084D01*
X171536677Y-57976906D01*
X171253458Y-57897551D01*
X171253452Y-57897550D01*
X170962065Y-57857500D01*
X170667935Y-57857500D01*
X170376547Y-57897550D01*
X170376541Y-57897551D01*
X170093322Y-57976906D01*
X169823550Y-58094084D01*
X169572243Y-58246907D01*
X169481657Y-58320604D01*
X169945117Y-58784064D01*
X169890523Y-58819732D01*
X169707632Y-58988096D01*
X169591389Y-59137443D01*
X169125991Y-58672045D01*
X169125990Y-58672045D01*
X168973710Y-58887776D01*
X168973706Y-58887782D01*
X168838386Y-59148939D01*
X168739891Y-59426075D01*
X168739890Y-59426078D01*
X168680047Y-59714063D01*
X168659976Y-60007500D01*
X158750500Y-60007500D01*
X158750500Y-57152210D01*
X158750658Y-57147787D01*
X158755487Y-57080260D01*
X158768082Y-56920247D01*
X158769303Y-56911962D01*
X158790737Y-56813434D01*
X158790957Y-56812472D01*
X158820869Y-56687876D01*
X158823058Y-56680708D01*
X158860429Y-56580512D01*
X158861194Y-56578567D01*
X158907811Y-56466022D01*
X158910663Y-56460060D01*
X158963075Y-56364076D01*
X158964533Y-56361557D01*
X159026989Y-56259639D01*
X159030200Y-56254907D01*
X159096337Y-56166557D01*
X159098756Y-56163534D01*
X159175805Y-56073322D01*
X159179063Y-56069797D01*
X159257297Y-55991563D01*
X159260822Y-55988305D01*
X159351034Y-55911256D01*
X159354057Y-55908837D01*
X159442407Y-55842700D01*
X159447139Y-55839489D01*
X159549057Y-55777033D01*
X159551576Y-55775575D01*
X159647560Y-55723163D01*
X159653522Y-55720311D01*
X159766067Y-55673694D01*
X159768012Y-55672929D01*
X159868208Y-55635558D01*
X159875376Y-55633369D01*
X159999972Y-55603457D01*
X160000934Y-55603237D01*
X160099462Y-55581803D01*
X160107747Y-55580582D01*
X160267782Y-55567986D01*
X160335292Y-55563157D01*
X160339713Y-55563000D01*
X234947787Y-55563000D01*
X234952207Y-55563157D01*
G37*
%TD.AperFunction*%
%TD*%
M02*
