%TF.GenerationSoftware,KiCad,Pcbnew,7.0.5*%
%TF.CreationDate,2023-06-14T14:40:25+08:00*%
%TF.ProjectId,Macropad,4d616372-6f70-4616-942e-6b696361645f,rev?*%
%TF.SameCoordinates,Original*%
%TF.FileFunction,Legend,Top*%
%TF.FilePolarity,Positive*%
%FSLAX46Y46*%
G04 Gerber Fmt 4.6, Leading zero omitted, Abs format (unit mm)*
G04 Created by KiCad (PCBNEW 7.0.5) date 2023-06-14 14:40:25*
%MOMM*%
%LPD*%
G01*
G04 APERTURE LIST*
%ADD10C,0.150000*%
%ADD11C,0.381000*%
%ADD12R,1.752600X1.752600*%
%ADD13C,1.752600*%
%ADD14C,1.750000*%
%ADD15C,3.987800*%
%ADD16C,3.300000*%
G04 APERTURE END LIST*
D10*
%TO.C,U1*%
X219373524Y-81324795D02*
X219373524Y-80524795D01*
X219373524Y-80524795D02*
X219564000Y-80524795D01*
X219564000Y-80524795D02*
X219678286Y-80562890D01*
X219678286Y-80562890D02*
X219754476Y-80639080D01*
X219754476Y-80639080D02*
X219792571Y-80715271D01*
X219792571Y-80715271D02*
X219830667Y-80867652D01*
X219830667Y-80867652D02*
X219830667Y-80981938D01*
X219830667Y-80981938D02*
X219792571Y-81134319D01*
X219792571Y-81134319D02*
X219754476Y-81210509D01*
X219754476Y-81210509D02*
X219678286Y-81286700D01*
X219678286Y-81286700D02*
X219564000Y-81324795D01*
X219564000Y-81324795D02*
X219373524Y-81324795D01*
X220097333Y-80524795D02*
X220630667Y-80524795D01*
X220630667Y-80524795D02*
X220287809Y-81324795D01*
X219830667Y-78708604D02*
X219792571Y-78746700D01*
X219792571Y-78746700D02*
X219678286Y-78784795D01*
X219678286Y-78784795D02*
X219602095Y-78784795D01*
X219602095Y-78784795D02*
X219487809Y-78746700D01*
X219487809Y-78746700D02*
X219411619Y-78670509D01*
X219411619Y-78670509D02*
X219373524Y-78594319D01*
X219373524Y-78594319D02*
X219335428Y-78441938D01*
X219335428Y-78441938D02*
X219335428Y-78327652D01*
X219335428Y-78327652D02*
X219373524Y-78175271D01*
X219373524Y-78175271D02*
X219411619Y-78099080D01*
X219411619Y-78099080D02*
X219487809Y-78022890D01*
X219487809Y-78022890D02*
X219602095Y-77984795D01*
X219602095Y-77984795D02*
X219678286Y-77984795D01*
X219678286Y-77984795D02*
X219792571Y-78022890D01*
X219792571Y-78022890D02*
X219830667Y-78060985D01*
X220516381Y-77984795D02*
X220364000Y-77984795D01*
X220364000Y-77984795D02*
X220287809Y-78022890D01*
X220287809Y-78022890D02*
X220249714Y-78060985D01*
X220249714Y-78060985D02*
X220173524Y-78175271D01*
X220173524Y-78175271D02*
X220135428Y-78327652D01*
X220135428Y-78327652D02*
X220135428Y-78632414D01*
X220135428Y-78632414D02*
X220173524Y-78708604D01*
X220173524Y-78708604D02*
X220211619Y-78746700D01*
X220211619Y-78746700D02*
X220287809Y-78784795D01*
X220287809Y-78784795D02*
X220440190Y-78784795D01*
X220440190Y-78784795D02*
X220516381Y-78746700D01*
X220516381Y-78746700D02*
X220554476Y-78708604D01*
X220554476Y-78708604D02*
X220592571Y-78632414D01*
X220592571Y-78632414D02*
X220592571Y-78441938D01*
X220592571Y-78441938D02*
X220554476Y-78365747D01*
X220554476Y-78365747D02*
X220516381Y-78327652D01*
X220516381Y-78327652D02*
X220440190Y-78289557D01*
X220440190Y-78289557D02*
X220287809Y-78289557D01*
X220287809Y-78289557D02*
X220211619Y-78327652D01*
X220211619Y-78327652D02*
X220173524Y-78365747D01*
X220173524Y-78365747D02*
X220135428Y-78441938D01*
X230333619Y-61004795D02*
X230066952Y-60623842D01*
X229876476Y-61004795D02*
X229876476Y-60204795D01*
X229876476Y-60204795D02*
X230181238Y-60204795D01*
X230181238Y-60204795D02*
X230257428Y-60242890D01*
X230257428Y-60242890D02*
X230295523Y-60280985D01*
X230295523Y-60280985D02*
X230333619Y-60357176D01*
X230333619Y-60357176D02*
X230333619Y-60471461D01*
X230333619Y-60471461D02*
X230295523Y-60547652D01*
X230295523Y-60547652D02*
X230257428Y-60585747D01*
X230257428Y-60585747D02*
X230181238Y-60623842D01*
X230181238Y-60623842D02*
X229876476Y-60623842D01*
X230638380Y-60776223D02*
X231019333Y-60776223D01*
X230562190Y-61004795D02*
X230828857Y-60204795D01*
X230828857Y-60204795D02*
X231095523Y-61004795D01*
X231285999Y-60204795D02*
X231476475Y-61004795D01*
X231476475Y-61004795D02*
X231628856Y-60433366D01*
X231628856Y-60433366D02*
X231781237Y-61004795D01*
X231781237Y-61004795D02*
X231971714Y-60204795D01*
X219373524Y-76244795D02*
X219373524Y-75444795D01*
X219373524Y-75444795D02*
X219564000Y-75444795D01*
X219564000Y-75444795D02*
X219678286Y-75482890D01*
X219678286Y-75482890D02*
X219754476Y-75559080D01*
X219754476Y-75559080D02*
X219792571Y-75635271D01*
X219792571Y-75635271D02*
X219830667Y-75787652D01*
X219830667Y-75787652D02*
X219830667Y-75901938D01*
X219830667Y-75901938D02*
X219792571Y-76054319D01*
X219792571Y-76054319D02*
X219754476Y-76130509D01*
X219754476Y-76130509D02*
X219678286Y-76206700D01*
X219678286Y-76206700D02*
X219564000Y-76244795D01*
X219564000Y-76244795D02*
X219373524Y-76244795D01*
X220516381Y-75711461D02*
X220516381Y-76244795D01*
X220325905Y-75406700D02*
X220135428Y-75978128D01*
X220135428Y-75978128D02*
X220630667Y-75978128D01*
X230619333Y-78365747D02*
X230352667Y-78365747D01*
X230352667Y-78784795D02*
X230352667Y-77984795D01*
X230352667Y-77984795D02*
X230733619Y-77984795D01*
X230962190Y-77984795D02*
X231495524Y-77984795D01*
X231495524Y-77984795D02*
X231152666Y-78784795D01*
X229819333Y-67824795D02*
X230086000Y-68624795D01*
X230086000Y-68624795D02*
X230352666Y-67824795D01*
X231076476Y-68548604D02*
X231038380Y-68586700D01*
X231038380Y-68586700D02*
X230924095Y-68624795D01*
X230924095Y-68624795D02*
X230847904Y-68624795D01*
X230847904Y-68624795D02*
X230733618Y-68586700D01*
X230733618Y-68586700D02*
X230657428Y-68510509D01*
X230657428Y-68510509D02*
X230619333Y-68434319D01*
X230619333Y-68434319D02*
X230581237Y-68281938D01*
X230581237Y-68281938D02*
X230581237Y-68167652D01*
X230581237Y-68167652D02*
X230619333Y-68015271D01*
X230619333Y-68015271D02*
X230657428Y-67939080D01*
X230657428Y-67939080D02*
X230733618Y-67862890D01*
X230733618Y-67862890D02*
X230847904Y-67824795D01*
X230847904Y-67824795D02*
X230924095Y-67824795D01*
X230924095Y-67824795D02*
X231038380Y-67862890D01*
X231038380Y-67862890D02*
X231076476Y-67900985D01*
X231876476Y-68548604D02*
X231838380Y-68586700D01*
X231838380Y-68586700D02*
X231724095Y-68624795D01*
X231724095Y-68624795D02*
X231647904Y-68624795D01*
X231647904Y-68624795D02*
X231533618Y-68586700D01*
X231533618Y-68586700D02*
X231457428Y-68510509D01*
X231457428Y-68510509D02*
X231419333Y-68434319D01*
X231419333Y-68434319D02*
X231381237Y-68281938D01*
X231381237Y-68281938D02*
X231381237Y-68167652D01*
X231381237Y-68167652D02*
X231419333Y-68015271D01*
X231419333Y-68015271D02*
X231457428Y-67939080D01*
X231457428Y-67939080D02*
X231533618Y-67862890D01*
X231533618Y-67862890D02*
X231647904Y-67824795D01*
X231647904Y-67824795D02*
X231724095Y-67824795D01*
X231724095Y-67824795D02*
X231838380Y-67862890D01*
X231838380Y-67862890D02*
X231876476Y-67900985D01*
X230562190Y-83445747D02*
X230676476Y-83483842D01*
X230676476Y-83483842D02*
X230714571Y-83521938D01*
X230714571Y-83521938D02*
X230752667Y-83598128D01*
X230752667Y-83598128D02*
X230752667Y-83712414D01*
X230752667Y-83712414D02*
X230714571Y-83788604D01*
X230714571Y-83788604D02*
X230676476Y-83826700D01*
X230676476Y-83826700D02*
X230600286Y-83864795D01*
X230600286Y-83864795D02*
X230295524Y-83864795D01*
X230295524Y-83864795D02*
X230295524Y-83064795D01*
X230295524Y-83064795D02*
X230562190Y-83064795D01*
X230562190Y-83064795D02*
X230638381Y-83102890D01*
X230638381Y-83102890D02*
X230676476Y-83140985D01*
X230676476Y-83140985D02*
X230714571Y-83217176D01*
X230714571Y-83217176D02*
X230714571Y-83293366D01*
X230714571Y-83293366D02*
X230676476Y-83369557D01*
X230676476Y-83369557D02*
X230638381Y-83407652D01*
X230638381Y-83407652D02*
X230562190Y-83445747D01*
X230562190Y-83445747D02*
X230295524Y-83445747D01*
X231019333Y-83064795D02*
X231514571Y-83064795D01*
X231514571Y-83064795D02*
X231247905Y-83369557D01*
X231247905Y-83369557D02*
X231362190Y-83369557D01*
X231362190Y-83369557D02*
X231438381Y-83407652D01*
X231438381Y-83407652D02*
X231476476Y-83445747D01*
X231476476Y-83445747D02*
X231514571Y-83521938D01*
X231514571Y-83521938D02*
X231514571Y-83712414D01*
X231514571Y-83712414D02*
X231476476Y-83788604D01*
X231476476Y-83788604D02*
X231438381Y-83826700D01*
X231438381Y-83826700D02*
X231362190Y-83864795D01*
X231362190Y-83864795D02*
X231133619Y-83864795D01*
X231133619Y-83864795D02*
X231057428Y-83826700D01*
X231057428Y-83826700D02*
X231019333Y-83788604D01*
X219640190Y-88525747D02*
X219754476Y-88563842D01*
X219754476Y-88563842D02*
X219792571Y-88601938D01*
X219792571Y-88601938D02*
X219830667Y-88678128D01*
X219830667Y-88678128D02*
X219830667Y-88792414D01*
X219830667Y-88792414D02*
X219792571Y-88868604D01*
X219792571Y-88868604D02*
X219754476Y-88906700D01*
X219754476Y-88906700D02*
X219678286Y-88944795D01*
X219678286Y-88944795D02*
X219373524Y-88944795D01*
X219373524Y-88944795D02*
X219373524Y-88144795D01*
X219373524Y-88144795D02*
X219640190Y-88144795D01*
X219640190Y-88144795D02*
X219716381Y-88182890D01*
X219716381Y-88182890D02*
X219754476Y-88220985D01*
X219754476Y-88220985D02*
X219792571Y-88297176D01*
X219792571Y-88297176D02*
X219792571Y-88373366D01*
X219792571Y-88373366D02*
X219754476Y-88449557D01*
X219754476Y-88449557D02*
X219716381Y-88487652D01*
X219716381Y-88487652D02*
X219640190Y-88525747D01*
X219640190Y-88525747D02*
X219373524Y-88525747D01*
X220554476Y-88144795D02*
X220173524Y-88144795D01*
X220173524Y-88144795D02*
X220135428Y-88525747D01*
X220135428Y-88525747D02*
X220173524Y-88487652D01*
X220173524Y-88487652D02*
X220249714Y-88449557D01*
X220249714Y-88449557D02*
X220440190Y-88449557D01*
X220440190Y-88449557D02*
X220516381Y-88487652D01*
X220516381Y-88487652D02*
X220554476Y-88525747D01*
X220554476Y-88525747D02*
X220592571Y-88601938D01*
X220592571Y-88601938D02*
X220592571Y-88792414D01*
X220592571Y-88792414D02*
X220554476Y-88868604D01*
X220554476Y-88868604D02*
X220516381Y-88906700D01*
X220516381Y-88906700D02*
X220440190Y-88944795D01*
X220440190Y-88944795D02*
X220249714Y-88944795D01*
X220249714Y-88944795D02*
X220173524Y-88906700D01*
X220173524Y-88906700D02*
X220135428Y-88868604D01*
X230619333Y-75825747D02*
X230352667Y-75825747D01*
X230352667Y-76244795D02*
X230352667Y-75444795D01*
X230352667Y-75444795D02*
X230733619Y-75444795D01*
X231381238Y-75444795D02*
X231228857Y-75444795D01*
X231228857Y-75444795D02*
X231152666Y-75482890D01*
X231152666Y-75482890D02*
X231114571Y-75520985D01*
X231114571Y-75520985D02*
X231038381Y-75635271D01*
X231038381Y-75635271D02*
X231000285Y-75787652D01*
X231000285Y-75787652D02*
X231000285Y-76092414D01*
X231000285Y-76092414D02*
X231038381Y-76168604D01*
X231038381Y-76168604D02*
X231076476Y-76206700D01*
X231076476Y-76206700D02*
X231152666Y-76244795D01*
X231152666Y-76244795D02*
X231305047Y-76244795D01*
X231305047Y-76244795D02*
X231381238Y-76206700D01*
X231381238Y-76206700D02*
X231419333Y-76168604D01*
X231419333Y-76168604D02*
X231457428Y-76092414D01*
X231457428Y-76092414D02*
X231457428Y-75901938D01*
X231457428Y-75901938D02*
X231419333Y-75825747D01*
X231419333Y-75825747D02*
X231381238Y-75787652D01*
X231381238Y-75787652D02*
X231305047Y-75749557D01*
X231305047Y-75749557D02*
X231152666Y-75749557D01*
X231152666Y-75749557D02*
X231076476Y-75787652D01*
X231076476Y-75787652D02*
X231038381Y-75825747D01*
X231038381Y-75825747D02*
X231000285Y-75901938D01*
X230562190Y-88525747D02*
X230676476Y-88563842D01*
X230676476Y-88563842D02*
X230714571Y-88601938D01*
X230714571Y-88601938D02*
X230752667Y-88678128D01*
X230752667Y-88678128D02*
X230752667Y-88792414D01*
X230752667Y-88792414D02*
X230714571Y-88868604D01*
X230714571Y-88868604D02*
X230676476Y-88906700D01*
X230676476Y-88906700D02*
X230600286Y-88944795D01*
X230600286Y-88944795D02*
X230295524Y-88944795D01*
X230295524Y-88944795D02*
X230295524Y-88144795D01*
X230295524Y-88144795D02*
X230562190Y-88144795D01*
X230562190Y-88144795D02*
X230638381Y-88182890D01*
X230638381Y-88182890D02*
X230676476Y-88220985D01*
X230676476Y-88220985D02*
X230714571Y-88297176D01*
X230714571Y-88297176D02*
X230714571Y-88373366D01*
X230714571Y-88373366D02*
X230676476Y-88449557D01*
X230676476Y-88449557D02*
X230638381Y-88487652D01*
X230638381Y-88487652D02*
X230562190Y-88525747D01*
X230562190Y-88525747D02*
X230295524Y-88525747D01*
X231438381Y-88144795D02*
X231286000Y-88144795D01*
X231286000Y-88144795D02*
X231209809Y-88182890D01*
X231209809Y-88182890D02*
X231171714Y-88220985D01*
X231171714Y-88220985D02*
X231095524Y-88335271D01*
X231095524Y-88335271D02*
X231057428Y-88487652D01*
X231057428Y-88487652D02*
X231057428Y-88792414D01*
X231057428Y-88792414D02*
X231095524Y-88868604D01*
X231095524Y-88868604D02*
X231133619Y-88906700D01*
X231133619Y-88906700D02*
X231209809Y-88944795D01*
X231209809Y-88944795D02*
X231362190Y-88944795D01*
X231362190Y-88944795D02*
X231438381Y-88906700D01*
X231438381Y-88906700D02*
X231476476Y-88868604D01*
X231476476Y-88868604D02*
X231514571Y-88792414D01*
X231514571Y-88792414D02*
X231514571Y-88601938D01*
X231514571Y-88601938D02*
X231476476Y-88525747D01*
X231476476Y-88525747D02*
X231438381Y-88487652D01*
X231438381Y-88487652D02*
X231362190Y-88449557D01*
X231362190Y-88449557D02*
X231209809Y-88449557D01*
X231209809Y-88449557D02*
X231133619Y-88487652D01*
X231133619Y-88487652D02*
X231095524Y-88525747D01*
X231095524Y-88525747D02*
X231057428Y-88601938D01*
X230619333Y-73285747D02*
X230352667Y-73285747D01*
X230352667Y-73704795D02*
X230352667Y-72904795D01*
X230352667Y-72904795D02*
X230733619Y-72904795D01*
X231419333Y-72904795D02*
X231038381Y-72904795D01*
X231038381Y-72904795D02*
X231000285Y-73285747D01*
X231000285Y-73285747D02*
X231038381Y-73247652D01*
X231038381Y-73247652D02*
X231114571Y-73209557D01*
X231114571Y-73209557D02*
X231305047Y-73209557D01*
X231305047Y-73209557D02*
X231381238Y-73247652D01*
X231381238Y-73247652D02*
X231419333Y-73285747D01*
X231419333Y-73285747D02*
X231457428Y-73361938D01*
X231457428Y-73361938D02*
X231457428Y-73552414D01*
X231457428Y-73552414D02*
X231419333Y-73628604D01*
X231419333Y-73628604D02*
X231381238Y-73666700D01*
X231381238Y-73666700D02*
X231305047Y-73704795D01*
X231305047Y-73704795D02*
X231114571Y-73704795D01*
X231114571Y-73704795D02*
X231038381Y-73666700D01*
X231038381Y-73666700D02*
X231000285Y-73628604D01*
X219373524Y-73704795D02*
X219373524Y-72904795D01*
X219373524Y-72904795D02*
X219564000Y-72904795D01*
X219564000Y-72904795D02*
X219678286Y-72942890D01*
X219678286Y-72942890D02*
X219754476Y-73019080D01*
X219754476Y-73019080D02*
X219792571Y-73095271D01*
X219792571Y-73095271D02*
X219830667Y-73247652D01*
X219830667Y-73247652D02*
X219830667Y-73361938D01*
X219830667Y-73361938D02*
X219792571Y-73514319D01*
X219792571Y-73514319D02*
X219754476Y-73590509D01*
X219754476Y-73590509D02*
X219678286Y-73666700D01*
X219678286Y-73666700D02*
X219564000Y-73704795D01*
X219564000Y-73704795D02*
X219373524Y-73704795D01*
X220325905Y-72904795D02*
X220402095Y-72904795D01*
X220402095Y-72904795D02*
X220478286Y-72942890D01*
X220478286Y-72942890D02*
X220516381Y-72980985D01*
X220516381Y-72980985D02*
X220554476Y-73057176D01*
X220554476Y-73057176D02*
X220592571Y-73209557D01*
X220592571Y-73209557D02*
X220592571Y-73400033D01*
X220592571Y-73400033D02*
X220554476Y-73552414D01*
X220554476Y-73552414D02*
X220516381Y-73628604D01*
X220516381Y-73628604D02*
X220478286Y-73666700D01*
X220478286Y-73666700D02*
X220402095Y-73704795D01*
X220402095Y-73704795D02*
X220325905Y-73704795D01*
X220325905Y-73704795D02*
X220249714Y-73666700D01*
X220249714Y-73666700D02*
X220211619Y-73628604D01*
X220211619Y-73628604D02*
X220173524Y-73552414D01*
X220173524Y-73552414D02*
X220135428Y-73400033D01*
X220135428Y-73400033D02*
X220135428Y-73209557D01*
X220135428Y-73209557D02*
X220173524Y-73057176D01*
X220173524Y-73057176D02*
X220211619Y-72980985D01*
X220211619Y-72980985D02*
X220249714Y-72942890D01*
X220249714Y-72942890D02*
X220325905Y-72904795D01*
X230276476Y-62782890D02*
X230200286Y-62744795D01*
X230200286Y-62744795D02*
X230086000Y-62744795D01*
X230086000Y-62744795D02*
X229971714Y-62782890D01*
X229971714Y-62782890D02*
X229895524Y-62859080D01*
X229895524Y-62859080D02*
X229857429Y-62935271D01*
X229857429Y-62935271D02*
X229819333Y-63087652D01*
X229819333Y-63087652D02*
X229819333Y-63201938D01*
X229819333Y-63201938D02*
X229857429Y-63354319D01*
X229857429Y-63354319D02*
X229895524Y-63430509D01*
X229895524Y-63430509D02*
X229971714Y-63506700D01*
X229971714Y-63506700D02*
X230086000Y-63544795D01*
X230086000Y-63544795D02*
X230162191Y-63544795D01*
X230162191Y-63544795D02*
X230276476Y-63506700D01*
X230276476Y-63506700D02*
X230314572Y-63468604D01*
X230314572Y-63468604D02*
X230314572Y-63201938D01*
X230314572Y-63201938D02*
X230162191Y-63201938D01*
X230657429Y-63544795D02*
X230657429Y-62744795D01*
X230657429Y-62744795D02*
X231114572Y-63544795D01*
X231114572Y-63544795D02*
X231114572Y-62744795D01*
X231495524Y-63544795D02*
X231495524Y-62744795D01*
X231495524Y-62744795D02*
X231686000Y-62744795D01*
X231686000Y-62744795D02*
X231800286Y-62782890D01*
X231800286Y-62782890D02*
X231876476Y-62859080D01*
X231876476Y-62859080D02*
X231914571Y-62935271D01*
X231914571Y-62935271D02*
X231952667Y-63087652D01*
X231952667Y-63087652D02*
X231952667Y-63201938D01*
X231952667Y-63201938D02*
X231914571Y-63354319D01*
X231914571Y-63354319D02*
X231876476Y-63430509D01*
X231876476Y-63430509D02*
X231800286Y-63506700D01*
X231800286Y-63506700D02*
X231686000Y-63544795D01*
X231686000Y-63544795D02*
X231495524Y-63544795D01*
X219354476Y-65322890D02*
X219278286Y-65284795D01*
X219278286Y-65284795D02*
X219164000Y-65284795D01*
X219164000Y-65284795D02*
X219049714Y-65322890D01*
X219049714Y-65322890D02*
X218973524Y-65399080D01*
X218973524Y-65399080D02*
X218935429Y-65475271D01*
X218935429Y-65475271D02*
X218897333Y-65627652D01*
X218897333Y-65627652D02*
X218897333Y-65741938D01*
X218897333Y-65741938D02*
X218935429Y-65894319D01*
X218935429Y-65894319D02*
X218973524Y-65970509D01*
X218973524Y-65970509D02*
X219049714Y-66046700D01*
X219049714Y-66046700D02*
X219164000Y-66084795D01*
X219164000Y-66084795D02*
X219240191Y-66084795D01*
X219240191Y-66084795D02*
X219354476Y-66046700D01*
X219354476Y-66046700D02*
X219392572Y-66008604D01*
X219392572Y-66008604D02*
X219392572Y-65741938D01*
X219392572Y-65741938D02*
X219240191Y-65741938D01*
X219735429Y-66084795D02*
X219735429Y-65284795D01*
X219735429Y-65284795D02*
X220192572Y-66084795D01*
X220192572Y-66084795D02*
X220192572Y-65284795D01*
X220573524Y-66084795D02*
X220573524Y-65284795D01*
X220573524Y-65284795D02*
X220764000Y-65284795D01*
X220764000Y-65284795D02*
X220878286Y-65322890D01*
X220878286Y-65322890D02*
X220954476Y-65399080D01*
X220954476Y-65399080D02*
X220992571Y-65475271D01*
X220992571Y-65475271D02*
X221030667Y-65627652D01*
X221030667Y-65627652D02*
X221030667Y-65741938D01*
X221030667Y-65741938D02*
X220992571Y-65894319D01*
X220992571Y-65894319D02*
X220954476Y-65970509D01*
X220954476Y-65970509D02*
X220878286Y-66046700D01*
X220878286Y-66046700D02*
X220764000Y-66084795D01*
X220764000Y-66084795D02*
X220573524Y-66084795D01*
X219662651Y-60204795D02*
X220119794Y-60204795D01*
X219891222Y-61004795D02*
X219891222Y-60204795D01*
X220310270Y-60204795D02*
X220843604Y-61004795D01*
X220843604Y-60204795D02*
X220310270Y-61004795D01*
X221300747Y-60204795D02*
X221376937Y-60204795D01*
X221376937Y-60204795D02*
X221453128Y-60242890D01*
X221453128Y-60242890D02*
X221491223Y-60280985D01*
X221491223Y-60280985D02*
X221529318Y-60357176D01*
X221529318Y-60357176D02*
X221567413Y-60509557D01*
X221567413Y-60509557D02*
X221567413Y-60700033D01*
X221567413Y-60700033D02*
X221529318Y-60852414D01*
X221529318Y-60852414D02*
X221491223Y-60928604D01*
X221491223Y-60928604D02*
X221453128Y-60966700D01*
X221453128Y-60966700D02*
X221376937Y-61004795D01*
X221376937Y-61004795D02*
X221300747Y-61004795D01*
X221300747Y-61004795D02*
X221224556Y-60966700D01*
X221224556Y-60966700D02*
X221186461Y-60928604D01*
X221186461Y-60928604D02*
X221148366Y-60852414D01*
X221148366Y-60852414D02*
X221110270Y-60700033D01*
X221110270Y-60700033D02*
X221110270Y-60509557D01*
X221110270Y-60509557D02*
X221148366Y-60357176D01*
X221148366Y-60357176D02*
X221186461Y-60280985D01*
X221186461Y-60280985D02*
X221224556Y-60242890D01*
X221224556Y-60242890D02*
X221300747Y-60204795D01*
X222481699Y-60166700D02*
X221795985Y-61195271D01*
X222748366Y-61004795D02*
X222748366Y-60204795D01*
X222748366Y-60204795D02*
X222938842Y-60204795D01*
X222938842Y-60204795D02*
X223053128Y-60242890D01*
X223053128Y-60242890D02*
X223129318Y-60319080D01*
X223129318Y-60319080D02*
X223167413Y-60395271D01*
X223167413Y-60395271D02*
X223205509Y-60547652D01*
X223205509Y-60547652D02*
X223205509Y-60661938D01*
X223205509Y-60661938D02*
X223167413Y-60814319D01*
X223167413Y-60814319D02*
X223129318Y-60890509D01*
X223129318Y-60890509D02*
X223053128Y-60966700D01*
X223053128Y-60966700D02*
X222938842Y-61004795D01*
X222938842Y-61004795D02*
X222748366Y-61004795D01*
X223472175Y-60204795D02*
X223967413Y-60204795D01*
X223967413Y-60204795D02*
X223700747Y-60509557D01*
X223700747Y-60509557D02*
X223815032Y-60509557D01*
X223815032Y-60509557D02*
X223891223Y-60547652D01*
X223891223Y-60547652D02*
X223929318Y-60585747D01*
X223929318Y-60585747D02*
X223967413Y-60661938D01*
X223967413Y-60661938D02*
X223967413Y-60852414D01*
X223967413Y-60852414D02*
X223929318Y-60928604D01*
X223929318Y-60928604D02*
X223891223Y-60966700D01*
X223891223Y-60966700D02*
X223815032Y-61004795D01*
X223815032Y-61004795D02*
X223586461Y-61004795D01*
X223586461Y-61004795D02*
X223510270Y-60966700D01*
X223510270Y-60966700D02*
X223472175Y-60928604D01*
X230562190Y-80905747D02*
X230676476Y-80943842D01*
X230676476Y-80943842D02*
X230714571Y-80981938D01*
X230714571Y-80981938D02*
X230752667Y-81058128D01*
X230752667Y-81058128D02*
X230752667Y-81172414D01*
X230752667Y-81172414D02*
X230714571Y-81248604D01*
X230714571Y-81248604D02*
X230676476Y-81286700D01*
X230676476Y-81286700D02*
X230600286Y-81324795D01*
X230600286Y-81324795D02*
X230295524Y-81324795D01*
X230295524Y-81324795D02*
X230295524Y-80524795D01*
X230295524Y-80524795D02*
X230562190Y-80524795D01*
X230562190Y-80524795D02*
X230638381Y-80562890D01*
X230638381Y-80562890D02*
X230676476Y-80600985D01*
X230676476Y-80600985D02*
X230714571Y-80677176D01*
X230714571Y-80677176D02*
X230714571Y-80753366D01*
X230714571Y-80753366D02*
X230676476Y-80829557D01*
X230676476Y-80829557D02*
X230638381Y-80867652D01*
X230638381Y-80867652D02*
X230562190Y-80905747D01*
X230562190Y-80905747D02*
X230295524Y-80905747D01*
X231514571Y-81324795D02*
X231057428Y-81324795D01*
X231286000Y-81324795D02*
X231286000Y-80524795D01*
X231286000Y-80524795D02*
X231209809Y-80639080D01*
X231209809Y-80639080D02*
X231133619Y-80715271D01*
X231133619Y-80715271D02*
X231057428Y-80753366D01*
X230562190Y-85985747D02*
X230676476Y-86023842D01*
X230676476Y-86023842D02*
X230714571Y-86061938D01*
X230714571Y-86061938D02*
X230752667Y-86138128D01*
X230752667Y-86138128D02*
X230752667Y-86252414D01*
X230752667Y-86252414D02*
X230714571Y-86328604D01*
X230714571Y-86328604D02*
X230676476Y-86366700D01*
X230676476Y-86366700D02*
X230600286Y-86404795D01*
X230600286Y-86404795D02*
X230295524Y-86404795D01*
X230295524Y-86404795D02*
X230295524Y-85604795D01*
X230295524Y-85604795D02*
X230562190Y-85604795D01*
X230562190Y-85604795D02*
X230638381Y-85642890D01*
X230638381Y-85642890D02*
X230676476Y-85680985D01*
X230676476Y-85680985D02*
X230714571Y-85757176D01*
X230714571Y-85757176D02*
X230714571Y-85833366D01*
X230714571Y-85833366D02*
X230676476Y-85909557D01*
X230676476Y-85909557D02*
X230638381Y-85947652D01*
X230638381Y-85947652D02*
X230562190Y-85985747D01*
X230562190Y-85985747D02*
X230295524Y-85985747D01*
X231057428Y-85680985D02*
X231095524Y-85642890D01*
X231095524Y-85642890D02*
X231171714Y-85604795D01*
X231171714Y-85604795D02*
X231362190Y-85604795D01*
X231362190Y-85604795D02*
X231438381Y-85642890D01*
X231438381Y-85642890D02*
X231476476Y-85680985D01*
X231476476Y-85680985D02*
X231514571Y-85757176D01*
X231514571Y-85757176D02*
X231514571Y-85833366D01*
X231514571Y-85833366D02*
X231476476Y-85947652D01*
X231476476Y-85947652D02*
X231019333Y-86404795D01*
X231019333Y-86404795D02*
X231514571Y-86404795D01*
X219411619Y-83445747D02*
X219678285Y-83445747D01*
X219792571Y-83864795D02*
X219411619Y-83864795D01*
X219411619Y-83864795D02*
X219411619Y-83064795D01*
X219411619Y-83064795D02*
X219792571Y-83064795D01*
X220478286Y-83064795D02*
X220325905Y-83064795D01*
X220325905Y-83064795D02*
X220249714Y-83102890D01*
X220249714Y-83102890D02*
X220211619Y-83140985D01*
X220211619Y-83140985D02*
X220135429Y-83255271D01*
X220135429Y-83255271D02*
X220097333Y-83407652D01*
X220097333Y-83407652D02*
X220097333Y-83712414D01*
X220097333Y-83712414D02*
X220135429Y-83788604D01*
X220135429Y-83788604D02*
X220173524Y-83826700D01*
X220173524Y-83826700D02*
X220249714Y-83864795D01*
X220249714Y-83864795D02*
X220402095Y-83864795D01*
X220402095Y-83864795D02*
X220478286Y-83826700D01*
X220478286Y-83826700D02*
X220516381Y-83788604D01*
X220516381Y-83788604D02*
X220554476Y-83712414D01*
X220554476Y-83712414D02*
X220554476Y-83521938D01*
X220554476Y-83521938D02*
X220516381Y-83445747D01*
X220516381Y-83445747D02*
X220478286Y-83407652D01*
X220478286Y-83407652D02*
X220402095Y-83369557D01*
X220402095Y-83369557D02*
X220249714Y-83369557D01*
X220249714Y-83369557D02*
X220173524Y-83407652D01*
X220173524Y-83407652D02*
X220135429Y-83445747D01*
X220135429Y-83445747D02*
X220097333Y-83521938D01*
X230619333Y-70745747D02*
X230352667Y-70745747D01*
X230352667Y-71164795D02*
X230352667Y-70364795D01*
X230352667Y-70364795D02*
X230733619Y-70364795D01*
X231381238Y-70631461D02*
X231381238Y-71164795D01*
X231190762Y-70326700D02*
X231000285Y-70898128D01*
X231000285Y-70898128D02*
X231495524Y-70898128D01*
X219354476Y-67862890D02*
X219278286Y-67824795D01*
X219278286Y-67824795D02*
X219164000Y-67824795D01*
X219164000Y-67824795D02*
X219049714Y-67862890D01*
X219049714Y-67862890D02*
X218973524Y-67939080D01*
X218973524Y-67939080D02*
X218935429Y-68015271D01*
X218935429Y-68015271D02*
X218897333Y-68167652D01*
X218897333Y-68167652D02*
X218897333Y-68281938D01*
X218897333Y-68281938D02*
X218935429Y-68434319D01*
X218935429Y-68434319D02*
X218973524Y-68510509D01*
X218973524Y-68510509D02*
X219049714Y-68586700D01*
X219049714Y-68586700D02*
X219164000Y-68624795D01*
X219164000Y-68624795D02*
X219240191Y-68624795D01*
X219240191Y-68624795D02*
X219354476Y-68586700D01*
X219354476Y-68586700D02*
X219392572Y-68548604D01*
X219392572Y-68548604D02*
X219392572Y-68281938D01*
X219392572Y-68281938D02*
X219240191Y-68281938D01*
X219735429Y-68624795D02*
X219735429Y-67824795D01*
X219735429Y-67824795D02*
X220192572Y-68624795D01*
X220192572Y-68624795D02*
X220192572Y-67824795D01*
X220573524Y-68624795D02*
X220573524Y-67824795D01*
X220573524Y-67824795D02*
X220764000Y-67824795D01*
X220764000Y-67824795D02*
X220878286Y-67862890D01*
X220878286Y-67862890D02*
X220954476Y-67939080D01*
X220954476Y-67939080D02*
X220992571Y-68015271D01*
X220992571Y-68015271D02*
X221030667Y-68167652D01*
X221030667Y-68167652D02*
X221030667Y-68281938D01*
X221030667Y-68281938D02*
X220992571Y-68434319D01*
X220992571Y-68434319D02*
X220954476Y-68510509D01*
X220954476Y-68510509D02*
X220878286Y-68586700D01*
X220878286Y-68586700D02*
X220764000Y-68624795D01*
X220764000Y-68624795D02*
X220573524Y-68624795D01*
X230624786Y-66016700D02*
X230739072Y-66054795D01*
X230739072Y-66054795D02*
X230929548Y-66054795D01*
X230929548Y-66054795D02*
X231005739Y-66016700D01*
X231005739Y-66016700D02*
X231043834Y-65978604D01*
X231043834Y-65978604D02*
X231081929Y-65902414D01*
X231081929Y-65902414D02*
X231081929Y-65826223D01*
X231081929Y-65826223D02*
X231043834Y-65750033D01*
X231043834Y-65750033D02*
X231005739Y-65711938D01*
X231005739Y-65711938D02*
X230929548Y-65673842D01*
X230929548Y-65673842D02*
X230777167Y-65635747D01*
X230777167Y-65635747D02*
X230700977Y-65597652D01*
X230700977Y-65597652D02*
X230662882Y-65559557D01*
X230662882Y-65559557D02*
X230624786Y-65483366D01*
X230624786Y-65483366D02*
X230624786Y-65407176D01*
X230624786Y-65407176D02*
X230662882Y-65330985D01*
X230662882Y-65330985D02*
X230700977Y-65292890D01*
X230700977Y-65292890D02*
X230777167Y-65254795D01*
X230777167Y-65254795D02*
X230967644Y-65254795D01*
X230967644Y-65254795D02*
X231081929Y-65292890D01*
X231310501Y-65254795D02*
X231767644Y-65254795D01*
X231539072Y-66054795D02*
X231539072Y-65254795D01*
X219640190Y-85985747D02*
X219754476Y-86023842D01*
X219754476Y-86023842D02*
X219792571Y-86061938D01*
X219792571Y-86061938D02*
X219830667Y-86138128D01*
X219830667Y-86138128D02*
X219830667Y-86252414D01*
X219830667Y-86252414D02*
X219792571Y-86328604D01*
X219792571Y-86328604D02*
X219754476Y-86366700D01*
X219754476Y-86366700D02*
X219678286Y-86404795D01*
X219678286Y-86404795D02*
X219373524Y-86404795D01*
X219373524Y-86404795D02*
X219373524Y-85604795D01*
X219373524Y-85604795D02*
X219640190Y-85604795D01*
X219640190Y-85604795D02*
X219716381Y-85642890D01*
X219716381Y-85642890D02*
X219754476Y-85680985D01*
X219754476Y-85680985D02*
X219792571Y-85757176D01*
X219792571Y-85757176D02*
X219792571Y-85833366D01*
X219792571Y-85833366D02*
X219754476Y-85909557D01*
X219754476Y-85909557D02*
X219716381Y-85947652D01*
X219716381Y-85947652D02*
X219640190Y-85985747D01*
X219640190Y-85985747D02*
X219373524Y-85985747D01*
X220516381Y-85871461D02*
X220516381Y-86404795D01*
X220325905Y-85566700D02*
X220135428Y-86138128D01*
X220135428Y-86138128D02*
X220630667Y-86138128D01*
X219373524Y-71164795D02*
X219373524Y-70364795D01*
X219373524Y-70364795D02*
X219564000Y-70364795D01*
X219564000Y-70364795D02*
X219678286Y-70402890D01*
X219678286Y-70402890D02*
X219754476Y-70479080D01*
X219754476Y-70479080D02*
X219792571Y-70555271D01*
X219792571Y-70555271D02*
X219830667Y-70707652D01*
X219830667Y-70707652D02*
X219830667Y-70821938D01*
X219830667Y-70821938D02*
X219792571Y-70974319D01*
X219792571Y-70974319D02*
X219754476Y-71050509D01*
X219754476Y-71050509D02*
X219678286Y-71126700D01*
X219678286Y-71126700D02*
X219564000Y-71164795D01*
X219564000Y-71164795D02*
X219373524Y-71164795D01*
X220592571Y-71164795D02*
X220135428Y-71164795D01*
X220364000Y-71164795D02*
X220364000Y-70364795D01*
X220364000Y-70364795D02*
X220287809Y-70479080D01*
X220287809Y-70479080D02*
X220211619Y-70555271D01*
X220211619Y-70555271D02*
X220135428Y-70593366D01*
X219373524Y-63544795D02*
X219373524Y-62744795D01*
X219373524Y-62744795D02*
X219564000Y-62744795D01*
X219564000Y-62744795D02*
X219678286Y-62782890D01*
X219678286Y-62782890D02*
X219754476Y-62859080D01*
X219754476Y-62859080D02*
X219792571Y-62935271D01*
X219792571Y-62935271D02*
X219830667Y-63087652D01*
X219830667Y-63087652D02*
X219830667Y-63201938D01*
X219830667Y-63201938D02*
X219792571Y-63354319D01*
X219792571Y-63354319D02*
X219754476Y-63430509D01*
X219754476Y-63430509D02*
X219678286Y-63506700D01*
X219678286Y-63506700D02*
X219564000Y-63544795D01*
X219564000Y-63544795D02*
X219373524Y-63544795D01*
X220135428Y-62820985D02*
X220173524Y-62782890D01*
X220173524Y-62782890D02*
X220249714Y-62744795D01*
X220249714Y-62744795D02*
X220440190Y-62744795D01*
X220440190Y-62744795D02*
X220516381Y-62782890D01*
X220516381Y-62782890D02*
X220554476Y-62820985D01*
X220554476Y-62820985D02*
X220592571Y-62897176D01*
X220592571Y-62897176D02*
X220592571Y-62973366D01*
X220592571Y-62973366D02*
X220554476Y-63087652D01*
X220554476Y-63087652D02*
X220097333Y-63544795D01*
X220097333Y-63544795D02*
X220592571Y-63544795D01*
D11*
X234315000Y-56832500D02*
X216535000Y-56832500D01*
X216535000Y-56832500D02*
X216535000Y-59372500D01*
X234315000Y-59372500D02*
X234315000Y-56832500D01*
X219075000Y-59372500D02*
X216535000Y-59372500D01*
X219075000Y-59372500D02*
X219075000Y-61912500D01*
X216535000Y-59372500D02*
X216535000Y-89852500D01*
X219075000Y-61912500D02*
X216535000Y-61912500D01*
X234315000Y-89852500D02*
X234315000Y-59372500D01*
X216535000Y-89852500D02*
X234315000Y-89852500D01*
D10*
X230356568Y-65351860D02*
X229856568Y-65351860D01*
X229856568Y-65251860D01*
X230356568Y-65251860D01*
X230356568Y-65351860D01*
G36*
X230356568Y-65351860D02*
G01*
X229856568Y-65351860D01*
X229856568Y-65251860D01*
X230356568Y-65251860D01*
X230356568Y-65351860D01*
G37*
X230356568Y-65551860D02*
X230256568Y-65551860D01*
X230256568Y-65251860D01*
X230356568Y-65251860D01*
X230356568Y-65551860D01*
G36*
X230356568Y-65551860D02*
G01*
X230256568Y-65551860D01*
X230256568Y-65251860D01*
X230356568Y-65251860D01*
X230356568Y-65551860D01*
G37*
X229956568Y-66051860D02*
X229856568Y-66051860D01*
X229856568Y-65251860D01*
X229956568Y-65251860D01*
X229956568Y-66051860D01*
G36*
X229956568Y-66051860D02*
G01*
X229856568Y-66051860D01*
X229856568Y-65251860D01*
X229956568Y-65251860D01*
X229956568Y-66051860D01*
G37*
X230156568Y-65751860D02*
X230056568Y-65751860D01*
X230056568Y-65651860D01*
X230156568Y-65651860D01*
X230156568Y-65751860D01*
G36*
X230156568Y-65751860D02*
G01*
X230056568Y-65751860D01*
X230056568Y-65651860D01*
X230156568Y-65651860D01*
X230156568Y-65751860D01*
G37*
X230356568Y-66051860D02*
X230256568Y-66051860D01*
X230256568Y-65851860D01*
X230356568Y-65851860D01*
X230356568Y-66051860D01*
G36*
X230356568Y-66051860D02*
G01*
X230256568Y-66051860D01*
X230256568Y-65851860D01*
X230356568Y-65851860D01*
X230356568Y-66051860D01*
G37*
%TD*%
D12*
%TO.C,U1*%
X217805000Y-60642500D03*
D13*
X217805000Y-63182500D03*
X217805000Y-65722500D03*
X217805000Y-68262500D03*
X217805000Y-70802500D03*
X217805000Y-73342500D03*
X217805000Y-75882500D03*
X217805000Y-78422500D03*
X217805000Y-80962500D03*
X217805000Y-83502500D03*
X217805000Y-86042500D03*
X217805000Y-88582500D03*
X233045000Y-88582500D03*
X233045000Y-86042500D03*
X233045000Y-83502500D03*
X233045000Y-80962500D03*
X233045000Y-78422500D03*
X233045000Y-75882500D03*
X233045000Y-73342500D03*
X233045000Y-70802500D03*
X233045000Y-68262500D03*
X233045000Y-65722500D03*
X233045000Y-63182500D03*
X233045000Y-60642500D03*
%TD*%
%LPC*%
D12*
%TO.C,U1*%
X217805000Y-60642500D03*
D13*
X217805000Y-63182500D03*
X217805000Y-65722500D03*
X217805000Y-68262500D03*
X217805000Y-70802500D03*
X217805000Y-73342500D03*
X217805000Y-75882500D03*
X217805000Y-78422500D03*
X217805000Y-80962500D03*
X217805000Y-83502500D03*
X217805000Y-86042500D03*
X217805000Y-88582500D03*
X233045000Y-88582500D03*
X233045000Y-86042500D03*
X233045000Y-83502500D03*
X233045000Y-80962500D03*
X233045000Y-78422500D03*
X233045000Y-75882500D03*
X233045000Y-73342500D03*
X233045000Y-70802500D03*
X233045000Y-68262500D03*
X233045000Y-65722500D03*
X233045000Y-63182500D03*
X233045000Y-60642500D03*
%TD*%
D14*
%TO.C,MX10*%
X230505000Y-103187500D03*
D15*
X225425000Y-103187500D03*
D14*
X220345000Y-103187500D03*
D16*
X221615000Y-100647500D03*
X227965000Y-98107500D03*
%TD*%
D14*
%TO.C,MX3*%
X211455000Y-65087500D03*
D15*
X206375000Y-65087500D03*
D14*
X201295000Y-65087500D03*
D16*
X202565000Y-62547500D03*
X208915000Y-60007500D03*
%TD*%
D14*
%TO.C,MX9*%
X211455000Y-103187500D03*
D15*
X206375000Y-103187500D03*
D14*
X201295000Y-103187500D03*
D16*
X202565000Y-100647500D03*
X208915000Y-98107500D03*
%TD*%
D14*
%TO.C,MX4*%
X173355000Y-84137500D03*
D15*
X168275000Y-84137500D03*
D14*
X163195000Y-84137500D03*
D16*
X164465000Y-81597500D03*
X170815000Y-79057500D03*
%TD*%
D14*
%TO.C,MX5*%
X192405000Y-84137500D03*
D15*
X187325000Y-84137500D03*
D14*
X182245000Y-84137500D03*
D16*
X183515000Y-81597500D03*
X189865000Y-79057500D03*
%TD*%
D14*
%TO.C,MX2*%
X192405000Y-65087500D03*
D15*
X187325000Y-65087500D03*
D14*
X182245000Y-65087500D03*
D16*
X183515000Y-62547500D03*
X189865000Y-60007500D03*
%TD*%
D14*
%TO.C,MX8*%
X192405000Y-103187500D03*
D15*
X187325000Y-103187500D03*
D14*
X182245000Y-103187500D03*
D16*
X183515000Y-100647500D03*
X189865000Y-98107500D03*
%TD*%
D14*
%TO.C,MX7*%
X173355000Y-103187500D03*
D15*
X168275000Y-103187500D03*
D14*
X163195000Y-103187500D03*
D16*
X164465000Y-100647500D03*
X170815000Y-98107500D03*
%TD*%
D14*
%TO.C,MX1*%
X173355000Y-65087500D03*
D15*
X168275000Y-65087500D03*
D14*
X163195000Y-65087500D03*
D16*
X164465000Y-62547500D03*
X170815000Y-60007500D03*
%TD*%
D14*
%TO.C,MX6*%
X211455000Y-84137500D03*
D15*
X206375000Y-84137500D03*
D14*
X201295000Y-84137500D03*
D16*
X202565000Y-81597500D03*
X208915000Y-79057500D03*
%TD*%
%LPD*%
M02*
