M48
; DRILL file {KiCad 7.0.5} date Wed Jun 14 14:41:22 2023
; FORMAT={-:-/ absolute / inch / decimal}
; #@! TF.CreationDate,2023-06-14T14:41:22+08:00
; #@! TF.GenerationSoftware,Kicad,Pcbnew,7.0.5
; #@! TF.FileFunction,Plated,1,2,PTH
FMAT,2
INCH
; #@! TA.AperFunction,Plated,PTH,ComponentDrill
T1C0.0430
; #@! TA.AperFunction,Plated,PTH,ComponentDrill
T2C0.1181
%
G90
G05
T1
X8.575Y-2.3875
X8.575Y-2.4875
X8.575Y-2.5875
X8.575Y-2.6875
X8.575Y-2.7875
X8.575Y-2.8875
X8.575Y-2.9875
X8.575Y-3.0875
X8.575Y-3.1875
X8.575Y-3.2875
X8.575Y-3.3875
X8.575Y-3.4875
X9.175Y-2.3875
X9.175Y-2.4875
X9.175Y-2.5875
X9.175Y-2.6875
X9.175Y-2.7875
X9.175Y-2.8875
X9.175Y-2.9875
X9.175Y-3.0875
X9.175Y-3.1875
X9.175Y-3.2875
X9.175Y-3.3875
X9.175Y-3.4875
T2
X6.475Y-2.4625
X6.475Y-3.2125
X6.475Y-3.9625
X6.725Y-2.3625
X6.725Y-3.1125
X6.725Y-3.8625
X7.225Y-2.4625
X7.225Y-3.2125
X7.225Y-3.9625
X7.475Y-2.3625
X7.475Y-3.1125
X7.475Y-3.8625
X7.975Y-2.4625
X7.975Y-3.2125
X7.975Y-3.9625
X8.225Y-2.3625
X8.225Y-3.1125
X8.225Y-3.8625
X8.725Y-3.9625
X8.975Y-3.8625
T0
M30
