M48
; DRILL file {KiCad 7.0.5} date Wed Jun 14 14:41:22 2023
; FORMAT={-:-/ absolute / inch / decimal}
; #@! TF.CreationDate,2023-06-14T14:41:22+08:00
; #@! TF.GenerationSoftware,Kicad,Pcbnew,7.0.5
; #@! TF.FileFunction,NonPlated,1,2,NPTH
FMAT,2
INCH
; #@! TA.AperFunction,NonPlated,NPTH,ComponentDrill
T1C0.0689
; #@! TA.AperFunction,NonPlated,NPTH,ComponentDrill
T2C0.1570
%
G90
G05
T1
X6.425Y-2.5625
X6.425Y-3.3125
X6.425Y-4.0625
X6.825Y-2.5625
X6.825Y-3.3125
X6.825Y-4.0625
X7.175Y-2.5625
X7.175Y-3.3125
X7.175Y-4.0625
X7.575Y-2.5625
X7.575Y-3.3125
X7.575Y-4.0625
X7.925Y-2.5625
X7.925Y-3.3125
X7.925Y-4.0625
X8.325Y-2.5625
X8.325Y-3.3125
X8.325Y-4.0625
X8.675Y-4.0625
X9.075Y-4.0625
T2
X6.625Y-2.5625
X6.625Y-3.3125
X6.625Y-4.0625
X7.375Y-2.5625
X7.375Y-3.3125
X7.375Y-4.0625
X8.125Y-2.5625
X8.125Y-3.3125
X8.125Y-4.0625
X8.875Y-4.0625
T0
M30
