%TF.GenerationSoftware,KiCad,Pcbnew,7.0.5*%
%TF.CreationDate,2023-06-14T14:40:25+08:00*%
%TF.ProjectId,Macropad,4d616372-6f70-4616-942e-6b696361645f,rev?*%
%TF.SameCoordinates,Original*%
%TF.FileFunction,Legend,Bot*%
%TF.FilePolarity,Positive*%
%FSLAX46Y46*%
G04 Gerber Fmt 4.6, Leading zero omitted, Abs format (unit mm)*
G04 Created by KiCad (PCBNEW 7.0.5) date 2023-06-14 14:40:25*
%MOMM*%
%LPD*%
G01*
G04 APERTURE LIST*
G04 Aperture macros list*
%AMRoundRect*
0 Rectangle with rounded corners*
0 $1 Rounding radius*
0 $2 $3 $4 $5 $6 $7 $8 $9 X,Y pos of 4 corners*
0 Add a 4 corners polygon primitive as box body*
4,1,4,$2,$3,$4,$5,$6,$7,$8,$9,$2,$3,0*
0 Add four circle primitives for the rounded corners*
1,1,$1+$1,$2,$3*
1,1,$1+$1,$4,$5*
1,1,$1+$1,$6,$7*
1,1,$1+$1,$8,$9*
0 Add four rect primitives between the rounded corners*
20,1,$1+$1,$2,$3,$4,$5,0*
20,1,$1+$1,$4,$5,$6,$7,0*
20,1,$1+$1,$6,$7,$8,$9,0*
20,1,$1+$1,$8,$9,$2,$3,0*%
G04 Aperture macros list end*
%ADD10C,0.150000*%
%ADD11C,0.381000*%
%ADD12R,1.752600X1.752600*%
%ADD13C,1.752600*%
%ADD14C,1.750000*%
%ADD15C,3.987800*%
%ADD16C,3.300000*%
%ADD17RoundRect,0.250000X1.025000X1.000000X-1.025000X1.000000X-1.025000X-1.000000X1.025000X-1.000000X0*%
G04 APERTURE END LIST*
D10*
%TO.C,U1*%
X231438380Y-61004795D02*
X231705047Y-60623842D01*
X231895523Y-61004795D02*
X231895523Y-60204795D01*
X231895523Y-60204795D02*
X231590761Y-60204795D01*
X231590761Y-60204795D02*
X231514571Y-60242890D01*
X231514571Y-60242890D02*
X231476476Y-60280985D01*
X231476476Y-60280985D02*
X231438380Y-60357176D01*
X231438380Y-60357176D02*
X231438380Y-60471461D01*
X231438380Y-60471461D02*
X231476476Y-60547652D01*
X231476476Y-60547652D02*
X231514571Y-60585747D01*
X231514571Y-60585747D02*
X231590761Y-60623842D01*
X231590761Y-60623842D02*
X231895523Y-60623842D01*
X231133619Y-60776223D02*
X230752666Y-60776223D01*
X231209809Y-61004795D02*
X230943142Y-60204795D01*
X230943142Y-60204795D02*
X230676476Y-61004795D01*
X230486000Y-60204795D02*
X230295524Y-61004795D01*
X230295524Y-61004795D02*
X230143143Y-60433366D01*
X230143143Y-60433366D02*
X229990762Y-61004795D01*
X229990762Y-61004795D02*
X229800286Y-60204795D01*
X220554475Y-63544795D02*
X220554475Y-62744795D01*
X220554475Y-62744795D02*
X220363999Y-62744795D01*
X220363999Y-62744795D02*
X220249713Y-62782890D01*
X220249713Y-62782890D02*
X220173523Y-62859080D01*
X220173523Y-62859080D02*
X220135428Y-62935271D01*
X220135428Y-62935271D02*
X220097332Y-63087652D01*
X220097332Y-63087652D02*
X220097332Y-63201938D01*
X220097332Y-63201938D02*
X220135428Y-63354319D01*
X220135428Y-63354319D02*
X220173523Y-63430509D01*
X220173523Y-63430509D02*
X220249713Y-63506700D01*
X220249713Y-63506700D02*
X220363999Y-63544795D01*
X220363999Y-63544795D02*
X220554475Y-63544795D01*
X219792571Y-62820985D02*
X219754475Y-62782890D01*
X219754475Y-62782890D02*
X219678285Y-62744795D01*
X219678285Y-62744795D02*
X219487809Y-62744795D01*
X219487809Y-62744795D02*
X219411618Y-62782890D01*
X219411618Y-62782890D02*
X219373523Y-62820985D01*
X219373523Y-62820985D02*
X219335428Y-62897176D01*
X219335428Y-62897176D02*
X219335428Y-62973366D01*
X219335428Y-62973366D02*
X219373523Y-63087652D01*
X219373523Y-63087652D02*
X219830666Y-63544795D01*
X219830666Y-63544795D02*
X219335428Y-63544795D01*
X231952666Y-67824795D02*
X231685999Y-68624795D01*
X231685999Y-68624795D02*
X231419333Y-67824795D01*
X230695523Y-68548604D02*
X230733619Y-68586700D01*
X230733619Y-68586700D02*
X230847904Y-68624795D01*
X230847904Y-68624795D02*
X230924095Y-68624795D01*
X230924095Y-68624795D02*
X231038381Y-68586700D01*
X231038381Y-68586700D02*
X231114571Y-68510509D01*
X231114571Y-68510509D02*
X231152666Y-68434319D01*
X231152666Y-68434319D02*
X231190762Y-68281938D01*
X231190762Y-68281938D02*
X231190762Y-68167652D01*
X231190762Y-68167652D02*
X231152666Y-68015271D01*
X231152666Y-68015271D02*
X231114571Y-67939080D01*
X231114571Y-67939080D02*
X231038381Y-67862890D01*
X231038381Y-67862890D02*
X230924095Y-67824795D01*
X230924095Y-67824795D02*
X230847904Y-67824795D01*
X230847904Y-67824795D02*
X230733619Y-67862890D01*
X230733619Y-67862890D02*
X230695523Y-67900985D01*
X229895523Y-68548604D02*
X229933619Y-68586700D01*
X229933619Y-68586700D02*
X230047904Y-68624795D01*
X230047904Y-68624795D02*
X230124095Y-68624795D01*
X230124095Y-68624795D02*
X230238381Y-68586700D01*
X230238381Y-68586700D02*
X230314571Y-68510509D01*
X230314571Y-68510509D02*
X230352666Y-68434319D01*
X230352666Y-68434319D02*
X230390762Y-68281938D01*
X230390762Y-68281938D02*
X230390762Y-68167652D01*
X230390762Y-68167652D02*
X230352666Y-68015271D01*
X230352666Y-68015271D02*
X230314571Y-67939080D01*
X230314571Y-67939080D02*
X230238381Y-67862890D01*
X230238381Y-67862890D02*
X230124095Y-67824795D01*
X230124095Y-67824795D02*
X230047904Y-67824795D01*
X230047904Y-67824795D02*
X229933619Y-67862890D01*
X229933619Y-67862890D02*
X229895523Y-67900985D01*
X231209809Y-88525747D02*
X231095523Y-88563842D01*
X231095523Y-88563842D02*
X231057428Y-88601938D01*
X231057428Y-88601938D02*
X231019332Y-88678128D01*
X231019332Y-88678128D02*
X231019332Y-88792414D01*
X231019332Y-88792414D02*
X231057428Y-88868604D01*
X231057428Y-88868604D02*
X231095523Y-88906700D01*
X231095523Y-88906700D02*
X231171713Y-88944795D01*
X231171713Y-88944795D02*
X231476475Y-88944795D01*
X231476475Y-88944795D02*
X231476475Y-88144795D01*
X231476475Y-88144795D02*
X231209809Y-88144795D01*
X231209809Y-88144795D02*
X231133618Y-88182890D01*
X231133618Y-88182890D02*
X231095523Y-88220985D01*
X231095523Y-88220985D02*
X231057428Y-88297176D01*
X231057428Y-88297176D02*
X231057428Y-88373366D01*
X231057428Y-88373366D02*
X231095523Y-88449557D01*
X231095523Y-88449557D02*
X231133618Y-88487652D01*
X231133618Y-88487652D02*
X231209809Y-88525747D01*
X231209809Y-88525747D02*
X231476475Y-88525747D01*
X230333618Y-88144795D02*
X230485999Y-88144795D01*
X230485999Y-88144795D02*
X230562190Y-88182890D01*
X230562190Y-88182890D02*
X230600285Y-88220985D01*
X230600285Y-88220985D02*
X230676475Y-88335271D01*
X230676475Y-88335271D02*
X230714571Y-88487652D01*
X230714571Y-88487652D02*
X230714571Y-88792414D01*
X230714571Y-88792414D02*
X230676475Y-88868604D01*
X230676475Y-88868604D02*
X230638380Y-88906700D01*
X230638380Y-88906700D02*
X230562190Y-88944795D01*
X230562190Y-88944795D02*
X230409809Y-88944795D01*
X230409809Y-88944795D02*
X230333618Y-88906700D01*
X230333618Y-88906700D02*
X230295523Y-88868604D01*
X230295523Y-88868604D02*
X230257428Y-88792414D01*
X230257428Y-88792414D02*
X230257428Y-88601938D01*
X230257428Y-88601938D02*
X230295523Y-88525747D01*
X230295523Y-88525747D02*
X230333618Y-88487652D01*
X230333618Y-88487652D02*
X230409809Y-88449557D01*
X230409809Y-88449557D02*
X230562190Y-88449557D01*
X230562190Y-88449557D02*
X230638380Y-88487652D01*
X230638380Y-88487652D02*
X230676475Y-88525747D01*
X230676475Y-88525747D02*
X230714571Y-88601938D01*
X220573523Y-65322890D02*
X220649713Y-65284795D01*
X220649713Y-65284795D02*
X220763999Y-65284795D01*
X220763999Y-65284795D02*
X220878285Y-65322890D01*
X220878285Y-65322890D02*
X220954475Y-65399080D01*
X220954475Y-65399080D02*
X220992570Y-65475271D01*
X220992570Y-65475271D02*
X221030666Y-65627652D01*
X221030666Y-65627652D02*
X221030666Y-65741938D01*
X221030666Y-65741938D02*
X220992570Y-65894319D01*
X220992570Y-65894319D02*
X220954475Y-65970509D01*
X220954475Y-65970509D02*
X220878285Y-66046700D01*
X220878285Y-66046700D02*
X220763999Y-66084795D01*
X220763999Y-66084795D02*
X220687808Y-66084795D01*
X220687808Y-66084795D02*
X220573523Y-66046700D01*
X220573523Y-66046700D02*
X220535427Y-66008604D01*
X220535427Y-66008604D02*
X220535427Y-65741938D01*
X220535427Y-65741938D02*
X220687808Y-65741938D01*
X220192570Y-66084795D02*
X220192570Y-65284795D01*
X220192570Y-65284795D02*
X219735427Y-66084795D01*
X219735427Y-66084795D02*
X219735427Y-65284795D01*
X219354475Y-66084795D02*
X219354475Y-65284795D01*
X219354475Y-65284795D02*
X219163999Y-65284795D01*
X219163999Y-65284795D02*
X219049713Y-65322890D01*
X219049713Y-65322890D02*
X218973523Y-65399080D01*
X218973523Y-65399080D02*
X218935428Y-65475271D01*
X218935428Y-65475271D02*
X218897332Y-65627652D01*
X218897332Y-65627652D02*
X218897332Y-65741938D01*
X218897332Y-65741938D02*
X218935428Y-65894319D01*
X218935428Y-65894319D02*
X218973523Y-65970509D01*
X218973523Y-65970509D02*
X219049713Y-66046700D01*
X219049713Y-66046700D02*
X219163999Y-66084795D01*
X219163999Y-66084795D02*
X219354475Y-66084795D01*
X220573523Y-67862890D02*
X220649713Y-67824795D01*
X220649713Y-67824795D02*
X220763999Y-67824795D01*
X220763999Y-67824795D02*
X220878285Y-67862890D01*
X220878285Y-67862890D02*
X220954475Y-67939080D01*
X220954475Y-67939080D02*
X220992570Y-68015271D01*
X220992570Y-68015271D02*
X221030666Y-68167652D01*
X221030666Y-68167652D02*
X221030666Y-68281938D01*
X221030666Y-68281938D02*
X220992570Y-68434319D01*
X220992570Y-68434319D02*
X220954475Y-68510509D01*
X220954475Y-68510509D02*
X220878285Y-68586700D01*
X220878285Y-68586700D02*
X220763999Y-68624795D01*
X220763999Y-68624795D02*
X220687808Y-68624795D01*
X220687808Y-68624795D02*
X220573523Y-68586700D01*
X220573523Y-68586700D02*
X220535427Y-68548604D01*
X220535427Y-68548604D02*
X220535427Y-68281938D01*
X220535427Y-68281938D02*
X220687808Y-68281938D01*
X220192570Y-68624795D02*
X220192570Y-67824795D01*
X220192570Y-67824795D02*
X219735427Y-68624795D01*
X219735427Y-68624795D02*
X219735427Y-67824795D01*
X219354475Y-68624795D02*
X219354475Y-67824795D01*
X219354475Y-67824795D02*
X219163999Y-67824795D01*
X219163999Y-67824795D02*
X219049713Y-67862890D01*
X219049713Y-67862890D02*
X218973523Y-67939080D01*
X218973523Y-67939080D02*
X218935428Y-68015271D01*
X218935428Y-68015271D02*
X218897332Y-68167652D01*
X218897332Y-68167652D02*
X218897332Y-68281938D01*
X218897332Y-68281938D02*
X218935428Y-68434319D01*
X218935428Y-68434319D02*
X218973523Y-68510509D01*
X218973523Y-68510509D02*
X219049713Y-68586700D01*
X219049713Y-68586700D02*
X219163999Y-68624795D01*
X219163999Y-68624795D02*
X219354475Y-68624795D01*
X224043604Y-60204795D02*
X223586461Y-60204795D01*
X223815033Y-61004795D02*
X223815033Y-60204795D01*
X223395985Y-60204795D02*
X222862651Y-61004795D01*
X222862651Y-60204795D02*
X223395985Y-61004795D01*
X222405508Y-60204795D02*
X222329318Y-60204795D01*
X222329318Y-60204795D02*
X222253127Y-60242890D01*
X222253127Y-60242890D02*
X222215032Y-60280985D01*
X222215032Y-60280985D02*
X222176937Y-60357176D01*
X222176937Y-60357176D02*
X222138842Y-60509557D01*
X222138842Y-60509557D02*
X222138842Y-60700033D01*
X222138842Y-60700033D02*
X222176937Y-60852414D01*
X222176937Y-60852414D02*
X222215032Y-60928604D01*
X222215032Y-60928604D02*
X222253127Y-60966700D01*
X222253127Y-60966700D02*
X222329318Y-61004795D01*
X222329318Y-61004795D02*
X222405508Y-61004795D01*
X222405508Y-61004795D02*
X222481699Y-60966700D01*
X222481699Y-60966700D02*
X222519794Y-60928604D01*
X222519794Y-60928604D02*
X222557889Y-60852414D01*
X222557889Y-60852414D02*
X222595985Y-60700033D01*
X222595985Y-60700033D02*
X222595985Y-60509557D01*
X222595985Y-60509557D02*
X222557889Y-60357176D01*
X222557889Y-60357176D02*
X222519794Y-60280985D01*
X222519794Y-60280985D02*
X222481699Y-60242890D01*
X222481699Y-60242890D02*
X222405508Y-60204795D01*
X221224556Y-60166700D02*
X221910270Y-61195271D01*
X220957889Y-61004795D02*
X220957889Y-60204795D01*
X220957889Y-60204795D02*
X220767413Y-60204795D01*
X220767413Y-60204795D02*
X220653127Y-60242890D01*
X220653127Y-60242890D02*
X220576937Y-60319080D01*
X220576937Y-60319080D02*
X220538842Y-60395271D01*
X220538842Y-60395271D02*
X220500746Y-60547652D01*
X220500746Y-60547652D02*
X220500746Y-60661938D01*
X220500746Y-60661938D02*
X220538842Y-60814319D01*
X220538842Y-60814319D02*
X220576937Y-60890509D01*
X220576937Y-60890509D02*
X220653127Y-60966700D01*
X220653127Y-60966700D02*
X220767413Y-61004795D01*
X220767413Y-61004795D02*
X220957889Y-61004795D01*
X220234080Y-60204795D02*
X219738842Y-60204795D01*
X219738842Y-60204795D02*
X220005508Y-60509557D01*
X220005508Y-60509557D02*
X219891223Y-60509557D01*
X219891223Y-60509557D02*
X219815032Y-60547652D01*
X219815032Y-60547652D02*
X219776937Y-60585747D01*
X219776937Y-60585747D02*
X219738842Y-60661938D01*
X219738842Y-60661938D02*
X219738842Y-60852414D01*
X219738842Y-60852414D02*
X219776937Y-60928604D01*
X219776937Y-60928604D02*
X219815032Y-60966700D01*
X219815032Y-60966700D02*
X219891223Y-61004795D01*
X219891223Y-61004795D02*
X220119794Y-61004795D01*
X220119794Y-61004795D02*
X220195985Y-60966700D01*
X220195985Y-60966700D02*
X220234080Y-60928604D01*
X220554475Y-76244795D02*
X220554475Y-75444795D01*
X220554475Y-75444795D02*
X220363999Y-75444795D01*
X220363999Y-75444795D02*
X220249713Y-75482890D01*
X220249713Y-75482890D02*
X220173523Y-75559080D01*
X220173523Y-75559080D02*
X220135428Y-75635271D01*
X220135428Y-75635271D02*
X220097332Y-75787652D01*
X220097332Y-75787652D02*
X220097332Y-75901938D01*
X220097332Y-75901938D02*
X220135428Y-76054319D01*
X220135428Y-76054319D02*
X220173523Y-76130509D01*
X220173523Y-76130509D02*
X220249713Y-76206700D01*
X220249713Y-76206700D02*
X220363999Y-76244795D01*
X220363999Y-76244795D02*
X220554475Y-76244795D01*
X219411618Y-75711461D02*
X219411618Y-76244795D01*
X219602094Y-75406700D02*
X219792571Y-75978128D01*
X219792571Y-75978128D02*
X219297332Y-75978128D01*
X231152666Y-70745747D02*
X231419332Y-70745747D01*
X231419332Y-71164795D02*
X231419332Y-70364795D01*
X231419332Y-70364795D02*
X231038380Y-70364795D01*
X230390761Y-70631461D02*
X230390761Y-71164795D01*
X230581237Y-70326700D02*
X230771714Y-70898128D01*
X230771714Y-70898128D02*
X230276475Y-70898128D01*
X230998333Y-66026700D02*
X230884047Y-66064795D01*
X230884047Y-66064795D02*
X230693571Y-66064795D01*
X230693571Y-66064795D02*
X230617380Y-66026700D01*
X230617380Y-66026700D02*
X230579285Y-65988604D01*
X230579285Y-65988604D02*
X230541190Y-65912414D01*
X230541190Y-65912414D02*
X230541190Y-65836223D01*
X230541190Y-65836223D02*
X230579285Y-65760033D01*
X230579285Y-65760033D02*
X230617380Y-65721938D01*
X230617380Y-65721938D02*
X230693571Y-65683842D01*
X230693571Y-65683842D02*
X230845952Y-65645747D01*
X230845952Y-65645747D02*
X230922142Y-65607652D01*
X230922142Y-65607652D02*
X230960237Y-65569557D01*
X230960237Y-65569557D02*
X230998333Y-65493366D01*
X230998333Y-65493366D02*
X230998333Y-65417176D01*
X230998333Y-65417176D02*
X230960237Y-65340985D01*
X230960237Y-65340985D02*
X230922142Y-65302890D01*
X230922142Y-65302890D02*
X230845952Y-65264795D01*
X230845952Y-65264795D02*
X230655475Y-65264795D01*
X230655475Y-65264795D02*
X230541190Y-65302890D01*
X230312618Y-65264795D02*
X229855475Y-65264795D01*
X230084047Y-66064795D02*
X230084047Y-65264795D01*
X231209809Y-83445747D02*
X231095523Y-83483842D01*
X231095523Y-83483842D02*
X231057428Y-83521938D01*
X231057428Y-83521938D02*
X231019332Y-83598128D01*
X231019332Y-83598128D02*
X231019332Y-83712414D01*
X231019332Y-83712414D02*
X231057428Y-83788604D01*
X231057428Y-83788604D02*
X231095523Y-83826700D01*
X231095523Y-83826700D02*
X231171713Y-83864795D01*
X231171713Y-83864795D02*
X231476475Y-83864795D01*
X231476475Y-83864795D02*
X231476475Y-83064795D01*
X231476475Y-83064795D02*
X231209809Y-83064795D01*
X231209809Y-83064795D02*
X231133618Y-83102890D01*
X231133618Y-83102890D02*
X231095523Y-83140985D01*
X231095523Y-83140985D02*
X231057428Y-83217176D01*
X231057428Y-83217176D02*
X231057428Y-83293366D01*
X231057428Y-83293366D02*
X231095523Y-83369557D01*
X231095523Y-83369557D02*
X231133618Y-83407652D01*
X231133618Y-83407652D02*
X231209809Y-83445747D01*
X231209809Y-83445747D02*
X231476475Y-83445747D01*
X230752666Y-83064795D02*
X230257428Y-83064795D01*
X230257428Y-83064795D02*
X230524094Y-83369557D01*
X230524094Y-83369557D02*
X230409809Y-83369557D01*
X230409809Y-83369557D02*
X230333618Y-83407652D01*
X230333618Y-83407652D02*
X230295523Y-83445747D01*
X230295523Y-83445747D02*
X230257428Y-83521938D01*
X230257428Y-83521938D02*
X230257428Y-83712414D01*
X230257428Y-83712414D02*
X230295523Y-83788604D01*
X230295523Y-83788604D02*
X230333618Y-83826700D01*
X230333618Y-83826700D02*
X230409809Y-83864795D01*
X230409809Y-83864795D02*
X230638380Y-83864795D01*
X230638380Y-83864795D02*
X230714571Y-83826700D01*
X230714571Y-83826700D02*
X230752666Y-83788604D01*
X231152666Y-75825747D02*
X231419332Y-75825747D01*
X231419332Y-76244795D02*
X231419332Y-75444795D01*
X231419332Y-75444795D02*
X231038380Y-75444795D01*
X230390761Y-75444795D02*
X230543142Y-75444795D01*
X230543142Y-75444795D02*
X230619333Y-75482890D01*
X230619333Y-75482890D02*
X230657428Y-75520985D01*
X230657428Y-75520985D02*
X230733618Y-75635271D01*
X230733618Y-75635271D02*
X230771714Y-75787652D01*
X230771714Y-75787652D02*
X230771714Y-76092414D01*
X230771714Y-76092414D02*
X230733618Y-76168604D01*
X230733618Y-76168604D02*
X230695523Y-76206700D01*
X230695523Y-76206700D02*
X230619333Y-76244795D01*
X230619333Y-76244795D02*
X230466952Y-76244795D01*
X230466952Y-76244795D02*
X230390761Y-76206700D01*
X230390761Y-76206700D02*
X230352666Y-76168604D01*
X230352666Y-76168604D02*
X230314571Y-76092414D01*
X230314571Y-76092414D02*
X230314571Y-75901938D01*
X230314571Y-75901938D02*
X230352666Y-75825747D01*
X230352666Y-75825747D02*
X230390761Y-75787652D01*
X230390761Y-75787652D02*
X230466952Y-75749557D01*
X230466952Y-75749557D02*
X230619333Y-75749557D01*
X230619333Y-75749557D02*
X230695523Y-75787652D01*
X230695523Y-75787652D02*
X230733618Y-75825747D01*
X230733618Y-75825747D02*
X230771714Y-75901938D01*
X220516380Y-83445747D02*
X220249714Y-83445747D01*
X220135428Y-83864795D02*
X220516380Y-83864795D01*
X220516380Y-83864795D02*
X220516380Y-83064795D01*
X220516380Y-83064795D02*
X220135428Y-83064795D01*
X219449713Y-83064795D02*
X219602094Y-83064795D01*
X219602094Y-83064795D02*
X219678285Y-83102890D01*
X219678285Y-83102890D02*
X219716380Y-83140985D01*
X219716380Y-83140985D02*
X219792570Y-83255271D01*
X219792570Y-83255271D02*
X219830666Y-83407652D01*
X219830666Y-83407652D02*
X219830666Y-83712414D01*
X219830666Y-83712414D02*
X219792570Y-83788604D01*
X219792570Y-83788604D02*
X219754475Y-83826700D01*
X219754475Y-83826700D02*
X219678285Y-83864795D01*
X219678285Y-83864795D02*
X219525904Y-83864795D01*
X219525904Y-83864795D02*
X219449713Y-83826700D01*
X219449713Y-83826700D02*
X219411618Y-83788604D01*
X219411618Y-83788604D02*
X219373523Y-83712414D01*
X219373523Y-83712414D02*
X219373523Y-83521938D01*
X219373523Y-83521938D02*
X219411618Y-83445747D01*
X219411618Y-83445747D02*
X219449713Y-83407652D01*
X219449713Y-83407652D02*
X219525904Y-83369557D01*
X219525904Y-83369557D02*
X219678285Y-83369557D01*
X219678285Y-83369557D02*
X219754475Y-83407652D01*
X219754475Y-83407652D02*
X219792570Y-83445747D01*
X219792570Y-83445747D02*
X219830666Y-83521938D01*
X231495523Y-62782890D02*
X231571713Y-62744795D01*
X231571713Y-62744795D02*
X231685999Y-62744795D01*
X231685999Y-62744795D02*
X231800285Y-62782890D01*
X231800285Y-62782890D02*
X231876475Y-62859080D01*
X231876475Y-62859080D02*
X231914570Y-62935271D01*
X231914570Y-62935271D02*
X231952666Y-63087652D01*
X231952666Y-63087652D02*
X231952666Y-63201938D01*
X231952666Y-63201938D02*
X231914570Y-63354319D01*
X231914570Y-63354319D02*
X231876475Y-63430509D01*
X231876475Y-63430509D02*
X231800285Y-63506700D01*
X231800285Y-63506700D02*
X231685999Y-63544795D01*
X231685999Y-63544795D02*
X231609808Y-63544795D01*
X231609808Y-63544795D02*
X231495523Y-63506700D01*
X231495523Y-63506700D02*
X231457427Y-63468604D01*
X231457427Y-63468604D02*
X231457427Y-63201938D01*
X231457427Y-63201938D02*
X231609808Y-63201938D01*
X231114570Y-63544795D02*
X231114570Y-62744795D01*
X231114570Y-62744795D02*
X230657427Y-63544795D01*
X230657427Y-63544795D02*
X230657427Y-62744795D01*
X230276475Y-63544795D02*
X230276475Y-62744795D01*
X230276475Y-62744795D02*
X230085999Y-62744795D01*
X230085999Y-62744795D02*
X229971713Y-62782890D01*
X229971713Y-62782890D02*
X229895523Y-62859080D01*
X229895523Y-62859080D02*
X229857428Y-62935271D01*
X229857428Y-62935271D02*
X229819332Y-63087652D01*
X229819332Y-63087652D02*
X229819332Y-63201938D01*
X229819332Y-63201938D02*
X229857428Y-63354319D01*
X229857428Y-63354319D02*
X229895523Y-63430509D01*
X229895523Y-63430509D02*
X229971713Y-63506700D01*
X229971713Y-63506700D02*
X230085999Y-63544795D01*
X230085999Y-63544795D02*
X230276475Y-63544795D01*
X231152666Y-73285747D02*
X231419332Y-73285747D01*
X231419332Y-73704795D02*
X231419332Y-72904795D01*
X231419332Y-72904795D02*
X231038380Y-72904795D01*
X230352666Y-72904795D02*
X230733618Y-72904795D01*
X230733618Y-72904795D02*
X230771714Y-73285747D01*
X230771714Y-73285747D02*
X230733618Y-73247652D01*
X230733618Y-73247652D02*
X230657428Y-73209557D01*
X230657428Y-73209557D02*
X230466952Y-73209557D01*
X230466952Y-73209557D02*
X230390761Y-73247652D01*
X230390761Y-73247652D02*
X230352666Y-73285747D01*
X230352666Y-73285747D02*
X230314571Y-73361938D01*
X230314571Y-73361938D02*
X230314571Y-73552414D01*
X230314571Y-73552414D02*
X230352666Y-73628604D01*
X230352666Y-73628604D02*
X230390761Y-73666700D01*
X230390761Y-73666700D02*
X230466952Y-73704795D01*
X230466952Y-73704795D02*
X230657428Y-73704795D01*
X230657428Y-73704795D02*
X230733618Y-73666700D01*
X230733618Y-73666700D02*
X230771714Y-73628604D01*
X220554475Y-73704795D02*
X220554475Y-72904795D01*
X220554475Y-72904795D02*
X220363999Y-72904795D01*
X220363999Y-72904795D02*
X220249713Y-72942890D01*
X220249713Y-72942890D02*
X220173523Y-73019080D01*
X220173523Y-73019080D02*
X220135428Y-73095271D01*
X220135428Y-73095271D02*
X220097332Y-73247652D01*
X220097332Y-73247652D02*
X220097332Y-73361938D01*
X220097332Y-73361938D02*
X220135428Y-73514319D01*
X220135428Y-73514319D02*
X220173523Y-73590509D01*
X220173523Y-73590509D02*
X220249713Y-73666700D01*
X220249713Y-73666700D02*
X220363999Y-73704795D01*
X220363999Y-73704795D02*
X220554475Y-73704795D01*
X219602094Y-72904795D02*
X219525904Y-72904795D01*
X219525904Y-72904795D02*
X219449713Y-72942890D01*
X219449713Y-72942890D02*
X219411618Y-72980985D01*
X219411618Y-72980985D02*
X219373523Y-73057176D01*
X219373523Y-73057176D02*
X219335428Y-73209557D01*
X219335428Y-73209557D02*
X219335428Y-73400033D01*
X219335428Y-73400033D02*
X219373523Y-73552414D01*
X219373523Y-73552414D02*
X219411618Y-73628604D01*
X219411618Y-73628604D02*
X219449713Y-73666700D01*
X219449713Y-73666700D02*
X219525904Y-73704795D01*
X219525904Y-73704795D02*
X219602094Y-73704795D01*
X219602094Y-73704795D02*
X219678285Y-73666700D01*
X219678285Y-73666700D02*
X219716380Y-73628604D01*
X219716380Y-73628604D02*
X219754475Y-73552414D01*
X219754475Y-73552414D02*
X219792571Y-73400033D01*
X219792571Y-73400033D02*
X219792571Y-73209557D01*
X219792571Y-73209557D02*
X219754475Y-73057176D01*
X219754475Y-73057176D02*
X219716380Y-72980985D01*
X219716380Y-72980985D02*
X219678285Y-72942890D01*
X219678285Y-72942890D02*
X219602094Y-72904795D01*
X220287809Y-85985747D02*
X220173523Y-86023842D01*
X220173523Y-86023842D02*
X220135428Y-86061938D01*
X220135428Y-86061938D02*
X220097332Y-86138128D01*
X220097332Y-86138128D02*
X220097332Y-86252414D01*
X220097332Y-86252414D02*
X220135428Y-86328604D01*
X220135428Y-86328604D02*
X220173523Y-86366700D01*
X220173523Y-86366700D02*
X220249713Y-86404795D01*
X220249713Y-86404795D02*
X220554475Y-86404795D01*
X220554475Y-86404795D02*
X220554475Y-85604795D01*
X220554475Y-85604795D02*
X220287809Y-85604795D01*
X220287809Y-85604795D02*
X220211618Y-85642890D01*
X220211618Y-85642890D02*
X220173523Y-85680985D01*
X220173523Y-85680985D02*
X220135428Y-85757176D01*
X220135428Y-85757176D02*
X220135428Y-85833366D01*
X220135428Y-85833366D02*
X220173523Y-85909557D01*
X220173523Y-85909557D02*
X220211618Y-85947652D01*
X220211618Y-85947652D02*
X220287809Y-85985747D01*
X220287809Y-85985747D02*
X220554475Y-85985747D01*
X219411618Y-85871461D02*
X219411618Y-86404795D01*
X219602094Y-85566700D02*
X219792571Y-86138128D01*
X219792571Y-86138128D02*
X219297332Y-86138128D01*
X231209809Y-85985747D02*
X231095523Y-86023842D01*
X231095523Y-86023842D02*
X231057428Y-86061938D01*
X231057428Y-86061938D02*
X231019332Y-86138128D01*
X231019332Y-86138128D02*
X231019332Y-86252414D01*
X231019332Y-86252414D02*
X231057428Y-86328604D01*
X231057428Y-86328604D02*
X231095523Y-86366700D01*
X231095523Y-86366700D02*
X231171713Y-86404795D01*
X231171713Y-86404795D02*
X231476475Y-86404795D01*
X231476475Y-86404795D02*
X231476475Y-85604795D01*
X231476475Y-85604795D02*
X231209809Y-85604795D01*
X231209809Y-85604795D02*
X231133618Y-85642890D01*
X231133618Y-85642890D02*
X231095523Y-85680985D01*
X231095523Y-85680985D02*
X231057428Y-85757176D01*
X231057428Y-85757176D02*
X231057428Y-85833366D01*
X231057428Y-85833366D02*
X231095523Y-85909557D01*
X231095523Y-85909557D02*
X231133618Y-85947652D01*
X231133618Y-85947652D02*
X231209809Y-85985747D01*
X231209809Y-85985747D02*
X231476475Y-85985747D01*
X230714571Y-85680985D02*
X230676475Y-85642890D01*
X230676475Y-85642890D02*
X230600285Y-85604795D01*
X230600285Y-85604795D02*
X230409809Y-85604795D01*
X230409809Y-85604795D02*
X230333618Y-85642890D01*
X230333618Y-85642890D02*
X230295523Y-85680985D01*
X230295523Y-85680985D02*
X230257428Y-85757176D01*
X230257428Y-85757176D02*
X230257428Y-85833366D01*
X230257428Y-85833366D02*
X230295523Y-85947652D01*
X230295523Y-85947652D02*
X230752666Y-86404795D01*
X230752666Y-86404795D02*
X230257428Y-86404795D01*
X220554475Y-71164795D02*
X220554475Y-70364795D01*
X220554475Y-70364795D02*
X220363999Y-70364795D01*
X220363999Y-70364795D02*
X220249713Y-70402890D01*
X220249713Y-70402890D02*
X220173523Y-70479080D01*
X220173523Y-70479080D02*
X220135428Y-70555271D01*
X220135428Y-70555271D02*
X220097332Y-70707652D01*
X220097332Y-70707652D02*
X220097332Y-70821938D01*
X220097332Y-70821938D02*
X220135428Y-70974319D01*
X220135428Y-70974319D02*
X220173523Y-71050509D01*
X220173523Y-71050509D02*
X220249713Y-71126700D01*
X220249713Y-71126700D02*
X220363999Y-71164795D01*
X220363999Y-71164795D02*
X220554475Y-71164795D01*
X219335428Y-71164795D02*
X219792571Y-71164795D01*
X219563999Y-71164795D02*
X219563999Y-70364795D01*
X219563999Y-70364795D02*
X219640190Y-70479080D01*
X219640190Y-70479080D02*
X219716380Y-70555271D01*
X219716380Y-70555271D02*
X219792571Y-70593366D01*
X231209809Y-80905747D02*
X231095523Y-80943842D01*
X231095523Y-80943842D02*
X231057428Y-80981938D01*
X231057428Y-80981938D02*
X231019332Y-81058128D01*
X231019332Y-81058128D02*
X231019332Y-81172414D01*
X231019332Y-81172414D02*
X231057428Y-81248604D01*
X231057428Y-81248604D02*
X231095523Y-81286700D01*
X231095523Y-81286700D02*
X231171713Y-81324795D01*
X231171713Y-81324795D02*
X231476475Y-81324795D01*
X231476475Y-81324795D02*
X231476475Y-80524795D01*
X231476475Y-80524795D02*
X231209809Y-80524795D01*
X231209809Y-80524795D02*
X231133618Y-80562890D01*
X231133618Y-80562890D02*
X231095523Y-80600985D01*
X231095523Y-80600985D02*
X231057428Y-80677176D01*
X231057428Y-80677176D02*
X231057428Y-80753366D01*
X231057428Y-80753366D02*
X231095523Y-80829557D01*
X231095523Y-80829557D02*
X231133618Y-80867652D01*
X231133618Y-80867652D02*
X231209809Y-80905747D01*
X231209809Y-80905747D02*
X231476475Y-80905747D01*
X230257428Y-81324795D02*
X230714571Y-81324795D01*
X230485999Y-81324795D02*
X230485999Y-80524795D01*
X230485999Y-80524795D02*
X230562190Y-80639080D01*
X230562190Y-80639080D02*
X230638380Y-80715271D01*
X230638380Y-80715271D02*
X230714571Y-80753366D01*
X220097332Y-78708604D02*
X220135428Y-78746700D01*
X220135428Y-78746700D02*
X220249713Y-78784795D01*
X220249713Y-78784795D02*
X220325904Y-78784795D01*
X220325904Y-78784795D02*
X220440190Y-78746700D01*
X220440190Y-78746700D02*
X220516380Y-78670509D01*
X220516380Y-78670509D02*
X220554475Y-78594319D01*
X220554475Y-78594319D02*
X220592571Y-78441938D01*
X220592571Y-78441938D02*
X220592571Y-78327652D01*
X220592571Y-78327652D02*
X220554475Y-78175271D01*
X220554475Y-78175271D02*
X220516380Y-78099080D01*
X220516380Y-78099080D02*
X220440190Y-78022890D01*
X220440190Y-78022890D02*
X220325904Y-77984795D01*
X220325904Y-77984795D02*
X220249713Y-77984795D01*
X220249713Y-77984795D02*
X220135428Y-78022890D01*
X220135428Y-78022890D02*
X220097332Y-78060985D01*
X219411618Y-77984795D02*
X219563999Y-77984795D01*
X219563999Y-77984795D02*
X219640190Y-78022890D01*
X219640190Y-78022890D02*
X219678285Y-78060985D01*
X219678285Y-78060985D02*
X219754475Y-78175271D01*
X219754475Y-78175271D02*
X219792571Y-78327652D01*
X219792571Y-78327652D02*
X219792571Y-78632414D01*
X219792571Y-78632414D02*
X219754475Y-78708604D01*
X219754475Y-78708604D02*
X219716380Y-78746700D01*
X219716380Y-78746700D02*
X219640190Y-78784795D01*
X219640190Y-78784795D02*
X219487809Y-78784795D01*
X219487809Y-78784795D02*
X219411618Y-78746700D01*
X219411618Y-78746700D02*
X219373523Y-78708604D01*
X219373523Y-78708604D02*
X219335428Y-78632414D01*
X219335428Y-78632414D02*
X219335428Y-78441938D01*
X219335428Y-78441938D02*
X219373523Y-78365747D01*
X219373523Y-78365747D02*
X219411618Y-78327652D01*
X219411618Y-78327652D02*
X219487809Y-78289557D01*
X219487809Y-78289557D02*
X219640190Y-78289557D01*
X219640190Y-78289557D02*
X219716380Y-78327652D01*
X219716380Y-78327652D02*
X219754475Y-78365747D01*
X219754475Y-78365747D02*
X219792571Y-78441938D01*
X220287809Y-88525747D02*
X220173523Y-88563842D01*
X220173523Y-88563842D02*
X220135428Y-88601938D01*
X220135428Y-88601938D02*
X220097332Y-88678128D01*
X220097332Y-88678128D02*
X220097332Y-88792414D01*
X220097332Y-88792414D02*
X220135428Y-88868604D01*
X220135428Y-88868604D02*
X220173523Y-88906700D01*
X220173523Y-88906700D02*
X220249713Y-88944795D01*
X220249713Y-88944795D02*
X220554475Y-88944795D01*
X220554475Y-88944795D02*
X220554475Y-88144795D01*
X220554475Y-88144795D02*
X220287809Y-88144795D01*
X220287809Y-88144795D02*
X220211618Y-88182890D01*
X220211618Y-88182890D02*
X220173523Y-88220985D01*
X220173523Y-88220985D02*
X220135428Y-88297176D01*
X220135428Y-88297176D02*
X220135428Y-88373366D01*
X220135428Y-88373366D02*
X220173523Y-88449557D01*
X220173523Y-88449557D02*
X220211618Y-88487652D01*
X220211618Y-88487652D02*
X220287809Y-88525747D01*
X220287809Y-88525747D02*
X220554475Y-88525747D01*
X219373523Y-88144795D02*
X219754475Y-88144795D01*
X219754475Y-88144795D02*
X219792571Y-88525747D01*
X219792571Y-88525747D02*
X219754475Y-88487652D01*
X219754475Y-88487652D02*
X219678285Y-88449557D01*
X219678285Y-88449557D02*
X219487809Y-88449557D01*
X219487809Y-88449557D02*
X219411618Y-88487652D01*
X219411618Y-88487652D02*
X219373523Y-88525747D01*
X219373523Y-88525747D02*
X219335428Y-88601938D01*
X219335428Y-88601938D02*
X219335428Y-88792414D01*
X219335428Y-88792414D02*
X219373523Y-88868604D01*
X219373523Y-88868604D02*
X219411618Y-88906700D01*
X219411618Y-88906700D02*
X219487809Y-88944795D01*
X219487809Y-88944795D02*
X219678285Y-88944795D01*
X219678285Y-88944795D02*
X219754475Y-88906700D01*
X219754475Y-88906700D02*
X219792571Y-88868604D01*
X220554475Y-81324795D02*
X220554475Y-80524795D01*
X220554475Y-80524795D02*
X220363999Y-80524795D01*
X220363999Y-80524795D02*
X220249713Y-80562890D01*
X220249713Y-80562890D02*
X220173523Y-80639080D01*
X220173523Y-80639080D02*
X220135428Y-80715271D01*
X220135428Y-80715271D02*
X220097332Y-80867652D01*
X220097332Y-80867652D02*
X220097332Y-80981938D01*
X220097332Y-80981938D02*
X220135428Y-81134319D01*
X220135428Y-81134319D02*
X220173523Y-81210509D01*
X220173523Y-81210509D02*
X220249713Y-81286700D01*
X220249713Y-81286700D02*
X220363999Y-81324795D01*
X220363999Y-81324795D02*
X220554475Y-81324795D01*
X219830666Y-80524795D02*
X219297332Y-80524795D01*
X219297332Y-80524795D02*
X219640190Y-81324795D01*
X231152666Y-78365747D02*
X231419332Y-78365747D01*
X231419332Y-78784795D02*
X231419332Y-77984795D01*
X231419332Y-77984795D02*
X231038380Y-77984795D01*
X230809809Y-77984795D02*
X230276475Y-77984795D01*
X230276475Y-77984795D02*
X230619333Y-78784795D01*
%TO.C,MX10*%
X231436904Y-101892319D02*
X231436904Y-100892319D01*
X231436904Y-100892319D02*
X231103571Y-101606604D01*
X231103571Y-101606604D02*
X230770238Y-100892319D01*
X230770238Y-100892319D02*
X230770238Y-101892319D01*
X230389285Y-100892319D02*
X229722619Y-101892319D01*
X229722619Y-100892319D02*
X230389285Y-101892319D01*
X228817857Y-101892319D02*
X229389285Y-101892319D01*
X229103571Y-101892319D02*
X229103571Y-100892319D01*
X229103571Y-100892319D02*
X229198809Y-101035176D01*
X229198809Y-101035176D02*
X229294047Y-101130414D01*
X229294047Y-101130414D02*
X229389285Y-101178033D01*
X228198809Y-100892319D02*
X228103571Y-100892319D01*
X228103571Y-100892319D02*
X228008333Y-100939938D01*
X228008333Y-100939938D02*
X227960714Y-100987557D01*
X227960714Y-100987557D02*
X227913095Y-101082795D01*
X227913095Y-101082795D02*
X227865476Y-101273271D01*
X227865476Y-101273271D02*
X227865476Y-101511366D01*
X227865476Y-101511366D02*
X227913095Y-101701842D01*
X227913095Y-101701842D02*
X227960714Y-101797080D01*
X227960714Y-101797080D02*
X228008333Y-101844700D01*
X228008333Y-101844700D02*
X228103571Y-101892319D01*
X228103571Y-101892319D02*
X228198809Y-101892319D01*
X228198809Y-101892319D02*
X228294047Y-101844700D01*
X228294047Y-101844700D02*
X228341666Y-101797080D01*
X228341666Y-101797080D02*
X228389285Y-101701842D01*
X228389285Y-101701842D02*
X228436904Y-101511366D01*
X228436904Y-101511366D02*
X228436904Y-101273271D01*
X228436904Y-101273271D02*
X228389285Y-101082795D01*
X228389285Y-101082795D02*
X228341666Y-100987557D01*
X228341666Y-100987557D02*
X228294047Y-100939938D01*
X228294047Y-100939938D02*
X228198809Y-100892319D01*
%TO.C,MX3*%
X211910713Y-63792319D02*
X211910713Y-62792319D01*
X211910713Y-62792319D02*
X211577380Y-63506604D01*
X211577380Y-63506604D02*
X211244047Y-62792319D01*
X211244047Y-62792319D02*
X211244047Y-63792319D01*
X210863094Y-62792319D02*
X210196428Y-63792319D01*
X210196428Y-62792319D02*
X210863094Y-63792319D01*
X209910713Y-62792319D02*
X209291666Y-62792319D01*
X209291666Y-62792319D02*
X209624999Y-63173271D01*
X209624999Y-63173271D02*
X209482142Y-63173271D01*
X209482142Y-63173271D02*
X209386904Y-63220890D01*
X209386904Y-63220890D02*
X209339285Y-63268509D01*
X209339285Y-63268509D02*
X209291666Y-63363747D01*
X209291666Y-63363747D02*
X209291666Y-63601842D01*
X209291666Y-63601842D02*
X209339285Y-63697080D01*
X209339285Y-63697080D02*
X209386904Y-63744700D01*
X209386904Y-63744700D02*
X209482142Y-63792319D01*
X209482142Y-63792319D02*
X209767856Y-63792319D01*
X209767856Y-63792319D02*
X209863094Y-63744700D01*
X209863094Y-63744700D02*
X209910713Y-63697080D01*
%TO.C,MX9*%
X211910713Y-101892319D02*
X211910713Y-100892319D01*
X211910713Y-100892319D02*
X211577380Y-101606604D01*
X211577380Y-101606604D02*
X211244047Y-100892319D01*
X211244047Y-100892319D02*
X211244047Y-101892319D01*
X210863094Y-100892319D02*
X210196428Y-101892319D01*
X210196428Y-100892319D02*
X210863094Y-101892319D01*
X209767856Y-101892319D02*
X209577380Y-101892319D01*
X209577380Y-101892319D02*
X209482142Y-101844700D01*
X209482142Y-101844700D02*
X209434523Y-101797080D01*
X209434523Y-101797080D02*
X209339285Y-101654223D01*
X209339285Y-101654223D02*
X209291666Y-101463747D01*
X209291666Y-101463747D02*
X209291666Y-101082795D01*
X209291666Y-101082795D02*
X209339285Y-100987557D01*
X209339285Y-100987557D02*
X209386904Y-100939938D01*
X209386904Y-100939938D02*
X209482142Y-100892319D01*
X209482142Y-100892319D02*
X209672618Y-100892319D01*
X209672618Y-100892319D02*
X209767856Y-100939938D01*
X209767856Y-100939938D02*
X209815475Y-100987557D01*
X209815475Y-100987557D02*
X209863094Y-101082795D01*
X209863094Y-101082795D02*
X209863094Y-101320890D01*
X209863094Y-101320890D02*
X209815475Y-101416128D01*
X209815475Y-101416128D02*
X209767856Y-101463747D01*
X209767856Y-101463747D02*
X209672618Y-101511366D01*
X209672618Y-101511366D02*
X209482142Y-101511366D01*
X209482142Y-101511366D02*
X209386904Y-101463747D01*
X209386904Y-101463747D02*
X209339285Y-101416128D01*
X209339285Y-101416128D02*
X209291666Y-101320890D01*
%TO.C,MX4*%
X173810713Y-82842319D02*
X173810713Y-81842319D01*
X173810713Y-81842319D02*
X173477380Y-82556604D01*
X173477380Y-82556604D02*
X173144047Y-81842319D01*
X173144047Y-81842319D02*
X173144047Y-82842319D01*
X172763094Y-81842319D02*
X172096428Y-82842319D01*
X172096428Y-81842319D02*
X172763094Y-82842319D01*
X171286904Y-82175652D02*
X171286904Y-82842319D01*
X171524999Y-81794700D02*
X171763094Y-82508985D01*
X171763094Y-82508985D02*
X171144047Y-82508985D01*
%TO.C,MX5*%
X192860713Y-82842319D02*
X192860713Y-81842319D01*
X192860713Y-81842319D02*
X192527380Y-82556604D01*
X192527380Y-82556604D02*
X192194047Y-81842319D01*
X192194047Y-81842319D02*
X192194047Y-82842319D01*
X191813094Y-81842319D02*
X191146428Y-82842319D01*
X191146428Y-81842319D02*
X191813094Y-82842319D01*
X190289285Y-81842319D02*
X190765475Y-81842319D01*
X190765475Y-81842319D02*
X190813094Y-82318509D01*
X190813094Y-82318509D02*
X190765475Y-82270890D01*
X190765475Y-82270890D02*
X190670237Y-82223271D01*
X190670237Y-82223271D02*
X190432142Y-82223271D01*
X190432142Y-82223271D02*
X190336904Y-82270890D01*
X190336904Y-82270890D02*
X190289285Y-82318509D01*
X190289285Y-82318509D02*
X190241666Y-82413747D01*
X190241666Y-82413747D02*
X190241666Y-82651842D01*
X190241666Y-82651842D02*
X190289285Y-82747080D01*
X190289285Y-82747080D02*
X190336904Y-82794700D01*
X190336904Y-82794700D02*
X190432142Y-82842319D01*
X190432142Y-82842319D02*
X190670237Y-82842319D01*
X190670237Y-82842319D02*
X190765475Y-82794700D01*
X190765475Y-82794700D02*
X190813094Y-82747080D01*
%TO.C,MX2*%
X192860713Y-63792319D02*
X192860713Y-62792319D01*
X192860713Y-62792319D02*
X192527380Y-63506604D01*
X192527380Y-63506604D02*
X192194047Y-62792319D01*
X192194047Y-62792319D02*
X192194047Y-63792319D01*
X191813094Y-62792319D02*
X191146428Y-63792319D01*
X191146428Y-62792319D02*
X191813094Y-63792319D01*
X190813094Y-62887557D02*
X190765475Y-62839938D01*
X190765475Y-62839938D02*
X190670237Y-62792319D01*
X190670237Y-62792319D02*
X190432142Y-62792319D01*
X190432142Y-62792319D02*
X190336904Y-62839938D01*
X190336904Y-62839938D02*
X190289285Y-62887557D01*
X190289285Y-62887557D02*
X190241666Y-62982795D01*
X190241666Y-62982795D02*
X190241666Y-63078033D01*
X190241666Y-63078033D02*
X190289285Y-63220890D01*
X190289285Y-63220890D02*
X190860713Y-63792319D01*
X190860713Y-63792319D02*
X190241666Y-63792319D01*
%TO.C,MX8*%
X192860713Y-101892319D02*
X192860713Y-100892319D01*
X192860713Y-100892319D02*
X192527380Y-101606604D01*
X192527380Y-101606604D02*
X192194047Y-100892319D01*
X192194047Y-100892319D02*
X192194047Y-101892319D01*
X191813094Y-100892319D02*
X191146428Y-101892319D01*
X191146428Y-100892319D02*
X191813094Y-101892319D01*
X190622618Y-101320890D02*
X190717856Y-101273271D01*
X190717856Y-101273271D02*
X190765475Y-101225652D01*
X190765475Y-101225652D02*
X190813094Y-101130414D01*
X190813094Y-101130414D02*
X190813094Y-101082795D01*
X190813094Y-101082795D02*
X190765475Y-100987557D01*
X190765475Y-100987557D02*
X190717856Y-100939938D01*
X190717856Y-100939938D02*
X190622618Y-100892319D01*
X190622618Y-100892319D02*
X190432142Y-100892319D01*
X190432142Y-100892319D02*
X190336904Y-100939938D01*
X190336904Y-100939938D02*
X190289285Y-100987557D01*
X190289285Y-100987557D02*
X190241666Y-101082795D01*
X190241666Y-101082795D02*
X190241666Y-101130414D01*
X190241666Y-101130414D02*
X190289285Y-101225652D01*
X190289285Y-101225652D02*
X190336904Y-101273271D01*
X190336904Y-101273271D02*
X190432142Y-101320890D01*
X190432142Y-101320890D02*
X190622618Y-101320890D01*
X190622618Y-101320890D02*
X190717856Y-101368509D01*
X190717856Y-101368509D02*
X190765475Y-101416128D01*
X190765475Y-101416128D02*
X190813094Y-101511366D01*
X190813094Y-101511366D02*
X190813094Y-101701842D01*
X190813094Y-101701842D02*
X190765475Y-101797080D01*
X190765475Y-101797080D02*
X190717856Y-101844700D01*
X190717856Y-101844700D02*
X190622618Y-101892319D01*
X190622618Y-101892319D02*
X190432142Y-101892319D01*
X190432142Y-101892319D02*
X190336904Y-101844700D01*
X190336904Y-101844700D02*
X190289285Y-101797080D01*
X190289285Y-101797080D02*
X190241666Y-101701842D01*
X190241666Y-101701842D02*
X190241666Y-101511366D01*
X190241666Y-101511366D02*
X190289285Y-101416128D01*
X190289285Y-101416128D02*
X190336904Y-101368509D01*
X190336904Y-101368509D02*
X190432142Y-101320890D01*
%TO.C,MX7*%
X173810713Y-101892319D02*
X173810713Y-100892319D01*
X173810713Y-100892319D02*
X173477380Y-101606604D01*
X173477380Y-101606604D02*
X173144047Y-100892319D01*
X173144047Y-100892319D02*
X173144047Y-101892319D01*
X172763094Y-100892319D02*
X172096428Y-101892319D01*
X172096428Y-100892319D02*
X172763094Y-101892319D01*
X171810713Y-100892319D02*
X171144047Y-100892319D01*
X171144047Y-100892319D02*
X171572618Y-101892319D01*
%TO.C,MX1*%
X173810713Y-63792319D02*
X173810713Y-62792319D01*
X173810713Y-62792319D02*
X173477380Y-63506604D01*
X173477380Y-63506604D02*
X173144047Y-62792319D01*
X173144047Y-62792319D02*
X173144047Y-63792319D01*
X172763094Y-62792319D02*
X172096428Y-63792319D01*
X172096428Y-62792319D02*
X172763094Y-63792319D01*
X171191666Y-63792319D02*
X171763094Y-63792319D01*
X171477380Y-63792319D02*
X171477380Y-62792319D01*
X171477380Y-62792319D02*
X171572618Y-62935176D01*
X171572618Y-62935176D02*
X171667856Y-63030414D01*
X171667856Y-63030414D02*
X171763094Y-63078033D01*
%TO.C,MX6*%
X211910713Y-82842319D02*
X211910713Y-81842319D01*
X211910713Y-81842319D02*
X211577380Y-82556604D01*
X211577380Y-82556604D02*
X211244047Y-81842319D01*
X211244047Y-81842319D02*
X211244047Y-82842319D01*
X210863094Y-81842319D02*
X210196428Y-82842319D01*
X210196428Y-81842319D02*
X210863094Y-82842319D01*
X209386904Y-81842319D02*
X209577380Y-81842319D01*
X209577380Y-81842319D02*
X209672618Y-81889938D01*
X209672618Y-81889938D02*
X209720237Y-81937557D01*
X209720237Y-81937557D02*
X209815475Y-82080414D01*
X209815475Y-82080414D02*
X209863094Y-82270890D01*
X209863094Y-82270890D02*
X209863094Y-82651842D01*
X209863094Y-82651842D02*
X209815475Y-82747080D01*
X209815475Y-82747080D02*
X209767856Y-82794700D01*
X209767856Y-82794700D02*
X209672618Y-82842319D01*
X209672618Y-82842319D02*
X209482142Y-82842319D01*
X209482142Y-82842319D02*
X209386904Y-82794700D01*
X209386904Y-82794700D02*
X209339285Y-82747080D01*
X209339285Y-82747080D02*
X209291666Y-82651842D01*
X209291666Y-82651842D02*
X209291666Y-82413747D01*
X209291666Y-82413747D02*
X209339285Y-82318509D01*
X209339285Y-82318509D02*
X209386904Y-82270890D01*
X209386904Y-82270890D02*
X209482142Y-82223271D01*
X209482142Y-82223271D02*
X209672618Y-82223271D01*
X209672618Y-82223271D02*
X209767856Y-82270890D01*
X209767856Y-82270890D02*
X209815475Y-82318509D01*
X209815475Y-82318509D02*
X209863094Y-82413747D01*
D11*
%TO.C,U1*%
X234315000Y-56832500D02*
X216535000Y-56832500D01*
X216535000Y-56832500D02*
X216535000Y-89852500D01*
X219075000Y-59372500D02*
X216535000Y-59372500D01*
X219075000Y-59372500D02*
X219075000Y-61912500D01*
X219075000Y-61912500D02*
X216535000Y-61912500D01*
X234315000Y-89852500D02*
X234315000Y-56832500D01*
X216535000Y-89852500D02*
X234315000Y-89852500D01*
D10*
X231769635Y-66061530D02*
X231669635Y-66061530D01*
X231669635Y-65261530D01*
X231769635Y-65261530D01*
X231769635Y-66061530D01*
G36*
X231769635Y-66061530D02*
G01*
X231669635Y-66061530D01*
X231669635Y-65261530D01*
X231769635Y-65261530D01*
X231769635Y-66061530D01*
G37*
X231769635Y-65361530D02*
X231269635Y-65361530D01*
X231269635Y-65261530D01*
X231769635Y-65261530D01*
X231769635Y-65361530D01*
G36*
X231769635Y-65361530D02*
G01*
X231269635Y-65361530D01*
X231269635Y-65261530D01*
X231769635Y-65261530D01*
X231769635Y-65361530D01*
G37*
X231369635Y-65561530D02*
X231269635Y-65561530D01*
X231269635Y-65261530D01*
X231369635Y-65261530D01*
X231369635Y-65561530D01*
G36*
X231369635Y-65561530D02*
G01*
X231269635Y-65561530D01*
X231269635Y-65261530D01*
X231369635Y-65261530D01*
X231369635Y-65561530D01*
G37*
X231569635Y-65761530D02*
X231469635Y-65761530D01*
X231469635Y-65661530D01*
X231569635Y-65661530D01*
X231569635Y-65761530D01*
G36*
X231569635Y-65761530D02*
G01*
X231469635Y-65761530D01*
X231469635Y-65661530D01*
X231569635Y-65661530D01*
X231569635Y-65761530D01*
G37*
X231369635Y-66061530D02*
X231269635Y-66061530D01*
X231269635Y-65861530D01*
X231369635Y-65861530D01*
X231369635Y-66061530D01*
G36*
X231369635Y-66061530D02*
G01*
X231269635Y-66061530D01*
X231269635Y-65861530D01*
X231369635Y-65861530D01*
X231369635Y-66061530D01*
G37*
%TO.C,MX10*%
X230289824Y-99517280D02*
X230289824Y-99987280D01*
X230289824Y-96437280D02*
X230289824Y-96667280D01*
X229789824Y-100487280D02*
X225225000Y-100487280D01*
X228739824Y-96437280D02*
X230289824Y-96437280D01*
X221339824Y-96437280D02*
X227239824Y-96437280D01*
X219339824Y-102087280D02*
X219339824Y-102327280D01*
X219339824Y-99237280D02*
X219339824Y-98437280D01*
X229789824Y-100487280D02*
G75*
G03*
X230289824Y-99987280I-1J500001D01*
G01*
X225225000Y-100487281D02*
G75*
G03*
X222930679Y-102327280I-866J-2349331D01*
G01*
X221339824Y-96437280D02*
G75*
G03*
X219339824Y-98437280I4J-2000004D01*
G01*
%TO.C,MX3*%
X211239824Y-61417280D02*
X211239824Y-61887280D01*
X211239824Y-58337280D02*
X211239824Y-58567280D01*
X210739824Y-62387280D02*
X206175000Y-62387280D01*
X209689824Y-58337280D02*
X211239824Y-58337280D01*
X202289824Y-58337280D02*
X208189824Y-58337280D01*
X200289824Y-63987280D02*
X200289824Y-64227280D01*
X200289824Y-61137280D02*
X200289824Y-60337280D01*
X210739824Y-62387280D02*
G75*
G03*
X211239824Y-61887280I-1J500001D01*
G01*
X206175000Y-62387281D02*
G75*
G03*
X203880679Y-64227280I-866J-2349331D01*
G01*
X202289824Y-58337280D02*
G75*
G03*
X200289824Y-60337280I4J-2000004D01*
G01*
%TO.C,MX9*%
X211239824Y-99517280D02*
X211239824Y-99987280D01*
X211239824Y-96437280D02*
X211239824Y-96667280D01*
X210739824Y-100487280D02*
X206175000Y-100487280D01*
X209689824Y-96437280D02*
X211239824Y-96437280D01*
X202289824Y-96437280D02*
X208189824Y-96437280D01*
X200289824Y-102087280D02*
X200289824Y-102327280D01*
X200289824Y-99237280D02*
X200289824Y-98437280D01*
X210739824Y-100487280D02*
G75*
G03*
X211239824Y-99987280I-1J500001D01*
G01*
X206175000Y-100487281D02*
G75*
G03*
X203880679Y-102327280I-866J-2349331D01*
G01*
X202289824Y-96437280D02*
G75*
G03*
X200289824Y-98437280I4J-2000004D01*
G01*
%TO.C,MX4*%
X173139824Y-80467280D02*
X173139824Y-80937280D01*
X173139824Y-77387280D02*
X173139824Y-77617280D01*
X172639824Y-81437280D02*
X168075000Y-81437280D01*
X171589824Y-77387280D02*
X173139824Y-77387280D01*
X164189824Y-77387280D02*
X170089824Y-77387280D01*
X162189824Y-83037280D02*
X162189824Y-83277280D01*
X162189824Y-80187280D02*
X162189824Y-79387280D01*
X172639824Y-81437280D02*
G75*
G03*
X173139824Y-80937280I-1J500001D01*
G01*
X168075000Y-81437281D02*
G75*
G03*
X165780679Y-83277280I-866J-2349331D01*
G01*
X164189824Y-77387280D02*
G75*
G03*
X162189824Y-79387280I4J-2000004D01*
G01*
%TO.C,MX5*%
X192189824Y-80467280D02*
X192189824Y-80937280D01*
X192189824Y-77387280D02*
X192189824Y-77617280D01*
X191689824Y-81437280D02*
X187125000Y-81437280D01*
X190639824Y-77387280D02*
X192189824Y-77387280D01*
X183239824Y-77387280D02*
X189139824Y-77387280D01*
X181239824Y-83037280D02*
X181239824Y-83277280D01*
X181239824Y-80187280D02*
X181239824Y-79387280D01*
X191689824Y-81437280D02*
G75*
G03*
X192189824Y-80937280I-1J500001D01*
G01*
X187125000Y-81437281D02*
G75*
G03*
X184830679Y-83277280I-866J-2349331D01*
G01*
X183239824Y-77387280D02*
G75*
G03*
X181239824Y-79387280I4J-2000004D01*
G01*
%TO.C,MX2*%
X192189824Y-61417280D02*
X192189824Y-61887280D01*
X192189824Y-58337280D02*
X192189824Y-58567280D01*
X191689824Y-62387280D02*
X187125000Y-62387280D01*
X190639824Y-58337280D02*
X192189824Y-58337280D01*
X183239824Y-58337280D02*
X189139824Y-58337280D01*
X181239824Y-63987280D02*
X181239824Y-64227280D01*
X181239824Y-61137280D02*
X181239824Y-60337280D01*
X191689824Y-62387280D02*
G75*
G03*
X192189824Y-61887280I-1J500001D01*
G01*
X187125000Y-62387281D02*
G75*
G03*
X184830679Y-64227280I-866J-2349331D01*
G01*
X183239824Y-58337280D02*
G75*
G03*
X181239824Y-60337280I4J-2000004D01*
G01*
%TO.C,MX8*%
X192189824Y-99517280D02*
X192189824Y-99987280D01*
X192189824Y-96437280D02*
X192189824Y-96667280D01*
X191689824Y-100487280D02*
X187125000Y-100487280D01*
X190639824Y-96437280D02*
X192189824Y-96437280D01*
X183239824Y-96437280D02*
X189139824Y-96437280D01*
X181239824Y-102087280D02*
X181239824Y-102327280D01*
X181239824Y-99237280D02*
X181239824Y-98437280D01*
X191689824Y-100487280D02*
G75*
G03*
X192189824Y-99987280I-1J500001D01*
G01*
X187125000Y-100487281D02*
G75*
G03*
X184830679Y-102327280I-866J-2349331D01*
G01*
X183239824Y-96437280D02*
G75*
G03*
X181239824Y-98437280I4J-2000004D01*
G01*
%TO.C,MX7*%
X173139824Y-99517280D02*
X173139824Y-99987280D01*
X173139824Y-96437280D02*
X173139824Y-96667280D01*
X172639824Y-100487280D02*
X168075000Y-100487280D01*
X171589824Y-96437280D02*
X173139824Y-96437280D01*
X164189824Y-96437280D02*
X170089824Y-96437280D01*
X162189824Y-102087280D02*
X162189824Y-102327280D01*
X162189824Y-99237280D02*
X162189824Y-98437280D01*
X172639824Y-100487280D02*
G75*
G03*
X173139824Y-99987280I-1J500001D01*
G01*
X168075000Y-100487281D02*
G75*
G03*
X165780679Y-102327280I-866J-2349331D01*
G01*
X164189824Y-96437280D02*
G75*
G03*
X162189824Y-98437280I4J-2000004D01*
G01*
%TO.C,MX1*%
X173139824Y-61417280D02*
X173139824Y-61887280D01*
X173139824Y-58337280D02*
X173139824Y-58567280D01*
X172639824Y-62387280D02*
X168075000Y-62387280D01*
X171589824Y-58337280D02*
X173139824Y-58337280D01*
X164189824Y-58337280D02*
X170089824Y-58337280D01*
X162189824Y-63987280D02*
X162189824Y-64227280D01*
X162189824Y-61137280D02*
X162189824Y-60337280D01*
X172639824Y-62387280D02*
G75*
G03*
X173139824Y-61887280I-1J500001D01*
G01*
X168075000Y-62387281D02*
G75*
G03*
X165780679Y-64227280I-866J-2349331D01*
G01*
X164189824Y-58337280D02*
G75*
G03*
X162189824Y-60337280I4J-2000004D01*
G01*
%TO.C,MX6*%
X211239824Y-80467280D02*
X211239824Y-80937280D01*
X211239824Y-77387280D02*
X211239824Y-77617280D01*
X210739824Y-81437280D02*
X206175000Y-81437280D01*
X209689824Y-77387280D02*
X211239824Y-77387280D01*
X202289824Y-77387280D02*
X208189824Y-77387280D01*
X200289824Y-83037280D02*
X200289824Y-83277280D01*
X200289824Y-80187280D02*
X200289824Y-79387280D01*
X210739824Y-81437280D02*
G75*
G03*
X211239824Y-80937280I-1J500001D01*
G01*
X206175000Y-81437281D02*
G75*
G03*
X203880679Y-83277280I-866J-2349331D01*
G01*
X202289824Y-77387280D02*
G75*
G03*
X200289824Y-79387280I4J-2000004D01*
G01*
%TD*%
D12*
%TO.C,U1*%
X217805000Y-60642500D03*
D13*
X217805000Y-63182500D03*
X217805000Y-65722500D03*
X217805000Y-68262500D03*
X217805000Y-70802500D03*
X217805000Y-73342500D03*
X217805000Y-75882500D03*
X217805000Y-78422500D03*
X217805000Y-80962500D03*
X217805000Y-83502500D03*
X217805000Y-86042500D03*
X217805000Y-88582500D03*
X233045000Y-88582500D03*
X233045000Y-86042500D03*
X233045000Y-83502500D03*
X233045000Y-80962500D03*
X233045000Y-78422500D03*
X233045000Y-75882500D03*
X233045000Y-73342500D03*
X233045000Y-70802500D03*
X233045000Y-68262500D03*
X233045000Y-65722500D03*
X233045000Y-63182500D03*
X233045000Y-60642500D03*
%TD*%
%LPC*%
D12*
%TO.C,U1*%
X217805000Y-60642500D03*
D13*
X217805000Y-63182500D03*
X217805000Y-65722500D03*
X217805000Y-68262500D03*
X217805000Y-70802500D03*
X217805000Y-73342500D03*
X217805000Y-75882500D03*
X217805000Y-78422500D03*
X217805000Y-80962500D03*
X217805000Y-83502500D03*
X217805000Y-86042500D03*
X217805000Y-88582500D03*
X233045000Y-88582500D03*
X233045000Y-86042500D03*
X233045000Y-83502500D03*
X233045000Y-80962500D03*
X233045000Y-78422500D03*
X233045000Y-75882500D03*
X233045000Y-73342500D03*
X233045000Y-70802500D03*
X233045000Y-68262500D03*
X233045000Y-65722500D03*
X233045000Y-63182500D03*
X233045000Y-60642500D03*
%TD*%
D14*
%TO.C,MX10*%
X230505000Y-103187500D03*
D15*
X225425000Y-103187500D03*
D14*
X220345000Y-103187500D03*
D16*
X221615000Y-100647500D03*
D17*
X218065000Y-100647500D03*
X231515000Y-98107500D03*
D16*
X227965000Y-98107500D03*
%TD*%
D14*
%TO.C,MX3*%
X211455000Y-65087500D03*
D15*
X206375000Y-65087500D03*
D14*
X201295000Y-65087500D03*
D16*
X202565000Y-62547500D03*
D17*
X199015000Y-62547500D03*
X212465000Y-60007500D03*
D16*
X208915000Y-60007500D03*
%TD*%
D14*
%TO.C,MX9*%
X211455000Y-103187500D03*
D15*
X206375000Y-103187500D03*
D14*
X201295000Y-103187500D03*
D16*
X202565000Y-100647500D03*
D17*
X199015000Y-100647500D03*
X212465000Y-98107500D03*
D16*
X208915000Y-98107500D03*
%TD*%
D14*
%TO.C,MX4*%
X173355000Y-84137500D03*
D15*
X168275000Y-84137500D03*
D14*
X163195000Y-84137500D03*
D16*
X164465000Y-81597500D03*
D17*
X160915000Y-81597500D03*
X174365000Y-79057500D03*
D16*
X170815000Y-79057500D03*
%TD*%
D14*
%TO.C,MX5*%
X192405000Y-84137500D03*
D15*
X187325000Y-84137500D03*
D14*
X182245000Y-84137500D03*
D16*
X183515000Y-81597500D03*
D17*
X179965000Y-81597500D03*
X193415000Y-79057500D03*
D16*
X189865000Y-79057500D03*
%TD*%
D14*
%TO.C,MX2*%
X192405000Y-65087500D03*
D15*
X187325000Y-65087500D03*
D14*
X182245000Y-65087500D03*
D16*
X183515000Y-62547500D03*
D17*
X179965000Y-62547500D03*
X193415000Y-60007500D03*
D16*
X189865000Y-60007500D03*
%TD*%
D14*
%TO.C,MX8*%
X192405000Y-103187500D03*
D15*
X187325000Y-103187500D03*
D14*
X182245000Y-103187500D03*
D16*
X183515000Y-100647500D03*
D17*
X179965000Y-100647500D03*
X193415000Y-98107500D03*
D16*
X189865000Y-98107500D03*
%TD*%
D14*
%TO.C,MX7*%
X173355000Y-103187500D03*
D15*
X168275000Y-103187500D03*
D14*
X163195000Y-103187500D03*
D16*
X164465000Y-100647500D03*
D17*
X160915000Y-100647500D03*
X174365000Y-98107500D03*
D16*
X170815000Y-98107500D03*
%TD*%
D14*
%TO.C,MX1*%
X173355000Y-65087500D03*
D15*
X168275000Y-65087500D03*
D14*
X163195000Y-65087500D03*
D16*
X164465000Y-62547500D03*
D17*
X160915000Y-62547500D03*
X174365000Y-60007500D03*
D16*
X170815000Y-60007500D03*
%TD*%
D14*
%TO.C,MX6*%
X211455000Y-84137500D03*
D15*
X206375000Y-84137500D03*
D14*
X201295000Y-84137500D03*
D16*
X202565000Y-81597500D03*
D17*
X199015000Y-81597500D03*
X212465000Y-79057500D03*
D16*
X208915000Y-79057500D03*
%TD*%
%LPD*%
M02*
