%TF.GenerationSoftware,KiCad,Pcbnew,7.0.5*%
%TF.CreationDate,2023-06-14T14:40:25+08:00*%
%TF.ProjectId,Macropad,4d616372-6f70-4616-942e-6b696361645f,rev?*%
%TF.SameCoordinates,Original*%
%TF.FileFunction,Copper,L1,Top*%
%TF.FilePolarity,Positive*%
%FSLAX46Y46*%
G04 Gerber Fmt 4.6, Leading zero omitted, Abs format (unit mm)*
G04 Created by KiCad (PCBNEW 7.0.5) date 2023-06-14 14:40:25*
%MOMM*%
%LPD*%
G01*
G04 APERTURE LIST*
%TA.AperFunction,ComponentPad*%
%ADD10R,1.752600X1.752600*%
%TD*%
%TA.AperFunction,ComponentPad*%
%ADD11C,1.752600*%
%TD*%
%TA.AperFunction,ComponentPad*%
%ADD12C,3.300000*%
%TD*%
G04 APERTURE END LIST*
D10*
%TO.P,U1,1,TX0/PD3*%
%TO.N,SW3*%
X217805000Y-60642500D03*
D11*
%TO.P,U1,2,RX1/PD2*%
%TO.N,SW2*%
X217805000Y-63182500D03*
%TO.P,U1,3,GND*%
%TO.N,GND*%
X217805000Y-65722500D03*
%TO.P,U1,4,GND*%
X217805000Y-68262500D03*
%TO.P,U1,5,2/PD1*%
%TO.N,SW1*%
X217805000Y-70802500D03*
%TO.P,U1,6,3/PD0*%
%TO.N,SW4*%
X217805000Y-73342500D03*
%TO.P,U1,7,4/PD4*%
%TO.N,SW5*%
X217805000Y-75882500D03*
%TO.P,U1,8,5/PC6*%
%TO.N,SW6*%
X217805000Y-78422500D03*
%TO.P,U1,9,6/PD7*%
%TO.N,SW7*%
X217805000Y-80962500D03*
%TO.P,U1,10,7/PE6*%
%TO.N,SW8*%
X217805000Y-83502500D03*
%TO.P,U1,11,8/PB4*%
%TO.N,SW9*%
X217805000Y-86042500D03*
%TO.P,U1,12,9/PB5*%
%TO.N,SW10*%
X217805000Y-88582500D03*
%TO.P,U1,13,10/PB6*%
%TO.N,unconnected-(U1-10{slash}PB6-Pad13)*%
X233045000Y-88582500D03*
%TO.P,U1,14,16/PB2*%
%TO.N,unconnected-(U1-16{slash}PB2-Pad14)*%
X233045000Y-86042500D03*
%TO.P,U1,15,14/PB3*%
%TO.N,unconnected-(U1-14{slash}PB3-Pad15)*%
X233045000Y-83502500D03*
%TO.P,U1,16,15/PB1*%
%TO.N,unconnected-(U1-15{slash}PB1-Pad16)*%
X233045000Y-80962500D03*
%TO.P,U1,17,A0/PF7*%
%TO.N,unconnected-(U1-A0{slash}PF7-Pad17)*%
X233045000Y-78422500D03*
%TO.P,U1,18,A1/PF6*%
%TO.N,unconnected-(U1-A1{slash}PF6-Pad18)*%
X233045000Y-75882500D03*
%TO.P,U1,19,A2/PF5*%
%TO.N,unconnected-(U1-A2{slash}PF5-Pad19)*%
X233045000Y-73342500D03*
%TO.P,U1,20,A3/PF4*%
%TO.N,unconnected-(U1-A3{slash}PF4-Pad20)*%
X233045000Y-70802500D03*
%TO.P,U1,21,VCC*%
%TO.N,unconnected-(U1-VCC-Pad21)*%
X233045000Y-68262500D03*
%TO.P,U1,22,RST*%
%TO.N,unconnected-(U1-RST-Pad22)*%
X233045000Y-65722500D03*
%TO.P,U1,23,GND*%
%TO.N,GND*%
X233045000Y-63182500D03*
%TO.P,U1,24,RAW*%
%TO.N,unconnected-(U1-RAW-Pad24)*%
X233045000Y-60642500D03*
%TD*%
D12*
%TO.P,MX10,1,1*%
%TO.N,SW10*%
X221615000Y-100647500D03*
%TO.P,MX10,2,2*%
%TO.N,GND*%
X227965000Y-98107500D03*
%TD*%
%TO.P,MX3,1,1*%
%TO.N,SW3*%
X202565000Y-62547500D03*
%TO.P,MX3,2,2*%
%TO.N,GND*%
X208915000Y-60007500D03*
%TD*%
%TO.P,MX9,1,1*%
%TO.N,SW9*%
X202565000Y-100647500D03*
%TO.P,MX9,2,2*%
%TO.N,GND*%
X208915000Y-98107500D03*
%TD*%
%TO.P,MX4,1,1*%
%TO.N,SW4*%
X164465000Y-81597500D03*
%TO.P,MX4,2,2*%
%TO.N,GND*%
X170815000Y-79057500D03*
%TD*%
%TO.P,MX5,1,1*%
%TO.N,SW5*%
X183515000Y-81597500D03*
%TO.P,MX5,2,2*%
%TO.N,GND*%
X189865000Y-79057500D03*
%TD*%
%TO.P,MX2,1,1*%
%TO.N,SW2*%
X183515000Y-62547500D03*
%TO.P,MX2,2,2*%
%TO.N,GND*%
X189865000Y-60007500D03*
%TD*%
%TO.P,MX8,1,1*%
%TO.N,SW8*%
X183515000Y-100647500D03*
%TO.P,MX8,2,2*%
%TO.N,GND*%
X189865000Y-98107500D03*
%TD*%
%TO.P,MX7,1,1*%
%TO.N,SW7*%
X164465000Y-100647500D03*
%TO.P,MX7,2,2*%
%TO.N,GND*%
X170815000Y-98107500D03*
%TD*%
%TO.P,MX1,1,1*%
%TO.N,SW1*%
X164465000Y-62547500D03*
%TO.P,MX1,2,2*%
%TO.N,GND*%
X170815000Y-60007500D03*
%TD*%
%TO.P,MX6,1,1*%
%TO.N,SW6*%
X202565000Y-81597500D03*
%TO.P,MX6,2,2*%
%TO.N,GND*%
X208915000Y-79057500D03*
%TD*%
%TA.AperFunction,Conductor*%
%TO.N,GND*%
G36*
X234952207Y-55563157D02*
G01*
X235019618Y-55567979D01*
X235179747Y-55580581D01*
X235188041Y-55581804D01*
X235286526Y-55603228D01*
X235287567Y-55603466D01*
X235412113Y-55633367D01*
X235419301Y-55635561D01*
X235519448Y-55672914D01*
X235521470Y-55673710D01*
X235604279Y-55708010D01*
X235633965Y-55720307D01*
X235639953Y-55723171D01*
X235735887Y-55775556D01*
X235738476Y-55777054D01*
X235839034Y-55838676D01*
X235840340Y-55839477D01*
X235845102Y-55842708D01*
X235888536Y-55875222D01*
X235933411Y-55908814D01*
X235936494Y-55911281D01*
X236026651Y-55988282D01*
X236030227Y-55991588D01*
X236108410Y-56069771D01*
X236111716Y-56073347D01*
X236188705Y-56163489D01*
X236191195Y-56166601D01*
X236257290Y-56254896D01*
X236260521Y-56259658D01*
X236288294Y-56304978D01*
X236322929Y-56361498D01*
X236324457Y-56364138D01*
X236344822Y-56401432D01*
X236376825Y-56460042D01*
X236379691Y-56466033D01*
X236426278Y-56578503D01*
X236427089Y-56580564D01*
X236464435Y-56680693D01*
X236466633Y-56687893D01*
X236496504Y-56812311D01*
X236496800Y-56813606D01*
X236518191Y-56911938D01*
X236519418Y-56920262D01*
X236532023Y-57080425D01*
X236536842Y-57147790D01*
X236537000Y-57152215D01*
X236537000Y-111122784D01*
X236536842Y-111127209D01*
X236532023Y-111194573D01*
X236519418Y-111354736D01*
X236518191Y-111363060D01*
X236496800Y-111461392D01*
X236496504Y-111462687D01*
X236466633Y-111587105D01*
X236464435Y-111594305D01*
X236427089Y-111694434D01*
X236426278Y-111696495D01*
X236379691Y-111808965D01*
X236376825Y-111814956D01*
X236324466Y-111910846D01*
X236322913Y-111913529D01*
X236260521Y-112015340D01*
X236257290Y-112020102D01*
X236191195Y-112108397D01*
X236188705Y-112111509D01*
X236111716Y-112201651D01*
X236108410Y-112205227D01*
X236030227Y-112283410D01*
X236026651Y-112286716D01*
X235936509Y-112363705D01*
X235933397Y-112366195D01*
X235845102Y-112432290D01*
X235840340Y-112435521D01*
X235738529Y-112497913D01*
X235735846Y-112499466D01*
X235639956Y-112551825D01*
X235633965Y-112554691D01*
X235521495Y-112601278D01*
X235519434Y-112602089D01*
X235419305Y-112639435D01*
X235412105Y-112641633D01*
X235287687Y-112671504D01*
X235286392Y-112671800D01*
X235188060Y-112693191D01*
X235179736Y-112694418D01*
X235019573Y-112707023D01*
X234955432Y-112711611D01*
X234952208Y-112711842D01*
X234947785Y-112712000D01*
X160339715Y-112712000D01*
X160335291Y-112711842D01*
X160331639Y-112711580D01*
X160267925Y-112707023D01*
X160107762Y-112694418D01*
X160099438Y-112693191D01*
X160001106Y-112671800D01*
X159999811Y-112671504D01*
X159875393Y-112641633D01*
X159868193Y-112639435D01*
X159768064Y-112602089D01*
X159766003Y-112601278D01*
X159653533Y-112554691D01*
X159647542Y-112551825D01*
X159588932Y-112519822D01*
X159551638Y-112499457D01*
X159548998Y-112497929D01*
X159492478Y-112463294D01*
X159447158Y-112435521D01*
X159442396Y-112432290D01*
X159354101Y-112366195D01*
X159350997Y-112363711D01*
X159260847Y-112286716D01*
X159257271Y-112283410D01*
X159179088Y-112205227D01*
X159175782Y-112201651D01*
X159098781Y-112111494D01*
X159096314Y-112108411D01*
X159062722Y-112063536D01*
X159030208Y-112020102D01*
X159026977Y-112015340D01*
X159026176Y-112014034D01*
X158964554Y-111913476D01*
X158963056Y-111910887D01*
X158910671Y-111814953D01*
X158907807Y-111808965D01*
X158895510Y-111779279D01*
X158861210Y-111696470D01*
X158860409Y-111694434D01*
X158855535Y-111681367D01*
X158823061Y-111594301D01*
X158820867Y-111587113D01*
X158790966Y-111462567D01*
X158790728Y-111461526D01*
X158769304Y-111363041D01*
X158768081Y-111354747D01*
X158755476Y-111194573D01*
X158750657Y-111127208D01*
X158750500Y-111122786D01*
X158750500Y-103133702D01*
X162065660Y-103133702D01*
X162075887Y-103348401D01*
X162126563Y-103557291D01*
X162126565Y-103557295D01*
X162128553Y-103561649D01*
X162215854Y-103752810D01*
X162340534Y-103927899D01*
X162340535Y-103927900D01*
X162340540Y-103927906D01*
X162496094Y-104076225D01*
X162496096Y-104076226D01*
X162496097Y-104076227D01*
X162676920Y-104192435D01*
X162876468Y-104272322D01*
X162981998Y-104292660D01*
X163087527Y-104313000D01*
X163087528Y-104313000D01*
X163248612Y-104313000D01*
X163248618Y-104313000D01*
X163408971Y-104297688D01*
X163615209Y-104237131D01*
X163806259Y-104138638D01*
X163975217Y-104005768D01*
X164115976Y-103843324D01*
X164223448Y-103657177D01*
X164293750Y-103454054D01*
X164324339Y-103241297D01*
X164314112Y-103026596D01*
X164295829Y-102951232D01*
X164299154Y-102881443D01*
X164339682Y-102824529D01*
X164404547Y-102798561D01*
X164416334Y-102798000D01*
X164612099Y-102798000D01*
X164643520Y-102793680D01*
X164903555Y-102757940D01*
X165186841Y-102678567D01*
X165456682Y-102561359D01*
X165708049Y-102408499D01*
X165936260Y-102222835D01*
X166026715Y-102125980D01*
X166086856Y-102090423D01*
X166156677Y-102093025D01*
X166214008Y-102132962D01*
X166240646Y-102197555D01*
X166229816Y-102262814D01*
X166180433Y-102369232D01*
X166175882Y-102379040D01*
X166166744Y-102408499D01*
X166086854Y-102666035D01*
X166036874Y-102962342D01*
X166026833Y-103262667D01*
X166056910Y-103561642D01*
X166056911Y-103561649D01*
X166126568Y-103853941D01*
X166126571Y-103853953D01*
X166234566Y-104134353D01*
X166234573Y-104134368D01*
X166378979Y-104397875D01*
X166378983Y-104397881D01*
X166470296Y-104521812D01*
X166557223Y-104639790D01*
X166766121Y-104855789D01*
X167001946Y-105042018D01*
X167260487Y-105195152D01*
X167537133Y-105312460D01*
X167537136Y-105312460D01*
X167537139Y-105312462D01*
X167682039Y-105352153D01*
X167826946Y-105391848D01*
X168124755Y-105431900D01*
X168124760Y-105431900D01*
X168350041Y-105431900D01*
X168513513Y-105420955D01*
X168574819Y-105416852D01*
X168869287Y-105356999D01*
X169153151Y-105258431D01*
X169421343Y-105122907D01*
X169669080Y-104952846D01*
X169891939Y-104751282D01*
X170085943Y-104521812D01*
X170247631Y-104268532D01*
X170374118Y-103995960D01*
X170463146Y-103708962D01*
X170513126Y-103412658D01*
X170522453Y-103133702D01*
X172225660Y-103133702D01*
X172235887Y-103348401D01*
X172286563Y-103557291D01*
X172286565Y-103557295D01*
X172288553Y-103561649D01*
X172375854Y-103752810D01*
X172500534Y-103927899D01*
X172500535Y-103927900D01*
X172500540Y-103927906D01*
X172656094Y-104076225D01*
X172656096Y-104076226D01*
X172656097Y-104076227D01*
X172836920Y-104192435D01*
X173036468Y-104272322D01*
X173141998Y-104292660D01*
X173247527Y-104313000D01*
X173247528Y-104313000D01*
X173408612Y-104313000D01*
X173408618Y-104313000D01*
X173568971Y-104297688D01*
X173775209Y-104237131D01*
X173966259Y-104138638D01*
X174135217Y-104005768D01*
X174275976Y-103843324D01*
X174383448Y-103657177D01*
X174453750Y-103454054D01*
X174484339Y-103241297D01*
X174479214Y-103133702D01*
X181115660Y-103133702D01*
X181125887Y-103348401D01*
X181176563Y-103557291D01*
X181176565Y-103557295D01*
X181178553Y-103561649D01*
X181265854Y-103752810D01*
X181390534Y-103927899D01*
X181390535Y-103927900D01*
X181390540Y-103927906D01*
X181546094Y-104076225D01*
X181546096Y-104076226D01*
X181546097Y-104076227D01*
X181726920Y-104192435D01*
X181926468Y-104272322D01*
X182031997Y-104292661D01*
X182137527Y-104313000D01*
X182137528Y-104313000D01*
X182298612Y-104313000D01*
X182298618Y-104313000D01*
X182458971Y-104297688D01*
X182665209Y-104237131D01*
X182856259Y-104138638D01*
X183025217Y-104005768D01*
X183165976Y-103843324D01*
X183273448Y-103657177D01*
X183343750Y-103454054D01*
X183374339Y-103241297D01*
X183364112Y-103026596D01*
X183345829Y-102951232D01*
X183349154Y-102881443D01*
X183389682Y-102824529D01*
X183454547Y-102798561D01*
X183466334Y-102798000D01*
X183662099Y-102798000D01*
X183693520Y-102793680D01*
X183953555Y-102757940D01*
X184236841Y-102678567D01*
X184506682Y-102561359D01*
X184758049Y-102408499D01*
X184986260Y-102222835D01*
X185076715Y-102125980D01*
X185136856Y-102090423D01*
X185206677Y-102093025D01*
X185264008Y-102132962D01*
X185290646Y-102197555D01*
X185279816Y-102262814D01*
X185230433Y-102369232D01*
X185225882Y-102379040D01*
X185216744Y-102408499D01*
X185136854Y-102666035D01*
X185086874Y-102962342D01*
X185076833Y-103262667D01*
X185106910Y-103561642D01*
X185106911Y-103561649D01*
X185176568Y-103853941D01*
X185176571Y-103853953D01*
X185284566Y-104134353D01*
X185284573Y-104134368D01*
X185428979Y-104397875D01*
X185428983Y-104397881D01*
X185520296Y-104521812D01*
X185607223Y-104639790D01*
X185816121Y-104855789D01*
X186051946Y-105042018D01*
X186310487Y-105195152D01*
X186587133Y-105312460D01*
X186587136Y-105312460D01*
X186587139Y-105312462D01*
X186732039Y-105352153D01*
X186876946Y-105391848D01*
X187174755Y-105431900D01*
X187174760Y-105431900D01*
X187400041Y-105431900D01*
X187563513Y-105420955D01*
X187624819Y-105416852D01*
X187919287Y-105356999D01*
X188203151Y-105258431D01*
X188471343Y-105122907D01*
X188719080Y-104952846D01*
X188941939Y-104751282D01*
X189135943Y-104521812D01*
X189297631Y-104268532D01*
X189424118Y-103995960D01*
X189513146Y-103708962D01*
X189563126Y-103412658D01*
X189572453Y-103133702D01*
X191275660Y-103133702D01*
X191285887Y-103348401D01*
X191336563Y-103557291D01*
X191336565Y-103557295D01*
X191338553Y-103561649D01*
X191425854Y-103752810D01*
X191550534Y-103927899D01*
X191550535Y-103927900D01*
X191550540Y-103927906D01*
X191706094Y-104076225D01*
X191706096Y-104076226D01*
X191706097Y-104076227D01*
X191886920Y-104192435D01*
X192086468Y-104272322D01*
X192191997Y-104292661D01*
X192297527Y-104313000D01*
X192297528Y-104313000D01*
X192458612Y-104313000D01*
X192458618Y-104313000D01*
X192618971Y-104297688D01*
X192825209Y-104237131D01*
X193016259Y-104138638D01*
X193185217Y-104005768D01*
X193325976Y-103843324D01*
X193433448Y-103657177D01*
X193503750Y-103454054D01*
X193534339Y-103241297D01*
X193529214Y-103133702D01*
X200165660Y-103133702D01*
X200175887Y-103348401D01*
X200226563Y-103557291D01*
X200226565Y-103557295D01*
X200228553Y-103561649D01*
X200315854Y-103752810D01*
X200440534Y-103927899D01*
X200440535Y-103927900D01*
X200440540Y-103927906D01*
X200596094Y-104076225D01*
X200596096Y-104076226D01*
X200596097Y-104076227D01*
X200776920Y-104192435D01*
X200976468Y-104272322D01*
X201081998Y-104292660D01*
X201187527Y-104313000D01*
X201187528Y-104313000D01*
X201348612Y-104313000D01*
X201348618Y-104313000D01*
X201508971Y-104297688D01*
X201715209Y-104237131D01*
X201906259Y-104138638D01*
X202075217Y-104005768D01*
X202215976Y-103843324D01*
X202323448Y-103657177D01*
X202393750Y-103454054D01*
X202424339Y-103241297D01*
X202414112Y-103026596D01*
X202395829Y-102951232D01*
X202399154Y-102881443D01*
X202439682Y-102824529D01*
X202504547Y-102798561D01*
X202516334Y-102798000D01*
X202712099Y-102798000D01*
X202743520Y-102793680D01*
X203003555Y-102757940D01*
X203286841Y-102678567D01*
X203556682Y-102561359D01*
X203808049Y-102408499D01*
X204036260Y-102222835D01*
X204126715Y-102125980D01*
X204186856Y-102090423D01*
X204256677Y-102093025D01*
X204314008Y-102132962D01*
X204340646Y-102197555D01*
X204329816Y-102262814D01*
X204280433Y-102369232D01*
X204275882Y-102379040D01*
X204266744Y-102408499D01*
X204186854Y-102666035D01*
X204136874Y-102962342D01*
X204126833Y-103262667D01*
X204156910Y-103561642D01*
X204156911Y-103561649D01*
X204226568Y-103853941D01*
X204226571Y-103853953D01*
X204334566Y-104134353D01*
X204334573Y-104134368D01*
X204478979Y-104397875D01*
X204478983Y-104397881D01*
X204570296Y-104521812D01*
X204657223Y-104639790D01*
X204866121Y-104855789D01*
X205101946Y-105042018D01*
X205360487Y-105195152D01*
X205637133Y-105312460D01*
X205637136Y-105312460D01*
X205637139Y-105312462D01*
X205782039Y-105352154D01*
X205926946Y-105391848D01*
X206224755Y-105431900D01*
X206224760Y-105431900D01*
X206450041Y-105431900D01*
X206613513Y-105420955D01*
X206674819Y-105416852D01*
X206969287Y-105356999D01*
X207253151Y-105258431D01*
X207521343Y-105122907D01*
X207769080Y-104952846D01*
X207991939Y-104751282D01*
X208185943Y-104521812D01*
X208347631Y-104268532D01*
X208474118Y-103995960D01*
X208563146Y-103708962D01*
X208613126Y-103412658D01*
X208622453Y-103133702D01*
X210325660Y-103133702D01*
X210335887Y-103348401D01*
X210386563Y-103557291D01*
X210386565Y-103557295D01*
X210388553Y-103561649D01*
X210475854Y-103752810D01*
X210600534Y-103927899D01*
X210600535Y-103927900D01*
X210600540Y-103927906D01*
X210756094Y-104076225D01*
X210756096Y-104076226D01*
X210756097Y-104076227D01*
X210936920Y-104192435D01*
X211136468Y-104272322D01*
X211241998Y-104292660D01*
X211347527Y-104313000D01*
X211347528Y-104313000D01*
X211508612Y-104313000D01*
X211508618Y-104313000D01*
X211668971Y-104297688D01*
X211875209Y-104237131D01*
X212066259Y-104138638D01*
X212235217Y-104005768D01*
X212375976Y-103843324D01*
X212483448Y-103657177D01*
X212553750Y-103454054D01*
X212584339Y-103241297D01*
X212579214Y-103133702D01*
X219215660Y-103133702D01*
X219225887Y-103348401D01*
X219276563Y-103557291D01*
X219276565Y-103557295D01*
X219278553Y-103561649D01*
X219365854Y-103752810D01*
X219490534Y-103927899D01*
X219490535Y-103927900D01*
X219490540Y-103927906D01*
X219646094Y-104076225D01*
X219646096Y-104076226D01*
X219646097Y-104076227D01*
X219826920Y-104192435D01*
X220026468Y-104272322D01*
X220131998Y-104292661D01*
X220237527Y-104313000D01*
X220237528Y-104313000D01*
X220398612Y-104313000D01*
X220398618Y-104313000D01*
X220558971Y-104297688D01*
X220765209Y-104237131D01*
X220956259Y-104138638D01*
X221125217Y-104005768D01*
X221265976Y-103843324D01*
X221373448Y-103657177D01*
X221443750Y-103454054D01*
X221474339Y-103241297D01*
X221464112Y-103026596D01*
X221445829Y-102951232D01*
X221449154Y-102881443D01*
X221489682Y-102824529D01*
X221554547Y-102798561D01*
X221566334Y-102798000D01*
X221762099Y-102798000D01*
X221793520Y-102793680D01*
X222053555Y-102757940D01*
X222336841Y-102678567D01*
X222606682Y-102561359D01*
X222858049Y-102408499D01*
X223086260Y-102222835D01*
X223176715Y-102125980D01*
X223236856Y-102090423D01*
X223306677Y-102093025D01*
X223364008Y-102132962D01*
X223390646Y-102197555D01*
X223379816Y-102262814D01*
X223330433Y-102369232D01*
X223325882Y-102379040D01*
X223316744Y-102408499D01*
X223236854Y-102666035D01*
X223186874Y-102962342D01*
X223176833Y-103262667D01*
X223206910Y-103561642D01*
X223206911Y-103561649D01*
X223276568Y-103853941D01*
X223276571Y-103853953D01*
X223384566Y-104134353D01*
X223384573Y-104134368D01*
X223528979Y-104397875D01*
X223528983Y-104397881D01*
X223620296Y-104521812D01*
X223707223Y-104639790D01*
X223916121Y-104855789D01*
X224151946Y-105042018D01*
X224410487Y-105195152D01*
X224687133Y-105312460D01*
X224687136Y-105312460D01*
X224687139Y-105312462D01*
X224832039Y-105352154D01*
X224976946Y-105391848D01*
X225274755Y-105431900D01*
X225274760Y-105431900D01*
X225500041Y-105431900D01*
X225663513Y-105420955D01*
X225724819Y-105416852D01*
X226019287Y-105356999D01*
X226303151Y-105258431D01*
X226571343Y-105122907D01*
X226819080Y-104952846D01*
X227041939Y-104751282D01*
X227235943Y-104521812D01*
X227397631Y-104268532D01*
X227524118Y-103995960D01*
X227613146Y-103708962D01*
X227663126Y-103412658D01*
X227672453Y-103133702D01*
X229375660Y-103133702D01*
X229385887Y-103348401D01*
X229436563Y-103557291D01*
X229436565Y-103557295D01*
X229438553Y-103561649D01*
X229525854Y-103752810D01*
X229650534Y-103927899D01*
X229650535Y-103927900D01*
X229650540Y-103927906D01*
X229806094Y-104076225D01*
X229806096Y-104076226D01*
X229806097Y-104076227D01*
X229986920Y-104192435D01*
X230186468Y-104272322D01*
X230291998Y-104292661D01*
X230397527Y-104313000D01*
X230397528Y-104313000D01*
X230558612Y-104313000D01*
X230558618Y-104313000D01*
X230718971Y-104297688D01*
X230925209Y-104237131D01*
X231116259Y-104138638D01*
X231285217Y-104005768D01*
X231425976Y-103843324D01*
X231533448Y-103657177D01*
X231603750Y-103454054D01*
X231634339Y-103241297D01*
X231624112Y-103026596D01*
X231573437Y-102817710D01*
X231484146Y-102622190D01*
X231359466Y-102447101D01*
X231359464Y-102447099D01*
X231359459Y-102447093D01*
X231203905Y-102298774D01*
X231023080Y-102182565D01*
X230823530Y-102102677D01*
X230612473Y-102062000D01*
X230612472Y-102062000D01*
X230451382Y-102062000D01*
X230291028Y-102077312D01*
X230291029Y-102077312D01*
X230291025Y-102077313D01*
X230084793Y-102137868D01*
X229893736Y-102236364D01*
X229724785Y-102369229D01*
X229724782Y-102369233D01*
X229584021Y-102531678D01*
X229476553Y-102717819D01*
X229406251Y-102920942D01*
X229406250Y-102920944D01*
X229375661Y-103133700D01*
X229375660Y-103133702D01*
X227672453Y-103133702D01*
X227673167Y-103112336D01*
X227643089Y-102813355D01*
X227639563Y-102798561D01*
X227620322Y-102717819D01*
X227573430Y-102521051D01*
X227465431Y-102240640D01*
X227321021Y-101977125D01*
X227142777Y-101735210D01*
X226933879Y-101519211D01*
X226933872Y-101519205D01*
X226698055Y-101332983D01*
X226698056Y-101332983D01*
X226698054Y-101332982D01*
X226439513Y-101179848D01*
X226162867Y-101062540D01*
X226162860Y-101062537D01*
X225873059Y-100983153D01*
X225873056Y-100983152D01*
X225873054Y-100983152D01*
X225575245Y-100943100D01*
X225349967Y-100943100D01*
X225349959Y-100943100D01*
X225125183Y-100958147D01*
X225125174Y-100958149D01*
X224830710Y-101018001D01*
X224546847Y-101116569D01*
X224546844Y-101116571D01*
X224278662Y-101252089D01*
X224030918Y-101422155D01*
X223808062Y-101623716D01*
X223808056Y-101623722D01*
X223802901Y-101629820D01*
X223744584Y-101668304D01*
X223674720Y-101669149D01*
X223615489Y-101632089D01*
X223585697Y-101568889D01*
X223591372Y-101508233D01*
X223592072Y-101506264D01*
X223690592Y-101229054D01*
X223690592Y-101229049D01*
X223690595Y-101229043D01*
X223734449Y-101018001D01*
X223750448Y-100941011D01*
X223770525Y-100647500D01*
X223750448Y-100353989D01*
X223722075Y-100217449D01*
X223690595Y-100065956D01*
X223690590Y-100065940D01*
X223663851Y-99990704D01*
X223592072Y-99788736D01*
X223456722Y-99527524D01*
X223456721Y-99527522D01*
X223456717Y-99527516D01*
X223287067Y-99287176D01*
X223086256Y-99072161D01*
X222858045Y-98886498D01*
X222606680Y-98733639D01*
X222606675Y-98733637D01*
X222336845Y-98616434D01*
X222053560Y-98537061D01*
X222053556Y-98537060D01*
X222053555Y-98537060D01*
X221907826Y-98517029D01*
X221762099Y-98497000D01*
X221762098Y-98497000D01*
X221467902Y-98497000D01*
X221467901Y-98497000D01*
X221176445Y-98537060D01*
X221176439Y-98537061D01*
X220893154Y-98616434D01*
X220623324Y-98733637D01*
X220623319Y-98733639D01*
X220371954Y-98886498D01*
X220143743Y-99072161D01*
X219942932Y-99287176D01*
X219773282Y-99527516D01*
X219773278Y-99527522D01*
X219637927Y-99788737D01*
X219539409Y-100065940D01*
X219539404Y-100065956D01*
X219479552Y-100353986D01*
X219479551Y-100353988D01*
X219459475Y-100647499D01*
X219479551Y-100941011D01*
X219479552Y-100941013D01*
X219539404Y-101229043D01*
X219539409Y-101229059D01*
X219637927Y-101506262D01*
X219773278Y-101767477D01*
X219773282Y-101767483D01*
X219923215Y-101979890D01*
X219945794Y-102046011D01*
X219929041Y-102113842D01*
X219878732Y-102161613D01*
X219733738Y-102236363D01*
X219564785Y-102369229D01*
X219564782Y-102369233D01*
X219424021Y-102531678D01*
X219316553Y-102717819D01*
X219246251Y-102920942D01*
X219246250Y-102920944D01*
X219215661Y-103133700D01*
X219215660Y-103133702D01*
X212579214Y-103133702D01*
X212574112Y-103026596D01*
X212523437Y-102817710D01*
X212434146Y-102622190D01*
X212309466Y-102447101D01*
X212309464Y-102447099D01*
X212309459Y-102447093D01*
X212153905Y-102298774D01*
X211973080Y-102182565D01*
X211773530Y-102102677D01*
X211562473Y-102062000D01*
X211562472Y-102062000D01*
X211401382Y-102062000D01*
X211241028Y-102077312D01*
X211241029Y-102077312D01*
X211241025Y-102077313D01*
X211034793Y-102137868D01*
X210843736Y-102236364D01*
X210674785Y-102369229D01*
X210674782Y-102369233D01*
X210534021Y-102531678D01*
X210426553Y-102717819D01*
X210356251Y-102920942D01*
X210356250Y-102920944D01*
X210325661Y-103133700D01*
X210325660Y-103133702D01*
X208622453Y-103133702D01*
X208623167Y-103112336D01*
X208593089Y-102813355D01*
X208589563Y-102798561D01*
X208570322Y-102717819D01*
X208523430Y-102521051D01*
X208415431Y-102240640D01*
X208271021Y-101977125D01*
X208092777Y-101735210D01*
X207883879Y-101519211D01*
X207883872Y-101519205D01*
X207648055Y-101332983D01*
X207648056Y-101332983D01*
X207648054Y-101332982D01*
X207389513Y-101179848D01*
X207112867Y-101062540D01*
X207112860Y-101062537D01*
X206823059Y-100983153D01*
X206823056Y-100983152D01*
X206823054Y-100983152D01*
X206525245Y-100943100D01*
X206299967Y-100943100D01*
X206299959Y-100943100D01*
X206075183Y-100958147D01*
X206075174Y-100958149D01*
X205780710Y-101018001D01*
X205496847Y-101116569D01*
X205496844Y-101116571D01*
X205228662Y-101252089D01*
X204980918Y-101422155D01*
X204758062Y-101623716D01*
X204758056Y-101623722D01*
X204752901Y-101629820D01*
X204694584Y-101668304D01*
X204624720Y-101669149D01*
X204565489Y-101632089D01*
X204535697Y-101568889D01*
X204541372Y-101508233D01*
X204542072Y-101506264D01*
X204640592Y-101229054D01*
X204640592Y-101229049D01*
X204640595Y-101229043D01*
X204684449Y-101018001D01*
X204700448Y-100941011D01*
X204720525Y-100647500D01*
X204700448Y-100353989D01*
X204672075Y-100217449D01*
X204640595Y-100065956D01*
X204640590Y-100065940D01*
X204613851Y-99990704D01*
X204542072Y-99788736D01*
X204406722Y-99527524D01*
X204406721Y-99527522D01*
X204406717Y-99527516D01*
X204237067Y-99287176D01*
X204036256Y-99072161D01*
X203808045Y-98886498D01*
X203556680Y-98733639D01*
X203556675Y-98733637D01*
X203286845Y-98616434D01*
X203003560Y-98537061D01*
X203003556Y-98537060D01*
X203003555Y-98537060D01*
X202857826Y-98517029D01*
X202712099Y-98497000D01*
X202712098Y-98497000D01*
X202417902Y-98497000D01*
X202417901Y-98497000D01*
X202126445Y-98537060D01*
X202126439Y-98537061D01*
X201843154Y-98616434D01*
X201573324Y-98733637D01*
X201573319Y-98733639D01*
X201321954Y-98886498D01*
X201093743Y-99072161D01*
X200892932Y-99287176D01*
X200723282Y-99527516D01*
X200723278Y-99527522D01*
X200587927Y-99788737D01*
X200489409Y-100065940D01*
X200489404Y-100065956D01*
X200429552Y-100353986D01*
X200429551Y-100353988D01*
X200409475Y-100647500D01*
X200429551Y-100941011D01*
X200429552Y-100941013D01*
X200489404Y-101229043D01*
X200489409Y-101229059D01*
X200587927Y-101506262D01*
X200723278Y-101767477D01*
X200723282Y-101767483D01*
X200873215Y-101979890D01*
X200895794Y-102046011D01*
X200879041Y-102113842D01*
X200828732Y-102161613D01*
X200683738Y-102236363D01*
X200514785Y-102369229D01*
X200514782Y-102369233D01*
X200374021Y-102531678D01*
X200266553Y-102717819D01*
X200196251Y-102920942D01*
X200196250Y-102920944D01*
X200165661Y-103133700D01*
X200165660Y-103133702D01*
X193529214Y-103133702D01*
X193524112Y-103026596D01*
X193473437Y-102817710D01*
X193384146Y-102622190D01*
X193259466Y-102447101D01*
X193259464Y-102447099D01*
X193259459Y-102447093D01*
X193103905Y-102298774D01*
X192923080Y-102182565D01*
X192723530Y-102102677D01*
X192512473Y-102062000D01*
X192512472Y-102062000D01*
X192351382Y-102062000D01*
X192191028Y-102077312D01*
X192191029Y-102077312D01*
X192191025Y-102077313D01*
X191984793Y-102137868D01*
X191793736Y-102236364D01*
X191624785Y-102369229D01*
X191624782Y-102369233D01*
X191484021Y-102531678D01*
X191376553Y-102717819D01*
X191306251Y-102920942D01*
X191306250Y-102920944D01*
X191275661Y-103133700D01*
X191275660Y-103133702D01*
X189572453Y-103133702D01*
X189573167Y-103112336D01*
X189543089Y-102813355D01*
X189539563Y-102798561D01*
X189520322Y-102717819D01*
X189473430Y-102521051D01*
X189365431Y-102240640D01*
X189221021Y-101977125D01*
X189042777Y-101735210D01*
X188833879Y-101519211D01*
X188833872Y-101519205D01*
X188598055Y-101332983D01*
X188598056Y-101332983D01*
X188598054Y-101332982D01*
X188339513Y-101179848D01*
X188062867Y-101062540D01*
X188062860Y-101062537D01*
X187773059Y-100983153D01*
X187773056Y-100983152D01*
X187773054Y-100983152D01*
X187475245Y-100943100D01*
X187249967Y-100943100D01*
X187249959Y-100943100D01*
X187025183Y-100958147D01*
X187025174Y-100958149D01*
X186730710Y-101018001D01*
X186446847Y-101116569D01*
X186446844Y-101116571D01*
X186178662Y-101252089D01*
X185930918Y-101422155D01*
X185708062Y-101623716D01*
X185708056Y-101623722D01*
X185702901Y-101629820D01*
X185644584Y-101668304D01*
X185574720Y-101669149D01*
X185515489Y-101632089D01*
X185485697Y-101568889D01*
X185491372Y-101508233D01*
X185492072Y-101506264D01*
X185590592Y-101229054D01*
X185590592Y-101229049D01*
X185590595Y-101229043D01*
X185634449Y-101018001D01*
X185650448Y-100941011D01*
X185670525Y-100647500D01*
X185650448Y-100353989D01*
X185622075Y-100217449D01*
X185590595Y-100065956D01*
X185590590Y-100065940D01*
X185563851Y-99990704D01*
X185492072Y-99788736D01*
X185356722Y-99527524D01*
X185356721Y-99527522D01*
X185356717Y-99527516D01*
X185187067Y-99287176D01*
X184986256Y-99072161D01*
X184758045Y-98886498D01*
X184506680Y-98733639D01*
X184506675Y-98733637D01*
X184236845Y-98616434D01*
X183953560Y-98537061D01*
X183953556Y-98537060D01*
X183953555Y-98537060D01*
X183807826Y-98517029D01*
X183662099Y-98497000D01*
X183662098Y-98497000D01*
X183367902Y-98497000D01*
X183367901Y-98497000D01*
X183076445Y-98537060D01*
X183076439Y-98537061D01*
X182793154Y-98616434D01*
X182523324Y-98733637D01*
X182523319Y-98733639D01*
X182271954Y-98886498D01*
X182043743Y-99072161D01*
X181842932Y-99287176D01*
X181673282Y-99527516D01*
X181673278Y-99527522D01*
X181537927Y-99788737D01*
X181439409Y-100065940D01*
X181439404Y-100065956D01*
X181379552Y-100353986D01*
X181379551Y-100353988D01*
X181359475Y-100647500D01*
X181379551Y-100941011D01*
X181379552Y-100941013D01*
X181439404Y-101229043D01*
X181439409Y-101229059D01*
X181537927Y-101506262D01*
X181673278Y-101767477D01*
X181673282Y-101767483D01*
X181823215Y-101979890D01*
X181845794Y-102046011D01*
X181829041Y-102113842D01*
X181778732Y-102161613D01*
X181633738Y-102236363D01*
X181464785Y-102369229D01*
X181464782Y-102369233D01*
X181324021Y-102531678D01*
X181216553Y-102717819D01*
X181146251Y-102920942D01*
X181146250Y-102920944D01*
X181115661Y-103133700D01*
X181115660Y-103133702D01*
X174479214Y-103133702D01*
X174474112Y-103026596D01*
X174423437Y-102817710D01*
X174334146Y-102622190D01*
X174209466Y-102447101D01*
X174209464Y-102447099D01*
X174209459Y-102447093D01*
X174053905Y-102298774D01*
X173873080Y-102182565D01*
X173673530Y-102102677D01*
X173462473Y-102062000D01*
X173462472Y-102062000D01*
X173301382Y-102062000D01*
X173141028Y-102077312D01*
X173141029Y-102077312D01*
X173141025Y-102077313D01*
X172934793Y-102137868D01*
X172743736Y-102236364D01*
X172574785Y-102369229D01*
X172574782Y-102369233D01*
X172434021Y-102531678D01*
X172326553Y-102717819D01*
X172256251Y-102920942D01*
X172256250Y-102920944D01*
X172225661Y-103133700D01*
X172225660Y-103133702D01*
X170522453Y-103133702D01*
X170523167Y-103112336D01*
X170493089Y-102813355D01*
X170489563Y-102798561D01*
X170470322Y-102717819D01*
X170423430Y-102521051D01*
X170315431Y-102240640D01*
X170171021Y-101977125D01*
X169992777Y-101735210D01*
X169783879Y-101519211D01*
X169783872Y-101519205D01*
X169548055Y-101332983D01*
X169548056Y-101332983D01*
X169548054Y-101332982D01*
X169289513Y-101179848D01*
X169012867Y-101062540D01*
X169012860Y-101062537D01*
X168723059Y-100983153D01*
X168723056Y-100983152D01*
X168723054Y-100983152D01*
X168425245Y-100943100D01*
X168199967Y-100943100D01*
X168199959Y-100943100D01*
X167975183Y-100958147D01*
X167975174Y-100958149D01*
X167680710Y-101018001D01*
X167396847Y-101116569D01*
X167396844Y-101116571D01*
X167128662Y-101252089D01*
X166880918Y-101422155D01*
X166658062Y-101623716D01*
X166658056Y-101623722D01*
X166652901Y-101629820D01*
X166594584Y-101668304D01*
X166524720Y-101669149D01*
X166465489Y-101632089D01*
X166435697Y-101568889D01*
X166441372Y-101508233D01*
X166442072Y-101506264D01*
X166540592Y-101229054D01*
X166540592Y-101229049D01*
X166540595Y-101229043D01*
X166584449Y-101018001D01*
X166600448Y-100941011D01*
X166620525Y-100647500D01*
X166600448Y-100353989D01*
X166572075Y-100217449D01*
X166540595Y-100065956D01*
X166540590Y-100065940D01*
X166513851Y-99990704D01*
X166442072Y-99788736D01*
X166306722Y-99527524D01*
X166306721Y-99527522D01*
X166306717Y-99527516D01*
X166137067Y-99287176D01*
X165936256Y-99072161D01*
X165708045Y-98886498D01*
X165456680Y-98733639D01*
X165456675Y-98733637D01*
X165186845Y-98616434D01*
X164903560Y-98537061D01*
X164903556Y-98537060D01*
X164903555Y-98537060D01*
X164757826Y-98517029D01*
X164612099Y-98497000D01*
X164612098Y-98497000D01*
X164317902Y-98497000D01*
X164317901Y-98497000D01*
X164026445Y-98537060D01*
X164026439Y-98537061D01*
X163743154Y-98616434D01*
X163473324Y-98733637D01*
X163473319Y-98733639D01*
X163221954Y-98886498D01*
X162993743Y-99072161D01*
X162792932Y-99287176D01*
X162623282Y-99527516D01*
X162623278Y-99527522D01*
X162487927Y-99788737D01*
X162389409Y-100065940D01*
X162389404Y-100065956D01*
X162329552Y-100353986D01*
X162329551Y-100353988D01*
X162309475Y-100647499D01*
X162329551Y-100941011D01*
X162329552Y-100941013D01*
X162389404Y-101229043D01*
X162389409Y-101229059D01*
X162487927Y-101506262D01*
X162623278Y-101767477D01*
X162623282Y-101767483D01*
X162773215Y-101979890D01*
X162795794Y-102046011D01*
X162779041Y-102113842D01*
X162728732Y-102161613D01*
X162583738Y-102236363D01*
X162414785Y-102369229D01*
X162414782Y-102369233D01*
X162274021Y-102531678D01*
X162166553Y-102717819D01*
X162096251Y-102920942D01*
X162096250Y-102920944D01*
X162065661Y-103133700D01*
X162065660Y-103133702D01*
X158750500Y-103133702D01*
X158750500Y-98107499D01*
X168659976Y-98107499D01*
X168680047Y-98400936D01*
X168739890Y-98688921D01*
X168739891Y-98688924D01*
X168838386Y-98966060D01*
X168838385Y-98966060D01*
X168973706Y-99227216D01*
X169125991Y-99442953D01*
X169591388Y-98977555D01*
X169707632Y-99126904D01*
X169890523Y-99295268D01*
X169945116Y-99330935D01*
X169481658Y-99794394D01*
X169572240Y-99868090D01*
X169572246Y-99868094D01*
X169823550Y-100020915D01*
X170093322Y-100138093D01*
X170376541Y-100217448D01*
X170376547Y-100217449D01*
X170667935Y-100257500D01*
X170962065Y-100257500D01*
X171253452Y-100217449D01*
X171253458Y-100217448D01*
X171536677Y-100138093D01*
X171806449Y-100020915D01*
X172057753Y-99868094D01*
X172057767Y-99868084D01*
X172148340Y-99794395D01*
X172148341Y-99794394D01*
X171684883Y-99330935D01*
X171739477Y-99295268D01*
X171922368Y-99126904D01*
X172038610Y-98977556D01*
X172504007Y-99442953D01*
X172504008Y-99442953D01*
X172656293Y-99227216D01*
X172791613Y-98966060D01*
X172890108Y-98688924D01*
X172890109Y-98688921D01*
X172949952Y-98400936D01*
X172970023Y-98107499D01*
X187709976Y-98107499D01*
X187730047Y-98400936D01*
X187789890Y-98688921D01*
X187789891Y-98688924D01*
X187888386Y-98966060D01*
X187888385Y-98966060D01*
X188023706Y-99227216D01*
X188175991Y-99442953D01*
X188641388Y-98977555D01*
X188757632Y-99126904D01*
X188940523Y-99295268D01*
X188995116Y-99330935D01*
X188531658Y-99794394D01*
X188622240Y-99868090D01*
X188622246Y-99868094D01*
X188873550Y-100020915D01*
X189143322Y-100138093D01*
X189426541Y-100217448D01*
X189426547Y-100217449D01*
X189717935Y-100257500D01*
X190012065Y-100257500D01*
X190303452Y-100217449D01*
X190303458Y-100217448D01*
X190586677Y-100138093D01*
X190856449Y-100020915D01*
X191107753Y-99868094D01*
X191107767Y-99868084D01*
X191198340Y-99794395D01*
X191198341Y-99794394D01*
X190734883Y-99330935D01*
X190789477Y-99295268D01*
X190972368Y-99126904D01*
X191088610Y-98977556D01*
X191554007Y-99442953D01*
X191554008Y-99442953D01*
X191706293Y-99227216D01*
X191841613Y-98966060D01*
X191940108Y-98688924D01*
X191940109Y-98688921D01*
X191999952Y-98400936D01*
X192020023Y-98107500D01*
X206759976Y-98107500D01*
X206780047Y-98400936D01*
X206839890Y-98688921D01*
X206839891Y-98688924D01*
X206938386Y-98966060D01*
X206938385Y-98966060D01*
X207073706Y-99227216D01*
X207225991Y-99442953D01*
X207691388Y-98977555D01*
X207807632Y-99126904D01*
X207990523Y-99295268D01*
X208045116Y-99330935D01*
X207581658Y-99794394D01*
X207672240Y-99868090D01*
X207672246Y-99868094D01*
X207923550Y-100020915D01*
X208193322Y-100138093D01*
X208476541Y-100217448D01*
X208476547Y-100217449D01*
X208767935Y-100257500D01*
X209062065Y-100257500D01*
X209353452Y-100217449D01*
X209353458Y-100217448D01*
X209636677Y-100138093D01*
X209906449Y-100020915D01*
X210157753Y-99868094D01*
X210157767Y-99868084D01*
X210248340Y-99794395D01*
X210248341Y-99794394D01*
X209784883Y-99330935D01*
X209839477Y-99295268D01*
X210022368Y-99126904D01*
X210138610Y-98977556D01*
X210604007Y-99442953D01*
X210604008Y-99442953D01*
X210756293Y-99227216D01*
X210891613Y-98966060D01*
X210990108Y-98688924D01*
X210990109Y-98688921D01*
X211049952Y-98400936D01*
X211070023Y-98107500D01*
X211070023Y-98107499D01*
X225809976Y-98107499D01*
X225830047Y-98400936D01*
X225889890Y-98688921D01*
X225889891Y-98688924D01*
X225988386Y-98966060D01*
X225988385Y-98966060D01*
X226123706Y-99227216D01*
X226275991Y-99442953D01*
X226741388Y-98977555D01*
X226857632Y-99126904D01*
X227040523Y-99295268D01*
X227095116Y-99330935D01*
X226631658Y-99794394D01*
X226722240Y-99868090D01*
X226722246Y-99868094D01*
X226973550Y-100020915D01*
X227243322Y-100138093D01*
X227526541Y-100217448D01*
X227526547Y-100217449D01*
X227817935Y-100257500D01*
X228112065Y-100257500D01*
X228403452Y-100217449D01*
X228403458Y-100217448D01*
X228686677Y-100138093D01*
X228956449Y-100020915D01*
X229207753Y-99868094D01*
X229207767Y-99868084D01*
X229298340Y-99794395D01*
X229298341Y-99794394D01*
X228834883Y-99330935D01*
X228889477Y-99295268D01*
X229072368Y-99126904D01*
X229188610Y-98977556D01*
X229654007Y-99442953D01*
X229654008Y-99442953D01*
X229806293Y-99227216D01*
X229941613Y-98966060D01*
X230040108Y-98688924D01*
X230040109Y-98688921D01*
X230099952Y-98400936D01*
X230120023Y-98107500D01*
X230099952Y-97814063D01*
X230040109Y-97526078D01*
X230040108Y-97526075D01*
X229941613Y-97248939D01*
X229941614Y-97248939D01*
X229806293Y-96987783D01*
X229654007Y-96772045D01*
X229188609Y-97237442D01*
X229072368Y-97088096D01*
X228889477Y-96919732D01*
X228834882Y-96884063D01*
X229298341Y-96420604D01*
X229207756Y-96346907D01*
X228956449Y-96194084D01*
X228686677Y-96076906D01*
X228403458Y-95997551D01*
X228403452Y-95997550D01*
X228112065Y-95957500D01*
X227817935Y-95957500D01*
X227526547Y-95997550D01*
X227526541Y-95997551D01*
X227243322Y-96076906D01*
X226973550Y-96194084D01*
X226722243Y-96346907D01*
X226631657Y-96420604D01*
X227095117Y-96884063D01*
X227040523Y-96919732D01*
X226857632Y-97088096D01*
X226741389Y-97237443D01*
X226275991Y-96772045D01*
X226275990Y-96772045D01*
X226123710Y-96987776D01*
X226123706Y-96987782D01*
X225988386Y-97248939D01*
X225889891Y-97526075D01*
X225889890Y-97526078D01*
X225830047Y-97814063D01*
X225809976Y-98107499D01*
X211070023Y-98107499D01*
X211049952Y-97814063D01*
X210990109Y-97526078D01*
X210990108Y-97526075D01*
X210891613Y-97248939D01*
X210891614Y-97248939D01*
X210756293Y-96987783D01*
X210604007Y-96772045D01*
X210138609Y-97237442D01*
X210022368Y-97088096D01*
X209839477Y-96919732D01*
X209784882Y-96884063D01*
X210248341Y-96420604D01*
X210157756Y-96346907D01*
X209906449Y-96194084D01*
X209636677Y-96076906D01*
X209353458Y-95997551D01*
X209353452Y-95997550D01*
X209062065Y-95957500D01*
X208767935Y-95957500D01*
X208476547Y-95997550D01*
X208476541Y-95997551D01*
X208193322Y-96076906D01*
X207923550Y-96194084D01*
X207672243Y-96346907D01*
X207581657Y-96420604D01*
X208045117Y-96884063D01*
X207990523Y-96919732D01*
X207807632Y-97088096D01*
X207691389Y-97237443D01*
X207225991Y-96772045D01*
X207225990Y-96772045D01*
X207073710Y-96987776D01*
X207073706Y-96987782D01*
X206938386Y-97248939D01*
X206839891Y-97526075D01*
X206839890Y-97526078D01*
X206780047Y-97814063D01*
X206759976Y-98107500D01*
X192020023Y-98107500D01*
X192020023Y-98107499D01*
X191999952Y-97814063D01*
X191940109Y-97526078D01*
X191940108Y-97526075D01*
X191841613Y-97248939D01*
X191841614Y-97248939D01*
X191706293Y-96987783D01*
X191554007Y-96772045D01*
X191088609Y-97237442D01*
X190972368Y-97088096D01*
X190789477Y-96919732D01*
X190734882Y-96884063D01*
X191198341Y-96420604D01*
X191107756Y-96346907D01*
X190856449Y-96194084D01*
X190586677Y-96076906D01*
X190303458Y-95997551D01*
X190303452Y-95997550D01*
X190012065Y-95957500D01*
X189717935Y-95957500D01*
X189426547Y-95997550D01*
X189426541Y-95997551D01*
X189143322Y-96076906D01*
X188873550Y-96194084D01*
X188622243Y-96346907D01*
X188531657Y-96420604D01*
X188995117Y-96884063D01*
X188940523Y-96919732D01*
X188757632Y-97088096D01*
X188641389Y-97237442D01*
X188175991Y-96772044D01*
X188175990Y-96772045D01*
X188023710Y-96987776D01*
X188023706Y-96987782D01*
X187888386Y-97248939D01*
X187789891Y-97526075D01*
X187789890Y-97526078D01*
X187730047Y-97814063D01*
X187709976Y-98107499D01*
X172970023Y-98107499D01*
X172949952Y-97814063D01*
X172890109Y-97526078D01*
X172890108Y-97526075D01*
X172791613Y-97248939D01*
X172791614Y-97248939D01*
X172656293Y-96987783D01*
X172504007Y-96772045D01*
X172038609Y-97237442D01*
X171922368Y-97088096D01*
X171739477Y-96919732D01*
X171684882Y-96884063D01*
X172148341Y-96420604D01*
X172057756Y-96346907D01*
X171806449Y-96194084D01*
X171536677Y-96076906D01*
X171253458Y-95997551D01*
X171253452Y-95997550D01*
X170962065Y-95957500D01*
X170667935Y-95957500D01*
X170376547Y-95997550D01*
X170376541Y-95997551D01*
X170093322Y-96076906D01*
X169823550Y-96194084D01*
X169572243Y-96346907D01*
X169481657Y-96420604D01*
X169945117Y-96884063D01*
X169890523Y-96919732D01*
X169707632Y-97088096D01*
X169591389Y-97237443D01*
X169125991Y-96772045D01*
X169125990Y-96772045D01*
X168973710Y-96987776D01*
X168973706Y-96987782D01*
X168838386Y-97248939D01*
X168739891Y-97526075D01*
X168739890Y-97526078D01*
X168680047Y-97814063D01*
X168659976Y-98107499D01*
X158750500Y-98107499D01*
X158750500Y-88582505D01*
X216423481Y-88582505D01*
X216442321Y-88809883D01*
X216442323Y-88809891D01*
X216498335Y-89031077D01*
X216589989Y-89240029D01*
X216714787Y-89431048D01*
X216869319Y-89598913D01*
X216869323Y-89598917D01*
X217049381Y-89739061D01*
X217250050Y-89847658D01*
X217465857Y-89921745D01*
X217690915Y-89959300D01*
X217919085Y-89959300D01*
X218144143Y-89921745D01*
X218359950Y-89847658D01*
X218560619Y-89739061D01*
X218740677Y-89598917D01*
X218895213Y-89431047D01*
X219020010Y-89240030D01*
X219111664Y-89031078D01*
X219167677Y-88809891D01*
X219186519Y-88582505D01*
X231663481Y-88582505D01*
X231682321Y-88809883D01*
X231682323Y-88809891D01*
X231738335Y-89031077D01*
X231829989Y-89240029D01*
X231954787Y-89431048D01*
X232109319Y-89598913D01*
X232109323Y-89598917D01*
X232289381Y-89739061D01*
X232490050Y-89847658D01*
X232705857Y-89921745D01*
X232930915Y-89959300D01*
X233159085Y-89959300D01*
X233384143Y-89921745D01*
X233599950Y-89847658D01*
X233800619Y-89739061D01*
X233980677Y-89598917D01*
X234135213Y-89431047D01*
X234260010Y-89240030D01*
X234351664Y-89031078D01*
X234407677Y-88809891D01*
X234426519Y-88582500D01*
X234407677Y-88355109D01*
X234351664Y-88133922D01*
X234260010Y-87924970D01*
X234135213Y-87733953D01*
X234135212Y-87733951D01*
X233980680Y-87566086D01*
X233980676Y-87566082D01*
X233800620Y-87425940D01*
X233800619Y-87425939D01*
X233792517Y-87421554D01*
X233742928Y-87372337D01*
X233727818Y-87304121D01*
X233751988Y-87238565D01*
X233792517Y-87203445D01*
X233800619Y-87199061D01*
X233980677Y-87058917D01*
X234135213Y-86891047D01*
X234260010Y-86700030D01*
X234351664Y-86491078D01*
X234407677Y-86269891D01*
X234418013Y-86145152D01*
X234426519Y-86042505D01*
X234426519Y-86042494D01*
X234407678Y-85815116D01*
X234407677Y-85815113D01*
X234407677Y-85815109D01*
X234351664Y-85593922D01*
X234260010Y-85384970D01*
X234235775Y-85347875D01*
X234135212Y-85193951D01*
X233980680Y-85026086D01*
X233980676Y-85026082D01*
X233800620Y-84885939D01*
X233800611Y-84885934D01*
X233792513Y-84881551D01*
X233742924Y-84832330D01*
X233727819Y-84764112D01*
X233751993Y-84698558D01*
X233792523Y-84663441D01*
X233800619Y-84659061D01*
X233980677Y-84518917D01*
X234135213Y-84351047D01*
X234260010Y-84160030D01*
X234351664Y-83951078D01*
X234407677Y-83729891D01*
X234412820Y-83667823D01*
X234426519Y-83502505D01*
X234426519Y-83502494D01*
X234407678Y-83275116D01*
X234407677Y-83275113D01*
X234407677Y-83275109D01*
X234351664Y-83053922D01*
X234260010Y-82844970D01*
X234176715Y-82717477D01*
X234135212Y-82653951D01*
X233980680Y-82486086D01*
X233980676Y-82486082D01*
X233890648Y-82416010D01*
X233800619Y-82345939D01*
X233792517Y-82341554D01*
X233742928Y-82292337D01*
X233727818Y-82224121D01*
X233751988Y-82158565D01*
X233792517Y-82123445D01*
X233800619Y-82119061D01*
X233980677Y-81978917D01*
X234135213Y-81811047D01*
X234260010Y-81620030D01*
X234351664Y-81411078D01*
X234407677Y-81189891D01*
X234409537Y-81167448D01*
X234426519Y-80962505D01*
X234426519Y-80962494D01*
X234407678Y-80735116D01*
X234407677Y-80735113D01*
X234407677Y-80735109D01*
X234351664Y-80513922D01*
X234260010Y-80304970D01*
X234135213Y-80113953D01*
X234135212Y-80113951D01*
X233980680Y-79946086D01*
X233980676Y-79946082D01*
X233800620Y-79805940D01*
X233800619Y-79805939D01*
X233792517Y-79801554D01*
X233742928Y-79752337D01*
X233727818Y-79684121D01*
X233751988Y-79618565D01*
X233792517Y-79583445D01*
X233800619Y-79579061D01*
X233980677Y-79438917D01*
X234135213Y-79271047D01*
X234260010Y-79080030D01*
X234351664Y-78871078D01*
X234407677Y-78649891D01*
X234407678Y-78649883D01*
X234426519Y-78422505D01*
X234426519Y-78422494D01*
X234407678Y-78195116D01*
X234407677Y-78195113D01*
X234407677Y-78195109D01*
X234351664Y-77973922D01*
X234260010Y-77764970D01*
X234135213Y-77573953D01*
X234135212Y-77573951D01*
X233980680Y-77406086D01*
X233980676Y-77406082D01*
X233800620Y-77265939D01*
X233800611Y-77265934D01*
X233792513Y-77261551D01*
X233742924Y-77212330D01*
X233727819Y-77144112D01*
X233751993Y-77078558D01*
X233792523Y-77043441D01*
X233800619Y-77039061D01*
X233980677Y-76898917D01*
X234135213Y-76731047D01*
X234260010Y-76540030D01*
X234351664Y-76331078D01*
X234407677Y-76109891D01*
X234426519Y-75882500D01*
X234407677Y-75655109D01*
X234351664Y-75433922D01*
X234260010Y-75224970D01*
X234135213Y-75033953D01*
X234135212Y-75033951D01*
X233980680Y-74866086D01*
X233980676Y-74866082D01*
X233800620Y-74725940D01*
X233800619Y-74725939D01*
X233792517Y-74721554D01*
X233742928Y-74672337D01*
X233727818Y-74604121D01*
X233751988Y-74538565D01*
X233792517Y-74503445D01*
X233800619Y-74499061D01*
X233980677Y-74358917D01*
X234135213Y-74191047D01*
X234260010Y-74000030D01*
X234351664Y-73791078D01*
X234407677Y-73569891D01*
X234426519Y-73342500D01*
X234407677Y-73115109D01*
X234351664Y-72893922D01*
X234260010Y-72684970D01*
X234135213Y-72493953D01*
X234135212Y-72493951D01*
X233980680Y-72326086D01*
X233980676Y-72326082D01*
X233800620Y-72185940D01*
X233800619Y-72185939D01*
X233792517Y-72181554D01*
X233742928Y-72132337D01*
X233727818Y-72064121D01*
X233751988Y-71998565D01*
X233792517Y-71963445D01*
X233800619Y-71959061D01*
X233980677Y-71818917D01*
X234135213Y-71651047D01*
X234260010Y-71460030D01*
X234351664Y-71251078D01*
X234407677Y-71029891D01*
X234426519Y-70802500D01*
X234407677Y-70575109D01*
X234351664Y-70353922D01*
X234260010Y-70144970D01*
X234135213Y-69953953D01*
X234135212Y-69953951D01*
X233980680Y-69786086D01*
X233980676Y-69786082D01*
X233800620Y-69645939D01*
X233800611Y-69645934D01*
X233792513Y-69641551D01*
X233742924Y-69592330D01*
X233727819Y-69524112D01*
X233751993Y-69458558D01*
X233792523Y-69423441D01*
X233800619Y-69419061D01*
X233980677Y-69278917D01*
X234135213Y-69111047D01*
X234260010Y-68920030D01*
X234351664Y-68711078D01*
X234407677Y-68489891D01*
X234407678Y-68489883D01*
X234426519Y-68262505D01*
X234426519Y-68262494D01*
X234407678Y-68035116D01*
X234407677Y-68035113D01*
X234407677Y-68035109D01*
X234351664Y-67813922D01*
X234260010Y-67604970D01*
X234135213Y-67413953D01*
X234135212Y-67413951D01*
X233980680Y-67246086D01*
X233980676Y-67246082D01*
X233868057Y-67158428D01*
X233800619Y-67105939D01*
X233792517Y-67101554D01*
X233742928Y-67052337D01*
X233727818Y-66984121D01*
X233751988Y-66918565D01*
X233792517Y-66883445D01*
X233800619Y-66879061D01*
X233980677Y-66738917D01*
X234135213Y-66571047D01*
X234260010Y-66380030D01*
X234351664Y-66171078D01*
X234407677Y-65949891D01*
X234407678Y-65949883D01*
X234426519Y-65722505D01*
X234426519Y-65722494D01*
X234407678Y-65495116D01*
X234407677Y-65495113D01*
X234407677Y-65495109D01*
X234351664Y-65273922D01*
X234260010Y-65064970D01*
X234135213Y-64873953D01*
X234135212Y-64873951D01*
X233980680Y-64706086D01*
X233980676Y-64706082D01*
X233800620Y-64565939D01*
X233800616Y-64565937D01*
X233791989Y-64561268D01*
X233742400Y-64512047D01*
X233727294Y-64443829D01*
X233751467Y-64378275D01*
X233791997Y-64343158D01*
X233800341Y-64338642D01*
X233800349Y-64338637D01*
X233826910Y-64317963D01*
X233213603Y-63704656D01*
X233331412Y-63653485D01*
X233447862Y-63558746D01*
X233534433Y-63436103D01*
X233565301Y-63349247D01*
X234179063Y-63963011D01*
X234259569Y-63839787D01*
X234351190Y-63630915D01*
X234407182Y-63409804D01*
X234426016Y-63182505D01*
X234426016Y-63182494D01*
X234407182Y-62955195D01*
X234351190Y-62734084D01*
X234259568Y-62525209D01*
X234179063Y-62401987D01*
X233567630Y-63013420D01*
X233564406Y-62997903D01*
X233495342Y-62864614D01*
X233392877Y-62754902D01*
X233264612Y-62676902D01*
X233211832Y-62662113D01*
X233826910Y-62047036D01*
X233826909Y-62047035D01*
X233800349Y-62026362D01*
X233800339Y-62026355D01*
X233791990Y-62021837D01*
X233742401Y-61972617D01*
X233727294Y-61904400D01*
X233751466Y-61838845D01*
X233791995Y-61803728D01*
X233800612Y-61799065D01*
X233800619Y-61799061D01*
X233980677Y-61658917D01*
X234135213Y-61491047D01*
X234260010Y-61300030D01*
X234351664Y-61091078D01*
X234407677Y-60869891D01*
X234407678Y-60869883D01*
X234426519Y-60642505D01*
X234426519Y-60642494D01*
X234407678Y-60415116D01*
X234407677Y-60415113D01*
X234407677Y-60415109D01*
X234351664Y-60193922D01*
X234260010Y-59984970D01*
X234135213Y-59793953D01*
X234135212Y-59793951D01*
X233980680Y-59626086D01*
X233980676Y-59626082D01*
X233800620Y-59485940D01*
X233800619Y-59485939D01*
X233599950Y-59377342D01*
X233599942Y-59377339D01*
X233384145Y-59303255D01*
X233159085Y-59265700D01*
X232930915Y-59265700D01*
X232705854Y-59303255D01*
X232490057Y-59377339D01*
X232490049Y-59377342D01*
X232289379Y-59485940D01*
X232109323Y-59626082D01*
X232109319Y-59626086D01*
X231954787Y-59793951D01*
X231829989Y-59984970D01*
X231738335Y-60193922D01*
X231682323Y-60415108D01*
X231682321Y-60415116D01*
X231663481Y-60642494D01*
X231663481Y-60642505D01*
X231682321Y-60869883D01*
X231682323Y-60869891D01*
X231738335Y-61091077D01*
X231829989Y-61300029D01*
X231954787Y-61491048D01*
X232109319Y-61658913D01*
X232109323Y-61658917D01*
X232289379Y-61799060D01*
X232289387Y-61799065D01*
X232298007Y-61803730D01*
X232347598Y-61852950D01*
X232362705Y-61921166D01*
X232338534Y-61986722D01*
X232298009Y-62021837D01*
X232289661Y-62026354D01*
X232289646Y-62026364D01*
X232263089Y-62047034D01*
X232263089Y-62047036D01*
X232876396Y-62660343D01*
X232758588Y-62711515D01*
X232642138Y-62806254D01*
X232555567Y-62928897D01*
X232524699Y-63015751D01*
X231910935Y-62401988D01*
X231830431Y-62525210D01*
X231830429Y-62525214D01*
X231738809Y-62734084D01*
X231682817Y-62955195D01*
X231663983Y-63182494D01*
X231663983Y-63182505D01*
X231682817Y-63409804D01*
X231738809Y-63630915D01*
X231830431Y-63839790D01*
X231910934Y-63963010D01*
X232522368Y-63351576D01*
X232525594Y-63367097D01*
X232594658Y-63500386D01*
X232697123Y-63610098D01*
X232825388Y-63688098D01*
X232878166Y-63702885D01*
X232263088Y-64317962D01*
X232263089Y-64317963D01*
X232289651Y-64338637D01*
X232289657Y-64338641D01*
X232298006Y-64343160D01*
X232347597Y-64392379D01*
X232362705Y-64460595D01*
X232338535Y-64526151D01*
X232298014Y-64561266D01*
X232289383Y-64565937D01*
X232289379Y-64565939D01*
X232109323Y-64706082D01*
X232109319Y-64706086D01*
X231954787Y-64873951D01*
X231829989Y-65064970D01*
X231738335Y-65273922D01*
X231682323Y-65495108D01*
X231682321Y-65495116D01*
X231663481Y-65722494D01*
X231663481Y-65722505D01*
X231682321Y-65949883D01*
X231682323Y-65949891D01*
X231738335Y-66171077D01*
X231829989Y-66380029D01*
X231954787Y-66571048D01*
X232109319Y-66738913D01*
X232109323Y-66738917D01*
X232289379Y-66879060D01*
X232289383Y-66879062D01*
X232297483Y-66883446D01*
X232347073Y-66932666D01*
X232362180Y-67000883D01*
X232338008Y-67066439D01*
X232297483Y-67101554D01*
X232289383Y-67105937D01*
X232289379Y-67105939D01*
X232109323Y-67246082D01*
X232109319Y-67246086D01*
X231954787Y-67413951D01*
X231829989Y-67604970D01*
X231738335Y-67813922D01*
X231682323Y-68035108D01*
X231682321Y-68035116D01*
X231663481Y-68262494D01*
X231663481Y-68262505D01*
X231682321Y-68489883D01*
X231682323Y-68489891D01*
X231738335Y-68711077D01*
X231829989Y-68920029D01*
X231954787Y-69111048D01*
X232109319Y-69278913D01*
X232109323Y-69278917D01*
X232289379Y-69419060D01*
X232289383Y-69419062D01*
X232297483Y-69423446D01*
X232347073Y-69472666D01*
X232362180Y-69540883D01*
X232338008Y-69606439D01*
X232297483Y-69641554D01*
X232289383Y-69645937D01*
X232289379Y-69645939D01*
X232109323Y-69786082D01*
X232109319Y-69786086D01*
X231954787Y-69953951D01*
X231829989Y-70144970D01*
X231738335Y-70353922D01*
X231682323Y-70575108D01*
X231682321Y-70575116D01*
X231663481Y-70802494D01*
X231663481Y-70802505D01*
X231682321Y-71029883D01*
X231682323Y-71029891D01*
X231738335Y-71251077D01*
X231829989Y-71460029D01*
X231954787Y-71651048D01*
X232109319Y-71818913D01*
X232109323Y-71818917D01*
X232289379Y-71959060D01*
X232289380Y-71959060D01*
X232289381Y-71959061D01*
X232297477Y-71963442D01*
X232347069Y-72012659D01*
X232362181Y-72080875D01*
X232338013Y-72146431D01*
X232297490Y-72181549D01*
X232289388Y-72185934D01*
X232289379Y-72185939D01*
X232109323Y-72326082D01*
X232109319Y-72326086D01*
X231954787Y-72493951D01*
X231829989Y-72684970D01*
X231738335Y-72893922D01*
X231682323Y-73115108D01*
X231682321Y-73115116D01*
X231663481Y-73342494D01*
X231663481Y-73342505D01*
X231682321Y-73569883D01*
X231682323Y-73569891D01*
X231738335Y-73791077D01*
X231829989Y-74000029D01*
X231954787Y-74191048D01*
X232109319Y-74358913D01*
X232109323Y-74358917D01*
X232289379Y-74499060D01*
X232289383Y-74499062D01*
X232297483Y-74503446D01*
X232347073Y-74552666D01*
X232362180Y-74620883D01*
X232338008Y-74686439D01*
X232297483Y-74721554D01*
X232289383Y-74725937D01*
X232289379Y-74725939D01*
X232109323Y-74866082D01*
X232109319Y-74866086D01*
X231954787Y-75033951D01*
X231829989Y-75224970D01*
X231738335Y-75433922D01*
X231682323Y-75655108D01*
X231682321Y-75655116D01*
X231663481Y-75882494D01*
X231663481Y-75882505D01*
X231682321Y-76109883D01*
X231682323Y-76109891D01*
X231738335Y-76331077D01*
X231829989Y-76540029D01*
X231954787Y-76731048D01*
X232109319Y-76898913D01*
X232109323Y-76898917D01*
X232289379Y-77039060D01*
X232289380Y-77039060D01*
X232289381Y-77039061D01*
X232297477Y-77043442D01*
X232347069Y-77092659D01*
X232362181Y-77160875D01*
X232338013Y-77226431D01*
X232297490Y-77261549D01*
X232289388Y-77265934D01*
X232289379Y-77265939D01*
X232109323Y-77406082D01*
X232109319Y-77406086D01*
X231954787Y-77573951D01*
X231829989Y-77764970D01*
X231738335Y-77973922D01*
X231682323Y-78195108D01*
X231682321Y-78195116D01*
X231663481Y-78422494D01*
X231663481Y-78422505D01*
X231682321Y-78649883D01*
X231682323Y-78649891D01*
X231738335Y-78871077D01*
X231829989Y-79080029D01*
X231954787Y-79271048D01*
X232109319Y-79438913D01*
X232109323Y-79438917D01*
X232289379Y-79579060D01*
X232289380Y-79579060D01*
X232289381Y-79579061D01*
X232297477Y-79583442D01*
X232347069Y-79632659D01*
X232362181Y-79700875D01*
X232338013Y-79766431D01*
X232297490Y-79801549D01*
X232289388Y-79805934D01*
X232289379Y-79805939D01*
X232109323Y-79946082D01*
X232109319Y-79946086D01*
X231954787Y-80113951D01*
X231829989Y-80304970D01*
X231738335Y-80513922D01*
X231682323Y-80735108D01*
X231682321Y-80735116D01*
X231663481Y-80962494D01*
X231663481Y-80962505D01*
X231682321Y-81189883D01*
X231682323Y-81189891D01*
X231738335Y-81411077D01*
X231829989Y-81620029D01*
X231954787Y-81811048D01*
X232109319Y-81978913D01*
X232109323Y-81978917D01*
X232289379Y-82119060D01*
X232289380Y-82119060D01*
X232289381Y-82119061D01*
X232297477Y-82123442D01*
X232347069Y-82172659D01*
X232362181Y-82240875D01*
X232338013Y-82306431D01*
X232297490Y-82341549D01*
X232289388Y-82345934D01*
X232289379Y-82345939D01*
X232109323Y-82486082D01*
X232109319Y-82486086D01*
X231954787Y-82653951D01*
X231829989Y-82844970D01*
X231738335Y-83053922D01*
X231682323Y-83275108D01*
X231682321Y-83275116D01*
X231663481Y-83502494D01*
X231663481Y-83502505D01*
X231682321Y-83729883D01*
X231682323Y-83729891D01*
X231738335Y-83951077D01*
X231829989Y-84160029D01*
X231954787Y-84351048D01*
X232109319Y-84518913D01*
X232109323Y-84518917D01*
X232289379Y-84659060D01*
X232289383Y-84659062D01*
X232297483Y-84663446D01*
X232347073Y-84712666D01*
X232362180Y-84780883D01*
X232338008Y-84846439D01*
X232297483Y-84881554D01*
X232289383Y-84885937D01*
X232289379Y-84885939D01*
X232109323Y-85026082D01*
X232109319Y-85026086D01*
X231954787Y-85193951D01*
X231829989Y-85384970D01*
X231738335Y-85593922D01*
X231682323Y-85815108D01*
X231682321Y-85815116D01*
X231663481Y-86042494D01*
X231663481Y-86042505D01*
X231682321Y-86269883D01*
X231682323Y-86269891D01*
X231738335Y-86491077D01*
X231829989Y-86700029D01*
X231954787Y-86891048D01*
X232109319Y-87058913D01*
X232109323Y-87058917D01*
X232289379Y-87199060D01*
X232289383Y-87199062D01*
X232297483Y-87203446D01*
X232347073Y-87252666D01*
X232362180Y-87320883D01*
X232338008Y-87386439D01*
X232297483Y-87421554D01*
X232289383Y-87425937D01*
X232289379Y-87425939D01*
X232109323Y-87566082D01*
X232109319Y-87566086D01*
X231954787Y-87733951D01*
X231829989Y-87924970D01*
X231738335Y-88133922D01*
X231682323Y-88355108D01*
X231682321Y-88355116D01*
X231663481Y-88582494D01*
X231663481Y-88582505D01*
X219186519Y-88582505D01*
X219186519Y-88582500D01*
X219167677Y-88355109D01*
X219111664Y-88133922D01*
X219020010Y-87924970D01*
X218895213Y-87733953D01*
X218895212Y-87733951D01*
X218740680Y-87566086D01*
X218740676Y-87566082D01*
X218560620Y-87425940D01*
X218560619Y-87425939D01*
X218552517Y-87421554D01*
X218502928Y-87372337D01*
X218487818Y-87304121D01*
X218511988Y-87238565D01*
X218552517Y-87203445D01*
X218560619Y-87199061D01*
X218740677Y-87058917D01*
X218895213Y-86891047D01*
X219020010Y-86700030D01*
X219111664Y-86491078D01*
X219167677Y-86269891D01*
X219178013Y-86145152D01*
X219186519Y-86042505D01*
X219186519Y-86042494D01*
X219167678Y-85815116D01*
X219167677Y-85815113D01*
X219167677Y-85815109D01*
X219111664Y-85593922D01*
X219020010Y-85384970D01*
X218995775Y-85347875D01*
X218895212Y-85193951D01*
X218740680Y-85026086D01*
X218740676Y-85026082D01*
X218560620Y-84885940D01*
X218560619Y-84885939D01*
X218552517Y-84881554D01*
X218502928Y-84832337D01*
X218487818Y-84764121D01*
X218511988Y-84698565D01*
X218552517Y-84663445D01*
X218560619Y-84659061D01*
X218740677Y-84518917D01*
X218895213Y-84351047D01*
X219020010Y-84160030D01*
X219111664Y-83951078D01*
X219167677Y-83729891D01*
X219172820Y-83667823D01*
X219186519Y-83502505D01*
X219186519Y-83502494D01*
X219167678Y-83275116D01*
X219167677Y-83275113D01*
X219167677Y-83275109D01*
X219111664Y-83053922D01*
X219020010Y-82844970D01*
X218936715Y-82717477D01*
X218895212Y-82653951D01*
X218740680Y-82486086D01*
X218740676Y-82486082D01*
X218650648Y-82416010D01*
X218560619Y-82345939D01*
X218552517Y-82341554D01*
X218502928Y-82292337D01*
X218487818Y-82224121D01*
X218511988Y-82158565D01*
X218552517Y-82123445D01*
X218560619Y-82119061D01*
X218740677Y-81978917D01*
X218895213Y-81811047D01*
X219020010Y-81620030D01*
X219111664Y-81411078D01*
X219167677Y-81189891D01*
X219169537Y-81167448D01*
X219186519Y-80962505D01*
X219186519Y-80962494D01*
X219167678Y-80735116D01*
X219167677Y-80735113D01*
X219167677Y-80735109D01*
X219111664Y-80513922D01*
X219020010Y-80304970D01*
X218895213Y-80113953D01*
X218895212Y-80113951D01*
X218740680Y-79946086D01*
X218740676Y-79946082D01*
X218560620Y-79805940D01*
X218560619Y-79805939D01*
X218552517Y-79801554D01*
X218502928Y-79752337D01*
X218487818Y-79684121D01*
X218511988Y-79618565D01*
X218552517Y-79583445D01*
X218560619Y-79579061D01*
X218740677Y-79438917D01*
X218895213Y-79271047D01*
X219020010Y-79080030D01*
X219111664Y-78871078D01*
X219167677Y-78649891D01*
X219167678Y-78649883D01*
X219186519Y-78422505D01*
X219186519Y-78422494D01*
X219167678Y-78195116D01*
X219167677Y-78195113D01*
X219167677Y-78195109D01*
X219111664Y-77973922D01*
X219020010Y-77764970D01*
X218895213Y-77573953D01*
X218895212Y-77573951D01*
X218740680Y-77406086D01*
X218740676Y-77406082D01*
X218560620Y-77265940D01*
X218560619Y-77265939D01*
X218552517Y-77261554D01*
X218502928Y-77212337D01*
X218487818Y-77144121D01*
X218511988Y-77078565D01*
X218552517Y-77043445D01*
X218560619Y-77039061D01*
X218740677Y-76898917D01*
X218895213Y-76731047D01*
X219020010Y-76540030D01*
X219111664Y-76331078D01*
X219167677Y-76109891D01*
X219186519Y-75882500D01*
X219167677Y-75655109D01*
X219111664Y-75433922D01*
X219020010Y-75224970D01*
X218895213Y-75033953D01*
X218895212Y-75033951D01*
X218740680Y-74866086D01*
X218740676Y-74866082D01*
X218560620Y-74725940D01*
X218560619Y-74725939D01*
X218552517Y-74721554D01*
X218502928Y-74672337D01*
X218487818Y-74604121D01*
X218511988Y-74538565D01*
X218552517Y-74503445D01*
X218560619Y-74499061D01*
X218740677Y-74358917D01*
X218895213Y-74191047D01*
X219020010Y-74000030D01*
X219111664Y-73791078D01*
X219167677Y-73569891D01*
X219186519Y-73342500D01*
X219167677Y-73115109D01*
X219111664Y-72893922D01*
X219020010Y-72684970D01*
X218895213Y-72493953D01*
X218895212Y-72493951D01*
X218740680Y-72326086D01*
X218740676Y-72326082D01*
X218560620Y-72185940D01*
X218560619Y-72185939D01*
X218552517Y-72181554D01*
X218502928Y-72132337D01*
X218487818Y-72064121D01*
X218511988Y-71998565D01*
X218552517Y-71963445D01*
X218560619Y-71959061D01*
X218740677Y-71818917D01*
X218895213Y-71651047D01*
X219020010Y-71460030D01*
X219111664Y-71251078D01*
X219167677Y-71029891D01*
X219186519Y-70802500D01*
X219167677Y-70575109D01*
X219111664Y-70353922D01*
X219020010Y-70144970D01*
X218895213Y-69953953D01*
X218895212Y-69953951D01*
X218740680Y-69786086D01*
X218740676Y-69786082D01*
X218560620Y-69645939D01*
X218560616Y-69645937D01*
X218551989Y-69641268D01*
X218502400Y-69592047D01*
X218487294Y-69523829D01*
X218511467Y-69458275D01*
X218551997Y-69423158D01*
X218560341Y-69418642D01*
X218560349Y-69418637D01*
X218586910Y-69397963D01*
X217973603Y-68784656D01*
X218091412Y-68733485D01*
X218207862Y-68638746D01*
X218294433Y-68516103D01*
X218325300Y-68429248D01*
X218939063Y-69043011D01*
X219019569Y-68919787D01*
X219111190Y-68710915D01*
X219167182Y-68489804D01*
X219186016Y-68262505D01*
X219186016Y-68262494D01*
X219167182Y-68035195D01*
X219111190Y-67814084D01*
X219019568Y-67605209D01*
X218939063Y-67481987D01*
X218327630Y-68093420D01*
X218324406Y-68077903D01*
X218255342Y-67944614D01*
X218152877Y-67834902D01*
X218024612Y-67756902D01*
X217971832Y-67742113D01*
X218586910Y-67127036D01*
X218586909Y-67127035D01*
X218560349Y-67106362D01*
X218560348Y-67106361D01*
X218551468Y-67101556D01*
X218501877Y-67052337D01*
X218486767Y-66984121D01*
X218510937Y-66918565D01*
X218551468Y-66883444D01*
X218560346Y-66878639D01*
X218560349Y-66878637D01*
X218586910Y-66857963D01*
X217973603Y-66244656D01*
X218091412Y-66193485D01*
X218207862Y-66098746D01*
X218294433Y-65976103D01*
X218325300Y-65889248D01*
X218939063Y-66503011D01*
X219019569Y-66379787D01*
X219111190Y-66170915D01*
X219167182Y-65949804D01*
X219186016Y-65722505D01*
X219186016Y-65722494D01*
X219167182Y-65495195D01*
X219111190Y-65274084D01*
X219019568Y-65065209D01*
X218939063Y-64941987D01*
X218327630Y-65553419D01*
X218324406Y-65537903D01*
X218255342Y-65404614D01*
X218152877Y-65294902D01*
X218024612Y-65216902D01*
X217971833Y-65202114D01*
X218586910Y-64587037D01*
X218586909Y-64587035D01*
X218560349Y-64566362D01*
X218560339Y-64566355D01*
X218551990Y-64561837D01*
X218502401Y-64512617D01*
X218487294Y-64444400D01*
X218511466Y-64378845D01*
X218551995Y-64343728D01*
X218560612Y-64339065D01*
X218560619Y-64339061D01*
X218740677Y-64198917D01*
X218895213Y-64031047D01*
X219020010Y-63840030D01*
X219111664Y-63631078D01*
X219167677Y-63409891D01*
X219167678Y-63409883D01*
X219186519Y-63182505D01*
X219186519Y-63182494D01*
X219167678Y-62955116D01*
X219167677Y-62955113D01*
X219167677Y-62955109D01*
X219111664Y-62733922D01*
X219020010Y-62524970D01*
X218939662Y-62401987D01*
X218895212Y-62333951D01*
X218772920Y-62201108D01*
X218741997Y-62138454D01*
X218749857Y-62069028D01*
X218794004Y-62014872D01*
X218820817Y-62000943D01*
X218923626Y-61962598D01*
X218923626Y-61962597D01*
X218923631Y-61962596D01*
X219038846Y-61876346D01*
X219125096Y-61761131D01*
X219175391Y-61626283D01*
X219181800Y-61566673D01*
X219181799Y-59718328D01*
X219175391Y-59658717D01*
X219163220Y-59626086D01*
X219125097Y-59523871D01*
X219125093Y-59523864D01*
X219038847Y-59408655D01*
X219038844Y-59408652D01*
X218923635Y-59322406D01*
X218923628Y-59322402D01*
X218788782Y-59272108D01*
X218788783Y-59272108D01*
X218729183Y-59265701D01*
X218729181Y-59265700D01*
X218729173Y-59265700D01*
X218729164Y-59265700D01*
X216880829Y-59265700D01*
X216880823Y-59265701D01*
X216821216Y-59272108D01*
X216686371Y-59322402D01*
X216686364Y-59322406D01*
X216571155Y-59408652D01*
X216571152Y-59408655D01*
X216484906Y-59523864D01*
X216484902Y-59523871D01*
X216434608Y-59658717D01*
X216428658Y-59714063D01*
X216428201Y-59718323D01*
X216428200Y-59718335D01*
X216428200Y-61566670D01*
X216428201Y-61566676D01*
X216434608Y-61626283D01*
X216484902Y-61761128D01*
X216484906Y-61761135D01*
X216571152Y-61876344D01*
X216571155Y-61876347D01*
X216686364Y-61962593D01*
X216686371Y-61962597D01*
X216789183Y-62000943D01*
X216845116Y-62042814D01*
X216869534Y-62108278D01*
X216854683Y-62176551D01*
X216837080Y-62201108D01*
X216714784Y-62333955D01*
X216589989Y-62524970D01*
X216498335Y-62733922D01*
X216442323Y-62955108D01*
X216442321Y-62955116D01*
X216423481Y-63182494D01*
X216423481Y-63182505D01*
X216442321Y-63409883D01*
X216442323Y-63409891D01*
X216498335Y-63631077D01*
X216589989Y-63840029D01*
X216714787Y-64031048D01*
X216869319Y-64198913D01*
X216869323Y-64198917D01*
X217049379Y-64339060D01*
X217049387Y-64339065D01*
X217058007Y-64343730D01*
X217107598Y-64392950D01*
X217122705Y-64461166D01*
X217098534Y-64526722D01*
X217058009Y-64561837D01*
X217049661Y-64566354D01*
X217049646Y-64566364D01*
X217023089Y-64587034D01*
X217023089Y-64587036D01*
X217636396Y-65200343D01*
X217518588Y-65251515D01*
X217402138Y-65346254D01*
X217315567Y-65468897D01*
X217284699Y-65555752D01*
X216670935Y-64941988D01*
X216590431Y-65065210D01*
X216590429Y-65065214D01*
X216498809Y-65274084D01*
X216442817Y-65495195D01*
X216423983Y-65722494D01*
X216423983Y-65722505D01*
X216442817Y-65949804D01*
X216498809Y-66170915D01*
X216590431Y-66379790D01*
X216670934Y-66503010D01*
X217282368Y-65891577D01*
X217285594Y-65907097D01*
X217354658Y-66040386D01*
X217457123Y-66150098D01*
X217585388Y-66228098D01*
X217638166Y-66242885D01*
X217023088Y-66857962D01*
X217023089Y-66857963D01*
X217049651Y-66878637D01*
X217049652Y-66878638D01*
X217058530Y-66883443D01*
X217108121Y-66932662D01*
X217123231Y-67000879D01*
X217099061Y-67066435D01*
X217058540Y-67101549D01*
X217049662Y-67106354D01*
X217049646Y-67106364D01*
X217023089Y-67127034D01*
X217023089Y-67127036D01*
X217636396Y-67740343D01*
X217518588Y-67791515D01*
X217402138Y-67886254D01*
X217315567Y-68008897D01*
X217284699Y-68095752D01*
X216670935Y-67481988D01*
X216590431Y-67605210D01*
X216590429Y-67605214D01*
X216498809Y-67814084D01*
X216442817Y-68035195D01*
X216423983Y-68262494D01*
X216423983Y-68262505D01*
X216442817Y-68489804D01*
X216498809Y-68710915D01*
X216590431Y-68919790D01*
X216670934Y-69043010D01*
X217282368Y-68431577D01*
X217285594Y-68447097D01*
X217354658Y-68580386D01*
X217457123Y-68690098D01*
X217585388Y-68768098D01*
X217638166Y-68782885D01*
X217023088Y-69397962D01*
X217023089Y-69397963D01*
X217049651Y-69418637D01*
X217049657Y-69418641D01*
X217058006Y-69423160D01*
X217107597Y-69472379D01*
X217122705Y-69540595D01*
X217098535Y-69606151D01*
X217058014Y-69641266D01*
X217049383Y-69645937D01*
X217049379Y-69645939D01*
X216869323Y-69786082D01*
X216869319Y-69786086D01*
X216714787Y-69953951D01*
X216589989Y-70144970D01*
X216498335Y-70353922D01*
X216442323Y-70575108D01*
X216442321Y-70575116D01*
X216423481Y-70802494D01*
X216423481Y-70802505D01*
X216442321Y-71029883D01*
X216442323Y-71029891D01*
X216498335Y-71251077D01*
X216589989Y-71460029D01*
X216714787Y-71651048D01*
X216869319Y-71818913D01*
X216869323Y-71818917D01*
X217049379Y-71959060D01*
X217049383Y-71959062D01*
X217057483Y-71963446D01*
X217107073Y-72012666D01*
X217122180Y-72080883D01*
X217098008Y-72146439D01*
X217057483Y-72181554D01*
X217049383Y-72185937D01*
X217049379Y-72185939D01*
X216869323Y-72326082D01*
X216869319Y-72326086D01*
X216714787Y-72493951D01*
X216589989Y-72684970D01*
X216498335Y-72893922D01*
X216442323Y-73115108D01*
X216442321Y-73115116D01*
X216423481Y-73342494D01*
X216423481Y-73342505D01*
X216442321Y-73569883D01*
X216442323Y-73569891D01*
X216498335Y-73791077D01*
X216589989Y-74000029D01*
X216714787Y-74191048D01*
X216869319Y-74358913D01*
X216869323Y-74358917D01*
X217049379Y-74499060D01*
X217049383Y-74499062D01*
X217057483Y-74503446D01*
X217107073Y-74552666D01*
X217122180Y-74620883D01*
X217098008Y-74686439D01*
X217057483Y-74721554D01*
X217049383Y-74725937D01*
X217049379Y-74725939D01*
X216869323Y-74866082D01*
X216869319Y-74866086D01*
X216714787Y-75033951D01*
X216589989Y-75224970D01*
X216498335Y-75433922D01*
X216442323Y-75655108D01*
X216442321Y-75655116D01*
X216423481Y-75882494D01*
X216423481Y-75882505D01*
X216442321Y-76109883D01*
X216442323Y-76109891D01*
X216498335Y-76331077D01*
X216589989Y-76540029D01*
X216714787Y-76731048D01*
X216869319Y-76898913D01*
X216869323Y-76898917D01*
X217049379Y-77039060D01*
X217049383Y-77039062D01*
X217057483Y-77043446D01*
X217107073Y-77092666D01*
X217122180Y-77160883D01*
X217098008Y-77226439D01*
X217057483Y-77261554D01*
X217049383Y-77265937D01*
X217049379Y-77265939D01*
X216869323Y-77406082D01*
X216869319Y-77406086D01*
X216714787Y-77573951D01*
X216589989Y-77764970D01*
X216498335Y-77973922D01*
X216442323Y-78195108D01*
X216442321Y-78195116D01*
X216423481Y-78422494D01*
X216423481Y-78422505D01*
X216442321Y-78649883D01*
X216442323Y-78649891D01*
X216498335Y-78871077D01*
X216589989Y-79080029D01*
X216714787Y-79271048D01*
X216869319Y-79438913D01*
X216869323Y-79438917D01*
X217049379Y-79579060D01*
X217049380Y-79579060D01*
X217049381Y-79579061D01*
X217057477Y-79583442D01*
X217107069Y-79632659D01*
X217122181Y-79700875D01*
X217098013Y-79766431D01*
X217057490Y-79801549D01*
X217049388Y-79805934D01*
X217049379Y-79805939D01*
X216869323Y-79946082D01*
X216869319Y-79946086D01*
X216714787Y-80113951D01*
X216589989Y-80304970D01*
X216498335Y-80513922D01*
X216442323Y-80735108D01*
X216442321Y-80735116D01*
X216423481Y-80962494D01*
X216423481Y-80962505D01*
X216442321Y-81189883D01*
X216442323Y-81189891D01*
X216498335Y-81411077D01*
X216589989Y-81620029D01*
X216714787Y-81811048D01*
X216869319Y-81978913D01*
X216869323Y-81978917D01*
X217049379Y-82119060D01*
X217049383Y-82119062D01*
X217057483Y-82123446D01*
X217107073Y-82172666D01*
X217122180Y-82240883D01*
X217098008Y-82306439D01*
X217057483Y-82341554D01*
X217049383Y-82345937D01*
X217049379Y-82345939D01*
X216869323Y-82486082D01*
X216869319Y-82486086D01*
X216714787Y-82653951D01*
X216589989Y-82844970D01*
X216498335Y-83053922D01*
X216442323Y-83275108D01*
X216442321Y-83275116D01*
X216423481Y-83502494D01*
X216423481Y-83502505D01*
X216442321Y-83729883D01*
X216442323Y-83729891D01*
X216498335Y-83951077D01*
X216589989Y-84160029D01*
X216714787Y-84351048D01*
X216869319Y-84518913D01*
X216869323Y-84518917D01*
X217049379Y-84659060D01*
X217049383Y-84659062D01*
X217057483Y-84663446D01*
X217107073Y-84712666D01*
X217122180Y-84780883D01*
X217098008Y-84846439D01*
X217057483Y-84881554D01*
X217049383Y-84885937D01*
X217049379Y-84885939D01*
X216869323Y-85026082D01*
X216869319Y-85026086D01*
X216714787Y-85193951D01*
X216589989Y-85384970D01*
X216498335Y-85593922D01*
X216442323Y-85815108D01*
X216442321Y-85815116D01*
X216423481Y-86042494D01*
X216423481Y-86042505D01*
X216442321Y-86269883D01*
X216442323Y-86269891D01*
X216498335Y-86491077D01*
X216589989Y-86700029D01*
X216714787Y-86891048D01*
X216869319Y-87058913D01*
X216869323Y-87058917D01*
X217049379Y-87199060D01*
X217049383Y-87199062D01*
X217057483Y-87203446D01*
X217107073Y-87252666D01*
X217122180Y-87320883D01*
X217098008Y-87386439D01*
X217057483Y-87421554D01*
X217049383Y-87425937D01*
X217049379Y-87425939D01*
X216869323Y-87566082D01*
X216869319Y-87566086D01*
X216714787Y-87733951D01*
X216589989Y-87924970D01*
X216498335Y-88133922D01*
X216442323Y-88355108D01*
X216442321Y-88355116D01*
X216423481Y-88582494D01*
X216423481Y-88582505D01*
X158750500Y-88582505D01*
X158750500Y-84083702D01*
X162065660Y-84083702D01*
X162075887Y-84298401D01*
X162126563Y-84507291D01*
X162126565Y-84507295D01*
X162195873Y-84659059D01*
X162215854Y-84702810D01*
X162340534Y-84877899D01*
X162340535Y-84877900D01*
X162340540Y-84877906D01*
X162496094Y-85026225D01*
X162496096Y-85026226D01*
X162496097Y-85026227D01*
X162676920Y-85142435D01*
X162876468Y-85222322D01*
X162981997Y-85242660D01*
X163087527Y-85263000D01*
X163087528Y-85263000D01*
X163248612Y-85263000D01*
X163248618Y-85263000D01*
X163408971Y-85247688D01*
X163615209Y-85187131D01*
X163806259Y-85088638D01*
X163975217Y-84955768D01*
X164115976Y-84793324D01*
X164132837Y-84764121D01*
X164190962Y-84663444D01*
X164223448Y-84607177D01*
X164293750Y-84404054D01*
X164324339Y-84191297D01*
X164314112Y-83976596D01*
X164295829Y-83901232D01*
X164299154Y-83831443D01*
X164339682Y-83774529D01*
X164404547Y-83748561D01*
X164416334Y-83748000D01*
X164612099Y-83748000D01*
X164643520Y-83743680D01*
X164903555Y-83707940D01*
X165186841Y-83628567D01*
X165456682Y-83511359D01*
X165708049Y-83358499D01*
X165936260Y-83172835D01*
X166026715Y-83075980D01*
X166086856Y-83040423D01*
X166156677Y-83043025D01*
X166214008Y-83082962D01*
X166240646Y-83147555D01*
X166229816Y-83212814D01*
X166180433Y-83319232D01*
X166175882Y-83329040D01*
X166166744Y-83358499D01*
X166086854Y-83616035D01*
X166036874Y-83912342D01*
X166026833Y-84212667D01*
X166056910Y-84511642D01*
X166056911Y-84511649D01*
X166126568Y-84803941D01*
X166126571Y-84803953D01*
X166234566Y-85084353D01*
X166234573Y-85084368D01*
X166378979Y-85347875D01*
X166378983Y-85347881D01*
X166470296Y-85471812D01*
X166557223Y-85589790D01*
X166766121Y-85805789D01*
X167001946Y-85992018D01*
X167260487Y-86145152D01*
X167537133Y-86262460D01*
X167537136Y-86262460D01*
X167537139Y-86262462D01*
X167682039Y-86302153D01*
X167826946Y-86341848D01*
X168124755Y-86381900D01*
X168124760Y-86381900D01*
X168350041Y-86381900D01*
X168513513Y-86370955D01*
X168574819Y-86366852D01*
X168869287Y-86306999D01*
X169153151Y-86208431D01*
X169421343Y-86072907D01*
X169669080Y-85902846D01*
X169891939Y-85701282D01*
X170085943Y-85471812D01*
X170247631Y-85218532D01*
X170374118Y-84945960D01*
X170463146Y-84658962D01*
X170513126Y-84362658D01*
X170522453Y-84083702D01*
X172225660Y-84083702D01*
X172235887Y-84298401D01*
X172286563Y-84507291D01*
X172286565Y-84507295D01*
X172355873Y-84659059D01*
X172375854Y-84702810D01*
X172500534Y-84877899D01*
X172500535Y-84877900D01*
X172500540Y-84877906D01*
X172656094Y-85026225D01*
X172656096Y-85026226D01*
X172656097Y-85026227D01*
X172836920Y-85142435D01*
X173036468Y-85222322D01*
X173141997Y-85242660D01*
X173247527Y-85263000D01*
X173247528Y-85263000D01*
X173408612Y-85263000D01*
X173408618Y-85263000D01*
X173568971Y-85247688D01*
X173775209Y-85187131D01*
X173966259Y-85088638D01*
X174135217Y-84955768D01*
X174275976Y-84793324D01*
X174292837Y-84764121D01*
X174350962Y-84663444D01*
X174383448Y-84607177D01*
X174453750Y-84404054D01*
X174484339Y-84191297D01*
X174479214Y-84083702D01*
X181115660Y-84083702D01*
X181125887Y-84298401D01*
X181176563Y-84507291D01*
X181176565Y-84507295D01*
X181245873Y-84659059D01*
X181265854Y-84702810D01*
X181390534Y-84877899D01*
X181390535Y-84877900D01*
X181390540Y-84877906D01*
X181546094Y-85026225D01*
X181546096Y-85026226D01*
X181546097Y-85026227D01*
X181726920Y-85142435D01*
X181926468Y-85222322D01*
X182031997Y-85242661D01*
X182137527Y-85263000D01*
X182137528Y-85263000D01*
X182298612Y-85263000D01*
X182298618Y-85263000D01*
X182458971Y-85247688D01*
X182665209Y-85187131D01*
X182856259Y-85088638D01*
X183025217Y-84955768D01*
X183165976Y-84793324D01*
X183182837Y-84764121D01*
X183240962Y-84663444D01*
X183273448Y-84607177D01*
X183343750Y-84404054D01*
X183374339Y-84191297D01*
X183364112Y-83976596D01*
X183345829Y-83901232D01*
X183349154Y-83831443D01*
X183389682Y-83774529D01*
X183454547Y-83748561D01*
X183466334Y-83748000D01*
X183662099Y-83748000D01*
X183693520Y-83743680D01*
X183953555Y-83707940D01*
X184236841Y-83628567D01*
X184506682Y-83511359D01*
X184758049Y-83358499D01*
X184986260Y-83172835D01*
X185076715Y-83075980D01*
X185136856Y-83040423D01*
X185206677Y-83043025D01*
X185264008Y-83082962D01*
X185290646Y-83147555D01*
X185279816Y-83212814D01*
X185230433Y-83319232D01*
X185225882Y-83329040D01*
X185216744Y-83358499D01*
X185136854Y-83616035D01*
X185086874Y-83912342D01*
X185076833Y-84212667D01*
X185106910Y-84511642D01*
X185106911Y-84511649D01*
X185176568Y-84803941D01*
X185176571Y-84803953D01*
X185284566Y-85084353D01*
X185284573Y-85084368D01*
X185428979Y-85347875D01*
X185428983Y-85347881D01*
X185520296Y-85471812D01*
X185607223Y-85589790D01*
X185816121Y-85805789D01*
X186051946Y-85992018D01*
X186310487Y-86145152D01*
X186587133Y-86262460D01*
X186587136Y-86262460D01*
X186587139Y-86262462D01*
X186732039Y-86302153D01*
X186876946Y-86341848D01*
X187174755Y-86381900D01*
X187174760Y-86381900D01*
X187400041Y-86381900D01*
X187563513Y-86370955D01*
X187624819Y-86366852D01*
X187919287Y-86306999D01*
X188203151Y-86208431D01*
X188471343Y-86072907D01*
X188719080Y-85902846D01*
X188941939Y-85701282D01*
X189135943Y-85471812D01*
X189297631Y-85218532D01*
X189424118Y-84945960D01*
X189513146Y-84658962D01*
X189563126Y-84362658D01*
X189572453Y-84083702D01*
X191275660Y-84083702D01*
X191285887Y-84298401D01*
X191336563Y-84507291D01*
X191336565Y-84507295D01*
X191405873Y-84659059D01*
X191425854Y-84702810D01*
X191550534Y-84877899D01*
X191550535Y-84877900D01*
X191550540Y-84877906D01*
X191706094Y-85026225D01*
X191706096Y-85026226D01*
X191706097Y-85026227D01*
X191886920Y-85142435D01*
X192086468Y-85222322D01*
X192191997Y-85242661D01*
X192297527Y-85263000D01*
X192297528Y-85263000D01*
X192458612Y-85263000D01*
X192458618Y-85263000D01*
X192618971Y-85247688D01*
X192825209Y-85187131D01*
X193016259Y-85088638D01*
X193185217Y-84955768D01*
X193325976Y-84793324D01*
X193342837Y-84764121D01*
X193400962Y-84663444D01*
X193433448Y-84607177D01*
X193503750Y-84404054D01*
X193534339Y-84191297D01*
X193529214Y-84083702D01*
X200165660Y-84083702D01*
X200175887Y-84298401D01*
X200226563Y-84507291D01*
X200226565Y-84507295D01*
X200295873Y-84659059D01*
X200315854Y-84702810D01*
X200440534Y-84877899D01*
X200440535Y-84877900D01*
X200440540Y-84877906D01*
X200596094Y-85026225D01*
X200596096Y-85026226D01*
X200596097Y-85026227D01*
X200776920Y-85142435D01*
X200976468Y-85222322D01*
X201081997Y-85242660D01*
X201187527Y-85263000D01*
X201187528Y-85263000D01*
X201348612Y-85263000D01*
X201348618Y-85263000D01*
X201508971Y-85247688D01*
X201715209Y-85187131D01*
X201906259Y-85088638D01*
X202075217Y-84955768D01*
X202215976Y-84793324D01*
X202232837Y-84764121D01*
X202290962Y-84663444D01*
X202323448Y-84607177D01*
X202393750Y-84404054D01*
X202424339Y-84191297D01*
X202414112Y-83976596D01*
X202395829Y-83901232D01*
X202399154Y-83831443D01*
X202439682Y-83774529D01*
X202504547Y-83748561D01*
X202516334Y-83748000D01*
X202712099Y-83748000D01*
X202743520Y-83743680D01*
X203003555Y-83707940D01*
X203286841Y-83628567D01*
X203556682Y-83511359D01*
X203808049Y-83358499D01*
X204036260Y-83172835D01*
X204126715Y-83075980D01*
X204186856Y-83040423D01*
X204256677Y-83043025D01*
X204314008Y-83082962D01*
X204340646Y-83147555D01*
X204329816Y-83212814D01*
X204280433Y-83319232D01*
X204275882Y-83329040D01*
X204266744Y-83358499D01*
X204186854Y-83616035D01*
X204136874Y-83912342D01*
X204126833Y-84212667D01*
X204156910Y-84511642D01*
X204156911Y-84511649D01*
X204226568Y-84803941D01*
X204226571Y-84803953D01*
X204334566Y-85084353D01*
X204334573Y-85084368D01*
X204478979Y-85347875D01*
X204478983Y-85347881D01*
X204570296Y-85471812D01*
X204657223Y-85589790D01*
X204866121Y-85805789D01*
X205101946Y-85992018D01*
X205360487Y-86145152D01*
X205637133Y-86262460D01*
X205637136Y-86262460D01*
X205637139Y-86262462D01*
X205782039Y-86302153D01*
X205926946Y-86341848D01*
X206224755Y-86381900D01*
X206224760Y-86381900D01*
X206450041Y-86381900D01*
X206613513Y-86370955D01*
X206674819Y-86366852D01*
X206969287Y-86306999D01*
X207253151Y-86208431D01*
X207521343Y-86072907D01*
X207769080Y-85902846D01*
X207991939Y-85701282D01*
X208185943Y-85471812D01*
X208347631Y-85218532D01*
X208474118Y-84945960D01*
X208563146Y-84658962D01*
X208613126Y-84362658D01*
X208622453Y-84083702D01*
X210325660Y-84083702D01*
X210335887Y-84298401D01*
X210386563Y-84507291D01*
X210386565Y-84507295D01*
X210455873Y-84659059D01*
X210475854Y-84702810D01*
X210600534Y-84877899D01*
X210600535Y-84877900D01*
X210600540Y-84877906D01*
X210756094Y-85026225D01*
X210756096Y-85026226D01*
X210756097Y-85026227D01*
X210936920Y-85142435D01*
X211136468Y-85222322D01*
X211241997Y-85242660D01*
X211347527Y-85263000D01*
X211347528Y-85263000D01*
X211508612Y-85263000D01*
X211508618Y-85263000D01*
X211668971Y-85247688D01*
X211875209Y-85187131D01*
X212066259Y-85088638D01*
X212235217Y-84955768D01*
X212375976Y-84793324D01*
X212392837Y-84764121D01*
X212450962Y-84663444D01*
X212483448Y-84607177D01*
X212553750Y-84404054D01*
X212584339Y-84191297D01*
X212574112Y-83976596D01*
X212523437Y-83767710D01*
X212434146Y-83572190D01*
X212309466Y-83397101D01*
X212309464Y-83397099D01*
X212309459Y-83397093D01*
X212153905Y-83248774D01*
X211973080Y-83132565D01*
X211773530Y-83052677D01*
X211562473Y-83012000D01*
X211562472Y-83012000D01*
X211401382Y-83012000D01*
X211241028Y-83027312D01*
X211241029Y-83027312D01*
X211241025Y-83027313D01*
X211034793Y-83087868D01*
X210843736Y-83186364D01*
X210674785Y-83319229D01*
X210674782Y-83319233D01*
X210534021Y-83481678D01*
X210426553Y-83667819D01*
X210356251Y-83870942D01*
X210356250Y-83870944D01*
X210325661Y-84083700D01*
X210325660Y-84083702D01*
X208622453Y-84083702D01*
X208623167Y-84062336D01*
X208593089Y-83763355D01*
X208589563Y-83748561D01*
X208570322Y-83667819D01*
X208523430Y-83471051D01*
X208415431Y-83190640D01*
X208271021Y-82927125D01*
X208092777Y-82685210D01*
X207883879Y-82469211D01*
X207883872Y-82469205D01*
X207648055Y-82282983D01*
X207648056Y-82282983D01*
X207648054Y-82282982D01*
X207389513Y-82129848D01*
X207112867Y-82012540D01*
X207112860Y-82012537D01*
X206823059Y-81933153D01*
X206823056Y-81933152D01*
X206823054Y-81933152D01*
X206525245Y-81893100D01*
X206299967Y-81893100D01*
X206299959Y-81893100D01*
X206075183Y-81908147D01*
X206075174Y-81908149D01*
X205780710Y-81968001D01*
X205496847Y-82066569D01*
X205496844Y-82066571D01*
X205228662Y-82202089D01*
X204980918Y-82372155D01*
X204758062Y-82573716D01*
X204758056Y-82573722D01*
X204752901Y-82579820D01*
X204694584Y-82618304D01*
X204624720Y-82619149D01*
X204565489Y-82582089D01*
X204535697Y-82518889D01*
X204541372Y-82458233D01*
X204542072Y-82456264D01*
X204640592Y-82179054D01*
X204640592Y-82179049D01*
X204640595Y-82179043D01*
X204684449Y-81968001D01*
X204700448Y-81891011D01*
X204720525Y-81597500D01*
X204700448Y-81303989D01*
X204672075Y-81167449D01*
X204640595Y-81015956D01*
X204640590Y-81015940D01*
X204613851Y-80940704D01*
X204542072Y-80738736D01*
X204406722Y-80477524D01*
X204406721Y-80477522D01*
X204406717Y-80477516D01*
X204237067Y-80237176D01*
X204036256Y-80022161D01*
X203808045Y-79836498D01*
X203556680Y-79683639D01*
X203556675Y-79683637D01*
X203286845Y-79566434D01*
X203003560Y-79487061D01*
X203003556Y-79487060D01*
X203003555Y-79487060D01*
X202857826Y-79467030D01*
X202712099Y-79447000D01*
X202712098Y-79447000D01*
X202417902Y-79447000D01*
X202417901Y-79447000D01*
X202126445Y-79487060D01*
X202126439Y-79487061D01*
X201843154Y-79566434D01*
X201573324Y-79683637D01*
X201573319Y-79683639D01*
X201321954Y-79836498D01*
X201093743Y-80022161D01*
X200892932Y-80237176D01*
X200723282Y-80477516D01*
X200723278Y-80477522D01*
X200587927Y-80738737D01*
X200489409Y-81015940D01*
X200489404Y-81015956D01*
X200429552Y-81303986D01*
X200429551Y-81303988D01*
X200409475Y-81597500D01*
X200429551Y-81891011D01*
X200429552Y-81891013D01*
X200489404Y-82179043D01*
X200489409Y-82179059D01*
X200587927Y-82456262D01*
X200723278Y-82717477D01*
X200723282Y-82717483D01*
X200873215Y-82929890D01*
X200895794Y-82996011D01*
X200879041Y-83063842D01*
X200828732Y-83111613D01*
X200683738Y-83186363D01*
X200514785Y-83319229D01*
X200514782Y-83319233D01*
X200374021Y-83481678D01*
X200266553Y-83667819D01*
X200196251Y-83870942D01*
X200196250Y-83870944D01*
X200165661Y-84083700D01*
X200165660Y-84083702D01*
X193529214Y-84083702D01*
X193524112Y-83976596D01*
X193473437Y-83767710D01*
X193384146Y-83572190D01*
X193259466Y-83397101D01*
X193259464Y-83397099D01*
X193259459Y-83397093D01*
X193103905Y-83248774D01*
X192923080Y-83132565D01*
X192723530Y-83052677D01*
X192512473Y-83012000D01*
X192512472Y-83012000D01*
X192351382Y-83012000D01*
X192191028Y-83027312D01*
X192191029Y-83027312D01*
X192191025Y-83027313D01*
X191984793Y-83087868D01*
X191793736Y-83186364D01*
X191624785Y-83319229D01*
X191624782Y-83319233D01*
X191484021Y-83481678D01*
X191376553Y-83667819D01*
X191306251Y-83870942D01*
X191306250Y-83870944D01*
X191275661Y-84083700D01*
X191275660Y-84083702D01*
X189572453Y-84083702D01*
X189573167Y-84062336D01*
X189543089Y-83763355D01*
X189539563Y-83748561D01*
X189520322Y-83667819D01*
X189473430Y-83471051D01*
X189365431Y-83190640D01*
X189221021Y-82927125D01*
X189042777Y-82685210D01*
X188833879Y-82469211D01*
X188833872Y-82469205D01*
X188598055Y-82282983D01*
X188598056Y-82282983D01*
X188598054Y-82282982D01*
X188339513Y-82129848D01*
X188062867Y-82012540D01*
X188062860Y-82012537D01*
X187773059Y-81933153D01*
X187773056Y-81933152D01*
X187773054Y-81933152D01*
X187475245Y-81893100D01*
X187249967Y-81893100D01*
X187249959Y-81893100D01*
X187025183Y-81908147D01*
X187025174Y-81908149D01*
X186730710Y-81968001D01*
X186446847Y-82066569D01*
X186446844Y-82066571D01*
X186178662Y-82202089D01*
X185930918Y-82372155D01*
X185708062Y-82573716D01*
X185708056Y-82573722D01*
X185702901Y-82579820D01*
X185644584Y-82618304D01*
X185574720Y-82619149D01*
X185515489Y-82582089D01*
X185485697Y-82518889D01*
X185491372Y-82458233D01*
X185492072Y-82456264D01*
X185590592Y-82179054D01*
X185590592Y-82179049D01*
X185590595Y-82179043D01*
X185634449Y-81968001D01*
X185650448Y-81891011D01*
X185670525Y-81597500D01*
X185650448Y-81303989D01*
X185622075Y-81167449D01*
X185590595Y-81015956D01*
X185590590Y-81015940D01*
X185563851Y-80940704D01*
X185492072Y-80738736D01*
X185356722Y-80477524D01*
X185356721Y-80477522D01*
X185356717Y-80477516D01*
X185187067Y-80237176D01*
X184986256Y-80022161D01*
X184758045Y-79836498D01*
X184506680Y-79683639D01*
X184506675Y-79683637D01*
X184236845Y-79566434D01*
X183953560Y-79487061D01*
X183953556Y-79487060D01*
X183953555Y-79487060D01*
X183807826Y-79467030D01*
X183662099Y-79447000D01*
X183662098Y-79447000D01*
X183367902Y-79447000D01*
X183367901Y-79447000D01*
X183076445Y-79487060D01*
X183076439Y-79487061D01*
X182793154Y-79566434D01*
X182523324Y-79683637D01*
X182523319Y-79683639D01*
X182271954Y-79836498D01*
X182043743Y-80022161D01*
X181842932Y-80237176D01*
X181673282Y-80477516D01*
X181673278Y-80477522D01*
X181537927Y-80738737D01*
X181439409Y-81015940D01*
X181439404Y-81015956D01*
X181379552Y-81303986D01*
X181379551Y-81303988D01*
X181359475Y-81597499D01*
X181379551Y-81891011D01*
X181379552Y-81891013D01*
X181439404Y-82179043D01*
X181439409Y-82179059D01*
X181537927Y-82456262D01*
X181673278Y-82717477D01*
X181673282Y-82717483D01*
X181823215Y-82929890D01*
X181845794Y-82996011D01*
X181829041Y-83063842D01*
X181778732Y-83111613D01*
X181633738Y-83186363D01*
X181464785Y-83319229D01*
X181464782Y-83319233D01*
X181324021Y-83481678D01*
X181216553Y-83667819D01*
X181146251Y-83870942D01*
X181146250Y-83870944D01*
X181115661Y-84083700D01*
X181115660Y-84083702D01*
X174479214Y-84083702D01*
X174474112Y-83976596D01*
X174423437Y-83767710D01*
X174334146Y-83572190D01*
X174209466Y-83397101D01*
X174209464Y-83397099D01*
X174209459Y-83397093D01*
X174053905Y-83248774D01*
X173873080Y-83132565D01*
X173673530Y-83052677D01*
X173462473Y-83012000D01*
X173462472Y-83012000D01*
X173301382Y-83012000D01*
X173141028Y-83027312D01*
X173141029Y-83027312D01*
X173141025Y-83027313D01*
X172934793Y-83087868D01*
X172743736Y-83186364D01*
X172574785Y-83319229D01*
X172574782Y-83319233D01*
X172434021Y-83481678D01*
X172326553Y-83667819D01*
X172256251Y-83870942D01*
X172256250Y-83870944D01*
X172225661Y-84083700D01*
X172225660Y-84083702D01*
X170522453Y-84083702D01*
X170523167Y-84062336D01*
X170493089Y-83763355D01*
X170489563Y-83748561D01*
X170470322Y-83667819D01*
X170423430Y-83471051D01*
X170315431Y-83190640D01*
X170171021Y-82927125D01*
X169992777Y-82685210D01*
X169783879Y-82469211D01*
X169783872Y-82469205D01*
X169548055Y-82282983D01*
X169548056Y-82282983D01*
X169548054Y-82282982D01*
X169289513Y-82129848D01*
X169012867Y-82012540D01*
X169012860Y-82012537D01*
X168723059Y-81933153D01*
X168723056Y-81933152D01*
X168723054Y-81933152D01*
X168425245Y-81893100D01*
X168199967Y-81893100D01*
X168199959Y-81893100D01*
X167975183Y-81908147D01*
X167975174Y-81908149D01*
X167680710Y-81968001D01*
X167396847Y-82066569D01*
X167396844Y-82066571D01*
X167128662Y-82202089D01*
X166880918Y-82372155D01*
X166658062Y-82573716D01*
X166658056Y-82573722D01*
X166652901Y-82579820D01*
X166594584Y-82618304D01*
X166524720Y-82619149D01*
X166465489Y-82582089D01*
X166435697Y-82518889D01*
X166441372Y-82458233D01*
X166442072Y-82456264D01*
X166540592Y-82179054D01*
X166540592Y-82179049D01*
X166540595Y-82179043D01*
X166584449Y-81968001D01*
X166600448Y-81891011D01*
X166620525Y-81597500D01*
X166600448Y-81303989D01*
X166572075Y-81167449D01*
X166540595Y-81015956D01*
X166540590Y-81015940D01*
X166513851Y-80940704D01*
X166442072Y-80738736D01*
X166306722Y-80477524D01*
X166306721Y-80477522D01*
X166306717Y-80477516D01*
X166137067Y-80237176D01*
X165936256Y-80022161D01*
X165708045Y-79836498D01*
X165456680Y-79683639D01*
X165456675Y-79683637D01*
X165186845Y-79566434D01*
X164903560Y-79487061D01*
X164903556Y-79487060D01*
X164903555Y-79487060D01*
X164757826Y-79467030D01*
X164612099Y-79447000D01*
X164612098Y-79447000D01*
X164317902Y-79447000D01*
X164317901Y-79447000D01*
X164026445Y-79487060D01*
X164026439Y-79487061D01*
X163743154Y-79566434D01*
X163473324Y-79683637D01*
X163473319Y-79683639D01*
X163221954Y-79836498D01*
X162993743Y-80022161D01*
X162792932Y-80237176D01*
X162623282Y-80477516D01*
X162623278Y-80477522D01*
X162487927Y-80738737D01*
X162389409Y-81015940D01*
X162389404Y-81015956D01*
X162329552Y-81303986D01*
X162329551Y-81303988D01*
X162309475Y-81597500D01*
X162329551Y-81891011D01*
X162329552Y-81891013D01*
X162389404Y-82179043D01*
X162389409Y-82179059D01*
X162487927Y-82456262D01*
X162623278Y-82717477D01*
X162623282Y-82717483D01*
X162773215Y-82929890D01*
X162795794Y-82996011D01*
X162779041Y-83063842D01*
X162728732Y-83111613D01*
X162583738Y-83186363D01*
X162414785Y-83319229D01*
X162414782Y-83319233D01*
X162274021Y-83481678D01*
X162166553Y-83667819D01*
X162096251Y-83870942D01*
X162096250Y-83870944D01*
X162065661Y-84083700D01*
X162065660Y-84083702D01*
X158750500Y-84083702D01*
X158750500Y-79057500D01*
X168659976Y-79057500D01*
X168680047Y-79350936D01*
X168739890Y-79638921D01*
X168739891Y-79638924D01*
X168838386Y-79916060D01*
X168838385Y-79916060D01*
X168973706Y-80177216D01*
X169125991Y-80392953D01*
X169591388Y-79927555D01*
X169707632Y-80076904D01*
X169890523Y-80245268D01*
X169945116Y-80280935D01*
X169481658Y-80744394D01*
X169572240Y-80818090D01*
X169572246Y-80818094D01*
X169823550Y-80970915D01*
X170093322Y-81088093D01*
X170376541Y-81167448D01*
X170376547Y-81167449D01*
X170667935Y-81207500D01*
X170962065Y-81207500D01*
X171253452Y-81167449D01*
X171253458Y-81167448D01*
X171536677Y-81088093D01*
X171806449Y-80970915D01*
X172057753Y-80818094D01*
X172057767Y-80818084D01*
X172148340Y-80744395D01*
X172148341Y-80744394D01*
X171684883Y-80280935D01*
X171739477Y-80245268D01*
X171922368Y-80076904D01*
X172038610Y-79927556D01*
X172504007Y-80392953D01*
X172504008Y-80392953D01*
X172656293Y-80177216D01*
X172791613Y-79916060D01*
X172890108Y-79638924D01*
X172890109Y-79638921D01*
X172949952Y-79350936D01*
X172970023Y-79057499D01*
X187709976Y-79057499D01*
X187730047Y-79350936D01*
X187789890Y-79638921D01*
X187789891Y-79638924D01*
X187888386Y-79916060D01*
X187888385Y-79916060D01*
X188023706Y-80177216D01*
X188175991Y-80392953D01*
X188641388Y-79927555D01*
X188757632Y-80076904D01*
X188940523Y-80245268D01*
X188995116Y-80280935D01*
X188531658Y-80744394D01*
X188622240Y-80818090D01*
X188622246Y-80818094D01*
X188873550Y-80970915D01*
X189143322Y-81088093D01*
X189426541Y-81167448D01*
X189426547Y-81167449D01*
X189717935Y-81207500D01*
X190012065Y-81207500D01*
X190303452Y-81167449D01*
X190303458Y-81167448D01*
X190586677Y-81088093D01*
X190856449Y-80970915D01*
X191107753Y-80818094D01*
X191107767Y-80818084D01*
X191198340Y-80744395D01*
X191198341Y-80744394D01*
X190734883Y-80280935D01*
X190789477Y-80245268D01*
X190972368Y-80076904D01*
X191088610Y-79927556D01*
X191554007Y-80392953D01*
X191554008Y-80392953D01*
X191706293Y-80177216D01*
X191841613Y-79916060D01*
X191940108Y-79638924D01*
X191940109Y-79638921D01*
X191999952Y-79350936D01*
X192020023Y-79057500D01*
X206759976Y-79057500D01*
X206780047Y-79350936D01*
X206839890Y-79638921D01*
X206839891Y-79638924D01*
X206938386Y-79916060D01*
X206938385Y-79916060D01*
X207073706Y-80177216D01*
X207225991Y-80392953D01*
X207691388Y-79927555D01*
X207807632Y-80076904D01*
X207990523Y-80245268D01*
X208045116Y-80280935D01*
X207581658Y-80744394D01*
X207672240Y-80818090D01*
X207672246Y-80818094D01*
X207923550Y-80970915D01*
X208193322Y-81088093D01*
X208476541Y-81167448D01*
X208476547Y-81167449D01*
X208767935Y-81207500D01*
X209062065Y-81207500D01*
X209353452Y-81167449D01*
X209353458Y-81167448D01*
X209636677Y-81088093D01*
X209906449Y-80970915D01*
X210157753Y-80818094D01*
X210157767Y-80818084D01*
X210248340Y-80744395D01*
X210248341Y-80744394D01*
X209784883Y-80280935D01*
X209839477Y-80245268D01*
X210022368Y-80076904D01*
X210138610Y-79927556D01*
X210604007Y-80392953D01*
X210604008Y-80392953D01*
X210756293Y-80177216D01*
X210891613Y-79916060D01*
X210990108Y-79638924D01*
X210990109Y-79638921D01*
X211049952Y-79350936D01*
X211070023Y-79057500D01*
X211049952Y-78764063D01*
X210990109Y-78476078D01*
X210990108Y-78476075D01*
X210891613Y-78198939D01*
X210891614Y-78198939D01*
X210756293Y-77937783D01*
X210604007Y-77722045D01*
X210138609Y-78187442D01*
X210022368Y-78038096D01*
X209839477Y-77869732D01*
X209784882Y-77834063D01*
X210248341Y-77370604D01*
X210157756Y-77296907D01*
X209906449Y-77144084D01*
X209636677Y-77026906D01*
X209353458Y-76947551D01*
X209353452Y-76947550D01*
X209062065Y-76907500D01*
X208767935Y-76907500D01*
X208476547Y-76947550D01*
X208476541Y-76947551D01*
X208193322Y-77026906D01*
X207923550Y-77144084D01*
X207672243Y-77296907D01*
X207581657Y-77370604D01*
X208045117Y-77834063D01*
X207990523Y-77869732D01*
X207807632Y-78038096D01*
X207691389Y-78187443D01*
X207225991Y-77722045D01*
X207225990Y-77722045D01*
X207073710Y-77937776D01*
X207073706Y-77937782D01*
X206938386Y-78198939D01*
X206839891Y-78476075D01*
X206839890Y-78476078D01*
X206780047Y-78764063D01*
X206759976Y-79057500D01*
X192020023Y-79057500D01*
X191999952Y-78764063D01*
X191940109Y-78476078D01*
X191940108Y-78476075D01*
X191841613Y-78198939D01*
X191841614Y-78198939D01*
X191706293Y-77937783D01*
X191554007Y-77722045D01*
X191088609Y-78187442D01*
X190972368Y-78038096D01*
X190789477Y-77869732D01*
X190734882Y-77834063D01*
X191198341Y-77370604D01*
X191107756Y-77296907D01*
X190856449Y-77144084D01*
X190586677Y-77026906D01*
X190303458Y-76947551D01*
X190303452Y-76947550D01*
X190012065Y-76907500D01*
X189717935Y-76907500D01*
X189426547Y-76947550D01*
X189426541Y-76947551D01*
X189143322Y-77026906D01*
X188873550Y-77144084D01*
X188622243Y-77296907D01*
X188531657Y-77370604D01*
X188995117Y-77834063D01*
X188940523Y-77869732D01*
X188757632Y-78038096D01*
X188641389Y-78187442D01*
X188175991Y-77722044D01*
X188175990Y-77722045D01*
X188023710Y-77937776D01*
X188023706Y-77937782D01*
X187888386Y-78198939D01*
X187789891Y-78476075D01*
X187789890Y-78476078D01*
X187730047Y-78764063D01*
X187709976Y-79057499D01*
X172970023Y-79057499D01*
X172949952Y-78764063D01*
X172890109Y-78476078D01*
X172890108Y-78476075D01*
X172791613Y-78198939D01*
X172791614Y-78198939D01*
X172656293Y-77937783D01*
X172504007Y-77722045D01*
X172038609Y-78187442D01*
X171922368Y-78038096D01*
X171739477Y-77869732D01*
X171684882Y-77834063D01*
X172148341Y-77370604D01*
X172057756Y-77296907D01*
X171806449Y-77144084D01*
X171536677Y-77026906D01*
X171253458Y-76947551D01*
X171253452Y-76947550D01*
X170962065Y-76907500D01*
X170667935Y-76907500D01*
X170376547Y-76947550D01*
X170376541Y-76947551D01*
X170093322Y-77026906D01*
X169823550Y-77144084D01*
X169572243Y-77296907D01*
X169481657Y-77370604D01*
X169945117Y-77834063D01*
X169890523Y-77869732D01*
X169707632Y-78038096D01*
X169591390Y-78187442D01*
X169125991Y-77722044D01*
X169125990Y-77722045D01*
X168973710Y-77937776D01*
X168973706Y-77937782D01*
X168838386Y-78198939D01*
X168739891Y-78476075D01*
X168739890Y-78476078D01*
X168680047Y-78764063D01*
X168659976Y-79057500D01*
X158750500Y-79057500D01*
X158750500Y-65033702D01*
X162065660Y-65033702D01*
X162075887Y-65248401D01*
X162126563Y-65457291D01*
X162126565Y-65457295D01*
X162163377Y-65537903D01*
X162215854Y-65652810D01*
X162340534Y-65827899D01*
X162340535Y-65827900D01*
X162340540Y-65827906D01*
X162496094Y-65976225D01*
X162496096Y-65976226D01*
X162496097Y-65976227D01*
X162676920Y-66092435D01*
X162876468Y-66172322D01*
X162981997Y-66192660D01*
X163087527Y-66213000D01*
X163087528Y-66213000D01*
X163248612Y-66213000D01*
X163248618Y-66213000D01*
X163408971Y-66197688D01*
X163615209Y-66137131D01*
X163806259Y-66038638D01*
X163975217Y-65905768D01*
X164115976Y-65743324D01*
X164149718Y-65684882D01*
X164223446Y-65557180D01*
X164223448Y-65557177D01*
X164293750Y-65354054D01*
X164324339Y-65141297D01*
X164314112Y-64926596D01*
X164295829Y-64851232D01*
X164299154Y-64781443D01*
X164339682Y-64724529D01*
X164404547Y-64698561D01*
X164416334Y-64698000D01*
X164612099Y-64698000D01*
X164643520Y-64693680D01*
X164903555Y-64657940D01*
X165186841Y-64578567D01*
X165456682Y-64461359D01*
X165708049Y-64308499D01*
X165936260Y-64122835D01*
X166026715Y-64025980D01*
X166086856Y-63990423D01*
X166156677Y-63993025D01*
X166214008Y-64032962D01*
X166240646Y-64097555D01*
X166229816Y-64162814D01*
X166180433Y-64269232D01*
X166175882Y-64279040D01*
X166155992Y-64343160D01*
X166086854Y-64566035D01*
X166036874Y-64862342D01*
X166026833Y-65162667D01*
X166056910Y-65461642D01*
X166056911Y-65461649D01*
X166126568Y-65753941D01*
X166126571Y-65753953D01*
X166234566Y-66034353D01*
X166234573Y-66034368D01*
X166378979Y-66297875D01*
X166378983Y-66297881D01*
X166470296Y-66421812D01*
X166557223Y-66539790D01*
X166766121Y-66755789D01*
X167001946Y-66942018D01*
X167260487Y-67095152D01*
X167537133Y-67212460D01*
X167537136Y-67212460D01*
X167537139Y-67212462D01*
X167659873Y-67246082D01*
X167826946Y-67291848D01*
X168124755Y-67331900D01*
X168124760Y-67331900D01*
X168350041Y-67331900D01*
X168513513Y-67320956D01*
X168574819Y-67316852D01*
X168869287Y-67256999D01*
X169153151Y-67158431D01*
X169421343Y-67022907D01*
X169669080Y-66852846D01*
X169891939Y-66651282D01*
X170085943Y-66421812D01*
X170247631Y-66168532D01*
X170374118Y-65895960D01*
X170463146Y-65608962D01*
X170513126Y-65312658D01*
X170522453Y-65033702D01*
X172225660Y-65033702D01*
X172235887Y-65248401D01*
X172286563Y-65457291D01*
X172286565Y-65457295D01*
X172323377Y-65537903D01*
X172375854Y-65652810D01*
X172500534Y-65827899D01*
X172500535Y-65827900D01*
X172500540Y-65827906D01*
X172656094Y-65976225D01*
X172656096Y-65976226D01*
X172656097Y-65976227D01*
X172836920Y-66092435D01*
X173036468Y-66172322D01*
X173141997Y-66192661D01*
X173247527Y-66213000D01*
X173247528Y-66213000D01*
X173408612Y-66213000D01*
X173408618Y-66213000D01*
X173568971Y-66197688D01*
X173775209Y-66137131D01*
X173966259Y-66038638D01*
X174135217Y-65905768D01*
X174275976Y-65743324D01*
X174309718Y-65684882D01*
X174383446Y-65557180D01*
X174383448Y-65557177D01*
X174453750Y-65354054D01*
X174484339Y-65141297D01*
X174479214Y-65033702D01*
X181115660Y-65033702D01*
X181125887Y-65248401D01*
X181176563Y-65457291D01*
X181176565Y-65457295D01*
X181213377Y-65537903D01*
X181265854Y-65652810D01*
X181390534Y-65827899D01*
X181390535Y-65827900D01*
X181390540Y-65827906D01*
X181546094Y-65976225D01*
X181546096Y-65976226D01*
X181546097Y-65976227D01*
X181726920Y-66092435D01*
X181926468Y-66172322D01*
X182031998Y-66192661D01*
X182137527Y-66213000D01*
X182137528Y-66213000D01*
X182298612Y-66213000D01*
X182298618Y-66213000D01*
X182458971Y-66197688D01*
X182665209Y-66137131D01*
X182856259Y-66038638D01*
X183025217Y-65905768D01*
X183165976Y-65743324D01*
X183199718Y-65684882D01*
X183273446Y-65557180D01*
X183273448Y-65557177D01*
X183343750Y-65354054D01*
X183374339Y-65141297D01*
X183364112Y-64926596D01*
X183345829Y-64851232D01*
X183349154Y-64781443D01*
X183389682Y-64724529D01*
X183454547Y-64698561D01*
X183466334Y-64698000D01*
X183662099Y-64698000D01*
X183693520Y-64693680D01*
X183953555Y-64657940D01*
X184236841Y-64578567D01*
X184506682Y-64461359D01*
X184758049Y-64308499D01*
X184986260Y-64122835D01*
X185076715Y-64025980D01*
X185136856Y-63990423D01*
X185206677Y-63993025D01*
X185264008Y-64032962D01*
X185290646Y-64097555D01*
X185279816Y-64162814D01*
X185230433Y-64269232D01*
X185225882Y-64279040D01*
X185205992Y-64343160D01*
X185136854Y-64566035D01*
X185086874Y-64862342D01*
X185076833Y-65162667D01*
X185106910Y-65461642D01*
X185106911Y-65461649D01*
X185176568Y-65753941D01*
X185176571Y-65753953D01*
X185284566Y-66034353D01*
X185284573Y-66034368D01*
X185428979Y-66297875D01*
X185428983Y-66297881D01*
X185520296Y-66421812D01*
X185607223Y-66539790D01*
X185816121Y-66755789D01*
X186051946Y-66942018D01*
X186310487Y-67095152D01*
X186587133Y-67212460D01*
X186587136Y-67212460D01*
X186587139Y-67212462D01*
X186709873Y-67246082D01*
X186876946Y-67291848D01*
X187174755Y-67331900D01*
X187174760Y-67331900D01*
X187400041Y-67331900D01*
X187563513Y-67320956D01*
X187624819Y-67316852D01*
X187919287Y-67256999D01*
X188203151Y-67158431D01*
X188471343Y-67022907D01*
X188719080Y-66852846D01*
X188941939Y-66651282D01*
X189135943Y-66421812D01*
X189297631Y-66168532D01*
X189424118Y-65895960D01*
X189513146Y-65608962D01*
X189563126Y-65312658D01*
X189572453Y-65033702D01*
X191275660Y-65033702D01*
X191285887Y-65248401D01*
X191336563Y-65457291D01*
X191336565Y-65457295D01*
X191373377Y-65537903D01*
X191425854Y-65652810D01*
X191550534Y-65827899D01*
X191550535Y-65827900D01*
X191550540Y-65827906D01*
X191706094Y-65976225D01*
X191706096Y-65976226D01*
X191706097Y-65976227D01*
X191886920Y-66092435D01*
X192086468Y-66172322D01*
X192191998Y-66192661D01*
X192297527Y-66213000D01*
X192297528Y-66213000D01*
X192458612Y-66213000D01*
X192458618Y-66213000D01*
X192618971Y-66197688D01*
X192825209Y-66137131D01*
X193016259Y-66038638D01*
X193185217Y-65905768D01*
X193325976Y-65743324D01*
X193359718Y-65684882D01*
X193433446Y-65557180D01*
X193433448Y-65557177D01*
X193503750Y-65354054D01*
X193534339Y-65141297D01*
X193529214Y-65033702D01*
X200165660Y-65033702D01*
X200175887Y-65248401D01*
X200226563Y-65457291D01*
X200226565Y-65457295D01*
X200263377Y-65537903D01*
X200315854Y-65652810D01*
X200440534Y-65827899D01*
X200440535Y-65827900D01*
X200440540Y-65827906D01*
X200596094Y-65976225D01*
X200596096Y-65976226D01*
X200596097Y-65976227D01*
X200776920Y-66092435D01*
X200976468Y-66172322D01*
X201081997Y-66192661D01*
X201187527Y-66213000D01*
X201187528Y-66213000D01*
X201348612Y-66213000D01*
X201348618Y-66213000D01*
X201508971Y-66197688D01*
X201715209Y-66137131D01*
X201906259Y-66038638D01*
X202075217Y-65905768D01*
X202215976Y-65743324D01*
X202249718Y-65684882D01*
X202323446Y-65557180D01*
X202323448Y-65557177D01*
X202393750Y-65354054D01*
X202424339Y-65141297D01*
X202414112Y-64926596D01*
X202395829Y-64851232D01*
X202399154Y-64781443D01*
X202439682Y-64724529D01*
X202504547Y-64698561D01*
X202516334Y-64698000D01*
X202712099Y-64698000D01*
X202743520Y-64693680D01*
X203003555Y-64657940D01*
X203286841Y-64578567D01*
X203556682Y-64461359D01*
X203808049Y-64308499D01*
X204036260Y-64122835D01*
X204126715Y-64025980D01*
X204186856Y-63990423D01*
X204256677Y-63993025D01*
X204314008Y-64032962D01*
X204340646Y-64097555D01*
X204329816Y-64162814D01*
X204280433Y-64269232D01*
X204275882Y-64279040D01*
X204255992Y-64343160D01*
X204186854Y-64566035D01*
X204136874Y-64862342D01*
X204126833Y-65162667D01*
X204156910Y-65461642D01*
X204156911Y-65461649D01*
X204226568Y-65753941D01*
X204226571Y-65753953D01*
X204334566Y-66034353D01*
X204334573Y-66034368D01*
X204478979Y-66297875D01*
X204478983Y-66297881D01*
X204570296Y-66421812D01*
X204657223Y-66539790D01*
X204866121Y-66755789D01*
X205101946Y-66942018D01*
X205360487Y-67095152D01*
X205637133Y-67212460D01*
X205637136Y-67212460D01*
X205637139Y-67212462D01*
X205759873Y-67246082D01*
X205926946Y-67291848D01*
X206224755Y-67331900D01*
X206224760Y-67331900D01*
X206450041Y-67331900D01*
X206613513Y-67320956D01*
X206674819Y-67316852D01*
X206969287Y-67256999D01*
X207253151Y-67158431D01*
X207521343Y-67022907D01*
X207769080Y-66852846D01*
X207991939Y-66651282D01*
X208185943Y-66421812D01*
X208347631Y-66168532D01*
X208474118Y-65895960D01*
X208563146Y-65608962D01*
X208613126Y-65312658D01*
X208622453Y-65033702D01*
X210325660Y-65033702D01*
X210335887Y-65248401D01*
X210386563Y-65457291D01*
X210386565Y-65457295D01*
X210423377Y-65537903D01*
X210475854Y-65652810D01*
X210600534Y-65827899D01*
X210600535Y-65827900D01*
X210600540Y-65827906D01*
X210756094Y-65976225D01*
X210756096Y-65976226D01*
X210756097Y-65976227D01*
X210936920Y-66092435D01*
X211136468Y-66172322D01*
X211241998Y-66192661D01*
X211347527Y-66213000D01*
X211347528Y-66213000D01*
X211508612Y-66213000D01*
X211508618Y-66213000D01*
X211668971Y-66197688D01*
X211875209Y-66137131D01*
X212066259Y-66038638D01*
X212235217Y-65905768D01*
X212375976Y-65743324D01*
X212409718Y-65684882D01*
X212483446Y-65557180D01*
X212483448Y-65557177D01*
X212553750Y-65354054D01*
X212584339Y-65141297D01*
X212574112Y-64926596D01*
X212523437Y-64717710D01*
X212434146Y-64522190D01*
X212309466Y-64347101D01*
X212309464Y-64347099D01*
X212309459Y-64347093D01*
X212153905Y-64198774D01*
X211973080Y-64082565D01*
X211773530Y-64002677D01*
X211562473Y-63962000D01*
X211562472Y-63962000D01*
X211401382Y-63962000D01*
X211241028Y-63977312D01*
X211241029Y-63977312D01*
X211241025Y-63977313D01*
X211034793Y-64037868D01*
X210843736Y-64136364D01*
X210674785Y-64269229D01*
X210674782Y-64269233D01*
X210534021Y-64431678D01*
X210426553Y-64617819D01*
X210356251Y-64820942D01*
X210356250Y-64820944D01*
X210325661Y-65033700D01*
X210325660Y-65033702D01*
X208622453Y-65033702D01*
X208623167Y-65012336D01*
X208593089Y-64713355D01*
X208589563Y-64698561D01*
X208562986Y-64587036D01*
X208523430Y-64421051D01*
X208415431Y-64140640D01*
X208271021Y-63877125D01*
X208092777Y-63635210D01*
X207883879Y-63419211D01*
X207883872Y-63419205D01*
X207648055Y-63232983D01*
X207648056Y-63232983D01*
X207648054Y-63232982D01*
X207389513Y-63079848D01*
X207112867Y-62962540D01*
X207112860Y-62962537D01*
X206823059Y-62883153D01*
X206823056Y-62883152D01*
X206823054Y-62883152D01*
X206525245Y-62843100D01*
X206299967Y-62843100D01*
X206299959Y-62843100D01*
X206075183Y-62858147D01*
X206075174Y-62858149D01*
X205780710Y-62918001D01*
X205496847Y-63016569D01*
X205496844Y-63016571D01*
X205228662Y-63152089D01*
X204980918Y-63322155D01*
X204758062Y-63523716D01*
X204758056Y-63523722D01*
X204752901Y-63529820D01*
X204694584Y-63568304D01*
X204624720Y-63569149D01*
X204565489Y-63532089D01*
X204535697Y-63468889D01*
X204541372Y-63408233D01*
X204542072Y-63406264D01*
X204640592Y-63129054D01*
X204640592Y-63129049D01*
X204640595Y-63129043D01*
X204684449Y-62918001D01*
X204700448Y-62841011D01*
X204720525Y-62547500D01*
X204700448Y-62253989D01*
X204672075Y-62117449D01*
X204640595Y-61965956D01*
X204640590Y-61965940D01*
X204600433Y-61852950D01*
X204542072Y-61688736D01*
X204406722Y-61427524D01*
X204406721Y-61427522D01*
X204406717Y-61427516D01*
X204237067Y-61187176D01*
X204036256Y-60972161D01*
X203808045Y-60786498D01*
X203556680Y-60633639D01*
X203556675Y-60633637D01*
X203286845Y-60516434D01*
X203003560Y-60437061D01*
X203003556Y-60437060D01*
X203003555Y-60437060D01*
X202843843Y-60415108D01*
X202712099Y-60397000D01*
X202712098Y-60397000D01*
X202417902Y-60397000D01*
X202417901Y-60397000D01*
X202126445Y-60437060D01*
X202126439Y-60437061D01*
X201843154Y-60516434D01*
X201573324Y-60633637D01*
X201573319Y-60633639D01*
X201321954Y-60786498D01*
X201093743Y-60972161D01*
X200892932Y-61187176D01*
X200723282Y-61427516D01*
X200723278Y-61427522D01*
X200587927Y-61688737D01*
X200489409Y-61965940D01*
X200489404Y-61965956D01*
X200429552Y-62253986D01*
X200429551Y-62253988D01*
X200409475Y-62547500D01*
X200429551Y-62841011D01*
X200429552Y-62841013D01*
X200489404Y-63129043D01*
X200489409Y-63129059D01*
X200587927Y-63406262D01*
X200723278Y-63667477D01*
X200723282Y-63667483D01*
X200873215Y-63879890D01*
X200895794Y-63946011D01*
X200879041Y-64013842D01*
X200828732Y-64061613D01*
X200683738Y-64136363D01*
X200514785Y-64269229D01*
X200514782Y-64269233D01*
X200374021Y-64431678D01*
X200266553Y-64617819D01*
X200196251Y-64820942D01*
X200196250Y-64820944D01*
X200165661Y-65033700D01*
X200165660Y-65033702D01*
X193529214Y-65033702D01*
X193524112Y-64926596D01*
X193473437Y-64717710D01*
X193384146Y-64522190D01*
X193259466Y-64347101D01*
X193259464Y-64347099D01*
X193259459Y-64347093D01*
X193103905Y-64198774D01*
X192923080Y-64082565D01*
X192723530Y-64002677D01*
X192512473Y-63962000D01*
X192512472Y-63962000D01*
X192351382Y-63962000D01*
X192191028Y-63977312D01*
X192191029Y-63977312D01*
X192191025Y-63977313D01*
X191984793Y-64037868D01*
X191793736Y-64136364D01*
X191624785Y-64269229D01*
X191624782Y-64269233D01*
X191484021Y-64431678D01*
X191376553Y-64617819D01*
X191306251Y-64820942D01*
X191306250Y-64820944D01*
X191275661Y-65033700D01*
X191275660Y-65033702D01*
X189572453Y-65033702D01*
X189573167Y-65012336D01*
X189543089Y-64713355D01*
X189539563Y-64698561D01*
X189512986Y-64587036D01*
X189473430Y-64421051D01*
X189365431Y-64140640D01*
X189221021Y-63877125D01*
X189042777Y-63635210D01*
X188833879Y-63419211D01*
X188833872Y-63419205D01*
X188598055Y-63232983D01*
X188598056Y-63232983D01*
X188598054Y-63232982D01*
X188339513Y-63079848D01*
X188062867Y-62962540D01*
X188062860Y-62962537D01*
X187773059Y-62883153D01*
X187773056Y-62883152D01*
X187773054Y-62883152D01*
X187475245Y-62843100D01*
X187249967Y-62843100D01*
X187249959Y-62843100D01*
X187025183Y-62858147D01*
X187025174Y-62858149D01*
X186730710Y-62918001D01*
X186446847Y-63016569D01*
X186446844Y-63016571D01*
X186178662Y-63152089D01*
X185930918Y-63322155D01*
X185708062Y-63523716D01*
X185708056Y-63523722D01*
X185702901Y-63529820D01*
X185644584Y-63568304D01*
X185574720Y-63569149D01*
X185515489Y-63532089D01*
X185485697Y-63468889D01*
X185491372Y-63408233D01*
X185492072Y-63406264D01*
X185590592Y-63129054D01*
X185590592Y-63129049D01*
X185590595Y-63129043D01*
X185634449Y-62918001D01*
X185650448Y-62841011D01*
X185670525Y-62547500D01*
X185650448Y-62253989D01*
X185622075Y-62117449D01*
X185590595Y-61965956D01*
X185590590Y-61965940D01*
X185550433Y-61852950D01*
X185492072Y-61688736D01*
X185356722Y-61427524D01*
X185356721Y-61427522D01*
X185356717Y-61427516D01*
X185187067Y-61187176D01*
X184986256Y-60972161D01*
X184758045Y-60786498D01*
X184506680Y-60633639D01*
X184506675Y-60633637D01*
X184236845Y-60516434D01*
X183953560Y-60437061D01*
X183953556Y-60437060D01*
X183953555Y-60437060D01*
X183793843Y-60415108D01*
X183662099Y-60397000D01*
X183662098Y-60397000D01*
X183367902Y-60397000D01*
X183367901Y-60397000D01*
X183076445Y-60437060D01*
X183076439Y-60437061D01*
X182793154Y-60516434D01*
X182523324Y-60633637D01*
X182523319Y-60633639D01*
X182271954Y-60786498D01*
X182043743Y-60972161D01*
X181842932Y-61187176D01*
X181673282Y-61427516D01*
X181673278Y-61427522D01*
X181537927Y-61688737D01*
X181439409Y-61965940D01*
X181439404Y-61965956D01*
X181379552Y-62253986D01*
X181379551Y-62253988D01*
X181359475Y-62547500D01*
X181379551Y-62841011D01*
X181379552Y-62841013D01*
X181439404Y-63129043D01*
X181439409Y-63129059D01*
X181537927Y-63406262D01*
X181673278Y-63667477D01*
X181673282Y-63667483D01*
X181823215Y-63879890D01*
X181845794Y-63946011D01*
X181829041Y-64013842D01*
X181778732Y-64061613D01*
X181633738Y-64136363D01*
X181464785Y-64269229D01*
X181464782Y-64269233D01*
X181324021Y-64431678D01*
X181216553Y-64617819D01*
X181146251Y-64820942D01*
X181146250Y-64820944D01*
X181115661Y-65033700D01*
X181115660Y-65033702D01*
X174479214Y-65033702D01*
X174474112Y-64926596D01*
X174423437Y-64717710D01*
X174334146Y-64522190D01*
X174209466Y-64347101D01*
X174209464Y-64347099D01*
X174209459Y-64347093D01*
X174053905Y-64198774D01*
X173873080Y-64082565D01*
X173673530Y-64002677D01*
X173462473Y-63962000D01*
X173462472Y-63962000D01*
X173301382Y-63962000D01*
X173141028Y-63977312D01*
X173141029Y-63977312D01*
X173141025Y-63977313D01*
X172934793Y-64037868D01*
X172743736Y-64136364D01*
X172574785Y-64269229D01*
X172574782Y-64269233D01*
X172434021Y-64431678D01*
X172326553Y-64617819D01*
X172256251Y-64820942D01*
X172256250Y-64820944D01*
X172225661Y-65033700D01*
X172225660Y-65033702D01*
X170522453Y-65033702D01*
X170523167Y-65012336D01*
X170493089Y-64713355D01*
X170489563Y-64698561D01*
X170462986Y-64587036D01*
X170423430Y-64421051D01*
X170315431Y-64140640D01*
X170171021Y-63877125D01*
X169992777Y-63635210D01*
X169783879Y-63419211D01*
X169783872Y-63419205D01*
X169548055Y-63232983D01*
X169548056Y-63232983D01*
X169548054Y-63232982D01*
X169289513Y-63079848D01*
X169012867Y-62962540D01*
X169012860Y-62962537D01*
X168723059Y-62883153D01*
X168723056Y-62883152D01*
X168723054Y-62883152D01*
X168425245Y-62843100D01*
X168199967Y-62843100D01*
X168199959Y-62843100D01*
X167975183Y-62858147D01*
X167975174Y-62858149D01*
X167680710Y-62918001D01*
X167396847Y-63016569D01*
X167396844Y-63016571D01*
X167128662Y-63152089D01*
X166880918Y-63322155D01*
X166658062Y-63523716D01*
X166658056Y-63523722D01*
X166652901Y-63529820D01*
X166594584Y-63568304D01*
X166524720Y-63569149D01*
X166465489Y-63532089D01*
X166435697Y-63468889D01*
X166441372Y-63408233D01*
X166442072Y-63406264D01*
X166540592Y-63129054D01*
X166540592Y-63129049D01*
X166540595Y-63129043D01*
X166584449Y-62918001D01*
X166600448Y-62841011D01*
X166620525Y-62547500D01*
X166600448Y-62253989D01*
X166572075Y-62117449D01*
X166540595Y-61965956D01*
X166540590Y-61965940D01*
X166500433Y-61852950D01*
X166442072Y-61688736D01*
X166306722Y-61427524D01*
X166306721Y-61427522D01*
X166306717Y-61427516D01*
X166137067Y-61187176D01*
X165936256Y-60972161D01*
X165708045Y-60786498D01*
X165456680Y-60633639D01*
X165456675Y-60633637D01*
X165186845Y-60516434D01*
X164903560Y-60437061D01*
X164903556Y-60437060D01*
X164903555Y-60437060D01*
X164743843Y-60415108D01*
X164612099Y-60397000D01*
X164612098Y-60397000D01*
X164317902Y-60397000D01*
X164317901Y-60397000D01*
X164026445Y-60437060D01*
X164026439Y-60437061D01*
X163743154Y-60516434D01*
X163473324Y-60633637D01*
X163473319Y-60633639D01*
X163221954Y-60786498D01*
X162993743Y-60972161D01*
X162792932Y-61187176D01*
X162623282Y-61427516D01*
X162623278Y-61427522D01*
X162487927Y-61688737D01*
X162389409Y-61965940D01*
X162389404Y-61965956D01*
X162329552Y-62253986D01*
X162329551Y-62253988D01*
X162309475Y-62547500D01*
X162329551Y-62841011D01*
X162329552Y-62841013D01*
X162389404Y-63129043D01*
X162389409Y-63129059D01*
X162487927Y-63406262D01*
X162623278Y-63667477D01*
X162623282Y-63667483D01*
X162773215Y-63879890D01*
X162795794Y-63946011D01*
X162779041Y-64013842D01*
X162728732Y-64061613D01*
X162583738Y-64136363D01*
X162414785Y-64269229D01*
X162414782Y-64269233D01*
X162274021Y-64431678D01*
X162166553Y-64617819D01*
X162096251Y-64820942D01*
X162096250Y-64820944D01*
X162065661Y-65033700D01*
X162065660Y-65033702D01*
X158750500Y-65033702D01*
X158750500Y-60007500D01*
X168659976Y-60007500D01*
X168680047Y-60300936D01*
X168739890Y-60588921D01*
X168739891Y-60588924D01*
X168838386Y-60866060D01*
X168838385Y-60866060D01*
X168973706Y-61127216D01*
X169125991Y-61342953D01*
X169591388Y-60877555D01*
X169707632Y-61026904D01*
X169890523Y-61195268D01*
X169945116Y-61230935D01*
X169481658Y-61694394D01*
X169572240Y-61768090D01*
X169572246Y-61768094D01*
X169823550Y-61920915D01*
X170093322Y-62038093D01*
X170376541Y-62117448D01*
X170376547Y-62117449D01*
X170667935Y-62157500D01*
X170962065Y-62157500D01*
X171253452Y-62117449D01*
X171253458Y-62117448D01*
X171536677Y-62038093D01*
X171806449Y-61920915D01*
X172057753Y-61768094D01*
X172057767Y-61768084D01*
X172148340Y-61694395D01*
X172148341Y-61694394D01*
X171684883Y-61230935D01*
X171739477Y-61195268D01*
X171922368Y-61026904D01*
X172038610Y-60877556D01*
X172504007Y-61342953D01*
X172504008Y-61342953D01*
X172656293Y-61127216D01*
X172791613Y-60866060D01*
X172890108Y-60588924D01*
X172890109Y-60588921D01*
X172949952Y-60300936D01*
X172970023Y-60007499D01*
X187709976Y-60007499D01*
X187730047Y-60300936D01*
X187789890Y-60588921D01*
X187789891Y-60588924D01*
X187888386Y-60866060D01*
X187888385Y-60866060D01*
X188023706Y-61127216D01*
X188175991Y-61342953D01*
X188641388Y-60877555D01*
X188757632Y-61026904D01*
X188940523Y-61195268D01*
X188995116Y-61230935D01*
X188531658Y-61694394D01*
X188622240Y-61768090D01*
X188622246Y-61768094D01*
X188873550Y-61920915D01*
X189143322Y-62038093D01*
X189426541Y-62117448D01*
X189426547Y-62117449D01*
X189717935Y-62157500D01*
X190012065Y-62157500D01*
X190303452Y-62117449D01*
X190303458Y-62117448D01*
X190586677Y-62038093D01*
X190856449Y-61920915D01*
X191107753Y-61768094D01*
X191107767Y-61768084D01*
X191198340Y-61694395D01*
X191198341Y-61694394D01*
X190734883Y-61230935D01*
X190789477Y-61195268D01*
X190972368Y-61026904D01*
X191088610Y-60877556D01*
X191554007Y-61342953D01*
X191554008Y-61342953D01*
X191706293Y-61127216D01*
X191841613Y-60866060D01*
X191940108Y-60588924D01*
X191940109Y-60588921D01*
X191999952Y-60300936D01*
X192020023Y-60007500D01*
X206759976Y-60007500D01*
X206780047Y-60300936D01*
X206839890Y-60588921D01*
X206839891Y-60588924D01*
X206938386Y-60866060D01*
X206938385Y-60866060D01*
X207073706Y-61127216D01*
X207225991Y-61342953D01*
X207691388Y-60877555D01*
X207807632Y-61026904D01*
X207990523Y-61195268D01*
X208045116Y-61230935D01*
X207581658Y-61694394D01*
X207672240Y-61768090D01*
X207672246Y-61768094D01*
X207923550Y-61920915D01*
X208193322Y-62038093D01*
X208476541Y-62117448D01*
X208476547Y-62117449D01*
X208767935Y-62157500D01*
X209062065Y-62157500D01*
X209353452Y-62117449D01*
X209353458Y-62117448D01*
X209636677Y-62038093D01*
X209906449Y-61920915D01*
X210157753Y-61768094D01*
X210157767Y-61768084D01*
X210248340Y-61694395D01*
X210248341Y-61694394D01*
X209784883Y-61230935D01*
X209839477Y-61195268D01*
X210022368Y-61026904D01*
X210138610Y-60877556D01*
X210604007Y-61342953D01*
X210604008Y-61342953D01*
X210756293Y-61127216D01*
X210891613Y-60866060D01*
X210990108Y-60588924D01*
X210990109Y-60588921D01*
X211049952Y-60300936D01*
X211070023Y-60007500D01*
X211049952Y-59714063D01*
X210990109Y-59426078D01*
X210990108Y-59426075D01*
X210891613Y-59148939D01*
X210891614Y-59148939D01*
X210756293Y-58887783D01*
X210604007Y-58672045D01*
X210138609Y-59137442D01*
X210022368Y-58988096D01*
X209839477Y-58819732D01*
X209784882Y-58784063D01*
X210248341Y-58320604D01*
X210157756Y-58246907D01*
X209906449Y-58094084D01*
X209636677Y-57976906D01*
X209353458Y-57897551D01*
X209353452Y-57897550D01*
X209062065Y-57857500D01*
X208767935Y-57857500D01*
X208476547Y-57897550D01*
X208476541Y-57897551D01*
X208193322Y-57976906D01*
X207923550Y-58094084D01*
X207672243Y-58246907D01*
X207581657Y-58320604D01*
X208045117Y-58784063D01*
X207990523Y-58819732D01*
X207807632Y-58988096D01*
X207691390Y-59137442D01*
X207225991Y-58672044D01*
X207225990Y-58672045D01*
X207073710Y-58887776D01*
X207073706Y-58887782D01*
X206938386Y-59148939D01*
X206839891Y-59426075D01*
X206839890Y-59426078D01*
X206780047Y-59714063D01*
X206759976Y-60007500D01*
X192020023Y-60007500D01*
X191999952Y-59714063D01*
X191940109Y-59426078D01*
X191940108Y-59426075D01*
X191841613Y-59148939D01*
X191841614Y-59148939D01*
X191706293Y-58887783D01*
X191554007Y-58672045D01*
X191088609Y-59137442D01*
X190972368Y-58988096D01*
X190789477Y-58819732D01*
X190734881Y-58784063D01*
X191198341Y-58320604D01*
X191107756Y-58246907D01*
X190856449Y-58094084D01*
X190586677Y-57976906D01*
X190303458Y-57897551D01*
X190303452Y-57897550D01*
X190012065Y-57857500D01*
X189717935Y-57857500D01*
X189426547Y-57897550D01*
X189426541Y-57897551D01*
X189143322Y-57976906D01*
X188873550Y-58094084D01*
X188622243Y-58246907D01*
X188531657Y-58320604D01*
X188995116Y-58784064D01*
X188940523Y-58819732D01*
X188757632Y-58988096D01*
X188641389Y-59137442D01*
X188175991Y-58672044D01*
X188175990Y-58672045D01*
X188023710Y-58887776D01*
X188023706Y-58887782D01*
X187888386Y-59148939D01*
X187789891Y-59426075D01*
X187789890Y-59426078D01*
X187730047Y-59714063D01*
X187709976Y-60007499D01*
X172970023Y-60007499D01*
X172949952Y-59714063D01*
X172890109Y-59426078D01*
X172890108Y-59426075D01*
X172791613Y-59148939D01*
X172791614Y-59148939D01*
X172656293Y-58887783D01*
X172504007Y-58672045D01*
X172038609Y-59137442D01*
X171922368Y-58988096D01*
X171739477Y-58819732D01*
X171684882Y-58784063D01*
X172148341Y-58320604D01*
X172057756Y-58246907D01*
X171806449Y-58094084D01*
X171536677Y-57976906D01*
X171253458Y-57897551D01*
X171253452Y-57897550D01*
X170962065Y-57857500D01*
X170667935Y-57857500D01*
X170376547Y-57897550D01*
X170376541Y-57897551D01*
X170093322Y-57976906D01*
X169823550Y-58094084D01*
X169572243Y-58246907D01*
X169481657Y-58320604D01*
X169945117Y-58784063D01*
X169890523Y-58819732D01*
X169707632Y-58988096D01*
X169591389Y-59137443D01*
X169125991Y-58672045D01*
X169125990Y-58672045D01*
X168973710Y-58887776D01*
X168973706Y-58887782D01*
X168838386Y-59148939D01*
X168739891Y-59426075D01*
X168739890Y-59426078D01*
X168680047Y-59714063D01*
X168659976Y-60007500D01*
X158750500Y-60007500D01*
X158750500Y-57152210D01*
X158750658Y-57147787D01*
X158755487Y-57080260D01*
X158768082Y-56920247D01*
X158769303Y-56911962D01*
X158790737Y-56813434D01*
X158790957Y-56812472D01*
X158820869Y-56687876D01*
X158823058Y-56680708D01*
X158860429Y-56580512D01*
X158861194Y-56578567D01*
X158907811Y-56466022D01*
X158910663Y-56460060D01*
X158963075Y-56364076D01*
X158964533Y-56361557D01*
X159026989Y-56259639D01*
X159030200Y-56254907D01*
X159096337Y-56166557D01*
X159098756Y-56163534D01*
X159175805Y-56073322D01*
X159179063Y-56069797D01*
X159257297Y-55991563D01*
X159260822Y-55988305D01*
X159351034Y-55911256D01*
X159354057Y-55908837D01*
X159442407Y-55842700D01*
X159447139Y-55839489D01*
X159549057Y-55777033D01*
X159551576Y-55775575D01*
X159647560Y-55723163D01*
X159653522Y-55720311D01*
X159766067Y-55673694D01*
X159768012Y-55672929D01*
X159868208Y-55635558D01*
X159875376Y-55633369D01*
X159999972Y-55603457D01*
X160000934Y-55603237D01*
X160099462Y-55581803D01*
X160107747Y-55580582D01*
X160267782Y-55567986D01*
X160335292Y-55563157D01*
X160339713Y-55563000D01*
X234947787Y-55563000D01*
X234952207Y-55563157D01*
G37*
%TD.AperFunction*%
%TD*%
M02*
