%TF.GenerationSoftware,KiCad,Pcbnew,7.0.5*%
%TF.CreationDate,2023-06-14T14:40:25+08:00*%
%TF.ProjectId,Macropad,4d616372-6f70-4616-942e-6b696361645f,rev?*%
%TF.SameCoordinates,Original*%
%TF.FileFunction,Soldermask,Top*%
%TF.FilePolarity,Negative*%
%FSLAX46Y46*%
G04 Gerber Fmt 4.6, Leading zero omitted, Abs format (unit mm)*
G04 Created by KiCad (PCBNEW 7.0.5) date 2023-06-14 14:40:25*
%MOMM*%
%LPD*%
G01*
G04 APERTURE LIST*
%ADD10R,1.752600X1.752600*%
%ADD11C,1.752600*%
%ADD12C,1.750000*%
%ADD13C,3.987800*%
%ADD14C,3.300000*%
G04 APERTURE END LIST*
D10*
%TO.C,U1*%
X217805000Y-60642500D03*
D11*
X217805000Y-63182500D03*
X217805000Y-65722500D03*
X217805000Y-68262500D03*
X217805000Y-70802500D03*
X217805000Y-73342500D03*
X217805000Y-75882500D03*
X217805000Y-78422500D03*
X217805000Y-80962500D03*
X217805000Y-83502500D03*
X217805000Y-86042500D03*
X217805000Y-88582500D03*
X233045000Y-88582500D03*
X233045000Y-86042500D03*
X233045000Y-83502500D03*
X233045000Y-80962500D03*
X233045000Y-78422500D03*
X233045000Y-75882500D03*
X233045000Y-73342500D03*
X233045000Y-70802500D03*
X233045000Y-68262500D03*
X233045000Y-65722500D03*
X233045000Y-63182500D03*
X233045000Y-60642500D03*
%TD*%
D12*
%TO.C,MX10*%
X230505000Y-103187500D03*
D13*
X225425000Y-103187500D03*
D12*
X220345000Y-103187500D03*
D14*
X221615000Y-100647500D03*
X227965000Y-98107500D03*
%TD*%
D12*
%TO.C,MX3*%
X211455000Y-65087500D03*
D13*
X206375000Y-65087500D03*
D12*
X201295000Y-65087500D03*
D14*
X202565000Y-62547500D03*
X208915000Y-60007500D03*
%TD*%
D12*
%TO.C,MX9*%
X211455000Y-103187500D03*
D13*
X206375000Y-103187500D03*
D12*
X201295000Y-103187500D03*
D14*
X202565000Y-100647500D03*
X208915000Y-98107500D03*
%TD*%
D12*
%TO.C,MX4*%
X173355000Y-84137500D03*
D13*
X168275000Y-84137500D03*
D12*
X163195000Y-84137500D03*
D14*
X164465000Y-81597500D03*
X170815000Y-79057500D03*
%TD*%
D12*
%TO.C,MX5*%
X192405000Y-84137500D03*
D13*
X187325000Y-84137500D03*
D12*
X182245000Y-84137500D03*
D14*
X183515000Y-81597500D03*
X189865000Y-79057500D03*
%TD*%
D12*
%TO.C,MX2*%
X192405000Y-65087500D03*
D13*
X187325000Y-65087500D03*
D12*
X182245000Y-65087500D03*
D14*
X183515000Y-62547500D03*
X189865000Y-60007500D03*
%TD*%
D12*
%TO.C,MX8*%
X192405000Y-103187500D03*
D13*
X187325000Y-103187500D03*
D12*
X182245000Y-103187500D03*
D14*
X183515000Y-100647500D03*
X189865000Y-98107500D03*
%TD*%
D12*
%TO.C,MX7*%
X173355000Y-103187500D03*
D13*
X168275000Y-103187500D03*
D12*
X163195000Y-103187500D03*
D14*
X164465000Y-100647500D03*
X170815000Y-98107500D03*
%TD*%
D12*
%TO.C,MX1*%
X173355000Y-65087500D03*
D13*
X168275000Y-65087500D03*
D12*
X163195000Y-65087500D03*
D14*
X164465000Y-62547500D03*
X170815000Y-60007500D03*
%TD*%
D12*
%TO.C,MX6*%
X211455000Y-84137500D03*
D13*
X206375000Y-84137500D03*
D12*
X201295000Y-84137500D03*
D14*
X202565000Y-81597500D03*
X208915000Y-79057500D03*
%TD*%
M02*
